<svg width="907" height="98" viewBox="0 0 907 98" fill="none" xmlns="http://www.w3.org/2000/svg">
  <path d="M125.027 57H126.119V53.232H129.071V52.344H126.119V49.524H129.755V48.636H125.027V57ZM137.526 53.7C137.526 51.624 136.074 50.316 134.202 50.316C132.342 50.316 130.878 51.624 130.878 53.7C130.878 55.788 132.294 57.108 134.154 57.108C136.026 57.108 137.526 55.788 137.526 53.7ZM131.994 53.7C131.994 52.044 133.038 51.264 134.19 51.264C135.318 51.264 136.41 52.044 136.41 53.7C136.41 55.368 135.294 56.148 134.154 56.148C133.014 56.148 131.994 55.368 131.994 53.7ZM140.265 53.424C140.265 51.9 141.057 51.432 142.101 51.432H142.389V50.304C141.345 50.304 140.637 50.76 140.265 51.492V50.424H139.173V57H140.265V53.424ZM153.354 57H154.434V53.124C154.434 51.24 153.27 50.304 151.77 50.304C150.762 50.304 149.826 50.82 149.442 51.768C149.01 50.784 148.11 50.304 147.03 50.304C146.166 50.304 145.386 50.676 144.954 51.372V50.424H143.862V57H144.954V53.376C144.954 51.96 145.71 51.252 146.814 51.252C147.894 51.252 148.614 51.936 148.614 53.28V57H149.694V53.376C149.694 51.96 150.45 51.252 151.554 51.252C152.634 51.252 153.354 51.936 153.354 53.28V57ZM162.269 50.424H161.177V54.036C161.177 55.452 160.421 56.148 159.293 56.148C158.189 56.148 157.457 55.464 157.457 54.132V50.424H156.377V54.276C156.377 56.16 157.565 57.096 159.077 57.096C159.953 57.096 160.757 56.712 161.177 56.028V57H162.269V50.424ZM164.324 57H165.416V48.12H164.324V57ZM167.081 53.688C167.081 55.728 168.437 57.108 170.189 57.108C171.401 57.108 172.253 56.484 172.649 55.776V57H173.753V50.424H172.649V51.624C172.265 50.94 171.425 50.316 170.201 50.316C168.437 50.316 167.081 51.636 167.081 53.688ZM172.649 53.7C172.649 55.248 171.617 56.148 170.417 56.148C169.217 56.148 168.197 55.236 168.197 53.688C168.197 52.14 169.217 51.264 170.417 51.264C171.617 51.264 172.649 52.176 172.649 53.7ZM176.903 53.424C176.903 51.9 177.695 51.432 178.739 51.432H179.027V50.304C177.983 50.304 177.275 50.76 176.903 51.492V50.424H175.811V57H176.903V53.424ZM180.499 57H181.591V50.424H180.499V57ZM181.063 49.356C181.459 49.356 181.783 49.032 181.783 48.612C181.783 48.192 181.459 47.868 181.063 47.868C180.643 47.868 180.319 48.192 180.319 48.612C180.319 49.032 180.643 49.356 181.063 49.356ZM189.904 53.7C189.904 51.624 188.452 50.316 186.58 50.316C184.72 50.316 183.256 51.624 183.256 53.7C183.256 55.788 184.672 57.108 186.532 57.108C188.404 57.108 189.904 55.788 189.904 53.7ZM184.372 53.7C184.372 52.044 185.416 51.264 186.568 51.264C187.696 51.264 188.788 52.044 188.788 53.7C188.788 55.368 187.672 56.148 186.532 56.148C185.392 56.148 184.372 55.368 184.372 53.7ZM196.279 55.212C196.231 52.86 192.415 53.712 192.415 52.152C192.415 51.624 192.895 51.24 193.699 51.24C194.575 51.24 195.079 51.72 195.127 52.38H196.219C196.147 51.096 195.187 50.316 193.735 50.316C192.271 50.316 191.323 51.144 191.323 52.152C191.323 54.6 195.211 53.748 195.211 55.212C195.211 55.752 194.731 56.184 193.867 56.184C192.943 56.184 192.379 55.704 192.319 55.068H191.191C191.263 56.268 192.343 57.108 193.879 57.108C195.331 57.108 196.279 56.292 196.279 55.212ZM127.104 64.812C127.104 67.32 128.94 69.072 131.28 69.072C133.092 69.072 134.532 68.172 135.156 66.564H133.848C133.392 67.56 132.504 68.124 131.28 68.124C129.528 68.124 128.22 66.852 128.22 64.812C128.22 62.76 129.528 61.488 131.28 61.488C132.504 61.488 133.392 62.052 133.848 63.06H135.156C134.532 61.44 133.092 60.528 131.28 60.528C128.94 60.528 127.104 62.304 127.104 64.812ZM143.234 65.7C143.234 63.624 141.782 62.316 139.91 62.316C138.05 62.316 136.586 63.624 136.586 65.7C136.586 67.788 138.002 69.108 139.862 69.108C141.734 69.108 143.234 67.788 143.234 65.7ZM137.702 65.7C137.702 64.044 138.746 63.264 139.898 63.264C141.026 63.264 142.118 64.044 142.118 65.7C142.118 67.368 141.002 68.148 139.862 68.148C138.722 68.148 137.702 67.368 137.702 65.7ZM154.373 69H155.453V65.124C155.453 63.24 154.289 62.304 152.789 62.304C151.781 62.304 150.845 62.82 150.461 63.768C150.029 62.784 149.129 62.304 148.049 62.304C147.185 62.304 146.405 62.676 145.973 63.372V62.424H144.881V69H145.973V65.376C145.973 63.96 146.729 63.252 147.833 63.252C148.913 63.252 149.633 63.936 149.633 65.28V69H150.713V65.376C150.713 63.96 151.469 63.252 152.573 63.252C153.653 63.252 154.373 63.936 154.373 65.28V69ZM158.548 63.636V62.424H157.456V72.12H158.548V67.788C158.956 68.46 159.808 69.108 161.008 69.108C162.772 69.108 164.128 67.728 164.128 65.688C164.128 63.636 162.772 62.316 161.008 62.316C159.808 62.316 158.944 62.94 158.548 63.636ZM163.012 65.688C163.012 67.236 161.992 68.148 160.78 68.148C159.592 68.148 158.548 67.248 158.548 65.7C158.548 64.176 159.592 63.264 160.78 63.264C161.992 63.264 163.012 64.14 163.012 65.688ZM165.778 69H166.87V60.12H165.778V69ZM171.738 63.24C172.866 63.24 173.826 63.948 173.814 65.232H169.662C169.782 63.948 170.67 63.24 171.738 63.24ZM174.81 66.972H173.634C173.394 67.68 172.77 68.184 171.786 68.184C170.67 68.184 169.734 67.452 169.65 66.12H174.906C174.93 65.892 174.942 65.7 174.942 65.46C174.942 63.66 173.694 62.316 171.786 62.316C169.866 62.316 168.534 63.624 168.534 65.7C168.534 67.788 169.914 69.108 171.786 69.108C173.418 69.108 174.474 68.172 174.81 66.972ZM176.836 67.2C176.836 68.52 177.496 69 178.66 69H179.644V68.076H178.84C178.168 68.076 177.928 67.848 177.928 67.2V63.324H179.644V62.424H177.928V60.768H176.836V62.424H175.984V63.324H176.836V67.2ZM187.419 65.7C187.419 63.624 185.967 62.316 184.095 62.316C182.235 62.316 180.771 63.624 180.771 65.7C180.771 67.788 182.187 69.108 184.047 69.108C185.919 69.108 187.419 67.788 187.419 65.7ZM181.887 65.7C181.887 64.044 182.931 63.264 184.083 63.264C185.211 63.264 186.303 64.044 186.303 65.7C186.303 67.368 185.187 68.148 184.047 68.148C182.907 68.148 181.887 67.368 181.887 65.7ZM193.794 67.212C193.746 64.86 189.93 65.712 189.93 64.152C189.93 63.624 190.41 63.24 191.214 63.24C192.09 63.24 192.594 63.72 192.642 64.38H193.734C193.662 63.096 192.702 62.316 191.25 62.316C189.786 62.316 188.838 63.144 188.838 64.152C188.838 66.6 192.726 65.748 192.726 67.212C192.726 67.752 192.246 68.184 191.382 68.184C190.458 68.184 189.894 67.704 189.834 67.068H188.706C188.778 68.268 189.858 69.108 191.394 69.108C192.846 69.108 193.794 68.292 193.794 67.212Z" fill="#004357"/>
  <path d="M173.385 40.2522H172.607C172.385 40.4477 172.135 40.6432 171.885 40.8107H173.607C173.773 40.8107 173.94 40.6711 173.94 40.4756V38.7443C173.773 38.9956 173.579 39.219 173.385 39.4703V40.2522Z" fill="#004357"/>
  <path d="M151.305 11.4047C150.028 11.4047 149 12.438 149 13.7225C149 15.0071 150.028 16.0403 151.305 16.0403C152.583 16.0403 153.61 15.0071 153.61 13.7225C153.61 12.438 152.583 11.4047 151.305 11.4047ZM151.305 15.789C150.194 15.789 149.278 14.8674 149.278 13.7504C149.278 12.6334 150.194 11.7119 151.305 11.7119C152.416 11.7119 153.333 12.6334 153.333 13.7504C153.333 14.8674 152.416 15.789 151.305 15.789Z" fill="#004357"/>
  <path d="M152.221 12.3268L150.721 13.8347L150.11 12.997C150.054 12.9411 149.971 12.8853 149.888 12.9132C149.804 12.9132 149.721 12.969 149.693 13.0528L149.499 13.4438C149.471 13.5275 149.471 13.6113 149.526 13.6951L150.499 15.1472C150.526 15.203 150.61 15.231 150.665 15.2589H150.693C150.749 15.2589 150.804 15.231 150.86 15.203L152.97 13.1645C153.026 13.1087 153.054 13.0528 153.054 12.997C153.054 12.9411 153.026 12.8573 152.998 12.8294L152.554 12.3826C152.471 12.215 152.332 12.215 152.221 12.3268ZM150.749 14.8959L149.804 13.4996L149.971 13.1924L150.554 14.0023C150.582 14.0581 150.665 14.086 150.721 14.114C150.804 14.114 150.86 14.086 150.915 14.0581L152.415 12.5502L152.804 12.9411L150.749 14.8959Z" fill="#004357"/>
  <path d="M151.305 18.1901C150.028 18.1901 149 19.2234 149 20.5079C149 21.7925 150.028 22.8257 151.305 22.8257C152.583 22.8257 153.61 21.7925 153.61 20.5079C153.61 19.2234 152.583 18.1901 151.305 18.1901ZM151.305 22.5744C150.194 22.5744 149.278 21.6529 149.278 20.5358C149.278 19.4188 150.194 18.4973 151.305 18.4973C152.416 18.4973 153.333 19.4188 153.333 20.5358C153.333 21.6529 152.416 22.5744 151.305 22.5744Z" fill="#004357"/>
  <path d="M152.221 19.1122L150.721 20.6201L150.11 19.7824C150.054 19.7265 149.971 19.6707 149.888 19.6986C149.804 19.6986 149.721 19.7544 149.693 19.8382L149.499 20.2292C149.471 20.3129 149.471 20.3967 149.526 20.4805L150.499 21.9326C150.526 21.9884 150.61 22.0164 150.665 22.0443H150.693C150.749 22.0443 150.804 22.0164 150.86 21.9884L152.97 19.9499C153.026 19.8941 153.054 19.8382 153.054 19.7824C153.054 19.7265 153.026 19.6427 152.998 19.6148L152.554 19.168C152.471 19.0004 152.332 19.0004 152.221 19.1122ZM150.749 21.7092L149.804 20.3129L149.971 20.0058L150.554 20.8156C150.582 20.8714 150.665 20.8994 150.721 20.9273C150.804 20.9273 150.86 20.8994 150.915 20.8714L152.415 19.3635L152.804 19.7544L150.749 21.7092Z" fill="#004357"/>
  <path d="M151.305 24.4445C150.028 24.4445 149 25.4777 149 26.7622C149 28.0468 150.028 29.08 151.305 29.08C152.583 29.08 153.61 28.0468 153.61 26.7622C153.61 25.4777 152.583 24.4445 151.305 24.4445ZM151.305 28.8008C150.194 28.8008 149.278 27.8793 149.278 26.7622C149.278 25.6452 150.194 24.7237 151.305 24.7237C152.416 24.7237 153.333 25.6452 153.333 26.7622C153.333 27.8793 152.416 28.8008 151.305 28.8008Z" fill="#004357"/>
  <path d="M152.22 25.3413L150.72 26.8493L150.109 26.0115C150.054 25.9557 149.97 25.8998 149.887 25.8998C149.804 25.8998 149.72 25.9557 149.693 26.0395L149.526 26.4583C149.498 26.5421 149.498 26.6259 149.554 26.7097L150.554 28.1339C150.581 28.1897 150.665 28.2176 150.72 28.2456H150.748C150.804 28.2456 150.859 28.2176 150.915 28.1897L153.026 26.1512C153.081 26.0953 153.109 26.0395 153.109 25.9836C153.109 25.9278 153.081 25.844 153.053 25.8161L152.553 25.3413C152.47 25.2576 152.331 25.2576 152.22 25.3413ZM150.748 27.9384L149.804 26.5421L149.97 26.2349L150.554 27.0448C150.581 27.1006 150.665 27.1285 150.72 27.1565C150.804 27.1565 150.859 27.1285 150.915 27.1006L152.415 25.5927L152.803 25.9836L150.748 27.9384Z" fill="#004357"/>
  <path d="M151.305 30.7028C150.028 30.7028 149 31.736 149 33.0206C149 34.3051 150.028 35.3383 151.305 35.3383C152.583 35.3383 153.61 34.3051 153.61 33.0206C153.61 31.736 152.583 30.7028 151.305 30.7028ZM151.305 35.0591C150.194 35.0591 149.278 34.1376 149.278 33.0206C149.278 31.9035 150.194 30.982 151.305 30.982C152.416 30.982 153.333 31.9035 153.333 33.0206C153.333 34.1376 152.416 35.0591 151.305 35.0591Z" fill="#004357"/>
  <path d="M152.221 31.5945L150.721 33.1025L150.11 32.2647C150.054 32.2089 149.971 32.153 149.888 32.153C149.804 32.153 149.721 32.2089 149.693 32.2926L149.499 32.6836C149.471 32.7674 149.471 32.8511 149.526 32.9349L150.499 34.387C150.526 34.4429 150.61 34.4708 150.665 34.4987H150.693C150.749 34.4987 150.804 34.4708 150.86 34.4429L152.97 32.4043C153.026 32.3485 153.054 32.2926 153.054 32.2368C153.054 32.1809 153.026 32.0972 152.998 32.0692L152.554 31.6224C152.471 31.5107 152.332 31.5107 152.221 31.5945ZM150.749 34.1915L149.804 32.7953L149.971 32.4881L150.554 33.2979C150.582 33.3538 150.665 33.3817 150.721 33.4096C150.804 33.4096 150.86 33.3817 150.915 33.3538L152.415 31.8458L152.804 32.2368L150.749 34.1915Z" fill="#004357"/>
  <path d="M154.638 14.4765H168.831C169.247 14.4765 169.553 14.1414 169.553 13.7504C169.553 13.3595 169.219 13.0244 168.831 13.0244H154.638C154.249 13.0244 153.916 13.3595 153.916 13.7504C153.916 14.1414 154.249 14.4765 154.638 14.4765ZM154.638 13.2757H168.831C169.081 13.2757 169.275 13.4712 169.275 13.7225C169.275 13.9738 169.081 14.1693 168.831 14.1693H154.638C154.388 14.1693 154.194 13.9738 154.194 13.7225C154.194 13.4712 154.388 13.2757 154.638 13.2757Z" fill="#004357"/>
  <path d="M154.749 27.2106C154.5 27.2106 154.305 27.0152 154.305 26.7638C154.305 26.5125 154.5 26.317 154.749 26.317H164.193C164.47 26.2053 164.748 26.1216 165.026 26.0378H154.749C154.333 26.0378 154.027 26.3729 154.027 26.7638C154.027 27.1548 154.361 27.4899 154.749 27.4899H162.137C162.248 27.4061 162.387 27.2944 162.526 27.2106H154.749Z" fill="#004357"/>
  <path d="M154.749 33.465C154.5 33.465 154.305 33.2695 154.305 33.0182C154.305 32.7668 154.5 32.5714 154.749 32.5714H159.082C159.11 32.4876 159.11 32.3759 159.138 32.2921H154.749C154.333 32.2921 154.027 32.6272 154.027 33.0182C154.027 33.4091 154.361 33.7442 154.749 33.7442H158.971C158.971 33.6604 158.971 33.5487 158.999 33.465H154.749Z" fill="#004357"/>
  <path d="M154.638 21.2619H168.831C169.247 21.2619 169.553 20.9268 169.553 20.5358C169.553 20.1449 169.219 19.8098 168.831 19.8098H154.638C154.249 19.8098 153.916 20.1449 153.916 20.5358C153.916 20.9268 154.249 21.2619 154.638 21.2619ZM154.638 20.0611H168.831C169.081 20.0611 169.275 20.2566 169.275 20.5079C169.275 20.7592 169.081 20.9547 168.831 20.9547H154.638C154.388 20.9547 154.194 20.7592 154.194 20.5079C154.194 20.2566 154.388 20.0611 154.638 20.0611Z" fill="#004357"/>
  <path d="M145.333 6.37854C145.167 6.37854 145 6.51817 145 6.71364V40.5031C145 40.6707 145.139 40.8382 145.333 40.8382H162.47C162.22 40.6707 161.998 40.4752 161.748 40.2797H145.555V6.93704H148.666V6.37854H145.333Z" fill="#004357"/>
  <path d="M173.607 6.37854H170.385V6.93704H173.384V28.5791C173.579 28.8025 173.773 29.0538 173.94 29.3051V6.68572C173.94 6.51817 173.801 6.37854 173.607 6.37854Z" fill="#004357"/>
  <path d="M169.829 9.11519V8.94764H149.221V7.43968H148.665V7.21628C148.054 7.38383 147.582 7.97026 147.582 8.64047V37.6827C147.582 38.4925 148.249 39.1627 149.054 39.1627H160.719C160.58 38.9952 160.441 38.7997 160.33 38.6042H149.054C148.554 38.6042 148.138 38.1853 148.138 37.6827V8.64047C148.138 8.27744 148.36 7.97026 148.665 7.80271V9.50615H170.412V7.71893C170.884 7.74686 171.245 8.13781 171.245 8.61254V26.7918C171.44 26.9035 171.634 27.0152 171.801 27.1269V8.64047C171.801 7.85856 171.162 7.21628 170.384 7.18835V9.14312H169.829V9.11519Z" fill="#004357"/>
  <path d="M159.692 3.5585C161.192 3.5585 162.525 4.50796 163.053 5.8763H163.636C163.108 4.17286 161.497 3 159.692 3C157.887 3 156.304 4.17286 155.748 5.8763H156.331C156.859 4.50796 158.22 3.5585 159.692 3.5585Z" fill="#004357"/>
  <path d="M159.691 4.28638C158.608 4.28638 157.636 4.90073 157.164 5.87811H157.803C158.219 5.23583 158.914 4.84488 159.664 4.84488C160.441 4.84488 161.136 5.23583 161.525 5.87811H162.163C161.747 4.90073 160.775 4.28638 159.691 4.28638Z" fill="#004357"/>
  <path d="M170.135 6.37967H170.413V5.87702H163.692C163.72 5.93287 163.747 6.01664 163.747 6.07249L163.22 6.21212C163.192 6.10042 163.136 5.98872 163.108 5.84909H162.247C162.275 5.90494 162.303 5.96079 162.331 6.01664L161.803 6.21212C161.748 6.07249 161.692 5.96079 161.609 5.82117H157.859C157.776 5.93287 157.72 6.07249 157.665 6.21212L157.137 6.01664C157.165 5.96079 157.193 5.90494 157.22 5.84909H156.359C156.304 5.96079 156.276 6.07249 156.248 6.21212L155.693 6.07249C155.721 6.01664 155.748 5.93287 155.748 5.87702H148.666V6.37967H148.916V6.93818H148.666V7.21743C148.749 7.1895 148.833 7.1895 148.916 7.16158L149.221 7.13365V6.43552H169.83V8.94879H169.858V7.16158H170.33C170.357 7.16158 170.357 7.16158 170.385 7.16158V6.91025H170.108V6.37967H170.135Z" fill="#004357"/>
  <path d="M148.916 6.3783H148.666V6.9368H148.916V6.3783Z" fill="#004357"/>
  <path d="M170.413 6.3783H170.135V6.9368H170.413V6.3783Z" fill="#004357"/>
  <path d="M149.221 7.43871V7.13153L148.916 7.15946C148.833 7.15946 148.749 7.18738 148.666 7.21531V7.43871H149.221Z" fill="#004357"/>
  <path d="M170.386 9.11663V7.16187C170.358 7.16187 170.358 7.16187 170.33 7.16187H169.858V8.94908H169.83V9.11663H170.386Z" fill="#004357"/>
  <path d="M156.221 6.23846C156.249 6.12675 156.304 6.01505 156.332 5.87543H155.749C155.721 5.93128 155.693 6.01505 155.693 6.0709L156.221 6.23846Z" fill="#004357"/>
  <path d="M163.193 6.23879L163.721 6.09916C163.693 6.04331 163.665 5.95954 163.665 5.90369H163.082C163.11 5.98746 163.165 6.09916 163.193 6.23879Z" fill="#004357"/>
  <path d="M161.776 6.26671L162.304 6.07124C162.276 6.01539 162.249 5.95954 162.221 5.90369H161.582C161.665 5.98746 161.721 6.12709 161.776 6.26671Z" fill="#004357"/>
  <path d="M157.109 6.04466L157.637 6.24014C157.693 6.10051 157.748 5.98881 157.831 5.84918H157.193C157.165 5.93296 157.137 5.98881 157.109 6.04466Z" fill="#004357"/>
  <path d="M169.33 26.9608C169.358 26.9049 169.386 26.8491 169.386 26.7653C169.386 26.514 169.192 26.3185 168.942 26.3185H164.192C163.581 26.5698 163.026 26.8491 162.498 27.24H164.331C165.22 26.8491 166.192 26.6536 167.192 26.6536C167.942 26.6257 168.664 26.7374 169.33 26.9608Z" fill="#004357"/>
  <path d="M173.939 29.3053V31.1204C174.328 32.014 174.55 32.9914 174.55 34.0526C174.55 35.1137 174.328 36.0632 173.939 36.9847V38.7999C174.884 37.4595 175.439 35.8119 175.439 34.0526C175.439 32.2933 174.884 30.6457 173.939 29.3053Z" fill="#004357"/>
  <path d="M159.832 34.0233C159.832 33.9396 159.832 33.8279 159.832 33.7441H158.943C158.943 33.8279 158.943 33.9396 158.943 34.0233C158.943 35.6988 159.443 37.2627 160.304 38.5751H161.387C160.415 37.3185 159.832 35.7547 159.832 34.0233Z" fill="#004357"/>
  <path d="M171.135 40.253H172.607C172.885 40.0016 173.134 39.7503 173.384 39.4711V37.991C172.801 38.9126 172.051 39.6945 171.135 40.253Z" fill="#004357"/>
  <path d="M165.025 26.038H168.942C169.33 26.038 169.664 26.3731 169.664 26.7641C169.664 26.8758 169.636 26.9595 169.608 27.0433C170.191 27.2388 170.747 27.518 171.247 27.8531V26.8199C170.052 26.1218 168.664 25.7308 167.192 25.7308C166.442 25.7308 165.72 25.8425 165.025 26.038Z" fill="#004357"/>
  <path d="M167.19 41.4245C166.163 41.4245 165.191 41.2011 164.274 40.8102H162.469C163.802 41.7596 165.441 42.2902 167.19 42.2902C168.94 42.2902 170.579 41.7317 171.912 40.8102H170.107C169.19 41.2011 168.218 41.4245 167.19 41.4245Z" fill="#004357"/>
  <path d="M159.082 32.5466C159.026 32.8537 158.998 33.1609 158.971 33.4681H159.859C159.887 33.1609 159.915 32.8537 159.971 32.5466H159.082Z" fill="#004357"/>
  <path d="M160.691 39.136C160.997 39.5549 161.358 39.918 161.747 40.2531H163.219C162.719 39.9459 162.275 39.5549 161.858 39.136H160.691Z" fill="#004357"/>
  <path d="M171.803 27.1545V28.2716C172.414 28.7742 172.969 29.3886 173.386 30.0588V28.5787C172.914 28.0481 172.386 27.5734 171.803 27.1545Z" fill="#004357"/>
  <path d="M163.747 27.4898H162.136C160.637 28.6627 159.553 30.3382 159.137 32.265H160.053C160.553 30.1986 161.914 28.4672 163.747 27.4898Z" fill="#004357"/>
  <path d="M173.385 37.9899V39.47C173.579 39.2466 173.774 38.9952 173.94 38.7439V36.9288C173.774 37.3197 173.607 37.6548 173.385 37.9899Z" fill="#004357"/>
  <path d="M171.135 40.2528C170.802 40.4762 170.469 40.6438 170.08 40.8113H171.885C172.135 40.6438 172.358 40.4483 172.608 40.2528H171.135Z" fill="#004357"/>
  <path d="M163.247 40.2528H161.775C161.998 40.4483 162.248 40.6438 162.498 40.8113H164.303C163.914 40.6717 163.581 40.4762 163.247 40.2528Z" fill="#004357"/>
  <path d="M173.385 30.0604C173.607 30.3955 173.774 30.7306 173.94 31.1215V29.3064C173.774 29.055 173.579 28.8316 173.385 28.5803V30.0604Z" fill="#004357"/>
  <path d="M168.941 26.317C169.191 26.317 169.385 26.5125 169.385 26.7638C169.385 26.8197 169.357 26.9035 169.33 26.9593C169.413 26.9872 169.496 27.0152 169.607 27.0431C169.635 26.9593 169.663 26.8476 169.663 26.7638C169.663 26.3729 169.33 26.0378 168.941 26.0378H165.025C164.747 26.1216 164.469 26.2053 164.191 26.317H168.941Z" fill="#004357"/>
  <path d="M164.331 27.2091H162.498C162.359 27.2929 162.248 27.4046 162.109 27.4883H163.72C163.915 27.4046 164.109 27.2929 164.331 27.2091Z" fill="#004357"/>
  <path d="M159.969 32.5451C159.997 32.4613 159.997 32.3496 160.025 32.2659H159.108C159.081 32.3496 159.081 32.4613 159.053 32.5451H159.969Z" fill="#004357"/>
  <path d="M158.971 33.4674C158.971 33.5512 158.971 33.6629 158.943 33.7467H159.832C159.832 33.6629 159.832 33.5512 159.86 33.4674H158.971Z" fill="#004357"/>
  <path d="M171.802 28.2735V27.1565C171.635 27.0448 171.441 26.9331 171.246 26.8214V27.8546C171.441 27.9942 171.635 28.1338 171.802 28.2735Z" fill="#004357"/>
  <path d="M160.303 38.5746C160.442 38.7701 160.553 38.9656 160.692 39.1331H161.858C161.691 38.9656 161.525 38.7701 161.386 38.5746H160.303Z" fill="#004357"/>
  <path d="M167.359 33.4681L168.276 32.5466H167.026L166.109 33.4681H167.359Z" fill="#004357"/>
  <path d="M165.082 39.2757C165.11 39.2757 165.137 39.2757 165.165 39.2757C165.332 39.2757 165.471 39.2198 165.609 39.136H164.721C164.832 39.2198 164.943 39.2477 165.082 39.2757Z" fill="#004357"/>
  <path d="M162.721 32.5466L163.387 33.4681H164.47L163.832 32.5466H162.721Z" fill="#004357"/>
  <path d="M171.803 29.0831V30.3398L172.636 31.1775L171.803 31.9594V33.1881L173.303 31.736C173.33 31.7081 173.358 31.6802 173.386 31.6522V30.6749C173.358 30.6469 173.33 30.619 173.33 30.5911L171.803 29.0831Z" fill="#004357"/>
  <path d="M161.72 33.2726L162.081 32.5466H161.082L160.887 32.9096C160.804 33.0771 160.776 33.2726 160.832 33.4402H161.831L161.72 33.2726Z" fill="#004357"/>
  <path d="M165.163 34.4143L164.691 33.7441H163.58L164.497 35.0286C164.635 35.2241 164.858 35.3358 165.08 35.3637C165.302 35.3917 165.552 35.3079 165.719 35.1403L167.08 33.772H165.83L165.163 34.4143Z" fill="#004357"/>
  <path d="M170.58 28.9686L167.303 32.2637H168.553L171.136 29.6667L171.247 29.7784V28.7452C170.997 28.7172 170.747 28.801 170.58 28.9686Z" fill="#004357"/>
  <path d="M162.054 33.7446H160.971L164.276 38.5757H166.22L171.247 33.7446V32.488L165.192 38.3244L162.054 33.7446Z" fill="#004357"/>
  <path d="M162.33 32.0432L162.496 32.2945H163.607L162.969 31.4009C162.802 31.1775 162.552 31.0379 162.246 31.0658C161.969 31.0937 161.719 31.2613 161.608 31.5126L161.219 32.2945H162.219L162.33 32.0432Z" fill="#004357"/>
  <path d="M173.551 31.1751C173.551 31.0076 173.496 30.8121 173.385 30.6725V31.6499C173.496 31.5102 173.551 31.3427 173.551 31.1751Z" fill="#004357"/>
  <path d="M162.72 32.5451H163.831L163.609 32.2659H162.525L162.72 32.5451Z" fill="#004357"/>
  <path d="M167.025 32.5451H168.275L168.553 32.2659H167.303L167.025 32.5451Z" fill="#004357"/>
  <path d="M160.859 33.4674C160.887 33.5512 160.915 33.6629 160.97 33.7467H162.054L161.859 33.4674H160.859Z" fill="#004357"/>
  <path d="M162.08 32.5451L162.219 32.2659H161.219L161.08 32.5451H162.08Z" fill="#004357"/>
  <path d="M166.108 33.4674L165.83 33.7467H167.08L167.358 33.4674H166.108Z" fill="#004357"/>
  <path d="M164.47 33.4674H163.387L163.581 33.7467H164.692L164.47 33.4674Z" fill="#004357"/>
  <path d="M171.246 28.7459V29.7791L171.802 30.3376V29.081L171.69 28.9693C171.579 28.8576 171.413 28.7738 171.246 28.7459Z" fill="#004357"/>
  <path d="M166.22 38.5746H164.275L164.525 38.9097C164.581 38.9935 164.664 39.0773 164.748 39.1331H165.636C165.664 39.1052 165.72 39.0773 165.747 39.0494L166.22 38.5746Z" fill="#004357"/>
  <path d="M171.246 32.4894V33.7461L171.802 33.2155V31.9589L171.246 32.4894Z" fill="#004357"/>
  <path d="M3.52354 47.636V56H7.54354V55.112H4.61554V47.636H3.52354ZM8.91505 56H10.0071V47.12H8.91505V56ZM14.876 50.24C16.004 50.24 16.964 50.948 16.952 52.232H12.8C12.92 50.948 13.808 50.24 14.876 50.24ZM17.948 53.972H16.772C16.532 54.68 15.908 55.184 14.924 55.184C13.808 55.184 12.872 54.452 12.788 53.12H18.044C18.068 52.892 18.08 52.7 18.08 52.46C18.08 50.66 16.832 49.316 14.924 49.316C13.004 49.316 11.672 50.624 11.672 52.7C11.672 54.788 13.052 56.108 14.924 56.108C16.556 56.108 17.612 55.172 17.948 53.972ZM24.5452 56H25.6252V52.124C25.6252 50.24 24.4612 49.304 22.9372 49.304C22.0492 49.304 21.2572 49.676 20.8252 50.36V49.424H19.7332V56H20.8252V52.364C20.8252 50.948 21.5932 50.252 22.7092 50.252C23.8132 50.252 24.5452 50.936 24.5452 52.28V56ZM27.2128 52.688C27.2128 54.728 28.5688 56.108 30.3208 56.108C31.5328 56.108 32.3848 55.484 32.7808 54.776V56H33.8848V49.424H32.7808V50.624C32.3968 49.94 31.5568 49.316 30.3328 49.316C28.5688 49.316 27.2128 50.636 27.2128 52.688ZM32.7808 52.7C32.7808 54.248 31.7488 55.148 30.5488 55.148C29.3488 55.148 28.3288 54.236 28.3288 52.688C28.3288 51.14 29.3488 50.264 30.5488 50.264C31.7488 50.264 32.7808 51.176 32.7808 52.7ZM35.534 52.688C35.534 54.728 36.89 56.108 38.654 56.108C39.854 56.108 40.706 55.496 41.102 54.764V56H42.206V47.12H41.102V50.6C40.646 49.844 39.698 49.316 38.666 49.316C36.89 49.316 35.534 50.636 35.534 52.688ZM41.102 52.7C41.102 54.248 40.07 55.148 38.87 55.148C37.67 55.148 36.65 54.236 36.65 52.688C36.65 51.14 37.67 50.264 38.87 50.264C40.07 50.264 41.102 51.176 41.102 52.7ZM50.5032 52.7C50.5032 50.624 49.0512 49.316 47.1792 49.316C45.3192 49.316 43.8552 50.624 43.8552 52.7C43.8552 54.788 45.2712 56.108 47.1312 56.108C49.0032 56.108 50.5032 54.788 50.5032 52.7ZM44.9712 52.7C44.9712 51.044 46.0152 50.264 47.1672 50.264C48.2952 50.264 49.3872 51.044 49.3872 52.7C49.3872 54.368 48.2712 55.148 47.1312 55.148C45.9912 55.148 44.9712 54.368 44.9712 52.7ZM55.1539 52.688C55.1539 54.728 56.5099 56.108 58.2739 56.108C59.4739 56.108 60.3259 55.496 60.7219 54.764V56H61.8259V47.12H60.7219V50.6C60.2659 49.844 59.3179 49.316 58.2859 49.316C56.5099 49.316 55.1539 50.636 55.1539 52.688ZM60.7219 52.7C60.7219 54.248 59.6899 55.148 58.4899 55.148C57.2899 55.148 56.2699 54.236 56.2699 52.688C56.2699 51.14 57.2899 50.264 58.4899 50.264C59.6899 50.264 60.7219 51.176 60.7219 52.7ZM66.6791 50.24C67.8071 50.24 68.7671 50.948 68.7551 52.232H64.6031C64.7231 50.948 65.6111 50.24 66.6791 50.24ZM69.7511 53.972H68.5751C68.3351 54.68 67.7111 55.184 66.7271 55.184C65.6111 55.184 64.6751 54.452 64.5911 53.12H69.8471C69.8711 52.892 69.8831 52.7 69.8831 52.46C69.8831 50.66 68.6351 49.316 66.7271 49.316C64.8071 49.316 63.4751 50.624 63.4751 52.7C63.4751 54.788 64.8551 56.108 66.7271 56.108C68.3591 56.108 69.4151 55.172 69.7511 53.972ZM1.02701 68H2.11901V64.232H5.07101V63.344H2.11901V60.524H5.75501V59.636H1.02701V68ZM13.5257 64.7C13.5257 62.624 12.0737 61.316 10.2017 61.316C8.3417 61.316 6.8777 62.624 6.8777 64.7C6.8777 66.788 8.2937 68.108 10.1537 68.108C12.0257 68.108 13.5257 66.788 13.5257 64.7ZM7.9937 64.7C7.9937 63.044 9.0377 62.264 10.1897 62.264C11.3177 62.264 12.4097 63.044 12.4097 64.7C12.4097 66.368 11.2937 67.148 10.1537 67.148C9.0137 67.148 7.9937 66.368 7.9937 64.7ZM16.2653 64.424C16.2653 62.9 17.0573 62.432 18.1013 62.432H18.3893V61.304C17.3453 61.304 16.6373 61.76 16.2653 62.492V61.424H15.1733V68H16.2653V64.424ZM29.3537 68H30.4337V64.124C30.4337 62.24 29.2697 61.304 27.7697 61.304C26.7617 61.304 25.8257 61.82 25.4417 62.768C25.0097 61.784 24.1097 61.304 23.0297 61.304C22.1657 61.304 21.3857 61.676 20.9537 62.372V61.424H19.8617V68H20.9537V64.376C20.9537 62.96 21.7097 62.252 22.8137 62.252C23.8937 62.252 24.6137 62.936 24.6137 64.28V68H25.6937V64.376C25.6937 62.96 26.4497 62.252 27.5537 62.252C28.6337 62.252 29.3537 62.936 29.3537 64.28V68ZM38.2688 61.424H37.1768V65.036C37.1768 66.452 36.4208 67.148 35.2928 67.148C34.1888 67.148 33.4568 66.464 33.4568 65.132V61.424H32.3768V65.276C32.3768 67.16 33.5648 68.096 35.0768 68.096C35.9528 68.096 36.7568 67.712 37.1768 67.028V68H38.2688V61.424ZM40.3244 68H41.4164V59.12H40.3244V68ZM43.0813 64.688C43.0813 66.728 44.4373 68.108 46.1893 68.108C47.4013 68.108 48.2533 67.484 48.6493 66.776V68H49.7533V61.424H48.6493V62.624C48.2653 61.94 47.4253 61.316 46.2013 61.316C44.4373 61.316 43.0813 62.636 43.0813 64.688ZM48.6493 64.7C48.6493 66.248 47.6173 67.148 46.4173 67.148C45.2173 67.148 44.1973 66.236 44.1973 64.688C44.1973 63.14 45.2173 62.264 46.4173 62.264C47.6173 62.264 48.6493 63.176 48.6493 64.7ZM52.9025 64.424C52.9025 62.9 53.6945 62.432 54.7385 62.432H55.0265V61.304C53.9825 61.304 53.2745 61.76 52.9025 62.492V61.424H51.8105V68H52.9025V64.424ZM56.4989 68H57.5909V61.424H56.4989V68ZM57.0629 60.356C57.4589 60.356 57.7829 60.032 57.7829 59.612C57.7829 59.192 57.4589 58.868 57.0629 58.868C56.6429 58.868 56.3189 59.192 56.3189 59.612C56.3189 60.032 56.6429 60.356 57.0629 60.356ZM65.9039 64.7C65.9039 62.624 64.4519 61.316 62.5799 61.316C60.7199 61.316 59.2559 62.624 59.2559 64.7C59.2559 66.788 60.6719 68.108 62.5319 68.108C64.4039 68.108 65.9039 66.788 65.9039 64.7ZM60.3719 64.7C60.3719 63.044 61.4159 62.264 62.5679 62.264C63.6959 62.264 64.7879 63.044 64.7879 64.7C64.7879 66.368 63.6719 67.148 62.5319 67.148C61.3919 67.148 60.3719 66.368 60.3719 64.7ZM72.2795 66.212C72.2315 63.86 68.4155 64.712 68.4155 63.152C68.4155 62.624 68.8955 62.24 69.6995 62.24C70.5755 62.24 71.0795 62.72 71.1275 63.38H72.2195C72.1475 62.096 71.1875 61.316 69.7355 61.316C68.2715 61.316 67.3235 62.144 67.3235 63.152C67.3235 65.6 71.2115 64.748 71.2115 66.212C71.2115 66.752 70.7315 67.184 69.8675 67.184C68.9435 67.184 68.3795 66.704 68.3195 66.068H67.1915C67.2635 67.268 68.3435 68.108 69.8795 68.108C71.3315 68.108 72.2795 67.292 72.2795 66.212Z" fill="#004357"/>
  <path d="M50.9062 40.9995H22.3368C22.1684 40.9995 22 40.8592 22 40.6627V6.70494C22 6.53655 22.1403 6.36816 22.3368 6.36816H25.9851V6.92945H22.5613V40.4382H50.6817V6.95751H47.3982V6.39623H50.9062C51.0746 6.39623 51.243 6.53655 51.243 6.733V40.6908C51.243 40.8592 51.1027 40.9995 50.9062 40.9995Z" fill="#004357"/>
  <path d="M28.3723 16.1345C27.0813 16.1345 26.043 15.0961 26.043 13.8052C26.043 12.5142 27.0813 11.4758 28.3723 11.4758C29.6633 11.4758 30.7016 12.5142 30.7016 13.8052C30.7016 15.0961 29.6633 16.1345 28.3723 16.1345ZM28.3723 11.7284C27.2497 11.7284 26.3236 12.6545 26.3236 13.7771C26.3236 14.8997 27.2497 15.8258 28.3723 15.8258C29.4949 15.8258 30.421 14.8997 30.421 13.7771C30.421 12.6545 29.4949 11.7284 28.3723 11.7284Z" fill="#004357"/>
  <path d="M28.3723 22.9538C27.0813 22.9538 26.043 21.9154 26.043 20.6244C26.043 19.3335 27.0813 18.2951 28.3723 18.2951C29.6633 18.2951 30.7016 19.3335 30.7016 20.6244C30.7016 21.9154 29.6633 22.9538 28.3723 22.9538ZM28.3723 18.5477C27.2497 18.5477 26.3236 19.4738 26.3236 20.5964C26.3236 21.7189 27.2497 22.6451 28.3723 22.6451C29.4949 22.6451 30.421 21.7189 30.421 20.5964C30.421 19.4738 29.4949 18.5477 28.3723 18.5477Z" fill="#004357"/>
  <path d="M28.3723 29.214C27.0813 29.214 26.043 28.1756 26.043 26.8846C26.043 25.5937 27.0813 24.5553 28.3723 24.5553C29.6633 24.5553 30.7016 25.5937 30.7016 26.8846C30.7016 28.1756 29.6633 29.214 28.3723 29.214ZM28.3723 24.8359C27.2497 24.8359 26.3236 25.7621 26.3236 26.8846C26.3236 28.0072 27.2497 28.9333 28.3723 28.9333C29.4949 28.9333 30.421 28.0072 30.421 26.8846C30.421 25.7621 29.4949 24.8359 28.3723 24.8359Z" fill="#004357"/>
  <path d="M28.3723 35.5028C27.0813 35.5028 26.043 34.4645 26.043 33.1735C26.043 31.8826 27.0813 30.8442 28.3723 30.8442C29.6633 30.8442 30.7016 31.8826 30.7016 33.1735C30.7016 34.4645 29.6633 35.5028 28.3723 35.5028ZM28.3723 31.1248C27.2497 31.1248 26.3236 32.0509 26.3236 33.1735C26.3236 34.2961 27.2497 35.2222 28.3723 35.2222C29.4949 35.2222 30.421 34.2961 30.421 33.1735C30.421 32.0229 29.4949 31.1248 28.3723 31.1248Z" fill="#004357"/>
  <path d="M46.0783 14.5366H31.7375C31.3446 14.5366 31.0078 14.1998 31.0078 13.8069C31.0078 13.414 31.3446 13.0772 31.7375 13.0772H46.0783C46.4993 13.0772 46.808 13.414 46.808 13.8069C46.808 14.1998 46.4993 14.5366 46.0783 14.5366ZM31.7375 13.3298C31.4849 13.3298 31.2885 13.5262 31.2885 13.7788C31.2885 14.0314 31.4849 14.2278 31.7375 14.2278H46.0783C46.3309 14.2278 46.5274 14.0314 46.5274 13.7788C46.5274 13.5262 46.3309 13.3298 46.0783 13.3298H31.7375Z" fill="#004357"/>
  <path d="M46.1916 27.6149H31.8508C31.4298 27.6149 31.1211 27.2781 31.1211 26.8852C31.1211 26.4923 31.4579 26.1555 31.8508 26.1555H46.1916C46.5845 26.1555 46.9213 26.4923 46.9213 26.8852C46.9213 27.2781 46.5845 27.6149 46.1916 27.6149ZM31.8508 26.4362C31.5982 26.4362 31.4017 26.6326 31.4017 26.8852C31.4017 27.1378 31.5982 27.3342 31.8508 27.3342H46.1916C46.4442 27.3342 46.6406 27.1378 46.6406 26.8852C46.6406 26.6326 46.4442 26.4362 46.1916 26.4362H31.8508Z" fill="#004357"/>
  <path d="M46.1916 33.9016H31.8508C31.4298 33.9016 31.1211 33.5648 31.1211 33.1719C31.1211 32.779 31.4579 32.4423 31.8508 32.4423H46.1916C46.5845 32.4423 46.9213 32.779 46.9213 33.1719C46.9213 33.5648 46.5845 33.9016 46.1916 33.9016ZM31.8508 32.6948C31.5982 32.6948 31.4017 32.8913 31.4017 33.1439C31.4017 33.3964 31.5982 33.5929 31.8508 33.5929H46.1916C46.4442 33.5929 46.6406 33.3964 46.6406 33.1439C46.6406 32.8913 46.4442 32.6948 46.1916 32.6948H31.8508Z" fill="#004357"/>
  <path d="M46.0783 21.3539H31.7375C31.3446 21.3539 31.0078 21.0171 31.0078 20.6242C31.0078 20.2313 31.3446 19.8945 31.7375 19.8945H46.0783C46.4993 19.8945 46.808 20.2313 46.808 20.6242C46.808 21.0171 46.4993 21.3539 46.0783 21.3539ZM31.7375 20.1471C31.4849 20.1471 31.2885 20.3436 31.2885 20.5961C31.2885 20.8487 31.4849 21.0452 31.7375 21.0452H46.0783C46.3309 21.0452 46.5274 20.8487 46.5274 20.5961C46.5274 20.3436 46.3309 20.1471 46.0783 20.1471H31.7375Z" fill="#004357"/>
  <path d="M47.594 39.3188H26.0968C25.2829 39.3188 24.6094 38.6453 24.6094 37.8314V8.64457C24.6094 7.88684 25.1987 7.24136 25.9565 7.18523L26.2652 7.15717V8.98134H47.1169V7.18523H47.594C48.4079 7.18523 49.0814 7.85877 49.0814 8.67264V37.8595C49.0814 38.6734 48.4079 39.3188 47.594 39.3188ZM25.7039 7.83071C25.3952 7.97103 25.1707 8.3078 25.1707 8.67264V37.8595C25.1707 38.3646 25.5916 38.7856 26.0968 38.7856H47.6221C48.1272 38.7856 48.5482 38.3646 48.5482 37.8595V8.67264C48.5482 8.19554 48.1834 7.80264 47.7063 7.77458V9.57069H25.7039V7.83071Z" fill="#004357"/>
  <path d="M34.7676 6.2842L34.2344 6.08775C34.6553 5.02131 35.6937 4.3197 36.8444 4.3197C37.995 4.3197 39.0334 5.02131 39.4543 6.08775L38.9211 6.2842C38.5843 5.41421 37.7424 4.85292 36.8163 4.85292C35.9182 4.85292 35.1044 5.41421 34.7676 6.2842Z" fill="#004357"/>
  <path d="M40.382 6.25546C39.9611 4.65579 38.5017 3.56129 36.8459 3.56129C35.1902 3.56129 33.7589 4.65579 33.3379 6.25546L32.8047 6.08707C33.3098 4.26289 34.9656 3 36.874 3C38.7824 3 40.4382 4.26289 40.9433 6.08707L40.382 6.25546Z" fill="#004357"/>
  <path d="M34.7676 6.2842L34.2344 6.08775C34.6553 5.02131 35.6937 4.3197 36.8444 4.3197C37.995 4.3197 39.0334 5.02131 39.4543 6.08775L38.9211 6.2842C38.5843 5.41421 37.7424 4.85292 36.8163 4.85292C35.9182 4.85292 35.1044 5.41421 34.7676 6.2842Z" fill="#004357"/>
  <path d="M47.6513 9.14858H47.0901V6.45441H26.2664V7.46473H25.7051V5.89313H47.6513V9.14858Z" fill="#004357"/>
  <path d="M250.025 48.524V51.32H253.073V52.22H250.025V55.1H253.433V56H248.933V47.624H253.433V48.524H250.025ZM258.501 49.304C259.301 49.304 259.949 49.548 260.445 50.036C260.941 50.516 261.189 51.212 261.189 52.124V56H260.109V52.28C260.109 51.624 259.945 51.124 259.617 50.78C259.289 50.428 258.841 50.252 258.273 50.252C257.697 50.252 257.237 50.432 256.893 50.792C256.557 51.152 256.389 51.676 256.389 52.364V56H255.297V49.424H256.389V50.36C256.605 50.024 256.897 49.764 257.265 49.58C257.641 49.396 258.053 49.304 258.501 49.304ZM265.633 54.992L267.673 49.424H268.837L266.257 56H264.985L262.405 49.424H263.581L265.633 54.992ZM270.687 48.356C270.479 48.356 270.303 48.284 270.159 48.14C270.015 47.996 269.943 47.82 269.943 47.612C269.943 47.404 270.015 47.228 270.159 47.084C270.303 46.94 270.479 46.868 270.687 46.868C270.887 46.868 271.055 46.94 271.191 47.084C271.335 47.228 271.407 47.404 271.407 47.612C271.407 47.82 271.335 47.996 271.191 48.14C271.055 48.284 270.887 48.356 270.687 48.356ZM271.215 49.424V56H270.123V49.424H271.215ZM272.88 52.688C272.88 52.016 273.016 51.428 273.288 50.924C273.56 50.412 273.932 50.016 274.404 49.736C274.884 49.456 275.416 49.316 276 49.316C276.576 49.316 277.076 49.44 277.5 49.688C277.924 49.936 278.24 50.248 278.448 50.624V49.424H279.552V56H278.448V54.776C278.232 55.16 277.908 55.48 277.476 55.736C277.052 55.984 276.556 56.108 275.988 56.108C275.404 56.108 274.876 55.964 274.404 55.676C273.932 55.388 273.56 54.984 273.288 54.464C273.016 53.944 272.88 53.352 272.88 52.688ZM278.448 52.7C278.448 52.204 278.348 51.772 278.148 51.404C277.948 51.036 277.676 50.756 277.332 50.564C276.996 50.364 276.624 50.264 276.216 50.264C275.808 50.264 275.436 50.36 275.1 50.552C274.764 50.744 274.496 51.024 274.296 51.392C274.096 51.76 273.996 52.192 273.996 52.688C273.996 53.192 274.096 53.632 274.296 54.008C274.496 54.376 274.764 54.66 275.1 54.86C275.436 55.052 275.808 55.148 276.216 55.148C276.624 55.148 276.996 55.052 277.332 54.86C277.676 54.66 277.948 54.376 278.148 54.008C278.348 53.632 278.448 53.196 278.448 52.7ZM281.202 52.688C281.202 52.016 281.338 51.428 281.61 50.924C281.882 50.412 282.254 50.016 282.726 49.736C283.206 49.456 283.742 49.316 284.334 49.316C284.846 49.316 285.322 49.436 285.762 49.676C286.202 49.908 286.538 50.216 286.77 50.6V47.12H287.874V56H286.77V54.764C286.554 55.156 286.234 55.48 285.81 55.736C285.386 55.984 284.89 56.108 284.322 56.108C283.738 56.108 283.206 55.964 282.726 55.676C282.254 55.388 281.882 54.984 281.61 54.464C281.338 53.944 281.202 53.352 281.202 52.688ZM286.77 52.7C286.77 52.204 286.67 51.772 286.47 51.404C286.27 51.036 285.998 50.756 285.654 50.564C285.318 50.364 284.946 50.264 284.538 50.264C284.13 50.264 283.758 50.36 283.422 50.552C283.086 50.744 282.818 51.024 282.618 51.392C282.418 51.76 282.318 52.192 282.318 52.688C282.318 53.192 282.418 53.632 282.618 54.008C282.818 54.376 283.086 54.66 283.422 54.86C283.758 55.052 284.13 55.148 284.538 55.148C284.946 55.148 285.318 55.052 285.654 54.86C285.998 54.66 286.27 54.376 286.47 54.008C286.67 53.632 286.77 53.196 286.77 52.7ZM292.799 56.108C292.183 56.108 291.623 55.968 291.119 55.688C290.623 55.408 290.231 55.012 289.943 54.5C289.663 53.98 289.523 53.38 289.523 52.7C289.523 52.028 289.667 51.436 289.955 50.924C290.251 50.404 290.651 50.008 291.155 49.736C291.659 49.456 292.223 49.316 292.847 49.316C293.471 49.316 294.035 49.456 294.539 49.736C295.043 50.008 295.439 50.4 295.727 50.912C296.023 51.424 296.171 52.02 296.171 52.7C296.171 53.38 296.019 53.98 295.715 54.5C295.419 55.012 295.015 55.408 294.503 55.688C293.991 55.968 293.423 56.108 292.799 56.108ZM292.799 55.148C293.191 55.148 293.559 55.056 293.903 54.872C294.247 54.688 294.523 54.412 294.731 54.044C294.947 53.676 295.055 53.228 295.055 52.7C295.055 52.172 294.951 51.724 294.743 51.356C294.535 50.988 294.263 50.716 293.927 50.54C293.591 50.356 293.227 50.264 292.835 50.264C292.435 50.264 292.067 50.356 291.731 50.54C291.403 50.716 291.139 50.988 290.939 51.356C290.739 51.724 290.639 52.172 290.639 52.7C290.639 53.236 290.735 53.688 290.927 54.056C291.127 54.424 291.391 54.7 291.719 54.884C292.047 55.06 292.407 55.148 292.799 55.148ZM302.321 50.636C302.537 50.26 302.857 49.948 303.281 49.7C303.713 49.444 304.213 49.316 304.781 49.316C305.365 49.316 305.893 49.456 306.365 49.736C306.845 50.016 307.221 50.412 307.493 50.924C307.765 51.428 307.901 52.016 307.901 52.688C307.901 53.352 307.765 53.944 307.493 54.464C307.221 54.984 306.845 55.388 306.365 55.676C305.893 55.964 305.365 56.108 304.781 56.108C304.221 56.108 303.725 55.984 303.293 55.736C302.869 55.48 302.545 55.164 302.321 54.788V59.12H301.229V49.424H302.321V50.636ZM306.785 52.688C306.785 52.192 306.685 51.76 306.485 51.392C306.285 51.024 306.013 50.744 305.669 50.552C305.333 50.36 304.961 50.264 304.553 50.264C304.153 50.264 303.781 50.364 303.437 50.564C303.101 50.756 302.829 51.04 302.621 51.416C302.421 51.784 302.321 52.212 302.321 52.7C302.321 53.196 302.421 53.632 302.621 54.008C302.829 54.376 303.101 54.66 303.437 54.86C303.781 55.052 304.153 55.148 304.553 55.148C304.961 55.148 305.333 55.052 305.669 54.86C306.013 54.66 306.285 54.376 306.485 54.008C306.685 53.632 306.785 53.192 306.785 52.688ZM312.419 56.108C311.803 56.108 311.243 55.968 310.739 55.688C310.243 55.408 309.851 55.012 309.563 54.5C309.283 53.98 309.143 53.38 309.143 52.7C309.143 52.028 309.287 51.436 309.575 50.924C309.871 50.404 310.271 50.008 310.775 49.736C311.279 49.456 311.843 49.316 312.467 49.316C313.091 49.316 313.655 49.456 314.159 49.736C314.663 50.008 315.059 50.4 315.347 50.912C315.643 51.424 315.791 52.02 315.791 52.7C315.791 53.38 315.639 53.98 315.335 54.5C315.039 55.012 314.635 55.408 314.123 55.688C313.611 55.968 313.043 56.108 312.419 56.108ZM312.419 55.148C312.811 55.148 313.179 55.056 313.523 54.872C313.867 54.688 314.143 54.412 314.351 54.044C314.567 53.676 314.675 53.228 314.675 52.7C314.675 52.172 314.571 51.724 314.363 51.356C314.155 50.988 313.883 50.716 313.547 50.54C313.211 50.356 312.847 50.264 312.455 50.264C312.055 50.264 311.687 50.356 311.351 50.54C311.023 50.716 310.759 50.988 310.559 51.356C310.359 51.724 310.259 52.172 310.259 52.7C310.259 53.236 310.355 53.688 310.547 54.056C310.747 54.424 311.011 54.7 311.339 54.884C311.667 55.06 312.027 55.148 312.419 55.148ZM318.53 50.492C318.722 50.116 318.994 49.824 319.346 49.616C319.706 49.408 320.142 49.304 320.654 49.304V50.432H320.366C319.142 50.432 318.53 51.096 318.53 52.424V56H317.438V49.424H318.53V50.492ZM257.244 62.084C257.244 62.78 257.004 63.36 256.524 63.824C256.052 64.28 255.328 64.508 254.352 64.508H252.744V68H251.652V59.636H254.352C255.296 59.636 256.012 59.864 256.5 60.32C256.996 60.776 257.244 61.364 257.244 62.084ZM254.352 63.608C254.96 63.608 255.408 63.476 255.696 63.212C255.984 62.948 256.128 62.572 256.128 62.084C256.128 61.052 255.536 60.536 254.352 60.536H252.744V63.608H254.352ZM258.405 64.688C258.405 64.016 258.541 63.428 258.813 62.924C259.085 62.412 259.457 62.016 259.929 61.736C260.409 61.456 260.941 61.316 261.525 61.316C262.101 61.316 262.601 61.44 263.025 61.688C263.449 61.936 263.765 62.248 263.973 62.624V61.424H265.077V68H263.973V66.776C263.757 67.16 263.433 67.48 263.001 67.736C262.577 67.984 262.081 68.108 261.513 68.108C260.929 68.108 260.401 67.964 259.929 67.676C259.457 67.388 259.085 66.984 258.813 66.464C258.541 65.944 258.405 65.352 258.405 64.688ZM263.973 64.7C263.973 64.204 263.873 63.772 263.673 63.404C263.473 63.036 263.201 62.756 262.857 62.564C262.521 62.364 262.149 62.264 261.741 62.264C261.333 62.264 260.961 62.36 260.625 62.552C260.289 62.744 260.021 63.024 259.821 63.392C259.621 63.76 259.521 64.192 259.521 64.688C259.521 65.192 259.621 65.632 259.821 66.008C260.021 66.376 260.289 66.66 260.625 66.86C260.961 67.052 261.333 67.148 261.741 67.148C262.149 67.148 262.521 67.052 262.857 66.86C263.201 66.66 263.473 66.376 263.673 66.008C263.873 65.632 263.973 65.196 263.973 64.7ZM266.727 64.688C266.727 64.016 266.863 63.428 267.135 62.924C267.407 62.412 267.779 62.016 268.251 61.736C268.731 61.456 269.267 61.316 269.859 61.316C270.427 61.316 270.923 61.444 271.347 61.7C271.779 61.948 272.095 62.256 272.295 62.624V61.424H273.399V71.12H272.295V66.788C272.087 67.156 271.767 67.468 271.335 67.724C270.903 67.98 270.399 68.108 269.823 68.108C269.247 68.108 268.723 67.964 268.251 67.676C267.779 67.388 267.407 66.984 267.135 66.464C266.863 65.944 266.727 65.352 266.727 64.688ZM272.295 64.7C272.295 64.204 272.195 63.772 271.995 63.404C271.795 63.036 271.523 62.756 271.179 62.564C270.843 62.364 270.471 62.264 270.063 62.264C269.655 62.264 269.283 62.36 268.947 62.552C268.611 62.744 268.343 63.024 268.143 63.392C267.943 63.76 267.843 64.192 267.843 64.688C267.843 65.192 267.943 65.632 268.143 66.008C268.343 66.376 268.611 66.66 268.947 66.86C269.283 67.052 269.655 67.148 270.063 67.148C270.471 67.148 270.843 67.052 271.179 66.86C271.523 66.66 271.795 66.376 271.995 66.008C272.195 65.632 272.295 65.196 272.295 64.7ZM281.288 61.424V68H280.196V67.028C279.988 67.364 279.696 67.628 279.32 67.82C278.952 68.004 278.544 68.096 278.096 68.096C277.584 68.096 277.124 67.992 276.716 67.784C276.308 67.568 275.984 67.248 275.744 66.824C275.512 66.4 275.396 65.884 275.396 65.276V61.424H276.476V65.132C276.476 65.78 276.64 66.28 276.968 66.632C277.296 66.976 277.744 67.148 278.312 67.148C278.896 67.148 279.356 66.968 279.692 66.608C280.028 66.248 280.196 65.724 280.196 65.036V61.424H281.288ZM289.343 64.46C289.343 64.668 289.331 64.888 289.307 65.12H284.051C284.091 65.768 284.311 66.276 284.711 66.644C285.119 67.004 285.611 67.184 286.187 67.184C286.659 67.184 287.051 67.076 287.363 66.86C287.683 66.636 287.907 66.34 288.035 65.972H289.211C289.035 66.604 288.683 67.12 288.155 67.52C287.627 67.912 286.971 68.108 286.187 68.108C285.563 68.108 285.003 67.968 284.507 67.688C284.019 67.408 283.635 67.012 283.355 66.5C283.075 65.98 282.935 65.38 282.935 64.7C282.935 64.02 283.071 63.424 283.343 62.912C283.615 62.4 283.995 62.008 284.483 61.736C284.979 61.456 285.547 61.316 286.187 61.316C286.811 61.316 287.363 61.452 287.843 61.724C288.323 61.996 288.691 62.372 288.947 62.852C289.211 63.324 289.343 63.86 289.343 64.46ZM288.215 64.232C288.215 63.816 288.123 63.46 287.939 63.164C287.755 62.86 287.503 62.632 287.183 62.48C286.871 62.32 286.523 62.24 286.139 62.24C285.587 62.24 285.115 62.416 284.723 62.768C284.339 63.12 284.119 63.608 284.063 64.232H288.215ZM292.329 62.324V66.2C292.329 66.52 292.397 66.748 292.533 66.884C292.669 67.012 292.905 67.076 293.241 67.076H294.045V68H293.061C292.453 68 291.997 67.86 291.693 67.58C291.389 67.3 291.237 66.84 291.237 66.2V62.324H290.385V61.424H291.237V59.768H292.329V61.424H294.045V62.324H292.329ZM301.58 64.46C301.58 64.668 301.568 64.888 301.544 65.12H296.288C296.328 65.768 296.548 66.276 296.948 66.644C297.356 67.004 297.848 67.184 298.424 67.184C298.896 67.184 299.288 67.076 299.6 66.86C299.92 66.636 300.144 66.34 300.272 65.972H301.448C301.272 66.604 300.92 67.12 300.392 67.52C299.864 67.912 299.208 68.108 298.424 68.108C297.8 68.108 297.24 67.968 296.744 67.688C296.256 67.408 295.872 67.012 295.592 66.5C295.312 65.98 295.172 65.38 295.172 64.7C295.172 64.02 295.308 63.424 295.58 62.912C295.852 62.4 296.232 62.008 296.72 61.736C297.216 61.456 297.784 61.316 298.424 61.316C299.048 61.316 299.6 61.452 300.08 61.724C300.56 61.996 300.928 62.372 301.184 62.852C301.448 63.324 301.58 63.86 301.58 64.46ZM300.452 64.232C300.452 63.816 300.36 63.46 300.176 63.164C299.992 62.86 299.74 62.632 299.42 62.48C299.108 62.32 298.76 62.24 298.376 62.24C297.824 62.24 297.352 62.416 296.96 62.768C296.576 63.12 296.356 63.608 296.3 64.232H300.452ZM304.325 62.492C304.517 62.116 304.789 61.824 305.141 61.616C305.501 61.408 305.937 61.304 306.449 61.304V62.432H306.161C304.937 62.432 304.325 63.096 304.325 64.424V68H303.233V61.424H304.325V62.492ZM308.485 60.356C308.277 60.356 308.101 60.284 307.957 60.14C307.813 59.996 307.741 59.82 307.741 59.612C307.741 59.404 307.813 59.228 307.957 59.084C308.101 58.94 308.277 58.868 308.485 58.868C308.685 58.868 308.853 58.94 308.989 59.084C309.133 59.228 309.205 59.404 309.205 59.612C309.205 59.82 309.133 59.996 308.989 60.14C308.853 60.284 308.685 60.356 308.485 60.356ZM309.013 61.424V68H307.921V61.424H309.013ZM310.678 64.688C310.678 64.016 310.814 63.428 311.086 62.924C311.358 62.412 311.73 62.016 312.202 61.736C312.682 61.456 313.214 61.316 313.798 61.316C314.374 61.316 314.874 61.44 315.298 61.688C315.722 61.936 316.038 62.248 316.246 62.624V61.424H317.35V68H316.246V66.776C316.03 67.16 315.706 67.48 315.274 67.736C314.85 67.984 314.354 68.108 313.786 68.108C313.202 68.108 312.674 67.964 312.202 67.676C311.73 67.388 311.358 66.984 311.086 66.464C310.814 65.944 310.678 65.352 310.678 64.688ZM316.246 64.7C316.246 64.204 316.146 63.772 315.946 63.404C315.746 63.036 315.474 62.756 315.13 62.564C314.794 62.364 314.422 62.264 314.014 62.264C313.606 62.264 313.234 62.36 312.898 62.552C312.562 62.744 312.294 63.024 312.094 63.392C311.894 63.76 311.794 64.192 311.794 64.688C311.794 65.192 311.894 65.632 312.094 66.008C312.294 66.376 312.562 66.66 312.898 66.86C313.234 67.052 313.606 67.148 314.014 67.148C314.422 67.148 314.794 67.052 315.13 66.86C315.474 66.66 315.746 66.376 315.946 66.008C316.146 65.632 316.246 65.196 316.246 64.7Z" fill="#004357"/>
  <path d="M307 12.9966V30.2719L289.49 39.9727V21.9931L306.774 13.1162L307 12.9966Z" stroke="#004357" stroke-miterlimit="10"/>
  <path d="M307 12.7573L289.265 4L271.994 12.9965L289.491 21.9929" stroke="#004357" stroke-miterlimit="10"/>
  <path d="M289.491 39.9734L277.906 34.2991" stroke="#004357" stroke-miterlimit="10"/>
  <path d="M283.672 7.20282L299.986 16.7043L299.906 20.3454L296.479 22.4583V18.4451" stroke="#004357" stroke-miterlimit="10"/>
  <path d="M296.092 18.6439L279.539 9.10254" stroke="#004357" stroke-miterlimit="10"/>
  <path d="M277.427 23.8794H265.125" stroke="#004357" stroke-miterlimit="10"/>
  <path d="M275.302 26.7239H263" stroke="#004357" stroke-miterlimit="10"/>
  <path d="M281.932 31.9329H269.391" stroke="#004357" stroke-miterlimit="10"/>
  <path d="M271.756 12.9966V21.5147" stroke="#004357" stroke-miterlimit="10"/>
  <path d="M395.289 57H396.717L392.889 52.824L396.681 48.636H395.301L391.845 52.512V48.636H390.753V57H391.845V53.184L395.289 57ZM398.148 57H399.24V50.424H398.148V57ZM398.712 49.356C399.108 49.356 399.432 49.032 399.432 48.612C399.432 48.192 399.108 47.868 398.712 47.868C398.292 47.868 397.968 48.192 397.968 48.612C397.968 49.032 398.292 49.356 398.712 49.356ZM401.553 55.2C401.553 56.52 402.213 57 403.377 57H404.361V56.076H403.557C402.885 56.076 402.645 55.848 402.645 55.2V51.324H404.361V50.424H402.645V48.768H401.553V50.424H400.701V51.324H401.553V55.2ZM377.743 63.096C377.743 64.032 377.203 64.704 375.967 64.704H374.359V61.536H375.967C377.215 61.536 377.743 62.148 377.743 63.096ZM373.267 60.636V69H374.359V65.58H375.679L377.671 69H378.979L376.879 65.496C378.283 65.184 378.871 64.164 378.871 63.096C378.871 61.728 377.935 60.636 375.967 60.636H373.267ZM383.575 63.24C384.703 63.24 385.663 63.948 385.651 65.232H381.499C381.619 63.948 382.507 63.24 383.575 63.24ZM386.647 66.972H385.471C385.231 67.68 384.607 68.184 383.623 68.184C382.507 68.184 381.571 67.452 381.487 66.12H386.743C386.767 65.892 386.779 65.7 386.779 65.46C386.779 63.66 385.531 62.316 383.623 62.316C381.703 62.316 380.371 63.624 380.371 65.7C380.371 67.788 381.751 69.108 383.623 69.108C385.255 69.108 386.311 68.172 386.647 66.972ZM388.024 65.7C388.024 67.788 389.356 69.108 391.228 69.108C392.86 69.108 393.928 68.196 394.264 66.888H393.088C392.848 67.716 392.2 68.184 391.228 68.184C390.028 68.184 389.14 67.332 389.14 65.7C389.14 64.092 390.028 63.24 391.228 63.24C392.2 63.24 392.86 63.744 393.088 64.536H394.264C393.928 63.156 392.86 62.316 391.228 62.316C389.356 62.316 388.024 63.636 388.024 65.7ZM395.933 69H397.025V62.424H395.933V69ZM396.497 61.356C396.893 61.356 397.217 61.032 397.217 60.612C397.217 60.192 396.893 59.868 396.497 59.868C396.077 59.868 395.753 60.192 395.753 60.612C395.753 61.032 396.077 61.356 396.497 61.356ZM400.19 63.648V60.12H399.098V69H400.19V67.788C400.598 68.508 401.45 69.108 402.65 69.108C404.414 69.108 405.77 67.728 405.77 65.688C405.77 63.636 404.426 62.316 402.65 62.316C401.486 62.316 400.61 62.916 400.19 63.648ZM404.654 65.688C404.654 67.236 403.634 68.148 402.422 68.148C401.234 68.148 400.19 67.248 400.19 65.7C400.19 64.176 401.234 63.264 402.422 63.264C403.634 63.264 404.654 64.14 404.654 65.688ZM407.419 69H408.511V62.424H407.419V69ZM407.983 61.356C408.379 61.356 408.703 61.032 408.703 60.612C408.703 60.192 408.379 59.868 407.983 59.868C407.563 59.868 407.239 60.192 407.239 60.612C407.239 61.032 407.563 61.356 407.983 61.356ZM410.176 65.688C410.176 67.728 411.532 69.108 413.296 69.108C414.496 69.108 415.348 68.496 415.744 67.764V69H416.848V60.12H415.744V63.6C415.288 62.844 414.34 62.316 413.308 62.316C411.532 62.316 410.176 63.636 410.176 65.688ZM415.744 65.7C415.744 67.248 414.712 68.148 413.512 68.148C412.312 68.148 411.292 67.236 411.292 65.688C411.292 64.14 412.312 63.264 413.512 63.264C414.712 63.264 415.744 64.176 415.744 65.7ZM425.146 65.7C425.146 63.624 423.694 62.316 421.822 62.316C419.962 62.316 418.498 63.624 418.498 65.7C418.498 67.788 419.914 69.108 421.774 69.108C423.646 69.108 425.146 67.788 425.146 65.7ZM419.614 65.7C419.614 64.044 420.658 63.264 421.81 63.264C422.938 63.264 424.03 64.044 424.03 65.7C424.03 67.368 422.914 68.148 421.774 68.148C420.634 68.148 419.614 67.368 419.614 65.7Z" fill="#004357"/>
  <path d="M411.2 9.10795C406.619 9.09439 402.877 12.7822 402.863 17.3377C402.85 21.8865 406.564 25.6014 411.152 25.615C415.733 25.6286 419.475 21.934 419.489 17.3852C419.502 12.8364 415.781 9.12151 411.2 9.10795ZM411.152 24.6185C407.124 24.6049 403.853 21.3442 403.86 17.3377C403.874 13.3381 407.158 10.0909 411.193 10.0977C415.221 10.1113 418.492 13.372 418.485 17.3784C418.471 21.3849 415.187 24.632 411.152 24.6185Z" fill="#004357"/>
  <path d="M379.614 3.61012H391.877V11.4738H399.893V3.61012H411.978V6.49122H412.592V3H379V34.5905H385.316V33.9804H379.614V3.61012ZM399.278 10.8637H392.491V3.61012H399.278V10.8637Z" fill="#004357" stroke="#004357" stroke-width="0.5" stroke-miterlimit="10"/>
  <path d="M419.966 31.8585C419.918 31.6348 419.775 31.5331 418.539 31.1739C417.809 30.9569 416.825 30.6993 415.781 30.4146C414.818 30.157 413.63 29.8384 412.599 29.5401V26.8963H411.985V29.3571C411.104 29.0927 410.428 28.8622 410.271 28.7266C409.643 27.9674 402.228 22.8356 397.264 24.5575C397.073 24.5982 395.298 25.0049 393.536 25.4388C392.444 25.7032 391.577 25.9336 390.949 26.1099C389.699 26.4624 389.569 26.5505 389.542 26.8014V26.8353L389.549 26.8692C389.556 26.9302 389.727 28.3063 391.017 29.1062C392.048 29.7503 393.461 29.8316 395.236 29.3503C394.902 29.7774 394.383 30.34 393.639 30.8756C391.194 32.6381 388.313 32.6924 386.326 32.428L386.012 32.3873L385.985 32.7059C385.978 32.7602 385.869 34.055 386.9 35.1193C387.822 36.0751 389.324 36.5158 391.372 36.4344C391.768 36.7666 393.386 38.1088 395.195 39.3765C397.688 41.1187 399.435 41.9729 400.528 41.9729C400.699 41.9729 400.856 41.9526 400.999 41.9051L401.033 41.8916L401.067 41.8712C401.081 41.8644 402.767 40.8747 404.652 39.9527C407.895 38.3732 409.021 38.2987 409.411 38.4003C409.547 38.4342 409.581 38.4952 409.595 38.5088L409.656 38.6105L409.766 38.6444C409.772 38.6444 410.735 38.9562 411.718 39.2342C413.842 39.8375 413.992 39.7223 414.135 39.6138C414.361 39.4443 416.327 36.9767 417.187 35.8785C420.034 32.2178 420 32.0348 419.966 31.8585ZM416.607 35.6074C415.296 37.275 414.06 38.7867 413.78 39.0918C413.364 39.085 411.602 38.5969 410.025 38.0953C409.909 37.9597 409.745 37.858 409.54 37.8106C407.67 37.336 401.613 40.834 400.774 41.3289C400.289 41.4577 398.985 41.2747 395.544 38.8749C393.495 37.4445 391.693 35.9056 391.672 35.8921L391.577 35.8107L391.454 35.8175C389.535 35.9124 388.149 35.5396 387.337 34.7058C386.784 34.1363 386.634 33.4652 386.593 33.0788C390.198 33.4652 392.601 32.3738 393.994 31.3705C395.271 30.4485 395.947 29.452 396.165 29.0859C397.305 28.8758 399.476 28.4419 399.586 28.4216L399.463 27.825C399.442 27.8318 397.729 28.1707 396.527 28.3944L395.871 28.5097C395.865 28.5165 395.851 28.5165 395.844 28.5165C395.742 28.5368 395.585 28.6046 395.585 28.6046C393.748 29.1944 392.328 29.1876 391.352 28.591C390.566 28.1029 390.286 27.3369 390.198 26.9844C390.983 26.6861 394.369 25.8523 397.421 25.1541L397.455 25.1473C399.92 24.2863 403.034 25.3032 405.212 26.3065C407.738 27.4725 409.629 28.9029 409.8 29.1198C410.08 29.4723 411.568 29.9197 415.624 31.0044C417.078 31.3908 418.696 31.8314 419.27 32.0416C418.997 32.4687 418.198 33.5736 416.607 35.6074Z" fill="#004357" stroke="#004357" stroke-width="0.5" stroke-miterlimit="10"/>
  <path d="M407.006 14.7075C406.829 14.4634 406.542 14.3346 406.248 14.355C405.948 14.3821 405.689 14.5516 405.552 14.8227L404.835 16.2328C404.699 16.5107 404.719 16.8361 404.897 17.0937L408.433 22.2322C408.577 22.4356 408.802 22.5712 409.048 22.5983C409.075 22.5983 409.109 22.6051 409.137 22.6051C409.355 22.6051 409.567 22.5237 409.731 22.3746L417.35 15.1752C417.521 15.0193 417.616 14.8024 417.616 14.5719C417.623 14.3414 417.535 14.1245 417.371 13.9618L415.753 12.3484C415.418 12.0162 414.879 12.0162 414.544 12.3484L409.157 17.6632L407.006 14.7075Z" fill="#004357" stroke="#004357" stroke-miterlimit="10"/>
  <path d="M580.824 51.096C580.824 52.032 580.284 52.704 579.048 52.704H577.44V49.536H579.048C580.296 49.536 580.824 50.148 580.824 51.096ZM576.348 48.636V57H577.44V53.58H578.76L580.752 57H582.06L579.96 53.496C581.364 53.184 581.952 52.164 581.952 51.096C581.952 49.728 581.016 48.636 579.048 48.636H576.348ZM586.657 51.24C587.785 51.24 588.745 51.948 588.733 53.232H584.581C584.701 51.948 585.589 51.24 586.657 51.24ZM589.729 54.972H588.553C588.313 55.68 587.689 56.184 586.705 56.184C585.589 56.184 584.653 55.452 584.569 54.12H589.825C589.849 53.892 589.861 53.7 589.861 53.46C589.861 51.66 588.613 50.316 586.705 50.316C584.785 50.316 583.453 51.624 583.453 53.7C583.453 55.788 584.833 57.108 586.705 57.108C588.337 57.108 589.393 56.172 589.729 54.972ZM596.242 55.212C596.194 52.86 592.378 53.712 592.378 52.152C592.378 51.624 592.858 51.24 593.662 51.24C594.538 51.24 595.042 51.72 595.09 52.38H596.182C596.11 51.096 595.15 50.316 593.698 50.316C592.234 50.316 591.286 51.144 591.286 52.152C591.286 54.6 595.174 53.748 595.174 55.212C595.174 55.752 594.694 56.184 593.83 56.184C592.906 56.184 592.342 55.704 592.282 55.068H591.154C591.226 56.268 592.306 57.108 593.842 57.108C595.294 57.108 596.242 56.292 596.242 55.212ZM603.828 50.424H602.736V54.036C602.736 55.452 601.98 56.148 600.852 56.148C599.748 56.148 599.016 55.464 599.016 54.132V50.424H597.936V54.276C597.936 56.16 599.124 57.096 600.636 57.096C601.512 57.096 602.316 56.712 602.736 56.028V57H603.828V50.424ZM605.883 57H606.975V48.12H605.883V57ZM609.288 55.2C609.288 56.52 609.948 57 611.112 57H612.096V56.076H611.292C610.62 56.076 610.38 55.848 610.38 55.2V51.324H612.096V50.424H610.38V48.768H609.288V50.424H608.436V51.324H609.288V55.2ZM613.223 53.688C613.223 55.728 614.579 57.108 616.331 57.108C617.543 57.108 618.395 56.484 618.791 55.776V57H619.895V50.424H618.791V51.624C618.407 50.94 617.567 50.316 616.343 50.316C614.579 50.316 613.223 51.636 613.223 53.688ZM618.791 53.7C618.791 55.248 617.759 56.148 616.559 56.148C615.359 56.148 614.339 55.236 614.339 53.688C614.339 52.14 615.359 51.264 616.559 51.264C617.759 51.264 618.791 52.176 618.791 53.7ZM621.544 53.688C621.544 55.728 622.9 57.108 624.664 57.108C625.864 57.108 626.716 56.496 627.112 55.764V57H628.216V48.12H627.112V51.6C626.656 50.844 625.708 50.316 624.676 50.316C622.9 50.316 621.544 51.636 621.544 53.688ZM627.112 53.7C627.112 55.248 626.08 56.148 624.88 56.148C623.68 56.148 622.66 55.236 622.66 53.688C622.66 52.14 623.68 51.264 624.88 51.264C626.08 51.264 627.112 52.176 627.112 53.7ZM636.513 53.7C636.513 51.624 635.061 50.316 633.189 50.316C631.329 50.316 629.865 51.624 629.865 53.7C629.865 55.788 631.281 57.108 633.141 57.108C635.013 57.108 636.513 55.788 636.513 53.7ZM630.981 53.7C630.981 52.044 632.025 51.264 633.177 51.264C634.305 51.264 635.397 52.044 635.397 53.7C635.397 55.368 634.281 56.148 633.141 56.148C632.001 56.148 630.981 55.368 630.981 53.7ZM641.164 53.688C641.164 55.728 642.52 57.108 644.284 57.108C645.484 57.108 646.336 56.496 646.732 55.764V57H647.836V48.12H646.732V51.6C646.276 50.844 645.328 50.316 644.296 50.316C642.52 50.316 641.164 51.636 641.164 53.688ZM646.732 53.7C646.732 55.248 645.7 56.148 644.5 56.148C643.3 56.148 642.28 55.236 642.28 53.688C642.28 52.14 643.3 51.264 644.5 51.264C645.7 51.264 646.732 52.176 646.732 53.7ZM652.689 51.24C653.817 51.24 654.777 51.948 654.765 53.232H650.613C650.733 51.948 651.621 51.24 652.689 51.24ZM655.761 54.972H654.585C654.345 55.68 653.721 56.184 652.737 56.184C651.621 56.184 650.685 55.452 650.601 54.12H655.857C655.881 53.892 655.893 53.7 655.893 53.46C655.893 51.66 654.645 50.316 652.737 50.316C650.817 50.316 649.485 51.624 649.485 53.7C649.485 55.788 650.865 57.108 652.737 57.108C654.369 57.108 655.425 56.172 655.761 54.972ZM657.546 57H658.638V48.12H657.546V57ZM600.664 69H601.816L598.804 60.684H597.544L594.52 69H595.672L596.344 67.14H599.992L600.664 69ZM599.68 66.252H596.656L598.168 62.028L599.68 66.252ZM608.158 69H609.238V65.124C609.238 63.24 608.074 62.304 606.55 62.304C605.662 62.304 604.87 62.676 604.438 63.36V62.424H603.346V69H604.438V65.364C604.438 63.948 605.206 63.252 606.322 63.252C607.426 63.252 608.158 63.936 608.158 65.28V69ZM610.825 65.688C610.825 67.728 612.181 69.108 613.933 69.108C615.145 69.108 615.997 68.484 616.393 67.776V69H617.497V62.424H616.393V63.624C616.009 62.94 615.169 62.316 613.945 62.316C612.181 62.316 610.825 63.636 610.825 65.688ZM616.393 65.7C616.393 67.248 615.361 68.148 614.161 68.148C612.961 68.148 611.941 67.236 611.941 65.688C611.941 64.14 612.961 63.264 614.161 63.264C615.361 63.264 616.393 64.176 616.393 65.7ZM612.985 61.116V61.932L615.541 60.564V59.616L612.985 61.116ZM619.554 69H620.646V60.12H619.554V69ZM622.719 69H623.811V62.424H622.719V69ZM623.283 61.356C623.679 61.356 624.003 61.032 624.003 60.612C624.003 60.192 623.679 59.868 623.283 59.868C622.863 59.868 622.539 60.192 622.539 60.612C622.539 61.032 622.863 61.356 623.283 61.356ZM630.612 67.212C630.564 64.86 626.748 65.712 626.748 64.152C626.748 63.624 627.228 63.24 628.032 63.24C628.908 63.24 629.412 63.72 629.46 64.38H630.552C630.48 63.096 629.52 62.316 628.068 62.316C626.604 62.316 625.656 63.144 625.656 64.152C625.656 66.6 629.544 65.748 629.544 67.212C629.544 67.752 629.064 68.184 628.2 68.184C627.276 68.184 626.712 67.704 626.652 67.068H625.524C625.596 68.268 626.676 69.108 628.212 69.108C629.664 69.108 630.612 68.292 630.612 67.212ZM632.366 69H633.458V62.424H632.366V69ZM632.93 61.356C633.326 61.356 633.65 61.032 633.65 60.612C633.65 60.192 633.326 59.868 632.93 59.868C632.51 59.868 632.186 60.192 632.186 60.612C632.186 61.032 632.51 61.356 632.93 61.356ZM640.259 67.212C640.211 64.86 636.395 65.712 636.395 64.152C636.395 63.624 636.875 63.24 637.679 63.24C638.555 63.24 639.059 63.72 639.107 64.38H640.199C640.127 63.096 639.167 62.316 637.715 62.316C636.251 62.316 635.303 63.144 635.303 64.152C635.303 66.6 639.191 65.748 639.191 67.212C639.191 67.752 638.711 68.184 637.847 68.184C636.923 68.184 636.359 67.704 636.299 67.068H635.171C635.243 68.268 636.323 69.108 637.859 69.108C639.311 69.108 640.259 68.292 640.259 67.212Z" fill="#004357"/>
  <path d="M627.731 5.84346H608.77V4.32642H627.731V5.84346ZM608.972 5.64119H627.528V4.52869H608.972V5.64119Z" fill="#F7931E" stroke="#004357" stroke-width="0.7" stroke-miterlimit="10"/>
  <path d="M617.185 8.47353H608.668V6.85535H617.185V8.47353ZM608.871 8.27125H616.983V7.05762H608.871V8.27125Z" fill="#F7931E" stroke="#004357" stroke-width="0.7" stroke-miterlimit="10"/>
  <path d="M630.682 41.5442H604.318C603.588 41.5442 603 40.9577 603 40.2295V3.31477C603 2.58659 603.588 2 604.318 2H630.682C631.412 2 632 2.58659 632 3.31477V40.2295C632 40.9577 631.412 41.5442 630.682 41.5442ZM604.318 2.20227C603.7 2.20227 603.203 2.69784 603.203 3.31477V40.2295C603.203 40.8464 603.7 41.342 604.318 41.342H630.682C631.3 41.342 631.797 40.8464 631.797 40.2295V3.31477C631.797 2.69784 631.3 2.20227 630.682 2.20227H604.318Z" fill="#F7931E" stroke="#004357" stroke-width="0.7" stroke-miterlimit="10"/>
  <path d="M626.829 29.9136H608.172V30.1158H626.829V29.9136Z" fill="#F7931E" stroke="#004357" stroke-width="0.7" stroke-miterlimit="10"/>
  <path d="M626.88 32.4931H608.121V32.6954H626.88V32.4931Z" fill="#F7931E" stroke="#004357" stroke-width="0.7" stroke-miterlimit="10"/>
  <path d="M626.829 35.0707H608.172V35.273H626.829V35.0707Z" fill="#F7931E" stroke="#004357" stroke-width="0.7" stroke-miterlimit="10"/>
  <path d="M612.521 26.3743H608.363V20.3061H612.521V26.3743ZM608.566 26.172H612.318V20.5084H608.566V26.172Z" fill="#F7931E" stroke="#004357" stroke-width="0.7" stroke-miterlimit="10"/>
  <path d="M627.628 26.3744H623.471V21.7221H627.628V26.3744ZM623.674 26.1721H627.425V21.9244H623.674V26.1721Z" fill="#F7931E" stroke="#004357" stroke-width="0.7" stroke-miterlimit="10"/>
  <path d="M617.794 26.3749H613.637V15.351H617.794V26.3749ZM613.84 26.1726H617.591V15.5533H613.84V26.1726Z" fill="#F7931E" stroke="#004357" stroke-width="0.7" stroke-miterlimit="10"/>
  <path d="M622.56 26.3744H618.402V10.2937H622.56V26.3744ZM618.605 26.1721H622.357V10.496H618.605V26.1721Z" fill="#F7931E" stroke="#004357" stroke-width="0.7" stroke-miterlimit="10"/>
  <path d="M628.845 26.1721H606.74V26.3744H628.845V26.1721Z" fill="#F7931E" stroke="#004357" stroke-width="0.7" stroke-miterlimit="10"/>
  <path d="M489.018 57L485.574 53.184V57H484.482V48.636H485.574V52.512L489.03 48.636H490.41L486.618 52.824L490.446 57H489.018ZM492.442 49.356C492.234 49.356 492.058 49.284 491.914 49.14C491.77 48.996 491.698 48.82 491.698 48.612C491.698 48.404 491.77 48.228 491.914 48.084C492.058 47.94 492.234 47.868 492.442 47.868C492.642 47.868 492.81 47.94 492.946 48.084C493.09 48.228 493.162 48.404 493.162 48.612C493.162 48.82 493.09 48.996 492.946 49.14C492.81 49.284 492.642 49.356 492.442 49.356ZM492.97 50.424V57H491.878V50.424H492.97ZM496.375 51.324V55.2C496.375 55.52 496.443 55.748 496.579 55.884C496.715 56.012 496.951 56.076 497.287 56.076H498.091V57H497.107C496.499 57 496.043 56.86 495.739 56.58C495.435 56.3 495.283 55.84 495.283 55.2V51.324H494.431V50.424H495.283V48.768H496.375V50.424H498.091V51.324H496.375ZM509.037 53.46C509.037 53.668 509.025 53.888 509.001 54.12H503.745C503.785 54.768 504.005 55.276 504.405 55.644C504.813 56.004 505.305 56.184 505.881 56.184C506.353 56.184 506.745 56.076 507.057 55.86C507.377 55.636 507.601 55.34 507.729 54.972H508.905C508.729 55.604 508.377 56.12 507.849 56.52C507.321 56.912 506.665 57.108 505.881 57.108C505.257 57.108 504.697 56.968 504.201 56.688C503.713 56.408 503.329 56.012 503.049 55.5C502.769 54.98 502.629 54.38 502.629 53.7C502.629 53.02 502.765 52.424 503.037 51.912C503.309 51.4 503.689 51.008 504.177 50.736C504.673 50.456 505.241 50.316 505.881 50.316C506.505 50.316 507.057 50.452 507.537 50.724C508.017 50.996 508.385 51.372 508.641 51.852C508.905 52.324 509.037 52.86 509.037 53.46ZM507.909 53.232C507.909 52.816 507.817 52.46 507.633 52.164C507.449 51.86 507.197 51.632 506.877 51.48C506.565 51.32 506.217 51.24 505.833 51.24C505.281 51.24 504.809 51.416 504.417 51.768C504.033 52.12 503.813 52.608 503.757 53.232H507.909ZM513.894 50.304C514.694 50.304 515.342 50.548 515.838 51.036C516.334 51.516 516.582 52.212 516.582 53.124V57H515.502V53.28C515.502 52.624 515.338 52.124 515.01 51.78C514.682 51.428 514.234 51.252 513.666 51.252C513.09 51.252 512.63 51.432 512.286 51.792C511.95 52.152 511.782 52.676 511.782 53.364V57H510.69V50.424H511.782V51.36C511.998 51.024 512.29 50.764 512.658 50.58C513.034 50.396 513.446 50.304 513.894 50.304ZM482.992 67.14H479.344L478.672 69H477.52L480.544 60.684H481.804L484.816 69H483.664L482.992 67.14ZM482.68 66.252L481.168 62.028L479.656 66.252H482.68ZM489.55 62.304C490.35 62.304 490.998 62.548 491.494 63.036C491.99 63.516 492.238 64.212 492.238 65.124V69H491.158V65.28C491.158 64.624 490.994 64.124 490.666 63.78C490.338 63.428 489.89 63.252 489.322 63.252C488.746 63.252 488.286 63.432 487.942 63.792C487.606 64.152 487.438 64.676 487.438 65.364V69H486.346V62.424H487.438V63.36C487.654 63.024 487.946 62.764 488.314 62.58C488.69 62.396 489.102 62.304 489.55 62.304ZM493.825 65.688C493.825 65.016 493.961 64.428 494.233 63.924C494.505 63.412 494.877 63.016 495.349 62.736C495.829 62.456 496.361 62.316 496.945 62.316C497.521 62.316 498.021 62.44 498.445 62.688C498.869 62.936 499.185 63.248 499.393 63.624V62.424H500.497V69H499.393V67.776C499.177 68.16 498.853 68.48 498.421 68.736C497.997 68.984 497.501 69.108 496.933 69.108C496.349 69.108 495.821 68.964 495.349 68.676C494.877 68.388 494.505 67.984 494.233 67.464C493.961 66.944 493.825 66.352 493.825 65.688ZM499.393 65.7C499.393 65.204 499.293 64.772 499.093 64.404C498.893 64.036 498.621 63.756 498.277 63.564C497.941 63.364 497.569 63.264 497.161 63.264C496.753 63.264 496.381 63.36 496.045 63.552C495.709 63.744 495.441 64.024 495.241 64.392C495.041 64.76 494.941 65.192 494.941 65.688C494.941 66.192 495.041 66.632 495.241 67.008C495.441 67.376 495.709 67.66 496.045 67.86C496.381 68.052 496.753 68.148 497.161 68.148C497.569 68.148 497.941 68.052 498.277 67.86C498.621 67.66 498.893 67.376 499.093 67.008C499.293 66.632 499.393 66.196 499.393 65.7ZM498.541 60.564L495.985 61.932V61.116L498.541 59.616V60.564ZM503.646 60.12V69H502.554V60.12H503.646ZM506.283 61.356C506.075 61.356 505.899 61.284 505.755 61.14C505.611 60.996 505.539 60.82 505.539 60.612C505.539 60.404 505.611 60.228 505.755 60.084C505.899 59.94 506.075 59.868 506.283 59.868C506.483 59.868 506.651 59.94 506.787 60.084C506.931 60.228 507.003 60.404 507.003 60.612C507.003 60.82 506.931 60.996 506.787 61.14C506.651 61.284 506.483 61.356 506.283 61.356ZM506.811 62.424V69H505.719V62.424H506.811ZM511.212 69.108C510.708 69.108 510.256 69.024 509.856 68.856C509.456 68.68 509.14 68.44 508.908 68.136C508.676 67.824 508.548 67.468 508.524 67.068H509.652C509.684 67.396 509.836 67.664 510.108 67.872C510.388 68.08 510.752 68.184 511.2 68.184C511.616 68.184 511.944 68.092 512.184 67.908C512.424 67.724 512.544 67.492 512.544 67.212C512.544 66.924 512.416 66.712 512.16 66.576C511.904 66.432 511.508 66.292 510.972 66.156C510.484 66.028 510.084 65.9 509.772 65.772C509.468 65.636 509.204 65.44 508.98 65.184C508.764 64.92 508.656 64.576 508.656 64.152C508.656 63.816 508.756 63.508 508.956 63.228C509.156 62.948 509.44 62.728 509.808 62.568C510.176 62.4 510.596 62.316 511.068 62.316C511.796 62.316 512.384 62.5 512.832 62.868C513.28 63.236 513.52 63.74 513.552 64.38H512.46C512.436 64.036 512.296 63.76 512.04 63.552C511.792 63.344 511.456 63.24 511.032 63.24C510.64 63.24 510.328 63.324 510.096 63.492C509.864 63.66 509.748 63.88 509.748 64.152C509.748 64.368 509.816 64.548 509.952 64.692C510.096 64.828 510.272 64.94 510.48 65.028C510.696 65.108 510.992 65.2 511.368 65.304C511.84 65.432 512.224 65.56 512.52 65.688C512.816 65.808 513.068 65.992 513.276 66.24C513.492 66.488 513.604 66.812 513.612 67.212C513.612 67.572 513.512 67.896 513.312 68.184C513.112 68.472 512.828 68.7 512.46 68.868C512.1 69.028 511.684 69.108 511.212 69.108ZM515.93 61.356C515.722 61.356 515.546 61.284 515.402 61.14C515.258 60.996 515.186 60.82 515.186 60.612C515.186 60.404 515.258 60.228 515.402 60.084C515.546 59.94 515.722 59.868 515.93 59.868C516.13 59.868 516.298 59.94 516.434 60.084C516.578 60.228 516.65 60.404 516.65 60.612C516.65 60.82 516.578 60.996 516.434 61.14C516.298 61.284 516.13 61.356 515.93 61.356ZM516.458 62.424V69H515.366V62.424H516.458ZM520.859 69.108C520.355 69.108 519.903 69.024 519.503 68.856C519.103 68.68 518.787 68.44 518.555 68.136C518.323 67.824 518.195 67.468 518.171 67.068H519.299C519.331 67.396 519.483 67.664 519.755 67.872C520.035 68.08 520.399 68.184 520.847 68.184C521.263 68.184 521.591 68.092 521.831 67.908C522.071 67.724 522.191 67.492 522.191 67.212C522.191 66.924 522.063 66.712 521.807 66.576C521.551 66.432 521.155 66.292 520.619 66.156C520.131 66.028 519.731 65.9 519.419 65.772C519.115 65.636 518.851 65.44 518.627 65.184C518.411 64.92 518.303 64.576 518.303 64.152C518.303 63.816 518.403 63.508 518.603 63.228C518.803 62.948 519.087 62.728 519.455 62.568C519.823 62.4 520.243 62.316 520.715 62.316C521.443 62.316 522.031 62.5 522.479 62.868C522.927 63.236 523.167 63.74 523.199 64.38H522.107C522.083 64.036 521.943 63.76 521.687 63.552C521.439 63.344 521.103 63.24 520.679 63.24C520.287 63.24 519.975 63.324 519.743 63.492C519.511 63.66 519.395 63.88 519.395 64.152C519.395 64.368 519.463 64.548 519.599 64.692C519.743 64.828 519.919 64.94 520.127 65.028C520.343 65.108 520.639 65.2 521.015 65.304C521.487 65.432 521.871 65.56 522.167 65.688C522.463 65.808 522.715 65.992 522.923 66.24C523.139 66.488 523.251 66.812 523.259 67.212C523.259 67.572 523.159 67.896 522.959 68.184C522.759 68.472 522.475 68.7 522.107 68.868C521.747 69.028 521.331 69.108 520.859 69.108Z" fill="#004357"/>
  <path d="M500.261 9.85889H499.059L496.791 12.5346V9.85889H495.838V15.7091H496.791V13.0788L499.059 15.7091H500.306L497.721 12.784L500.261 9.85889Z" fill="#004357" stroke="#004357" stroke-width="0.5" stroke-miterlimit="10"/>
  <path d="M502.099 11.0613H501.146V15.6871H502.099V11.0613Z" fill="#004357" stroke="#004357" stroke-width="0.5" stroke-miterlimit="10"/>
  <path d="M501.646 9.22333C501.305 9.22333 501.033 9.49543 501.033 9.83556C501.033 10.1757 501.305 10.4478 501.646 10.4478C501.986 10.4478 502.258 10.1757 502.258 9.83556C502.235 9.49543 501.986 9.22333 501.646 9.22333Z" fill="#004357" stroke="#004357" stroke-width="0.5" stroke-miterlimit="10"/>
  <path d="M504.481 9.92737H503.505V11.0838H502.961V11.8548H503.505V14.4171C503.505 15.3468 504.027 15.7096 504.844 15.7096H505.592V14.8933H505.002C504.594 14.8933 504.458 14.7572 504.458 14.4171V11.8548H505.592V11.0838H504.458V9.92737H504.481Z" fill="#004357" stroke="#004357" stroke-width="0.5" stroke-miterlimit="10"/>
  <path d="M502.847 24.8462C503.142 24.8689 503.46 24.8916 503.777 24.8916C503.8 24.8916 503.823 24.8916 503.846 24.8916C505.048 24.8916 506.25 24.6875 507.429 24.234C507.52 24.2113 507.588 24.166 507.679 24.1206C508.768 23.6671 509.766 23.0322 510.628 22.2386C511.626 21.3315 512.442 20.1978 513.01 18.928C513.463 17.8849 513.758 16.8191 513.849 15.7081C513.871 15.5266 513.871 15.3452 513.871 15.1865C513.917 13.8713 513.69 12.5335 513.214 11.2637C512.533 9.495 511.376 7.97575 509.879 6.84198C509.72 6.72861 509.584 6.61523 509.426 6.52453C509.176 6.3658 508.927 6.20707 508.654 6.04835C508.405 5.91229 508.178 5.79892 507.928 5.68554C507.86 5.66286 507.792 5.61751 507.724 5.59484C505.32 4.59712 502.689 4.55177 500.262 5.48146C500.171 5.52681 500.057 5.57216 499.967 5.59484C499.649 5.73089 499.332 5.88962 499.014 6.04835C497.109 7.09141 495.589 8.72404 494.682 10.7648C493.593 13.2138 493.525 15.9348 494.477 18.4291C494.568 18.6559 494.659 18.8826 494.772 19.0867C494.908 19.3588 495.045 19.6309 495.203 19.903C496.111 21.5583 497.472 22.8281 499.059 23.6898C499.218 23.7805 499.354 23.8485 499.513 23.9165C499.717 24.0072 499.921 24.0979 500.126 24.1886C500.284 24.2567 500.42 24.302 500.579 24.3474C501.305 24.6195 502.076 24.7782 502.847 24.8462ZM500.579 24.2567V24.0979H500.602V24.166C500.919 24.302 501.26 24.4381 501.6 24.5288C501.26 24.4834 500.919 24.37 500.579 24.2567ZM500.579 24.0299V23.4177L502.235 24.4834C501.668 24.37 501.124 24.2113 500.579 24.0299ZM502.53 24.7328L502.394 24.6195C502.144 24.5741 501.895 24.4834 501.645 24.4154C501.895 24.4834 502.144 24.5288 502.417 24.5741L502.711 24.7555C502.643 24.7328 502.575 24.7328 502.53 24.7328ZM509.879 7.27282C511.195 8.31588 512.261 9.72176 512.919 11.3997C513.372 12.5562 513.577 13.7806 513.554 15.0051L513.055 14.665L513.032 14.6877L509.879 13.1911V7.27282ZM509.879 13.6673L512.579 14.9598L509.879 16.6377V13.6673ZM513.055 15.1865L513.531 15.5266C513.463 16.6377 513.168 17.7715 512.715 18.8146C511.649 21.1955 509.743 23.0095 507.316 23.9392C506 24.4381 504.617 24.6421 503.256 24.5741L500.67 22.9188L513.055 15.1865ZM503.823 5.14133C504.844 5.14133 505.842 5.30006 506.817 5.61751H500.829C501.827 5.30006 502.825 5.14133 503.823 5.14133ZM499.354 23.4857C497.903 22.7374 496.7 21.649 495.793 20.3338L500.012 23.0322L499.354 23.4857ZM500.126 23.8485C500.035 23.8032 499.967 23.7805 499.876 23.7351C499.853 23.7351 499.853 23.7125 499.831 23.7125L500.126 23.5084V23.8485ZM495.271 19.4495C495.09 19.0867 494.908 18.7239 494.772 18.3384C493.842 15.9121 493.91 13.2818 494.976 10.9009C495.929 8.74672 497.608 7.04606 499.717 6.07102H507.974C508.496 6.32045 508.972 6.59255 509.448 6.91001V16.9098L500.262 22.6467L495.271 19.4495Z" fill="#004357" stroke="#004357" stroke-width="0.5" stroke-miterlimit="10"/>
  <path d="M512.715 31.4001L513.509 30.924V23.3504C514.507 22.1939 515.301 20.8788 515.845 19.4729L518 18.1124L516.526 17.0693C516.911 14.8471 516.73 12.5116 515.868 10.2667C513.305 3.6455 505.842 0.312221 499.218 2.85186C497.54 3.48677 496.088 4.43914 494.863 5.61826H490.599V13.1918L483.227 17.9083L483 18.2938L487.65 21.1509V30.6972L500.398 38.815L500.466 38.9284L500.534 38.883L500.579 38.9057V38.8377L508.677 33.8718L511.445 41.1052C511.739 41.8535 512.443 42.3297 513.214 42.3297C513.441 42.3297 513.668 42.2843 513.894 42.1936L514.711 41.8762C515.686 41.5134 516.163 40.4023 515.8 39.4272L512.715 31.4001ZM513.055 30.6745L512.556 30.992L511.263 27.5907C511.082 27.1145 510.719 26.7517 510.265 26.5476C510.061 26.4569 509.834 26.4116 509.63 26.3889C510.946 25.7313 512.102 24.8696 513.078 23.8719V30.6745H513.055ZM517.183 18.0897L516.095 18.7926C516.231 18.3845 516.321 17.9763 516.412 17.5682L517.183 18.0897ZM491.052 6.07176H494.41C492.572 8.04452 491.393 10.5615 491.052 13.2145V6.07176ZM490.599 13.736V16.4798L488.467 15.1192L490.599 13.736ZM483.658 18.1577L488.036 15.3687L491.211 17.3868C491.347 18.0897 491.552 18.77 491.801 19.4729C492.754 21.9899 494.432 24.008 496.496 25.4365L496.043 25.754L483.658 18.1577ZM500.126 38.0894L488.104 30.4478V21.423L496.043 26.2982L496.905 25.7086C497.903 26.3435 498.992 26.8424 500.126 27.1825V38.0894ZM500.126 26.8651C499.649 26.7063 499.173 26.5476 498.719 26.3435C498.198 26.1168 497.676 25.822 497.2 25.5272C497.064 25.4365 496.927 25.3458 496.791 25.2551C494.682 23.8266 493.049 21.7858 492.119 19.3595C491.892 18.7926 491.733 18.2258 491.597 17.6362C491.552 17.4321 491.506 17.228 491.461 17.024C491.03 14.5977 491.347 12.0807 492.368 9.76785C492.981 8.38465 493.843 7.1375 494.863 6.09444C495.022 5.93571 495.181 5.77698 495.34 5.64093C496.496 4.57519 497.835 3.7362 499.355 3.16932C500.784 2.57976 502.303 2.30765 503.823 2.30765C505.57 2.30765 507.294 2.67046 508.949 3.39607C512.012 4.75659 514.371 7.22821 515.573 10.3574C516.367 12.4662 516.594 14.6884 516.253 16.8426C516.231 17.0013 516.185 17.16 516.163 17.3414C516.049 17.9083 515.89 18.4752 515.686 19.0421C515.596 19.2915 515.505 19.5183 515.414 19.7677C515.391 19.8357 515.346 19.9037 515.323 19.9944C514.847 21.0602 514.257 22.0125 513.531 22.8969C513.395 23.0783 513.237 23.2597 513.078 23.4184C511.785 24.8243 510.174 25.9127 508.36 26.6156C505.842 27.568 503.165 27.7041 500.602 27.0238C500.421 26.9558 500.285 26.9104 500.126 26.8651ZM500.579 38.3161V27.3186C501.645 27.5907 502.734 27.7494 503.846 27.7494C505.003 27.7494 506.159 27.5907 507.294 27.2732C507.157 27.432 507.021 27.6134 506.931 27.7948C506.727 28.2483 506.704 28.7698 506.885 29.246L508.496 33.4409L500.579 38.3161ZM514.598 41.6041L513.781 41.9215C512.964 42.239 512.057 41.8308 511.739 41.0145L508.949 33.713L508.791 33.2822L507.203 29.1326C506.885 28.3163 507.294 27.4093 508.11 27.0918L508.927 26.7744C509.108 26.7063 509.312 26.661 509.494 26.661C510.129 26.661 510.719 27.0465 510.968 27.6814L512.284 31.128L512.443 31.5589L515.505 39.5633C515.822 40.3796 515.414 41.2866 514.598 41.6041Z" fill="#004357" stroke="#004357" stroke-width="0.5" stroke-miterlimit="10"/>
  <rect x="37" y="90" width="1.99996" height="834" transform="rotate(-90 37 90)" fill="#004357"/>
  <circle cx="871" cy="89" r="9" transform="rotate(-90 871 89)" fill="#004357"/>
  <circle cx="159" cy="89" r="7" transform="rotate(-90 159 89)" fill="#004357"/>
  <circle cx="37" cy="89" r="7" transform="rotate(-90 37 89)" fill="#004357"/>
  <circle cx="289" cy="89" r="7" transform="rotate(-90 289 89)" fill="#004357"/>
  <circle cx="399" cy="89" r="7" transform="rotate(-90 399 89)" fill="#004357"/>
  <circle cx="500" cy="89" r="7" transform="rotate(-90 500 89)" fill="#004357"/>
  <g clip-path="url(#clip0_1587_567)">
    <path d="M855.026 25.5645H851.068V41.9339H855.026V25.5645Z" stroke="#004357" stroke-miterlimit="10"/>
    <path d="M855.396 27.1234C855.396 27.1234 861.251 22.6578 865.96 26.4893C865.96 26.4893 878.503 26.0929 875.364 31.6815C875.364 31.6815 881.628 31.1266 882.461 30.3207C883.28 29.528 890.213 24.9699 891.291 26.5685C892.37 28.1672 892.37 28.9599 889.394 30.7963C886.419 32.6328 879.909 38.3799 878.421 38.3007C876.933 38.2214 866.874 40.5995 855.027 39.8464" stroke="#004357" stroke-miterlimit="10"/>
    <path d="M862.493 33.7426C862.493 33.7426 860.541 30.1357 875.827 31.6155" stroke="#004357" stroke-miterlimit="10"/>
    <path d="M858.289 25.4323V14.0305C858.289 13.502 858.739 13.066 859.285 13.066H884.194C884.74 13.066 885.19 13.502 885.19 14.0305V27.7708" stroke="#004357" stroke-miterlimit="10"/>
    <path d="M858.588 13.3435C858.588 13.3435 867.405 24.2565 871.731 24.2565C876.058 24.2565 884.875 13.3435 884.875 13.3435" stroke="#004357" stroke-miterlimit="10"/>
  </g>
  <circle cx="751" cy="89" r="7" transform="rotate(-90 751 89)" fill="#004357"/>
  <circle cx="618" cy="89" r="7" transform="rotate(-90 618 89)" fill="#004357"/>
  <circle cx="871" cy="89" r="7" transform="rotate(-90 871 89)" fill="#004357"/>
  <path d="M709.21 57H710.302V48.636H709.21V57ZM717.187 57H718.267V53.124C718.267 51.24 717.103 50.304 715.579 50.304C714.691 50.304 713.899 50.676 713.467 51.36V50.424H712.375V57H713.467V53.364C713.467 51.948 714.235 51.252 715.351 51.252C716.455 51.252 717.187 51.936 717.187 53.28V57ZM720.502 55.2C720.502 56.52 721.162 57 722.326 57H723.31V56.076H722.506C721.834 56.076 721.594 55.848 721.594 55.2V51.324H723.31V50.424H721.594V48.768H720.502V50.424H719.65V51.324H720.502V55.2ZM727.641 51.24C728.769 51.24 729.729 51.948 729.717 53.232H725.565C725.685 51.948 726.573 51.24 727.641 51.24ZM730.713 54.972H729.537C729.297 55.68 728.673 56.184 727.689 56.184C726.573 56.184 725.637 55.452 725.553 54.12H730.809C730.833 53.892 730.845 53.7 730.845 53.46C730.845 51.66 729.597 50.316 727.689 50.316C725.769 50.316 724.437 51.624 724.437 53.7C724.437 55.788 725.817 57.108 727.689 57.108C729.321 57.108 730.377 56.172 730.713 54.972ZM733.59 53.424C733.59 51.9 734.382 51.432 735.426 51.432H735.714V50.304C734.67 50.304 733.962 50.76 733.59 51.492V50.424H732.498V57H733.59V53.424ZM738.279 51.636V50.424H737.187V60.12H738.279V55.788C738.687 56.46 739.539 57.108 740.739 57.108C742.503 57.108 743.859 55.728 743.859 53.688C743.859 51.636 742.503 50.316 740.739 50.316C739.539 50.316 738.675 50.94 738.279 51.636ZM742.743 53.688C742.743 55.236 741.723 56.148 740.511 56.148C739.323 56.148 738.279 55.248 738.279 53.7C738.279 52.176 739.323 51.264 740.511 51.264C741.723 51.264 742.743 52.14 742.743 53.688ZM746.6 53.424C746.6 51.9 747.392 51.432 748.436 51.432H748.724V50.304C747.68 50.304 746.972 50.76 746.6 51.492V50.424H745.508V57H746.6V53.424ZM752.992 51.24C754.12 51.24 755.08 51.948 755.068 53.232H750.916C751.036 51.948 751.924 51.24 752.992 51.24ZM756.064 54.972H754.888C754.648 55.68 754.024 56.184 753.04 56.184C751.924 56.184 750.988 55.452 750.904 54.12H756.16C756.184 53.892 756.196 53.7 756.196 53.46C756.196 51.66 754.948 50.316 753.04 50.316C751.12 50.316 749.788 51.624 749.788 53.7C749.788 55.788 751.168 57.108 753.04 57.108C754.672 57.108 755.728 56.172 756.064 54.972ZM758.09 55.2C758.09 56.52 758.75 57 759.914 57H760.898V56.076H760.094C759.422 56.076 759.182 55.848 759.182 55.2V51.324H760.898V50.424H759.182V48.768H758.09V50.424H757.238V51.324H758.09V55.2ZM762.025 53.688C762.025 55.728 763.381 57.108 765.133 57.108C766.345 57.108 767.197 56.484 767.593 55.776V57H768.697V50.424H767.593V51.624C767.209 50.94 766.369 50.316 765.145 50.316C763.381 50.316 762.025 51.636 762.025 53.688ZM767.593 53.7C767.593 55.248 766.561 56.148 765.361 56.148C764.161 56.148 763.141 55.236 763.141 53.688C763.141 52.14 764.161 51.264 765.361 51.264C766.561 51.264 767.593 52.176 767.593 53.7ZM775.566 57H776.646V53.124C776.646 51.24 775.482 50.304 773.958 50.304C773.07 50.304 772.278 50.676 771.846 51.36V50.424H770.754V57H771.846V53.364C771.846 51.948 772.614 51.252 773.73 51.252C774.834 51.252 775.566 51.936 775.566 53.28V57ZM778.233 53.688C778.233 55.728 779.589 57.108 781.353 57.108C782.553 57.108 783.405 56.496 783.801 55.764V57H784.905V48.12H783.801V51.6C783.345 50.844 782.397 50.316 781.365 50.316C779.589 50.316 778.233 51.636 778.233 53.688ZM783.801 53.7C783.801 55.248 782.769 56.148 781.569 56.148C780.369 56.148 779.349 55.236 779.349 53.688C779.349 52.14 780.369 51.264 781.569 51.264C782.769 51.264 783.801 52.176 783.801 53.7ZM793.202 53.7C793.202 51.624 791.75 50.316 789.878 50.316C788.018 50.316 786.554 51.624 786.554 53.7C786.554 55.788 787.97 57.108 789.83 57.108C791.702 57.108 793.202 55.788 793.202 53.7ZM787.67 53.7C787.67 52.044 788.714 51.264 789.866 51.264C790.994 51.264 792.086 52.044 792.086 53.7C792.086 55.368 790.97 56.148 789.83 56.148C788.69 56.148 787.67 55.368 787.67 53.7ZM722.359 63.096C722.359 64.032 721.819 64.704 720.583 64.704H718.975V61.536H720.583C721.831 61.536 722.359 62.148 722.359 63.096ZM717.883 60.636V69H718.975V65.58H720.295L722.287 69H723.595L721.495 65.496C722.899 65.184 723.487 64.164 723.487 63.096C723.487 61.728 722.551 60.636 720.583 60.636H717.883ZM728.192 63.24C729.32 63.24 730.28 63.948 730.268 65.232H726.116C726.236 63.948 727.124 63.24 728.192 63.24ZM731.264 66.972H730.088C729.848 67.68 729.224 68.184 728.24 68.184C727.124 68.184 726.188 67.452 726.104 66.12H731.36C731.384 65.892 731.396 65.7 731.396 65.46C731.396 63.66 730.148 62.316 728.24 62.316C726.32 62.316 724.988 63.624 724.988 65.7C724.988 67.788 726.368 69.108 728.24 69.108C729.872 69.108 730.928 68.172 731.264 66.972ZM737.777 67.212C737.729 64.86 733.913 65.712 733.913 64.152C733.913 63.624 734.393 63.24 735.197 63.24C736.073 63.24 736.577 63.72 736.625 64.38H737.717C737.645 63.096 736.685 62.316 735.233 62.316C733.769 62.316 732.821 63.144 732.821 64.152C732.821 66.6 736.709 65.748 736.709 67.212C736.709 67.752 736.229 68.184 735.365 68.184C734.441 68.184 733.877 67.704 733.817 67.068H732.689C732.761 68.268 733.841 69.108 735.377 69.108C736.829 69.108 737.777 68.292 737.777 67.212ZM745.362 62.424H744.27V66.036C744.27 67.452 743.514 68.148 742.386 68.148C741.282 68.148 740.55 67.464 740.55 66.132V62.424H739.47V66.276C739.47 68.16 740.658 69.096 742.17 69.096C743.046 69.096 743.85 68.712 744.27 68.028V69H745.362V62.424ZM747.418 69H748.51V60.12H747.418V69ZM750.823 67.2C750.823 68.52 751.483 69 752.647 69H753.631V68.076H752.827C752.155 68.076 751.915 67.848 751.915 67.2V63.324H753.631V62.424H751.915V60.768H750.823V62.424H749.971V63.324H750.823V67.2ZM754.758 65.688C754.758 67.728 756.114 69.108 757.866 69.108C759.078 69.108 759.93 68.484 760.326 67.776V69H761.43V62.424H760.326V63.624C759.942 62.94 759.102 62.316 757.878 62.316C756.114 62.316 754.758 63.636 754.758 65.688ZM760.326 65.7C760.326 67.248 759.294 68.148 758.094 68.148C756.894 68.148 755.874 67.236 755.874 65.688C755.874 64.14 756.894 63.264 758.094 63.264C759.294 63.264 760.326 64.176 760.326 65.7ZM763.079 65.688C763.079 67.728 764.435 69.108 766.199 69.108C767.399 69.108 768.251 68.496 768.647 67.764V69H769.751V60.12H768.647V63.6C768.191 62.844 767.243 62.316 766.211 62.316C764.435 62.316 763.079 63.636 763.079 65.688ZM768.647 65.7C768.647 67.248 767.615 68.148 766.415 68.148C765.215 68.148 764.195 67.236 764.195 65.688C764.195 64.14 765.215 63.264 766.415 63.264C767.615 63.264 768.647 64.176 768.647 65.7ZM778.048 65.7C778.048 63.624 776.596 62.316 774.724 62.316C772.864 62.316 771.4 63.624 771.4 65.7C771.4 67.788 772.816 69.108 774.676 69.108C776.548 69.108 778.048 67.788 778.048 65.7ZM772.516 65.7C772.516 64.044 773.56 63.264 774.712 63.264C775.84 63.264 776.932 64.044 776.932 65.7C776.932 67.368 775.816 68.148 774.676 68.148C773.536 68.148 772.516 67.368 772.516 65.7ZM784.424 67.212C784.376 64.86 780.56 65.712 780.56 64.152C780.56 63.624 781.04 63.24 781.844 63.24C782.72 63.24 783.224 63.72 783.272 64.38H784.364C784.292 63.096 783.332 62.316 781.88 62.316C780.416 62.316 779.468 63.144 779.468 64.152C779.468 66.6 783.356 65.748 783.356 67.212C783.356 67.752 782.876 68.184 782.012 68.184C781.088 68.184 780.524 67.704 780.464 67.068H779.336C779.408 68.268 780.488 69.108 782.024 69.108C783.476 69.108 784.424 68.292 784.424 67.212Z" fill="#004357"/>
  <path d="M842.859 51.096C842.859 52.032 842.319 52.704 841.083 52.704H839.475V49.536H841.083C842.331 49.536 842.859 50.148 842.859 51.096ZM838.383 48.636V57H839.475V53.58H840.795L842.787 57H844.095L841.995 53.496C843.399 53.184 843.987 52.164 843.987 51.096C843.987 49.728 843.051 48.636 841.083 48.636H838.383ZM848.692 51.24C849.82 51.24 850.78 51.948 850.768 53.232H846.616C846.736 51.948 847.624 51.24 848.692 51.24ZM851.764 54.972H850.588C850.348 55.68 849.724 56.184 848.74 56.184C847.624 56.184 846.688 55.452 846.604 54.12H851.86C851.884 53.892 851.896 53.7 851.896 53.46C851.896 51.66 850.648 50.316 848.74 50.316C846.82 50.316 845.488 51.624 845.488 53.7C845.488 55.788 846.868 57.108 848.74 57.108C850.372 57.108 851.428 56.172 851.764 54.972ZM858.277 55.212C858.229 52.86 854.413 53.712 854.413 52.152C854.413 51.624 854.893 51.24 855.697 51.24C856.573 51.24 857.077 51.72 857.125 52.38H858.217C858.145 51.096 857.185 50.316 855.733 50.316C854.269 50.316 853.321 51.144 853.321 52.152C853.321 54.6 857.209 53.748 857.209 55.212C857.209 55.752 856.729 56.184 855.865 56.184C854.941 56.184 854.377 55.704 854.317 55.068H853.189C853.261 56.268 854.341 57.108 855.877 57.108C857.329 57.108 858.277 56.292 858.277 55.212ZM865.862 50.424H864.77V54.036C864.77 55.452 864.014 56.148 862.886 56.148C861.782 56.148 861.05 55.464 861.05 54.132V50.424H859.97V54.276C859.97 56.16 861.158 57.096 862.67 57.096C863.546 57.096 864.35 56.712 864.77 56.028V57H865.862V50.424ZM867.918 57H869.01V48.12H867.918V57ZM871.323 55.2C871.323 56.52 871.983 57 873.147 57H874.131V56.076H873.327C872.655 56.076 872.415 55.848 872.415 55.2V51.324H874.131V50.424H872.415V48.768H871.323V50.424H870.471V51.324H871.323V55.2ZM875.258 53.688C875.258 55.728 876.614 57.108 878.366 57.108C879.578 57.108 880.43 56.484 880.826 55.776V57H881.93V50.424H880.826V51.624C880.442 50.94 879.602 50.316 878.378 50.316C876.614 50.316 875.258 51.636 875.258 53.688ZM880.826 53.7C880.826 55.248 879.794 56.148 878.594 56.148C877.394 56.148 876.374 55.236 876.374 53.688C876.374 52.14 877.394 51.264 878.594 51.264C879.794 51.264 880.826 52.176 880.826 53.7ZM883.579 53.688C883.579 55.728 884.935 57.108 886.699 57.108C887.899 57.108 888.751 56.496 889.147 55.764V57H890.251V48.12H889.147V51.6C888.691 50.844 887.743 50.316 886.711 50.316C884.935 50.316 883.579 51.636 883.579 53.688ZM889.147 53.7C889.147 55.248 888.115 56.148 886.915 56.148C885.715 56.148 884.695 55.236 884.695 53.688C884.695 52.14 885.715 51.264 886.915 51.264C888.115 51.264 889.147 52.176 889.147 53.7ZM898.548 53.7C898.548 51.624 897.096 50.316 895.224 50.316C893.364 50.316 891.9 51.624 891.9 53.7C891.9 55.788 893.316 57.108 895.176 57.108C897.048 57.108 898.548 55.788 898.548 53.7ZM893.016 53.7C893.016 52.044 894.06 51.264 895.212 51.264C896.34 51.264 897.432 52.044 897.432 53.7C897.432 55.368 896.316 56.148 895.176 56.148C894.036 56.148 893.016 55.368 893.016 53.7ZM904.924 55.212C904.876 52.86 901.06 53.712 901.06 52.152C901.06 51.624 901.54 51.24 902.344 51.24C903.22 51.24 903.724 51.72 903.772 52.38H904.864C904.792 51.096 903.832 50.316 902.38 50.316C900.916 50.316 899.968 51.144 899.968 52.152C899.968 54.6 903.856 53.748 903.856 55.212C903.856 55.752 903.376 56.184 902.512 56.184C901.588 56.184 901.024 55.704 900.964 55.068H899.836C899.908 56.268 900.988 57.108 902.524 57.108C903.976 57.108 904.924 56.292 904.924 55.212ZM841.775 60.624H837.275V69H841.775V68.1H838.367V65.22H841.415V64.32H838.367V61.524H841.775V60.624ZM848.452 69H849.532V65.124C849.532 63.24 848.368 62.304 846.844 62.304C845.956 62.304 845.164 62.676 844.732 63.36V62.424H843.64V69H844.732V65.364C844.732 63.948 845.5 63.252 846.616 63.252C847.72 63.252 848.452 63.936 848.452 65.28V69ZM851.767 67.2C851.767 68.52 852.427 69 853.591 69H854.575V68.076H853.771C853.099 68.076 852.859 67.848 852.859 67.2V63.324H854.575V62.424H852.859V60.768H851.767V62.424H850.915V63.324H851.767V67.2ZM857.202 65.424C857.202 63.9 857.994 63.432 859.038 63.432H859.326V62.304C858.282 62.304 857.574 62.76 857.202 63.492V62.424H856.11V69H857.202V65.424ZM863.595 63.24C864.723 63.24 865.683 63.948 865.671 65.232H861.519C861.639 63.948 862.527 63.24 863.595 63.24ZM866.667 66.972H865.491C865.251 67.68 864.627 68.184 863.643 68.184C862.527 68.184 861.591 67.452 861.507 66.12H866.763C866.787 65.892 866.799 65.7 866.799 65.46C866.799 63.66 865.551 62.316 863.643 62.316C861.723 62.316 860.391 63.624 860.391 65.7C860.391 67.788 861.771 69.108 863.643 69.108C865.275 69.108 866.331 68.172 866.667 66.972ZM868.044 65.688C868.044 67.728 869.4 69.108 871.164 69.108C872.364 69.108 873.216 68.472 873.612 67.764V69.144C873.612 70.548 872.736 71.292 871.572 71.292C870.492 71.292 869.712 70.752 869.472 69.96H868.392C868.608 71.364 869.844 72.24 871.572 72.24C873.504 72.24 874.716 70.956 874.716 69.144V62.424H873.612V63.624C873.228 62.916 872.364 62.316 871.164 62.316C869.4 62.316 868.044 63.636 868.044 65.688ZM873.612 65.7C873.612 67.248 872.58 68.148 871.38 68.148C870.18 68.148 869.16 67.236 869.16 65.688C869.16 64.14 870.18 63.264 871.38 63.264C872.58 63.264 873.612 64.176 873.612 65.7ZM876.365 65.688C876.365 67.728 877.721 69.108 879.473 69.108C880.685 69.108 881.537 68.484 881.933 67.776V69H883.037V62.424H881.933V63.624C881.549 62.94 880.709 62.316 879.485 62.316C877.721 62.316 876.365 63.636 876.365 65.688ZM881.933 65.7C881.933 67.248 880.901 68.148 879.701 68.148C878.501 68.148 877.481 67.236 877.481 65.688C877.481 64.14 878.501 63.264 879.701 63.264C880.901 63.264 881.933 64.176 881.933 65.7ZM884.686 65.688C884.686 67.728 886.042 69.108 887.806 69.108C889.006 69.108 889.858 68.496 890.254 67.764V69H891.358V60.12H890.254V63.6C889.798 62.844 888.85 62.316 887.818 62.316C886.042 62.316 884.686 63.636 884.686 65.688ZM890.254 65.7C890.254 67.248 889.222 68.148 888.022 68.148C886.822 68.148 885.802 67.236 885.802 65.688C885.802 64.14 886.822 63.264 888.022 63.264C889.222 63.264 890.254 64.176 890.254 65.7ZM899.655 65.7C899.655 63.624 898.203 62.316 896.331 62.316C894.471 62.316 893.007 63.624 893.007 65.7C893.007 67.788 894.423 69.108 896.283 69.108C898.155 69.108 899.655 67.788 899.655 65.7ZM894.123 65.7C894.123 64.044 895.167 63.264 896.319 63.264C897.447 63.264 898.539 64.044 898.539 65.7C898.539 67.368 897.423 68.148 896.283 68.148C895.143 68.148 894.123 67.368 894.123 65.7ZM906.031 67.212C905.983 64.86 902.167 65.712 902.167 64.152C902.167 63.624 902.647 63.24 903.451 63.24C904.327 63.24 904.831 63.72 904.879 64.38H905.971C905.899 63.096 904.939 62.316 903.487 62.316C902.023 62.316 901.075 63.144 901.075 64.152C901.075 66.6 904.963 65.748 904.963 67.212C904.963 67.752 904.483 68.184 903.619 68.184C902.695 68.184 902.131 67.704 902.071 67.068H900.943C901.015 68.268 902.095 69.108 903.631 69.108C905.083 69.108 906.031 68.292 906.031 67.212Z" fill="#004357"/>
  <path d="M758.723 10.3339C758.994 5.49095 757.099 0.371272 752.089 1.06312C747.078 1.75497 746.537 7.28976 746.401 9.3653C746.266 11.4408 744.506 11.5792 744.1 11.3025C743.693 11.0257 743.287 11.3025 743.287 11.3025C743.287 15.3152 749.516 14.3466 749.516 14.3466C749.516 14.3466 749.584 14.3328 749.705 14.3051V14.2913C749.394 14.1391 748.961 11.856 748.568 11.856C748.162 11.856 747.078 9.64204 747.214 8.81182C747.349 7.9816 748.433 7.9816 748.433 7.9816C748.703 6.59791 750.464 5.49095 750.464 5.49095C751.141 5.35258 753.036 7.5665 753.307 7.9816C753.578 8.39671 754.661 8.67345 755.744 8.25834C756.828 7.84323 757.369 8.67345 757.369 9.78041C757.369 10.8874 755.744 11.4408 755.744 11.7176C755.744 11.9943 755.203 13.1013 755.067 13.378C755 13.5026 754.742 13.7655 754.377 14.056C755.555 14.1667 756.692 14.4435 757.505 15.0385C759.942 16.8373 760.89 13.1013 760.89 13.1013C760.89 13.1013 758.453 15.1768 758.723 10.3339Z" stroke="#004357" stroke-miterlimit="10"/>
  <path d="M755.743 8.25841C754.66 8.67352 753.577 8.39678 753.306 7.98167C753.035 7.56656 751.14 5.35265 750.463 5.49102C750.463 5.49102 748.702 6.59797 748.431 7.98167C748.431 7.98167 747.348 7.98167 747.213 8.81189C747.077 9.64211 748.161 11.856 748.567 11.856C748.96 11.856 749.393 14.1391 749.704 14.3052V14.319C749.758 15.0939 749.826 16.3392 749.65 16.7128C749.379 17.2663 750.327 20.4488 751.952 20.172C753.577 19.8953 753.848 17.2663 753.983 16.5744C754.078 16.1178 754.105 14.9832 754.119 14.2775C754.213 14.2083 754.295 14.153 754.376 14.0838C754.755 13.7932 755.012 13.5303 755.066 13.4058C755.202 13.129 755.743 12.0221 755.743 11.7453C755.743 11.4686 757.368 10.9151 757.368 9.80815C757.368 8.70119 756.827 7.8433 755.743 8.25841Z" stroke="#004357" stroke-miterlimit="10"/>
  <path d="M749.743 16.3116L746.398 17.1141V21.4036L749.784 22.9257L747.888 25.1396L748.565 26.6616" stroke="#004357" stroke-miterlimit="10"/>
  <path d="M753.982 16.5606L756.691 16.9757V20.7117L754.389 23.2024L756.149 25.5546L755.607 26.6616" stroke="#004357" stroke-miterlimit="10"/>
  <path d="M753.456 18.7053C753.456 18.7053 751.412 25.3332 752.089 26.5232" stroke="#004357" stroke-miterlimit="10"/>
  <path d="M750.475 19.3833C750.475 19.3833 751.815 26.2464 751.544 26.6615" stroke="#004357" stroke-miterlimit="10"/>
  <path d="M761.405 40.1802L761.093 41.5362L742.813 41.1211L742.705 40.6645" stroke="#004357" stroke-miterlimit="10"/>
  <path d="M764.043 28.4881L762.445 35.4481" stroke="#004357" stroke-miterlimit="10"/>
  <path d="M764.043 28.4465V28.488" stroke="#004357" stroke-miterlimit="10"/>
  <path d="M762.932 26.5924H764.475L764.042 28.4466" stroke="#004357" stroke-miterlimit="10"/>
  <path d="M741.39 35.4481L739.156 26.5924H762.934" stroke="#004357" stroke-miterlimit="10"/>
  <path d="M762.379 35.8494C762.379 35.794 762.392 35.7248 762.42 35.6557C762.717 35.033 764.749 35.1714 764.749 34.8946C764.749 34.6179 763.124 33.5109 763.124 33.2342" stroke="#004357" stroke-miterlimit="10"/>
  <path d="M764.017 28.4465C765.683 31.2554 766.956 33.7599 766.915 34.7424C766.78 37.5097 767.592 41.2457 765.967 41.5225C764.342 41.7992 762.717 39.862 762.717 39.862C762.717 39.862 765.033 38.3538 763.53 36.8179C763.408 36.6934 762.379 36.3613 762.379 35.8355" stroke="#004357" stroke-miterlimit="10"/>
  <path d="M756.691 17.2109C756.691 17.2109 760.036 21.9846 762.907 26.62" stroke="#004357" stroke-miterlimit="10"/>
  <path d="M741.187 35.8631C741.187 35.8631 740.104 38.4921 740.645 40.4293C741.187 42.3665 738.343 39.7375 738.343 39.7375C738.343 39.7375 735.635 34.3411 736.042 32.5422C736.448 30.7434 739.156 26.8691 739.156 26.8691L746.4 17.2662" stroke="#004357" stroke-miterlimit="10"/>
  <path d="M741.186 35.8632C741.186 35.8632 741.322 35.1714 741.728 35.5865C742.134 36.0016 742.405 36.9702 742.269 36.8318C742.134 36.6935 744.707 36.5551 743.623 39.3225C742.54 42.0899 740.645 40.4294 740.645 40.4294" stroke="#004357" stroke-miterlimit="10"/>
  <path d="M762.445 35.5864C762.445 35.5864 762.31 34.7562 761.903 35.3097C761.497 35.8632 761.497 36.0016 761.633 36.1399C761.768 36.2783 758.247 36.0016 758.789 38.3538C759.331 40.7061 762.418 40.1526 762.905 40.0835" stroke="#004357" stroke-miterlimit="10"/>
  <defs>
    <clipPath id="clip0_1587_567">
      <rect width="41" height="29" fill="white" transform="translate(851 13)"/>
    </clipPath>
  </defs>
</svg>
