<svg width="860" height="97" viewBox="0 0 860 97" fill="none" xmlns="http://www.w3.org/2000/svg">
  <path d="M125.027 56H126.119V52.232H129.071V51.344H126.119V48.524H129.755V47.636H125.027V56ZM137.526 52.7C137.526 50.624 136.074 49.316 134.202 49.316C132.342 49.316 130.878 50.624 130.878 52.7C130.878 54.788 132.294 56.108 134.154 56.108C136.026 56.108 137.526 54.788 137.526 52.7ZM131.994 52.7C131.994 51.044 133.038 50.264 134.19 50.264C135.318 50.264 136.41 51.044 136.41 52.7C136.41 54.368 135.294 55.148 134.154 55.148C133.014 55.148 131.994 54.368 131.994 52.7ZM140.265 52.424C140.265 50.9 141.057 50.432 142.101 50.432H142.389V49.304C141.345 49.304 140.637 49.76 140.265 50.492V49.424H139.173V56H140.265V52.424ZM153.354 56H154.434V52.124C154.434 50.24 153.27 49.304 151.77 49.304C150.762 49.304 149.826 49.82 149.442 50.768C149.01 49.784 148.11 49.304 147.03 49.304C146.166 49.304 145.386 49.676 144.954 50.372V49.424H143.862V56H144.954V52.376C144.954 50.96 145.71 50.252 146.814 50.252C147.894 50.252 148.614 50.936 148.614 52.28V56H149.694V52.376C149.694 50.96 150.45 50.252 151.554 50.252C152.634 50.252 153.354 50.936 153.354 52.28V56ZM162.269 49.424H161.177V53.036C161.177 54.452 160.421 55.148 159.293 55.148C158.189 55.148 157.457 54.464 157.457 53.132V49.424H156.377V53.276C156.377 55.16 157.565 56.096 159.077 56.096C159.953 56.096 160.757 55.712 161.177 55.028V56H162.269V49.424ZM164.324 56H165.416V47.12H164.324V56ZM167.081 52.688C167.081 54.728 168.437 56.108 170.189 56.108C171.401 56.108 172.253 55.484 172.649 54.776V56H173.753V49.424H172.649V50.624C172.265 49.94 171.425 49.316 170.201 49.316C168.437 49.316 167.081 50.636 167.081 52.688ZM172.649 52.7C172.649 54.248 171.617 55.148 170.417 55.148C169.217 55.148 168.197 54.236 168.197 52.688C168.197 51.14 169.217 50.264 170.417 50.264C171.617 50.264 172.649 51.176 172.649 52.7ZM176.903 52.424C176.903 50.9 177.695 50.432 178.739 50.432H179.027V49.304C177.983 49.304 177.275 49.76 176.903 50.492V49.424H175.811V56H176.903V52.424ZM180.499 56H181.591V49.424H180.499V56ZM181.063 48.356C181.459 48.356 181.783 48.032 181.783 47.612C181.783 47.192 181.459 46.868 181.063 46.868C180.643 46.868 180.319 47.192 180.319 47.612C180.319 48.032 180.643 48.356 181.063 48.356ZM189.904 52.7C189.904 50.624 188.452 49.316 186.58 49.316C184.72 49.316 183.256 50.624 183.256 52.7C183.256 54.788 184.672 56.108 186.532 56.108C188.404 56.108 189.904 54.788 189.904 52.7ZM184.372 52.7C184.372 51.044 185.416 50.264 186.568 50.264C187.696 50.264 188.788 51.044 188.788 52.7C188.788 54.368 187.672 55.148 186.532 55.148C185.392 55.148 184.372 54.368 184.372 52.7ZM196.279 54.212C196.231 51.86 192.415 52.712 192.415 51.152C192.415 50.624 192.895 50.24 193.699 50.24C194.575 50.24 195.079 50.72 195.127 51.38H196.219C196.147 50.096 195.187 49.316 193.735 49.316C192.271 49.316 191.323 50.144 191.323 51.152C191.323 53.6 195.211 52.748 195.211 54.212C195.211 54.752 194.731 55.184 193.867 55.184C192.943 55.184 192.379 54.704 192.319 54.068H191.191C191.263 55.268 192.343 56.108 193.879 56.108C195.331 56.108 196.279 55.292 196.279 54.212ZM127.104 63.812C127.104 66.32 128.94 68.072 131.28 68.072C133.092 68.072 134.532 67.172 135.156 65.564H133.848C133.392 66.56 132.504 67.124 131.28 67.124C129.528 67.124 128.22 65.852 128.22 63.812C128.22 61.76 129.528 60.488 131.28 60.488C132.504 60.488 133.392 61.052 133.848 62.06H135.156C134.532 60.44 133.092 59.528 131.28 59.528C128.94 59.528 127.104 61.304 127.104 63.812ZM143.234 64.7C143.234 62.624 141.782 61.316 139.91 61.316C138.05 61.316 136.586 62.624 136.586 64.7C136.586 66.788 138.002 68.108 139.862 68.108C141.734 68.108 143.234 66.788 143.234 64.7ZM137.702 64.7C137.702 63.044 138.746 62.264 139.898 62.264C141.026 62.264 142.118 63.044 142.118 64.7C142.118 66.368 141.002 67.148 139.862 67.148C138.722 67.148 137.702 66.368 137.702 64.7ZM154.373 68H155.453V64.124C155.453 62.24 154.289 61.304 152.789 61.304C151.781 61.304 150.845 61.82 150.461 62.768C150.029 61.784 149.129 61.304 148.049 61.304C147.185 61.304 146.405 61.676 145.973 62.372V61.424H144.881V68H145.973V64.376C145.973 62.96 146.729 62.252 147.833 62.252C148.913 62.252 149.633 62.936 149.633 64.28V68H150.713V64.376C150.713 62.96 151.469 62.252 152.573 62.252C153.653 62.252 154.373 62.936 154.373 64.28V68ZM158.548 62.636V61.424H157.456V71.12H158.548V66.788C158.956 67.46 159.808 68.108 161.008 68.108C162.772 68.108 164.128 66.728 164.128 64.688C164.128 62.636 162.772 61.316 161.008 61.316C159.808 61.316 158.944 61.94 158.548 62.636ZM163.012 64.688C163.012 66.236 161.992 67.148 160.78 67.148C159.592 67.148 158.548 66.248 158.548 64.7C158.548 63.176 159.592 62.264 160.78 62.264C161.992 62.264 163.012 63.14 163.012 64.688ZM165.778 68H166.87V59.12H165.778V68ZM171.738 62.24C172.866 62.24 173.826 62.948 173.814 64.232H169.662C169.782 62.948 170.67 62.24 171.738 62.24ZM174.81 65.972H173.634C173.394 66.68 172.77 67.184 171.786 67.184C170.67 67.184 169.734 66.452 169.65 65.12H174.906C174.93 64.892 174.942 64.7 174.942 64.46C174.942 62.66 173.694 61.316 171.786 61.316C169.866 61.316 168.534 62.624 168.534 64.7C168.534 66.788 169.914 68.108 171.786 68.108C173.418 68.108 174.474 67.172 174.81 65.972ZM176.836 66.2C176.836 67.52 177.496 68 178.66 68H179.644V67.076H178.84C178.168 67.076 177.928 66.848 177.928 66.2V62.324H179.644V61.424H177.928V59.768H176.836V61.424H175.984V62.324H176.836V66.2ZM187.419 64.7C187.419 62.624 185.967 61.316 184.095 61.316C182.235 61.316 180.771 62.624 180.771 64.7C180.771 66.788 182.187 68.108 184.047 68.108C185.919 68.108 187.419 66.788 187.419 64.7ZM181.887 64.7C181.887 63.044 182.931 62.264 184.083 62.264C185.211 62.264 186.303 63.044 186.303 64.7C186.303 66.368 185.187 67.148 184.047 67.148C182.907 67.148 181.887 66.368 181.887 64.7ZM193.794 66.212C193.746 63.86 189.93 64.712 189.93 63.152C189.93 62.624 190.41 62.24 191.214 62.24C192.09 62.24 192.594 62.72 192.642 63.38H193.734C193.662 62.096 192.702 61.316 191.25 61.316C189.786 61.316 188.838 62.144 188.838 63.152C188.838 65.6 192.726 64.748 192.726 66.212C192.726 66.752 192.246 67.184 191.382 67.184C190.458 67.184 189.894 66.704 189.834 66.068H188.706C188.778 67.268 189.858 68.108 191.394 68.108C192.846 68.108 193.794 67.292 193.794 66.212Z" fill="#004357"/>
  <path d="M173.385 39.2522H172.607C172.385 39.4477 172.135 39.6432 171.885 39.8107H173.607C173.773 39.8107 173.94 39.6711 173.94 39.4756V37.7443C173.773 37.9956 173.579 38.219 173.385 38.4703V39.2522Z" fill="#004357"/>
  <path d="M151.305 10.4048C150.028 10.4048 149 11.438 149 12.7226C149 14.0071 150.028 15.0404 151.305 15.0404C152.583 15.0404 153.61 14.0071 153.61 12.7226C153.61 11.438 152.583 10.4048 151.305 10.4048ZM151.305 14.789C150.194 14.789 149.278 13.8675 149.278 12.7505C149.278 11.6335 150.194 10.712 151.305 10.712C152.416 10.712 153.333 11.6335 153.333 12.7505C153.333 13.8675 152.416 14.789 151.305 14.789Z" fill="#004357"/>
  <path d="M152.221 11.3268L150.721 12.8347L150.11 11.997C150.054 11.9411 149.971 11.8853 149.888 11.9132C149.804 11.9132 149.721 11.969 149.693 12.0528L149.499 12.4438C149.471 12.5275 149.471 12.6113 149.526 12.6951L150.499 14.1472C150.526 14.203 150.61 14.231 150.665 14.2589H150.693C150.749 14.2589 150.804 14.231 150.86 14.203L152.97 12.1645C153.026 12.1087 153.054 12.0528 153.054 11.997C153.054 11.9411 153.026 11.8573 152.998 11.8294L152.554 11.3826C152.471 11.215 152.332 11.215 152.221 11.3268ZM150.749 13.8959L149.804 12.4996L149.971 12.1924L150.554 13.0023C150.582 13.0581 150.665 13.086 150.721 13.114C150.804 13.114 150.86 13.086 150.915 13.0581L152.415 11.5502L152.804 11.9411L150.749 13.8959Z" fill="#004357"/>
  <path d="M151.305 17.1902C150.028 17.1902 149 18.2234 149 19.508C149 20.7925 150.028 21.8258 151.305 21.8258C152.583 21.8258 153.61 20.7925 153.61 19.508C153.61 18.2234 152.583 17.1902 151.305 17.1902ZM151.305 21.5744C150.194 21.5744 149.278 20.6529 149.278 19.5359C149.278 18.4189 150.194 17.4974 151.305 17.4974C152.416 17.4974 153.333 18.4189 153.333 19.5359C153.333 20.6529 152.416 21.5744 151.305 21.5744Z" fill="#004357"/>
  <path d="M152.221 18.1122L150.721 19.6201L150.11 18.7824C150.054 18.7265 149.971 18.6707 149.888 18.6986C149.804 18.6986 149.721 18.7544 149.693 18.8382L149.499 19.2292C149.471 19.3129 149.471 19.3967 149.526 19.4805L150.499 20.9326C150.526 20.9884 150.61 21.0164 150.665 21.0443H150.693C150.749 21.0443 150.804 21.0164 150.86 20.9884L152.97 18.9499C153.026 18.8941 153.054 18.8382 153.054 18.7824C153.054 18.7265 153.026 18.6427 152.998 18.6148L152.554 18.168C152.471 18.0004 152.332 18.0004 152.221 18.1122ZM150.749 20.7092L149.804 19.3129L149.971 19.0058L150.554 19.8156C150.582 19.8714 150.665 19.8994 150.721 19.9273C150.804 19.9273 150.86 19.8994 150.915 19.8714L152.415 18.3635L152.804 18.7544L150.749 20.7092Z" fill="#004357"/>
  <path d="M151.305 23.4445C150.028 23.4445 149 24.4777 149 25.7622C149 27.0468 150.028 28.08 151.305 28.08C152.583 28.08 153.61 27.0468 153.61 25.7622C153.61 24.4777 152.583 23.4445 151.305 23.4445ZM151.305 27.8008C150.194 27.8008 149.278 26.8793 149.278 25.7622C149.278 24.6452 150.194 23.7237 151.305 23.7237C152.416 23.7237 153.333 24.6452 153.333 25.7622C153.333 26.8793 152.416 27.8008 151.305 27.8008Z" fill="#004357"/>
  <path d="M152.22 24.3413L150.72 25.8492L150.109 25.0115C150.054 24.9556 149.97 24.8998 149.887 24.8998C149.804 24.8998 149.72 24.9556 149.693 25.0394L149.526 25.4583C149.498 25.5421 149.498 25.6258 149.554 25.7096L150.554 27.1338C150.581 27.1896 150.665 27.2176 150.72 27.2455H150.748C150.804 27.2455 150.859 27.2176 150.915 27.1896L153.026 25.1511C153.081 25.0953 153.109 25.0394 153.109 24.9836C153.109 24.9277 153.081 24.8439 153.053 24.816L152.553 24.3413C152.47 24.2575 152.331 24.2575 152.22 24.3413ZM150.748 26.9383L149.804 25.5421L149.97 25.2349L150.554 26.0447C150.581 26.1006 150.665 26.1285 150.72 26.1564C150.804 26.1564 150.859 26.1285 150.915 26.1006L152.415 24.5926L152.803 24.9836L150.748 26.9383Z" fill="#004357"/>
  <path d="M151.305 29.7028C150.028 29.7028 149 30.736 149 32.0206C149 33.3051 150.028 34.3383 151.305 34.3383C152.583 34.3383 153.61 33.3051 153.61 32.0206C153.61 30.736 152.583 29.7028 151.305 29.7028ZM151.305 34.0591C150.194 34.0591 149.278 33.1376 149.278 32.0206C149.278 30.9035 150.194 29.982 151.305 29.982C152.416 29.982 153.333 30.9035 153.333 32.0206C153.333 33.1376 152.416 34.0591 151.305 34.0591Z" fill="#004357"/>
  <path d="M152.221 30.5945L150.721 32.1025L150.11 31.2647C150.054 31.2089 149.971 31.153 149.888 31.153C149.804 31.153 149.721 31.2089 149.693 31.2926L149.499 31.6836C149.471 31.7674 149.471 31.8511 149.526 31.9349L150.499 33.387C150.526 33.4429 150.61 33.4708 150.665 33.4987H150.693C150.749 33.4987 150.804 33.4708 150.86 33.4429L152.97 31.4043C153.026 31.3485 153.054 31.2926 153.054 31.2368C153.054 31.1809 153.026 31.0972 152.998 31.0692L152.554 30.6224C152.471 30.5107 152.332 30.5107 152.221 30.5945ZM150.749 33.1915L149.804 31.7953L149.971 31.4881L150.554 32.2979C150.582 32.3538 150.665 32.3817 150.721 32.4096C150.804 32.4096 150.86 32.3817 150.915 32.3538L152.415 30.8458L152.804 31.2368L150.749 33.1915Z" fill="#004357"/>
  <path d="M154.638 13.4765H168.831C169.247 13.4765 169.553 13.1414 169.553 12.7505C169.553 12.3595 169.219 12.0244 168.831 12.0244H154.638C154.249 12.0244 153.916 12.3595 153.916 12.7505C153.916 13.1414 154.249 13.4765 154.638 13.4765ZM154.638 12.2757H168.831C169.081 12.2757 169.275 12.4712 169.275 12.7225C169.275 12.9739 169.081 13.1693 168.831 13.1693H154.638C154.388 13.1693 154.194 12.9739 154.194 12.7225C154.194 12.4712 154.388 12.2757 154.638 12.2757Z" fill="#004357"/>
  <path d="M154.749 26.2107C154.5 26.2107 154.305 26.0152 154.305 25.7639C154.305 25.5126 154.5 25.3171 154.749 25.3171H164.193C164.47 25.2054 164.748 25.1216 165.026 25.0378H154.749C154.333 25.0378 154.027 25.3729 154.027 25.7639C154.027 26.1548 154.361 26.4899 154.749 26.4899H162.137C162.248 26.4062 162.387 26.2945 162.526 26.2107H154.749Z" fill="#004357"/>
  <path d="M154.749 32.465C154.5 32.465 154.305 32.2695 154.305 32.0182C154.305 31.7668 154.5 31.5714 154.749 31.5714H159.082C159.11 31.4876 159.11 31.3759 159.138 31.2921H154.749C154.333 31.2921 154.027 31.6272 154.027 32.0182C154.027 32.4091 154.361 32.7442 154.749 32.7442H158.971C158.971 32.6604 158.971 32.5487 158.999 32.465H154.749Z" fill="#004357"/>
  <path d="M154.638 20.2619H168.831C169.247 20.2619 169.553 19.9268 169.553 19.5359C169.553 19.1449 169.219 18.8098 168.831 18.8098H154.638C154.249 18.8098 153.916 19.1449 153.916 19.5359C153.916 19.9268 154.249 20.2619 154.638 20.2619ZM154.638 19.0611H168.831C169.081 19.0611 169.275 19.2566 169.275 19.5079C169.275 19.7593 169.081 19.9547 168.831 19.9547H154.638C154.388 19.9547 154.194 19.7593 154.194 19.5079C154.194 19.2566 154.388 19.0611 154.638 19.0611Z" fill="#004357"/>
  <path d="M145.333 5.37854C145.167 5.37854 145 5.51817 145 5.71364V39.5031C145 39.6707 145.139 39.8382 145.333 39.8382H162.47C162.22 39.6707 161.998 39.4752 161.748 39.2797H145.555V5.93704H148.666V5.37854H145.333Z" fill="#004357"/>
  <path d="M173.607 5.37854H170.385V5.93704H173.384V27.5791C173.579 27.8025 173.773 28.0538 173.94 28.3051V5.68572C173.94 5.51817 173.801 5.37854 173.607 5.37854Z" fill="#004357"/>
  <path d="M169.829 8.11519V7.94764H149.221V6.43968H148.665V6.21628C148.054 6.38383 147.582 6.97026 147.582 7.64047V36.6827C147.582 37.4925 148.249 38.1627 149.054 38.1627H160.719C160.58 37.9952 160.441 37.7997 160.33 37.6042H149.054C148.554 37.6042 148.138 37.1853 148.138 36.6827V7.64047C148.138 7.27744 148.36 6.97026 148.665 6.80271V8.50615H170.412V6.71893C170.884 6.74686 171.245 7.13781 171.245 7.61254V25.7918C171.44 25.9035 171.634 26.0152 171.801 26.1269V7.64047C171.801 6.85856 171.162 6.21628 170.384 6.18835V8.14312H169.829V8.11519Z" fill="#004357"/>
  <path d="M159.692 2.5585C161.192 2.5585 162.525 3.50796 163.053 4.8763H163.636C163.108 3.17286 161.497 2 159.692 2C157.887 2 156.304 3.17286 155.748 4.8763H156.331C156.859 3.50796 158.22 2.5585 159.692 2.5585Z" fill="#004357"/>
  <path d="M159.691 3.28638C158.608 3.28638 157.636 3.90073 157.164 4.87811H157.803C158.219 4.23583 158.914 3.84488 159.664 3.84488C160.441 3.84488 161.136 4.23583 161.525 4.87811H162.163C161.747 3.90073 160.775 3.28638 159.691 3.28638Z" fill="#004357"/>
  <path d="M170.135 5.37967H170.413V4.87702H163.692C163.72 4.93287 163.747 5.01664 163.747 5.07249L163.22 5.21212C163.192 5.10042 163.136 4.98872 163.108 4.84909H162.247C162.275 4.90494 162.303 4.96079 162.331 5.01664L161.803 5.21212C161.748 5.07249 161.692 4.96079 161.609 4.82117H157.859C157.776 4.93287 157.72 5.07249 157.665 5.21212L157.137 5.01664C157.165 4.96079 157.193 4.90494 157.22 4.84909H156.359C156.304 4.96079 156.276 5.07249 156.248 5.21212L155.693 5.07249C155.721 5.01664 155.748 4.93287 155.748 4.87702H148.666V5.37967H148.916V5.93818H148.666V6.21743C148.749 6.1895 148.833 6.1895 148.916 6.16158L149.221 6.13365V5.43552H169.83V7.94879H169.858V6.16158H170.33C170.357 6.16158 170.357 6.16158 170.385 6.16158V5.91025H170.108V5.37967H170.135Z" fill="#004357"/>
  <path d="M148.916 5.3783H148.666V5.9368H148.916V5.3783Z" fill="#004357"/>
  <path d="M170.413 5.3783H170.135V5.9368H170.413V5.3783Z" fill="#004357"/>
  <path d="M149.221 6.43877V6.13159L148.916 6.15952C148.833 6.15952 148.749 6.18744 148.666 6.21537V6.43877H149.221Z" fill="#004357"/>
  <path d="M170.386 8.11663V6.16187C170.358 6.16187 170.358 6.16187 170.33 6.16187H169.858V7.94908H169.83V8.11663H170.386Z" fill="#004357"/>
  <path d="M156.221 5.23852C156.249 5.12682 156.304 5.01511 156.332 4.87549H155.749C155.721 4.93134 155.693 5.01511 155.693 5.07096L156.221 5.23852Z" fill="#004357"/>
  <path d="M163.193 5.23879L163.721 5.09916C163.693 5.04331 163.665 4.95954 163.665 4.90369H163.082C163.11 4.98746 163.165 5.09916 163.193 5.23879Z" fill="#004357"/>
  <path d="M161.776 5.26671L162.304 5.07124C162.276 5.01539 162.249 4.95954 162.221 4.90369H161.582C161.665 4.98746 161.721 5.12709 161.776 5.26671Z" fill="#004357"/>
  <path d="M157.109 5.04472L157.637 5.2402C157.693 5.10057 157.748 4.98887 157.831 4.84924H157.193C157.165 4.93302 157.137 4.98887 157.109 5.04472Z" fill="#004357"/>
  <path d="M169.33 25.9608C169.358 25.9049 169.386 25.8491 169.386 25.7653C169.386 25.514 169.192 25.3185 168.942 25.3185H164.192C163.581 25.5698 163.026 25.8491 162.498 26.24H164.331C165.22 25.8491 166.192 25.6536 167.192 25.6536C167.942 25.6257 168.664 25.7374 169.33 25.9608Z" fill="#004357"/>
  <path d="M173.939 28.3053V30.1204C174.328 31.014 174.55 31.9914 174.55 33.0526C174.55 34.1137 174.328 35.0632 173.939 35.9847V37.7999C174.884 36.4595 175.439 34.8119 175.439 33.0526C175.439 31.2933 174.884 29.6457 173.939 28.3053Z" fill="#004357"/>
  <path d="M159.832 33.0234C159.832 32.9396 159.832 32.8279 159.832 32.7441H158.943C158.943 32.8279 158.943 32.9396 158.943 33.0234C158.943 34.6989 159.443 36.2627 160.304 37.5752H161.387C160.415 36.3186 159.832 34.7548 159.832 33.0234Z" fill="#004357"/>
  <path d="M171.135 39.2529H172.607C172.885 39.0016 173.134 38.7503 173.384 38.471V36.991C172.801 37.9125 172.051 38.6944 171.135 39.2529Z" fill="#004357"/>
  <path d="M165.025 25.038H168.942C169.33 25.038 169.664 25.3731 169.664 25.7641C169.664 25.8758 169.636 25.9595 169.608 26.0433C170.191 26.2388 170.747 26.518 171.247 26.8531V25.8199C170.052 25.1218 168.664 24.7308 167.192 24.7308C166.442 24.7308 165.72 24.8425 165.025 25.038Z" fill="#004357"/>
  <path d="M167.19 40.4245C166.163 40.4245 165.191 40.2011 164.274 39.8102H162.469C163.802 40.7596 165.441 41.2902 167.19 41.2902C168.94 41.2902 170.579 40.7317 171.912 39.8102H170.107C169.19 40.2011 168.218 40.4245 167.19 40.4245Z" fill="#004357"/>
  <path d="M159.082 31.5465C159.026 31.8537 158.998 32.1609 158.971 32.468H159.859C159.887 32.1609 159.915 31.8537 159.971 31.5465H159.082Z" fill="#004357"/>
  <path d="M160.691 38.1361C160.997 38.555 161.358 38.918 161.747 39.2531H163.219C162.719 38.9459 162.275 38.555 161.858 38.1361H160.691Z" fill="#004357"/>
  <path d="M171.803 26.1545V27.2716C172.414 27.7742 172.969 28.3886 173.386 29.0588V27.5787C172.914 27.0481 172.386 26.5734 171.803 26.1545Z" fill="#004357"/>
  <path d="M163.747 26.4897H162.136C160.637 27.6626 159.553 29.3381 159.137 31.265H160.053C160.553 29.1985 161.914 27.4671 163.747 26.4897Z" fill="#004357"/>
  <path d="M173.385 36.99V38.47C173.579 38.2466 173.774 37.9953 173.94 37.744V35.9288C173.774 36.3198 173.607 36.6549 173.385 36.99Z" fill="#004357"/>
  <path d="M171.135 39.2528C170.802 39.4762 170.469 39.6438 170.08 39.8113H171.885C172.135 39.6438 172.358 39.4483 172.608 39.2528H171.135Z" fill="#004357"/>
  <path d="M163.247 39.2528H161.775C161.998 39.4483 162.248 39.6438 162.498 39.8113H164.303C163.914 39.6717 163.581 39.4762 163.247 39.2528Z" fill="#004357"/>
  <path d="M173.385 29.0604C173.607 29.3955 173.774 29.7306 173.94 30.1215V28.3064C173.774 28.055 173.579 27.8316 173.385 27.5803V29.0604Z" fill="#004357"/>
  <path d="M168.941 25.3171C169.191 25.3171 169.385 25.5126 169.385 25.7639C169.385 25.8197 169.357 25.9035 169.33 25.9594C169.413 25.9873 169.496 26.0152 169.607 26.0431C169.635 25.9594 169.663 25.8477 169.663 25.7639C169.663 25.3729 169.33 25.0378 168.941 25.0378H165.025C164.747 25.1216 164.469 25.2054 164.191 25.3171H168.941Z" fill="#004357"/>
  <path d="M164.331 26.2091H162.498C162.359 26.2929 162.248 26.4046 162.109 26.4883H163.72C163.915 26.4046 164.109 26.2929 164.331 26.2091Z" fill="#004357"/>
  <path d="M159.969 31.5451C159.997 31.4613 159.997 31.3496 160.025 31.2659H159.108C159.081 31.3496 159.081 31.4613 159.053 31.5451H159.969Z" fill="#004357"/>
  <path d="M158.971 32.4674C158.971 32.5512 158.971 32.6629 158.943 32.7467H159.832C159.832 32.6629 159.832 32.5512 159.86 32.4674H158.971Z" fill="#004357"/>
  <path d="M171.802 27.2735V26.1565C171.635 26.0448 171.441 25.9331 171.246 25.8214V26.8546C171.441 26.9943 171.635 27.1339 171.802 27.2735Z" fill="#004357"/>
  <path d="M160.303 37.5747C160.442 37.7702 160.553 37.9657 160.692 38.1332H161.858C161.691 37.9657 161.525 37.7702 161.386 37.5747H160.303Z" fill="#004357"/>
  <path d="M167.359 32.468L168.276 31.5465H167.026L166.109 32.468H167.359Z" fill="#004357"/>
  <path d="M165.082 38.2757C165.11 38.2757 165.137 38.2757 165.165 38.2757C165.332 38.2757 165.471 38.2199 165.609 38.1361H164.721C164.832 38.2199 164.943 38.2478 165.082 38.2757Z" fill="#004357"/>
  <path d="M162.721 31.5465L163.387 32.468H164.47L163.832 31.5465H162.721Z" fill="#004357"/>
  <path d="M171.803 28.0831V29.3398L172.636 30.1775L171.803 30.9594V32.1881L173.303 30.736C173.33 30.7081 173.358 30.6802 173.386 30.6522V29.6749C173.358 29.6469 173.33 29.619 173.33 29.5911L171.803 28.0831Z" fill="#004357"/>
  <path d="M161.72 32.2726L162.081 31.5465H161.082L160.887 31.9095C160.804 32.0771 160.776 32.2726 160.832 32.4401H161.831L161.72 32.2726Z" fill="#004357"/>
  <path d="M165.163 33.4143L164.691 32.7441H163.58L164.497 34.0287C164.635 34.2242 164.858 34.3359 165.08 34.3638C165.302 34.3917 165.552 34.308 165.719 34.1404L167.08 32.7721H165.83L165.163 33.4143Z" fill="#004357"/>
  <path d="M170.58 27.9686L167.303 31.2637H168.553L171.136 28.6667L171.247 28.7784V27.7452C170.997 27.7172 170.747 27.801 170.58 27.9686Z" fill="#004357"/>
  <path d="M162.054 32.7447H160.971L164.276 37.5757H166.22L171.247 32.7447V31.488L165.192 37.3244L162.054 32.7447Z" fill="#004357"/>
  <path d="M162.33 31.0432L162.496 31.2945H163.607L162.969 30.4009C162.802 30.1775 162.552 30.0379 162.246 30.0658C161.969 30.0937 161.719 30.2613 161.608 30.5126L161.219 31.2945H162.219L162.33 31.0432Z" fill="#004357"/>
  <path d="M173.551 30.1751C173.551 30.0076 173.496 29.8121 173.385 29.6725V30.6499C173.496 30.5102 173.551 30.3427 173.551 30.1751Z" fill="#004357"/>
  <path d="M162.72 31.5451H163.831L163.609 31.2659H162.525L162.72 31.5451Z" fill="#004357"/>
  <path d="M167.025 31.5451H168.275L168.553 31.2659H167.303L167.025 31.5451Z" fill="#004357"/>
  <path d="M160.859 32.4674C160.887 32.5512 160.915 32.6629 160.97 32.7467H162.054L161.859 32.4674H160.859Z" fill="#004357"/>
  <path d="M162.08 31.5451L162.219 31.2659H161.219L161.08 31.5451H162.08Z" fill="#004357"/>
  <path d="M166.108 32.4674L165.83 32.7467H167.08L167.358 32.4674H166.108Z" fill="#004357"/>
  <path d="M164.47 32.4674H163.387L163.581 32.7467H164.692L164.47 32.4674Z" fill="#004357"/>
  <path d="M171.246 27.7458V28.7791L171.802 29.3376V28.081L171.69 27.9693C171.579 27.8576 171.413 27.7738 171.246 27.7458Z" fill="#004357"/>
  <path d="M166.22 37.5747H164.275L164.525 37.9098C164.581 37.9936 164.664 38.0774 164.748 38.1332H165.636C165.664 38.1053 165.72 38.0774 165.747 38.0494L166.22 37.5747Z" fill="#004357"/>
  <path d="M171.246 31.4894V32.7461L171.802 32.2155V30.9589L171.246 31.4894Z" fill="#004357"/>
  <path d="M3.52354 46.636V55H7.54354V54.112H4.61554V46.636H3.52354ZM8.91505 55H10.0071V46.12H8.91505V55ZM14.876 49.24C16.004 49.24 16.964 49.948 16.952 51.232H12.8C12.92 49.948 13.808 49.24 14.876 49.24ZM17.948 52.972H16.772C16.532 53.68 15.908 54.184 14.924 54.184C13.808 54.184 12.872 53.452 12.788 52.12H18.044C18.068 51.892 18.08 51.7 18.08 51.46C18.08 49.66 16.832 48.316 14.924 48.316C13.004 48.316 11.672 49.624 11.672 51.7C11.672 53.788 13.052 55.108 14.924 55.108C16.556 55.108 17.612 54.172 17.948 52.972ZM24.5452 55H25.6252V51.124C25.6252 49.24 24.4612 48.304 22.9372 48.304C22.0492 48.304 21.2572 48.676 20.8252 49.36V48.424H19.7332V55H20.8252V51.364C20.8252 49.948 21.5932 49.252 22.7092 49.252C23.8132 49.252 24.5452 49.936 24.5452 51.28V55ZM27.2128 51.688C27.2128 53.728 28.5688 55.108 30.3208 55.108C31.5328 55.108 32.3848 54.484 32.7808 53.776V55H33.8848V48.424H32.7808V49.624C32.3968 48.94 31.5568 48.316 30.3328 48.316C28.5688 48.316 27.2128 49.636 27.2128 51.688ZM32.7808 51.7C32.7808 53.248 31.7488 54.148 30.5488 54.148C29.3488 54.148 28.3288 53.236 28.3288 51.688C28.3288 50.14 29.3488 49.264 30.5488 49.264C31.7488 49.264 32.7808 50.176 32.7808 51.7ZM35.534 51.688C35.534 53.728 36.89 55.108 38.654 55.108C39.854 55.108 40.706 54.496 41.102 53.764V55H42.206V46.12H41.102V49.6C40.646 48.844 39.698 48.316 38.666 48.316C36.89 48.316 35.534 49.636 35.534 51.688ZM41.102 51.7C41.102 53.248 40.07 54.148 38.87 54.148C37.67 54.148 36.65 53.236 36.65 51.688C36.65 50.14 37.67 49.264 38.87 49.264C40.07 49.264 41.102 50.176 41.102 51.7ZM50.5032 51.7C50.5032 49.624 49.0512 48.316 47.1792 48.316C45.3192 48.316 43.8552 49.624 43.8552 51.7C43.8552 53.788 45.2712 55.108 47.1312 55.108C49.0032 55.108 50.5032 53.788 50.5032 51.7ZM44.9712 51.7C44.9712 50.044 46.0152 49.264 47.1672 49.264C48.2952 49.264 49.3872 50.044 49.3872 51.7C49.3872 53.368 48.2712 54.148 47.1312 54.148C45.9912 54.148 44.9712 53.368 44.9712 51.7ZM55.1539 51.688C55.1539 53.728 56.5099 55.108 58.2739 55.108C59.4739 55.108 60.3259 54.496 60.7219 53.764V55H61.8259V46.12H60.7219V49.6C60.2659 48.844 59.3179 48.316 58.2859 48.316C56.5099 48.316 55.1539 49.636 55.1539 51.688ZM60.7219 51.7C60.7219 53.248 59.6899 54.148 58.4899 54.148C57.2899 54.148 56.2699 53.236 56.2699 51.688C56.2699 50.14 57.2899 49.264 58.4899 49.264C59.6899 49.264 60.7219 50.176 60.7219 51.7ZM66.6791 49.24C67.8071 49.24 68.7671 49.948 68.7551 51.232H64.6031C64.7231 49.948 65.6111 49.24 66.6791 49.24ZM69.7511 52.972H68.5751C68.3351 53.68 67.7111 54.184 66.7271 54.184C65.6111 54.184 64.6751 53.452 64.5911 52.12H69.8471C69.8711 51.892 69.8831 51.7 69.8831 51.46C69.8831 49.66 68.6351 48.316 66.7271 48.316C64.8071 48.316 63.4751 49.624 63.4751 51.7C63.4751 53.788 64.8551 55.108 66.7271 55.108C68.3591 55.108 69.4151 54.172 69.7511 52.972ZM1.02701 67H2.11901V63.232H5.07101V62.344H2.11901V59.524H5.75501V58.636H1.02701V67ZM13.5257 63.7C13.5257 61.624 12.0737 60.316 10.2017 60.316C8.3417 60.316 6.8777 61.624 6.8777 63.7C6.8777 65.788 8.2937 67.108 10.1537 67.108C12.0257 67.108 13.5257 65.788 13.5257 63.7ZM7.9937 63.7C7.9937 62.044 9.0377 61.264 10.1897 61.264C11.3177 61.264 12.4097 62.044 12.4097 63.7C12.4097 65.368 11.2937 66.148 10.1537 66.148C9.0137 66.148 7.9937 65.368 7.9937 63.7ZM16.2653 63.424C16.2653 61.9 17.0573 61.432 18.1013 61.432H18.3893V60.304C17.3453 60.304 16.6373 60.76 16.2653 61.492V60.424H15.1733V67H16.2653V63.424ZM29.3537 67H30.4337V63.124C30.4337 61.24 29.2697 60.304 27.7697 60.304C26.7617 60.304 25.8257 60.82 25.4417 61.768C25.0097 60.784 24.1097 60.304 23.0297 60.304C22.1657 60.304 21.3857 60.676 20.9537 61.372V60.424H19.8617V67H20.9537V63.376C20.9537 61.96 21.7097 61.252 22.8137 61.252C23.8937 61.252 24.6137 61.936 24.6137 63.28V67H25.6937V63.376C25.6937 61.96 26.4497 61.252 27.5537 61.252C28.6337 61.252 29.3537 61.936 29.3537 63.28V67ZM38.2688 60.424H37.1768V64.036C37.1768 65.452 36.4208 66.148 35.2928 66.148C34.1888 66.148 33.4568 65.464 33.4568 64.132V60.424H32.3768V64.276C32.3768 66.16 33.5648 67.096 35.0768 67.096C35.9528 67.096 36.7568 66.712 37.1768 66.028V67H38.2688V60.424ZM40.3244 67H41.4164V58.12H40.3244V67ZM43.0813 63.688C43.0813 65.728 44.4373 67.108 46.1893 67.108C47.4013 67.108 48.2533 66.484 48.6493 65.776V67H49.7533V60.424H48.6493V61.624C48.2653 60.94 47.4253 60.316 46.2013 60.316C44.4373 60.316 43.0813 61.636 43.0813 63.688ZM48.6493 63.7C48.6493 65.248 47.6173 66.148 46.4173 66.148C45.2173 66.148 44.1973 65.236 44.1973 63.688C44.1973 62.14 45.2173 61.264 46.4173 61.264C47.6173 61.264 48.6493 62.176 48.6493 63.7ZM52.9025 63.424C52.9025 61.9 53.6945 61.432 54.7385 61.432H55.0265V60.304C53.9825 60.304 53.2745 60.76 52.9025 61.492V60.424H51.8105V67H52.9025V63.424ZM56.4989 67H57.5909V60.424H56.4989V67ZM57.0629 59.356C57.4589 59.356 57.7829 59.032 57.7829 58.612C57.7829 58.192 57.4589 57.868 57.0629 57.868C56.6429 57.868 56.3189 58.192 56.3189 58.612C56.3189 59.032 56.6429 59.356 57.0629 59.356ZM65.9039 63.7C65.9039 61.624 64.4519 60.316 62.5799 60.316C60.7199 60.316 59.2559 61.624 59.2559 63.7C59.2559 65.788 60.6719 67.108 62.5319 67.108C64.4039 67.108 65.9039 65.788 65.9039 63.7ZM60.3719 63.7C60.3719 62.044 61.4159 61.264 62.5679 61.264C63.6959 61.264 64.7879 62.044 64.7879 63.7C64.7879 65.368 63.6719 66.148 62.5319 66.148C61.3919 66.148 60.3719 65.368 60.3719 63.7ZM72.2795 65.212C72.2315 62.86 68.4155 63.712 68.4155 62.152C68.4155 61.624 68.8955 61.24 69.6995 61.24C70.5755 61.24 71.0795 61.72 71.1275 62.38H72.2195C72.1475 61.096 71.1875 60.316 69.7355 60.316C68.2715 60.316 67.3235 61.144 67.3235 62.152C67.3235 64.6 71.2115 63.748 71.2115 65.212C71.2115 65.752 70.7315 66.184 69.8675 66.184C68.9435 66.184 68.3795 65.704 68.3195 65.068H67.1915C67.2635 66.268 68.3435 67.108 69.8795 67.108C71.3315 67.108 72.2795 66.292 72.2795 65.212Z" fill="#004357"/>
  <path d="M50.9062 39.9995H22.3368C22.1684 39.9995 22 39.8592 22 39.6627V5.70494C22 5.53655 22.1403 5.36816 22.3368 5.36816H25.9851V5.92945H22.5613V39.4382H50.6817V5.95751H47.3982V5.39623H50.9062C51.0746 5.39623 51.243 5.53655 51.243 5.733V39.6908C51.243 39.8592 51.1027 39.9995 50.9062 39.9995Z" fill="#004357"/>
  <path d="M28.3723 15.1345C27.0813 15.1345 26.043 14.0961 26.043 12.8052C26.043 11.5142 27.0813 10.4758 28.3723 10.4758C29.6633 10.4758 30.7016 11.5142 30.7016 12.8052C30.7016 14.0961 29.6633 15.1345 28.3723 15.1345ZM28.3723 10.7284C27.2497 10.7284 26.3236 11.6545 26.3236 12.7771C26.3236 13.8997 27.2497 14.8258 28.3723 14.8258C29.4949 14.8258 30.421 13.8997 30.421 12.7771C30.421 11.6545 29.4949 10.7284 28.3723 10.7284Z" fill="#004357"/>
  <path d="M28.3723 21.9538C27.0813 21.9538 26.043 20.9155 26.043 19.6245C26.043 18.3335 27.0813 17.2952 28.3723 17.2952C29.6633 17.2952 30.7016 18.3335 30.7016 19.6245C30.7016 20.9155 29.6633 21.9538 28.3723 21.9538ZM28.3723 17.5477C27.2497 17.5477 26.3236 18.4739 26.3236 19.5964C26.3236 20.719 27.2497 21.6451 28.3723 21.6451C29.4949 21.6451 30.421 20.719 30.421 19.5964C30.421 18.4739 29.4949 17.5477 28.3723 17.5477Z" fill="#004357"/>
  <path d="M28.3723 28.214C27.0813 28.214 26.043 27.1756 26.043 25.8846C26.043 24.5937 27.0813 23.5553 28.3723 23.5553C29.6633 23.5553 30.7016 24.5937 30.7016 25.8846C30.7016 27.1756 29.6633 28.214 28.3723 28.214ZM28.3723 23.8359C27.2497 23.8359 26.3236 24.7621 26.3236 25.8846C26.3236 27.0072 27.2497 27.9333 28.3723 27.9333C29.4949 27.9333 30.421 27.0072 30.421 25.8846C30.421 24.7621 29.4949 23.8359 28.3723 23.8359Z" fill="#004357"/>
  <path d="M28.3723 34.5029C27.0813 34.5029 26.043 33.4645 26.043 32.1736C26.043 30.8826 27.0813 29.8442 28.3723 29.8442C29.6633 29.8442 30.7016 30.8826 30.7016 32.1736C30.7016 33.4645 29.6633 34.5029 28.3723 34.5029ZM28.3723 30.1249C27.2497 30.1249 26.3236 31.051 26.3236 32.1736C26.3236 33.2961 27.2497 34.2223 28.3723 34.2223C29.4949 34.2223 30.421 33.2961 30.421 32.1736C30.421 31.0229 29.4949 30.1249 28.3723 30.1249Z" fill="#004357"/>
  <path d="M46.0783 13.5365H31.7375C31.3446 13.5365 31.0078 13.1997 31.0078 12.8068C31.0078 12.4139 31.3446 12.0771 31.7375 12.0771H46.0783C46.4993 12.0771 46.808 12.4139 46.808 12.8068C46.808 13.1997 46.4993 13.5365 46.0783 13.5365ZM31.7375 12.3297C31.4849 12.3297 31.2885 12.5262 31.2885 12.7788C31.2885 13.0313 31.4849 13.2278 31.7375 13.2278H46.0783C46.3309 13.2278 46.5274 13.0313 46.5274 12.7788C46.5274 12.5262 46.3309 12.3297 46.0783 12.3297H31.7375Z" fill="#004357"/>
  <path d="M46.1916 26.6149H31.8508C31.4298 26.6149 31.1211 26.2781 31.1211 25.8852C31.1211 25.4923 31.4579 25.1555 31.8508 25.1555H46.1916C46.5845 25.1555 46.9213 25.4923 46.9213 25.8852C46.9213 26.2781 46.5845 26.6149 46.1916 26.6149ZM31.8508 25.4362C31.5982 25.4362 31.4017 25.6326 31.4017 25.8852C31.4017 26.1378 31.5982 26.3342 31.8508 26.3342H46.1916C46.4442 26.3342 46.6406 26.1378 46.6406 25.8852C46.6406 25.6326 46.4442 25.4362 46.1916 25.4362H31.8508Z" fill="#004357"/>
  <path d="M46.1916 32.9016H31.8508C31.4298 32.9016 31.1211 32.5648 31.1211 32.1719C31.1211 31.779 31.4579 31.4423 31.8508 31.4423H46.1916C46.5845 31.4423 46.9213 31.779 46.9213 32.1719C46.9213 32.5648 46.5845 32.9016 46.1916 32.9016ZM31.8508 31.6948C31.5982 31.6948 31.4017 31.8913 31.4017 32.1439C31.4017 32.3964 31.5982 32.5929 31.8508 32.5929H46.1916C46.4442 32.5929 46.6406 32.3964 46.6406 32.1439C46.6406 31.8913 46.4442 31.6948 46.1916 31.6948H31.8508Z" fill="#004357"/>
  <path d="M46.0783 20.3539H31.7375C31.3446 20.3539 31.0078 20.0171 31.0078 19.6242C31.0078 19.2313 31.3446 18.8945 31.7375 18.8945H46.0783C46.4993 18.8945 46.808 19.2313 46.808 19.6242C46.808 20.0171 46.4993 20.3539 46.0783 20.3539ZM31.7375 19.1471C31.4849 19.1471 31.2885 19.3436 31.2885 19.5961C31.2885 19.8487 31.4849 20.0452 31.7375 20.0452H46.0783C46.3309 20.0452 46.5274 19.8487 46.5274 19.5961C46.5274 19.3436 46.3309 19.1471 46.0783 19.1471H31.7375Z" fill="#004357"/>
  <path d="M47.594 38.3189H26.0968C25.2829 38.3189 24.6094 37.6453 24.6094 36.8315V7.64463C24.6094 6.8869 25.1987 6.24142 25.9565 6.18529L26.2652 6.15723V7.9814H47.1169V6.18529H47.594C48.4079 6.18529 49.0814 6.85883 49.0814 7.6727V36.8595C49.0814 37.6734 48.4079 38.3189 47.594 38.3189ZM25.7039 6.83077C25.3952 6.97109 25.1707 7.30786 25.1707 7.6727V36.8595C25.1707 37.3647 25.5916 37.7857 26.0968 37.7857H47.6221C48.1272 37.7857 48.5482 37.3647 48.5482 36.8595V7.6727C48.5482 7.19561 48.1834 6.8027 47.7063 6.77464V8.57075H25.7039V6.83077Z" fill="#004357"/>
  <path d="M34.7676 5.2842L34.2344 5.08775C34.6553 4.02131 35.6937 3.3197 36.8444 3.3197C37.995 3.3197 39.0334 4.02131 39.4543 5.08775L38.9211 5.2842C38.5843 4.41421 37.7424 3.85292 36.8163 3.85292C35.9182 3.85292 35.1044 4.41421 34.7676 5.2842Z" fill="#004357"/>
  <path d="M40.382 5.25546C39.9611 3.65579 38.5017 2.56129 36.8459 2.56129C35.1902 2.56129 33.7589 3.65579 33.3379 5.25546L32.8047 5.08707C33.3098 3.26289 34.9656 2 36.874 2C38.7824 2 40.4382 3.26289 40.9433 5.08707L40.382 5.25546Z" fill="#004357"/>
  <path d="M34.7676 5.2842L34.2344 5.08775C34.6553 4.02131 35.6937 3.3197 36.8444 3.3197C37.995 3.3197 39.0334 4.02131 39.4543 5.08775L38.9211 5.2842C38.5843 4.41421 37.7424 3.85292 36.8163 3.85292C35.9182 3.85292 35.1044 4.41421 34.7676 5.2842Z" fill="#004357"/>
  <path d="M47.6513 8.14864H47.0901V5.45447H26.2664V6.46479H25.7051V4.89319H47.6513V8.14864Z" fill="#004357"/>
  <path d="M253.433 46.624H248.933V55H253.433V54.1H250.025V51.22H253.073V50.32H250.025V47.524H253.433V46.624ZM260.109 55H261.189V51.124C261.189 49.24 260.025 48.304 258.501 48.304C257.613 48.304 256.821 48.676 256.389 49.36V48.424H255.297V55H256.389V51.364C256.389 49.948 257.157 49.252 258.273 49.252C259.377 49.252 260.109 49.936 260.109 51.28V55ZM262.405 48.424L264.985 55H266.257L268.837 48.424H267.673L265.633 53.992L263.581 48.424H262.405ZM270.123 55H271.215V48.424H270.123V55ZM270.687 47.356C271.083 47.356 271.407 47.032 271.407 46.612C271.407 46.192 271.083 45.868 270.687 45.868C270.267 45.868 269.943 46.192 269.943 46.612C269.943 47.032 270.267 47.356 270.687 47.356ZM272.88 51.688C272.88 53.728 274.236 55.108 275.988 55.108C277.2 55.108 278.052 54.484 278.448 53.776V55H279.552V48.424H278.448V49.624C278.064 48.94 277.224 48.316 276 48.316C274.236 48.316 272.88 49.636 272.88 51.688ZM278.448 51.7C278.448 53.248 277.416 54.148 276.216 54.148C275.016 54.148 273.996 53.236 273.996 51.688C273.996 50.14 275.016 49.264 276.216 49.264C277.416 49.264 278.448 50.176 278.448 51.7ZM281.202 51.688C281.202 53.728 282.558 55.108 284.322 55.108C285.522 55.108 286.374 54.496 286.77 53.764V55H287.874V46.12H286.77V49.6C286.314 48.844 285.366 48.316 284.334 48.316C282.558 48.316 281.202 49.636 281.202 51.688ZM286.77 51.7C286.77 53.248 285.738 54.148 284.538 54.148C283.338 54.148 282.318 53.236 282.318 51.688C282.318 50.14 283.338 49.264 284.538 49.264C285.738 49.264 286.77 50.176 286.77 51.7ZM296.171 51.7C296.171 49.624 294.719 48.316 292.847 48.316C290.987 48.316 289.523 49.624 289.523 51.7C289.523 53.788 290.939 55.108 292.799 55.108C294.671 55.108 296.171 53.788 296.171 51.7ZM290.639 51.7C290.639 50.044 291.683 49.264 292.835 49.264C293.963 49.264 295.055 50.044 295.055 51.7C295.055 53.368 293.939 54.148 292.799 54.148C291.659 54.148 290.639 53.368 290.639 51.7ZM302.321 49.636V48.424H301.229V58.12H302.321V53.788C302.729 54.46 303.581 55.108 304.781 55.108C306.545 55.108 307.901 53.728 307.901 51.688C307.901 49.636 306.545 48.316 304.781 48.316C303.581 48.316 302.717 48.94 302.321 49.636ZM306.785 51.688C306.785 53.236 305.765 54.148 304.553 54.148C303.365 54.148 302.321 53.248 302.321 51.7C302.321 50.176 303.365 49.264 304.553 49.264C305.765 49.264 306.785 50.14 306.785 51.688ZM315.791 51.7C315.791 49.624 314.339 48.316 312.467 48.316C310.607 48.316 309.143 49.624 309.143 51.7C309.143 53.788 310.559 55.108 312.419 55.108C314.291 55.108 315.791 53.788 315.791 51.7ZM310.259 51.7C310.259 50.044 311.303 49.264 312.455 49.264C313.583 49.264 314.675 50.044 314.675 51.7C314.675 53.368 313.559 54.148 312.419 54.148C311.279 54.148 310.259 53.368 310.259 51.7ZM318.53 51.424C318.53 49.9 319.322 49.432 320.366 49.432H320.654V48.304C319.61 48.304 318.902 48.76 318.53 49.492V48.424H317.438V55H318.53V51.424ZM252.744 62.608V59.536H254.352C255.6 59.536 256.128 60.112 256.128 61.084C256.128 62.02 255.6 62.608 254.352 62.608H252.744ZM257.244 61.084C257.244 59.716 256.32 58.636 254.352 58.636H251.652V67H252.744V63.508H254.352C256.428 63.508 257.244 62.356 257.244 61.084ZM258.405 63.688C258.405 65.728 259.761 67.108 261.513 67.108C262.725 67.108 263.577 66.484 263.973 65.776V67H265.077V60.424H263.973V61.624C263.589 60.94 262.749 60.316 261.525 60.316C259.761 60.316 258.405 61.636 258.405 63.688ZM263.973 63.7C263.973 65.248 262.941 66.148 261.741 66.148C260.541 66.148 259.521 65.236 259.521 63.688C259.521 62.14 260.541 61.264 261.741 61.264C262.941 61.264 263.973 62.176 263.973 63.7ZM266.727 63.688C266.727 65.728 268.083 67.108 269.823 67.108C271.047 67.108 271.923 66.46 272.295 65.788V70.12H273.399V60.424H272.295V61.624C271.923 60.94 271.059 60.316 269.859 60.316C268.083 60.316 266.727 61.636 266.727 63.688ZM272.295 63.7C272.295 65.248 271.263 66.148 270.063 66.148C268.863 66.148 267.843 65.236 267.843 63.688C267.843 62.14 268.863 61.264 270.063 61.264C271.263 61.264 272.295 62.176 272.295 63.7ZM281.288 60.424H280.196V64.036C280.196 65.452 279.44 66.148 278.312 66.148C277.208 66.148 276.476 65.464 276.476 64.132V60.424H275.396V64.276C275.396 66.16 276.584 67.096 278.096 67.096C278.972 67.096 279.776 66.712 280.196 66.028V67H281.288V60.424ZM286.139 61.24C287.267 61.24 288.227 61.948 288.215 63.232H284.063C284.183 61.948 285.071 61.24 286.139 61.24ZM289.211 64.972H288.035C287.795 65.68 287.171 66.184 286.187 66.184C285.071 66.184 284.135 65.452 284.051 64.12H289.307C289.331 63.892 289.343 63.7 289.343 63.46C289.343 61.66 288.095 60.316 286.187 60.316C284.267 60.316 282.935 61.624 282.935 63.7C282.935 65.788 284.315 67.108 286.187 67.108C287.819 67.108 288.875 66.172 289.211 64.972ZM291.237 65.2C291.237 66.52 291.897 67 293.061 67H294.045V66.076H293.241C292.569 66.076 292.329 65.848 292.329 65.2V61.324H294.045V60.424H292.329V58.768H291.237V60.424H290.385V61.324H291.237V65.2ZM298.376 61.24C299.504 61.24 300.464 61.948 300.452 63.232H296.3C296.42 61.948 297.308 61.24 298.376 61.24ZM301.448 64.972H300.272C300.032 65.68 299.408 66.184 298.424 66.184C297.308 66.184 296.372 65.452 296.288 64.12H301.544C301.568 63.892 301.58 63.7 301.58 63.46C301.58 61.66 300.332 60.316 298.424 60.316C296.504 60.316 295.172 61.624 295.172 63.7C295.172 65.788 296.552 67.108 298.424 67.108C300.056 67.108 301.112 66.172 301.448 64.972ZM304.325 63.424C304.325 61.9 305.117 61.432 306.161 61.432H306.449V60.304C305.405 60.304 304.697 60.76 304.325 61.492V60.424H303.233V67H304.325V63.424ZM307.921 67H309.013V60.424H307.921V67ZM308.485 59.356C308.881 59.356 309.205 59.032 309.205 58.612C309.205 58.192 308.881 57.868 308.485 57.868C308.065 57.868 307.741 58.192 307.741 58.612C307.741 59.032 308.065 59.356 308.485 59.356ZM310.678 63.688C310.678 65.728 312.034 67.108 313.786 67.108C314.998 67.108 315.85 66.484 316.246 65.776V67H317.35V60.424H316.246V61.624C315.862 60.94 315.022 60.316 313.798 60.316C312.034 60.316 310.678 61.636 310.678 63.688ZM316.246 63.7C316.246 65.248 315.214 66.148 314.014 66.148C312.814 66.148 311.794 65.236 311.794 63.688C311.794 62.14 312.814 61.264 314.014 61.264C315.214 61.264 316.246 62.176 316.246 63.7Z" fill="#AFB0B1"/>
  <path d="M307 11.9966V29.2719L289.49 38.9727V20.9931L306.774 12.1162L307 11.9966Z" stroke="#AFB0B1" stroke-miterlimit="10"/>
  <path d="M307 11.7573L289.265 3L271.994 11.9965L289.491 20.9929" stroke="#AFB0B1" stroke-miterlimit="10"/>
  <path d="M289.491 38.9734L277.906 33.2991" stroke="#AFB0B1" stroke-miterlimit="10"/>
  <path d="M283.672 6.20276L299.986 15.7042L299.906 19.3453L296.479 21.4582V17.445" stroke="#AFB0B1" stroke-miterlimit="10"/>
  <path d="M296.092 17.6439L279.539 8.10254" stroke="#AFB0B1" stroke-miterlimit="10"/>
  <path d="M277.427 22.8794H265.125" stroke="#AFB0B1" stroke-miterlimit="10"/>
  <path d="M275.302 25.7239H263" stroke="#AFB0B1" stroke-miterlimit="10"/>
  <path d="M281.932 30.9329H269.391" stroke="#AFB0B1" stroke-miterlimit="10"/>
  <path d="M271.756 11.9966V20.5147" stroke="#AFB0B1" stroke-miterlimit="10"/>
  <path d="M395.289 56H396.717L392.889 51.824L396.681 47.636H395.301L391.845 51.512V47.636H390.753V56H391.845V52.184L395.289 56ZM398.148 56H399.24V49.424H398.148V56ZM398.712 48.356C399.108 48.356 399.432 48.032 399.432 47.612C399.432 47.192 399.108 46.868 398.712 46.868C398.292 46.868 397.968 47.192 397.968 47.612C397.968 48.032 398.292 48.356 398.712 48.356ZM401.553 54.2C401.553 55.52 402.213 56 403.377 56H404.361V55.076H403.557C402.885 55.076 402.645 54.848 402.645 54.2V50.324H404.361V49.424H402.645V47.768H401.553V49.424H400.701V50.324H401.553V54.2ZM377.743 62.096C377.743 63.032 377.203 63.704 375.967 63.704H374.359V60.536H375.967C377.215 60.536 377.743 61.148 377.743 62.096ZM373.267 59.636V68H374.359V64.58H375.679L377.671 68H378.979L376.879 64.496C378.283 64.184 378.871 63.164 378.871 62.096C378.871 60.728 377.935 59.636 375.967 59.636H373.267ZM383.575 62.24C384.703 62.24 385.663 62.948 385.651 64.232H381.499C381.619 62.948 382.507 62.24 383.575 62.24ZM386.647 65.972H385.471C385.231 66.68 384.607 67.184 383.623 67.184C382.507 67.184 381.571 66.452 381.487 65.12H386.743C386.767 64.892 386.779 64.7 386.779 64.46C386.779 62.66 385.531 61.316 383.623 61.316C381.703 61.316 380.371 62.624 380.371 64.7C380.371 66.788 381.751 68.108 383.623 68.108C385.255 68.108 386.311 67.172 386.647 65.972ZM388.024 64.7C388.024 66.788 389.356 68.108 391.228 68.108C392.86 68.108 393.928 67.196 394.264 65.888H393.088C392.848 66.716 392.2 67.184 391.228 67.184C390.028 67.184 389.14 66.332 389.14 64.7C389.14 63.092 390.028 62.24 391.228 62.24C392.2 62.24 392.86 62.744 393.088 63.536H394.264C393.928 62.156 392.86 61.316 391.228 61.316C389.356 61.316 388.024 62.636 388.024 64.7ZM395.933 68H397.025V61.424H395.933V68ZM396.497 60.356C396.893 60.356 397.217 60.032 397.217 59.612C397.217 59.192 396.893 58.868 396.497 58.868C396.077 58.868 395.753 59.192 395.753 59.612C395.753 60.032 396.077 60.356 396.497 60.356ZM400.19 62.648V59.12H399.098V68H400.19V66.788C400.598 67.508 401.45 68.108 402.65 68.108C404.414 68.108 405.77 66.728 405.77 64.688C405.77 62.636 404.426 61.316 402.65 61.316C401.486 61.316 400.61 61.916 400.19 62.648ZM404.654 64.688C404.654 66.236 403.634 67.148 402.422 67.148C401.234 67.148 400.19 66.248 400.19 64.7C400.19 63.176 401.234 62.264 402.422 62.264C403.634 62.264 404.654 63.14 404.654 64.688ZM407.419 68H408.511V61.424H407.419V68ZM407.983 60.356C408.379 60.356 408.703 60.032 408.703 59.612C408.703 59.192 408.379 58.868 407.983 58.868C407.563 58.868 407.239 59.192 407.239 59.612C407.239 60.032 407.563 60.356 407.983 60.356ZM410.176 64.688C410.176 66.728 411.532 68.108 413.296 68.108C414.496 68.108 415.348 67.496 415.744 66.764V68H416.848V59.12H415.744V62.6C415.288 61.844 414.34 61.316 413.308 61.316C411.532 61.316 410.176 62.636 410.176 64.688ZM415.744 64.7C415.744 66.248 414.712 67.148 413.512 67.148C412.312 67.148 411.292 66.236 411.292 64.688C411.292 63.14 412.312 62.264 413.512 62.264C414.712 62.264 415.744 63.176 415.744 64.7ZM425.146 64.7C425.146 62.624 423.694 61.316 421.822 61.316C419.962 61.316 418.498 62.624 418.498 64.7C418.498 66.788 419.914 68.108 421.774 68.108C423.646 68.108 425.146 66.788 425.146 64.7ZM419.614 64.7C419.614 63.044 420.658 62.264 421.81 62.264C422.938 62.264 424.03 63.044 424.03 64.7C424.03 66.368 422.914 67.148 421.774 67.148C420.634 67.148 419.614 66.368 419.614 64.7Z" fill="#AFB0B1"/>
  <path d="M411.2 8.10795C406.619 8.09439 402.877 11.7822 402.863 16.3377C402.85 20.8865 406.564 24.6014 411.152 24.615C415.733 24.6286 419.475 20.934 419.489 16.3852C419.502 11.8364 415.781 8.12151 411.2 8.10795ZM411.152 23.6185C407.124 23.6049 403.853 20.3442 403.86 16.3377C403.874 12.3381 407.158 9.09091 411.193 9.09769C415.221 9.11125 418.492 12.372 418.485 16.3784C418.471 20.3849 415.187 23.632 411.152 23.6185Z" fill="#AFB0B1"/>
  <path d="M379.614 2.61012H391.877V10.4738H399.893V2.61012H411.978V5.49122H412.592V2H379V33.5905H385.316V32.9804H379.614V2.61012ZM399.278 9.86372H392.491V2.61012H399.278V9.86372Z" fill="#AFB0B1" stroke="#AFB0B1" stroke-width="0.5" stroke-miterlimit="10"/>
  <path d="M419.966 30.8585C419.918 30.6348 419.775 30.5331 418.539 30.1739C417.809 29.9569 416.825 29.6993 415.781 29.4146C414.818 29.157 413.63 28.8384 412.599 28.5401V25.8963H411.985V28.3571C411.104 28.0927 410.428 27.8622 410.271 27.7266C409.643 26.9674 402.228 21.8356 397.264 23.5575C397.073 23.5982 395.298 24.0049 393.536 24.4388C392.444 24.7032 391.577 24.9336 390.949 25.1099C389.699 25.4624 389.569 25.5505 389.542 25.8014V25.8353L389.549 25.8692C389.556 25.9302 389.727 27.3063 391.017 28.1062C392.048 28.7503 393.461 28.8316 395.236 28.3503C394.902 28.7774 394.383 29.34 393.639 29.8756C391.194 31.6381 388.313 31.6924 386.326 31.428L386.012 31.3873L385.985 31.7059C385.978 31.7602 385.869 33.055 386.9 34.1193C387.822 35.0751 389.324 35.5158 391.372 35.4344C391.768 35.7666 393.386 37.1088 395.195 38.3765C397.688 40.1187 399.435 40.9729 400.528 40.9729C400.699 40.9729 400.856 40.9526 400.999 40.9051L401.033 40.8916L401.067 40.8712C401.081 40.8644 402.767 39.8747 404.652 38.9527C407.895 37.3732 409.021 37.2987 409.411 37.4003C409.547 37.4342 409.581 37.4952 409.595 37.5088L409.656 37.6105L409.766 37.6444C409.772 37.6444 410.735 37.9562 411.718 38.2342C413.842 38.8375 413.992 38.7223 414.135 38.6138C414.361 38.4443 416.327 35.9767 417.187 34.8785C420.034 31.2178 420 31.0348 419.966 30.8585ZM416.607 34.6074C415.296 36.275 414.06 37.7867 413.78 38.0918C413.364 38.085 411.602 37.5969 410.025 37.0953C409.909 36.9597 409.745 36.858 409.54 36.8106C407.67 36.336 401.613 39.834 400.774 40.3289C400.289 40.4577 398.985 40.2747 395.544 37.8749C393.495 36.4445 391.693 34.9056 391.672 34.8921L391.577 34.8107L391.454 34.8175C389.535 34.9124 388.149 34.5396 387.337 33.7058C386.784 33.1363 386.634 32.4652 386.593 32.0788C390.198 32.4652 392.601 31.3738 393.994 30.3705C395.271 29.4485 395.947 28.452 396.165 28.0859C397.305 27.8758 399.476 27.4419 399.586 27.4216L399.463 26.825C399.442 26.8318 397.729 27.1707 396.527 27.3944L395.871 27.5097C395.865 27.5165 395.851 27.5165 395.844 27.5165C395.742 27.5368 395.585 27.6046 395.585 27.6046C393.748 28.1944 392.328 28.1876 391.352 27.591C390.566 27.1029 390.286 26.3369 390.198 25.9844C390.983 25.6861 394.369 24.8523 397.421 24.1541L397.455 24.1473C399.92 23.2863 403.034 24.3032 405.212 25.3065C407.738 26.4725 409.629 27.9029 409.8 28.1198C410.08 28.4723 411.568 28.9197 415.624 30.0044C417.078 30.3908 418.696 30.8314 419.27 31.0416C418.997 31.4687 418.198 32.5736 416.607 34.6074Z" fill="#AFB0B1" stroke="#AFB0B1" stroke-width="0.5" stroke-miterlimit="10"/>
  <path d="M407.006 13.7075C406.829 13.4634 406.542 13.3346 406.248 13.355C405.948 13.3821 405.689 13.5516 405.552 13.8227L404.835 15.2328C404.699 15.5107 404.719 15.8361 404.897 16.0937L408.433 21.2322C408.577 21.4356 408.802 21.5712 409.048 21.5983C409.075 21.5983 409.109 21.6051 409.137 21.6051C409.355 21.6051 409.567 21.5237 409.731 21.3746L417.35 14.1752C417.521 14.0193 417.616 13.8024 417.616 13.5719C417.623 13.3414 417.535 13.1245 417.371 12.9618L415.753 11.3484C415.418 11.0162 414.879 11.0162 414.544 11.3484L409.157 16.6632L407.006 13.7075Z" fill="#AFB0B1" stroke="#AFB0B1" stroke-miterlimit="10"/>
  <path d="M580.824 50.096C580.824 51.032 580.284 51.704 579.048 51.704H577.44V48.536H579.048C580.296 48.536 580.824 49.148 580.824 50.096ZM576.348 47.636V56H577.44V52.58H578.76L580.752 56H582.06L579.96 52.496C581.364 52.184 581.952 51.164 581.952 50.096C581.952 48.728 581.016 47.636 579.048 47.636H576.348ZM586.657 50.24C587.785 50.24 588.745 50.948 588.733 52.232H584.581C584.701 50.948 585.589 50.24 586.657 50.24ZM589.729 53.972H588.553C588.313 54.68 587.689 55.184 586.705 55.184C585.589 55.184 584.653 54.452 584.569 53.12H589.825C589.849 52.892 589.861 52.7 589.861 52.46C589.861 50.66 588.613 49.316 586.705 49.316C584.785 49.316 583.453 50.624 583.453 52.7C583.453 54.788 584.833 56.108 586.705 56.108C588.337 56.108 589.393 55.172 589.729 53.972ZM596.242 54.212C596.194 51.86 592.378 52.712 592.378 51.152C592.378 50.624 592.858 50.24 593.662 50.24C594.538 50.24 595.042 50.72 595.09 51.38H596.182C596.11 50.096 595.15 49.316 593.698 49.316C592.234 49.316 591.286 50.144 591.286 51.152C591.286 53.6 595.174 52.748 595.174 54.212C595.174 54.752 594.694 55.184 593.83 55.184C592.906 55.184 592.342 54.704 592.282 54.068H591.154C591.226 55.268 592.306 56.108 593.842 56.108C595.294 56.108 596.242 55.292 596.242 54.212ZM603.828 49.424H602.736V53.036C602.736 54.452 601.98 55.148 600.852 55.148C599.748 55.148 599.016 54.464 599.016 53.132V49.424H597.936V53.276C597.936 55.16 599.124 56.096 600.636 56.096C601.512 56.096 602.316 55.712 602.736 55.028V56H603.828V49.424ZM605.883 56H606.975V47.12H605.883V56ZM609.288 54.2C609.288 55.52 609.948 56 611.112 56H612.096V55.076H611.292C610.62 55.076 610.38 54.848 610.38 54.2V50.324H612.096V49.424H610.38V47.768H609.288V49.424H608.436V50.324H609.288V54.2ZM613.223 52.688C613.223 54.728 614.579 56.108 616.331 56.108C617.543 56.108 618.395 55.484 618.791 54.776V56H619.895V49.424H618.791V50.624C618.407 49.94 617.567 49.316 616.343 49.316C614.579 49.316 613.223 50.636 613.223 52.688ZM618.791 52.7C618.791 54.248 617.759 55.148 616.559 55.148C615.359 55.148 614.339 54.236 614.339 52.688C614.339 51.14 615.359 50.264 616.559 50.264C617.759 50.264 618.791 51.176 618.791 52.7ZM621.544 52.688C621.544 54.728 622.9 56.108 624.664 56.108C625.864 56.108 626.716 55.496 627.112 54.764V56H628.216V47.12H627.112V50.6C626.656 49.844 625.708 49.316 624.676 49.316C622.9 49.316 621.544 50.636 621.544 52.688ZM627.112 52.7C627.112 54.248 626.08 55.148 624.88 55.148C623.68 55.148 622.66 54.236 622.66 52.688C622.66 51.14 623.68 50.264 624.88 50.264C626.08 50.264 627.112 51.176 627.112 52.7ZM636.513 52.7C636.513 50.624 635.061 49.316 633.189 49.316C631.329 49.316 629.865 50.624 629.865 52.7C629.865 54.788 631.281 56.108 633.141 56.108C635.013 56.108 636.513 54.788 636.513 52.7ZM630.981 52.7C630.981 51.044 632.025 50.264 633.177 50.264C634.305 50.264 635.397 51.044 635.397 52.7C635.397 54.368 634.281 55.148 633.141 55.148C632.001 55.148 630.981 54.368 630.981 52.7ZM641.164 52.688C641.164 54.728 642.52 56.108 644.284 56.108C645.484 56.108 646.336 55.496 646.732 54.764V56H647.836V47.12H646.732V50.6C646.276 49.844 645.328 49.316 644.296 49.316C642.52 49.316 641.164 50.636 641.164 52.688ZM646.732 52.7C646.732 54.248 645.7 55.148 644.5 55.148C643.3 55.148 642.28 54.236 642.28 52.688C642.28 51.14 643.3 50.264 644.5 50.264C645.7 50.264 646.732 51.176 646.732 52.7ZM652.689 50.24C653.817 50.24 654.777 50.948 654.765 52.232H650.613C650.733 50.948 651.621 50.24 652.689 50.24ZM655.761 53.972H654.585C654.345 54.68 653.721 55.184 652.737 55.184C651.621 55.184 650.685 54.452 650.601 53.12H655.857C655.881 52.892 655.893 52.7 655.893 52.46C655.893 50.66 654.645 49.316 652.737 49.316C650.817 49.316 649.485 50.624 649.485 52.7C649.485 54.788 650.865 56.108 652.737 56.108C654.369 56.108 655.425 55.172 655.761 53.972ZM657.546 56H658.638V47.12H657.546V56ZM600.664 68H601.816L598.804 59.684H597.544L594.52 68H595.672L596.344 66.14H599.992L600.664 68ZM599.68 65.252H596.656L598.168 61.028L599.68 65.252ZM608.158 68H609.238V64.124C609.238 62.24 608.074 61.304 606.55 61.304C605.662 61.304 604.87 61.676 604.438 62.36V61.424H603.346V68H604.438V64.364C604.438 62.948 605.206 62.252 606.322 62.252C607.426 62.252 608.158 62.936 608.158 64.28V68ZM610.825 64.688C610.825 66.728 612.181 68.108 613.933 68.108C615.145 68.108 615.997 67.484 616.393 66.776V68H617.497V61.424H616.393V62.624C616.009 61.94 615.169 61.316 613.945 61.316C612.181 61.316 610.825 62.636 610.825 64.688ZM616.393 64.7C616.393 66.248 615.361 67.148 614.161 67.148C612.961 67.148 611.941 66.236 611.941 64.688C611.941 63.14 612.961 62.264 614.161 62.264C615.361 62.264 616.393 63.176 616.393 64.7ZM612.985 60.116V60.932L615.541 59.564V58.616L612.985 60.116ZM619.554 68H620.646V59.12H619.554V68ZM622.719 68H623.811V61.424H622.719V68ZM623.283 60.356C623.679 60.356 624.003 60.032 624.003 59.612C624.003 59.192 623.679 58.868 623.283 58.868C622.863 58.868 622.539 59.192 622.539 59.612C622.539 60.032 622.863 60.356 623.283 60.356ZM630.612 66.212C630.564 63.86 626.748 64.712 626.748 63.152C626.748 62.624 627.228 62.24 628.032 62.24C628.908 62.24 629.412 62.72 629.46 63.38H630.552C630.48 62.096 629.52 61.316 628.068 61.316C626.604 61.316 625.656 62.144 625.656 63.152C625.656 65.6 629.544 64.748 629.544 66.212C629.544 66.752 629.064 67.184 628.2 67.184C627.276 67.184 626.712 66.704 626.652 66.068H625.524C625.596 67.268 626.676 68.108 628.212 68.108C629.664 68.108 630.612 67.292 630.612 66.212ZM632.366 68H633.458V61.424H632.366V68ZM632.93 60.356C633.326 60.356 633.65 60.032 633.65 59.612C633.65 59.192 633.326 58.868 632.93 58.868C632.51 58.868 632.186 59.192 632.186 59.612C632.186 60.032 632.51 60.356 632.93 60.356ZM640.259 66.212C640.211 63.86 636.395 64.712 636.395 63.152C636.395 62.624 636.875 62.24 637.679 62.24C638.555 62.24 639.059 62.72 639.107 63.38H640.199C640.127 62.096 639.167 61.316 637.715 61.316C636.251 61.316 635.303 62.144 635.303 63.152C635.303 65.6 639.191 64.748 639.191 66.212C639.191 66.752 638.711 67.184 637.847 67.184C636.923 67.184 636.359 66.704 636.299 66.068H635.171C635.243 67.268 636.323 68.108 637.859 68.108C639.311 68.108 640.259 67.292 640.259 66.212Z" fill="#AFB0B1"/>
  <path d="M627.731 4.84346H608.77V3.32642H627.731V4.84346ZM608.972 4.64119H627.528V3.52869H608.972V4.64119Z" fill="#F7931E" stroke="#AFB0B1" stroke-width="0.7" stroke-miterlimit="10"/>
  <path d="M617.185 7.47353H608.668V5.85535H617.185V7.47353ZM608.871 7.27125H616.983V6.05762H608.871V7.27125Z" fill="#F7931E" stroke="#AFB0B1" stroke-width="0.7" stroke-miterlimit="10"/>
  <path d="M630.682 40.5442H604.318C603.588 40.5442 603 39.9577 603 39.2295V2.31477C603 1.58659 603.588 1 604.318 1H630.682C631.412 1 632 1.58659 632 2.31477V39.2295C632 39.9577 631.412 40.5442 630.682 40.5442ZM604.318 1.20227C603.7 1.20227 603.203 1.69784 603.203 2.31477V39.2295C603.203 39.8464 603.7 40.342 604.318 40.342H630.682C631.3 40.342 631.797 39.8464 631.797 39.2295V2.31477C631.797 1.69784 631.3 1.20227 630.682 1.20227H604.318Z" fill="#F7931E" stroke="#AFB0B1" stroke-width="0.7" stroke-miterlimit="10"/>
  <path d="M626.829 28.9136H608.172V29.1158H626.829V28.9136Z" fill="#F7931E" stroke="#AFB0B1" stroke-width="0.7" stroke-miterlimit="10"/>
  <path d="M626.88 31.4932H608.121V31.6954H626.88V31.4932Z" fill="#F7931E" stroke="#AFB0B1" stroke-width="0.7" stroke-miterlimit="10"/>
  <path d="M626.829 34.0707H608.172V34.273H626.829V34.0707Z" fill="#F7931E" stroke="#AFB0B1" stroke-width="0.7" stroke-miterlimit="10"/>
  <path d="M612.521 25.3743H608.363V19.3062H612.521V25.3743ZM608.566 25.1721H612.318V19.5084H608.566V25.1721Z" fill="#F7931E" stroke="#AFB0B1" stroke-width="0.7" stroke-miterlimit="10"/>
  <path d="M627.628 25.3744H623.471V20.7222H627.628V25.3744ZM623.674 25.1722H627.425V20.9244H623.674V25.1722Z" fill="#F7931E" stroke="#AFB0B1" stroke-width="0.7" stroke-miterlimit="10"/>
  <path d="M617.794 25.3749H613.637V14.3511H617.794V25.3749ZM613.84 25.1727H617.591V14.5533H613.84V25.1727Z" fill="#F7931E" stroke="#AFB0B1" stroke-width="0.7" stroke-miterlimit="10"/>
  <path d="M622.56 25.3744H618.402V9.2937H622.56V25.3744ZM618.605 25.1721H622.357V9.49597H618.605V25.1721Z" fill="#F7931E" stroke="#AFB0B1" stroke-width="0.7" stroke-miterlimit="10"/>
  <path d="M628.845 25.1721H606.74V25.3744H628.845V25.1721Z" fill="#F7931E" stroke="#AFB0B1" stroke-width="0.7" stroke-miterlimit="10"/>
  <path d="M489.018 56H490.446L486.618 51.824L490.41 47.636H489.03L485.574 51.512V47.636H484.482V56H485.574V52.184L489.018 56ZM491.878 56H492.97V49.424H491.878V56ZM492.442 48.356C492.838 48.356 493.162 48.032 493.162 47.612C493.162 47.192 492.838 46.868 492.442 46.868C492.022 46.868 491.698 47.192 491.698 47.612C491.698 48.032 492.022 48.356 492.442 48.356ZM495.283 54.2C495.283 55.52 495.943 56 497.107 56H498.091V55.076H497.287C496.615 55.076 496.375 54.848 496.375 54.2V50.324H498.091V49.424H496.375V47.768H495.283V49.424H494.431V50.324H495.283V54.2ZM505.833 50.24C506.961 50.24 507.921 50.948 507.909 52.232H503.757C503.877 50.948 504.765 50.24 505.833 50.24ZM508.905 53.972H507.729C507.489 54.68 506.865 55.184 505.881 55.184C504.765 55.184 503.829 54.452 503.745 53.12H509.001C509.025 52.892 509.037 52.7 509.037 52.46C509.037 50.66 507.789 49.316 505.881 49.316C503.961 49.316 502.629 50.624 502.629 52.7C502.629 54.788 504.009 56.108 505.881 56.108C507.513 56.108 508.569 55.172 508.905 53.972ZM515.502 56H516.582V52.124C516.582 50.24 515.418 49.304 513.894 49.304C513.006 49.304 512.214 49.676 511.782 50.36V49.424H510.69V56H511.782V52.364C511.782 50.948 512.55 50.252 513.666 50.252C514.77 50.252 515.502 50.936 515.502 52.28V56ZM483.664 68H484.816L481.804 59.684H480.544L477.52 68H478.672L479.344 66.14H482.992L483.664 68ZM482.68 65.252H479.656L481.168 61.028L482.68 65.252ZM491.158 68H492.238V64.124C492.238 62.24 491.074 61.304 489.55 61.304C488.662 61.304 487.87 61.676 487.438 62.36V61.424H486.346V68H487.438V64.364C487.438 62.948 488.206 62.252 489.322 62.252C490.426 62.252 491.158 62.936 491.158 64.28V68ZM493.825 64.688C493.825 66.728 495.181 68.108 496.933 68.108C498.145 68.108 498.997 67.484 499.393 66.776V68H500.497V61.424H499.393V62.624C499.009 61.94 498.169 61.316 496.945 61.316C495.181 61.316 493.825 62.636 493.825 64.688ZM499.393 64.7C499.393 66.248 498.361 67.148 497.161 67.148C495.961 67.148 494.941 66.236 494.941 64.688C494.941 63.14 495.961 62.264 497.161 62.264C498.361 62.264 499.393 63.176 499.393 64.7ZM495.985 60.116V60.932L498.541 59.564V58.616L495.985 60.116ZM502.554 68H503.646V59.12H502.554V68ZM505.719 68H506.811V61.424H505.719V68ZM506.283 60.356C506.679 60.356 507.003 60.032 507.003 59.612C507.003 59.192 506.679 58.868 506.283 58.868C505.863 58.868 505.539 59.192 505.539 59.612C505.539 60.032 505.863 60.356 506.283 60.356ZM513.612 66.212C513.564 63.86 509.748 64.712 509.748 63.152C509.748 62.624 510.228 62.24 511.032 62.24C511.908 62.24 512.412 62.72 512.46 63.38H513.552C513.48 62.096 512.52 61.316 511.068 61.316C509.604 61.316 508.656 62.144 508.656 63.152C508.656 65.6 512.544 64.748 512.544 66.212C512.544 66.752 512.064 67.184 511.2 67.184C510.276 67.184 509.712 66.704 509.652 66.068H508.524C508.596 67.268 509.676 68.108 511.212 68.108C512.664 68.108 513.612 67.292 513.612 66.212ZM515.366 68H516.458V61.424H515.366V68ZM515.93 60.356C516.326 60.356 516.65 60.032 516.65 59.612C516.65 59.192 516.326 58.868 515.93 58.868C515.51 58.868 515.186 59.192 515.186 59.612C515.186 60.032 515.51 60.356 515.93 60.356ZM523.259 66.212C523.211 63.86 519.395 64.712 519.395 63.152C519.395 62.624 519.875 62.24 520.679 62.24C521.555 62.24 522.059 62.72 522.107 63.38H523.199C523.127 62.096 522.167 61.316 520.715 61.316C519.251 61.316 518.303 62.144 518.303 63.152C518.303 65.6 522.191 64.748 522.191 66.212C522.191 66.752 521.711 67.184 520.847 67.184C519.923 67.184 519.359 66.704 519.299 66.068H518.171C518.243 67.268 519.323 68.108 520.859 68.108C522.311 68.108 523.259 67.292 523.259 66.212Z" fill="#AFB0B1"/>
  <path d="M500.261 8.85889H499.059L496.791 11.5346V8.85889H495.838V14.7091H496.791V12.0788L499.059 14.7091H500.306L497.721 11.784L500.261 8.85889Z" fill="#AFB0B1" stroke="#AFB0B1" stroke-width="0.5" stroke-miterlimit="10"/>
  <path d="M502.099 10.0614H501.146V14.6872H502.099V10.0614Z" fill="#AFB0B1" stroke="#AFB0B1" stroke-width="0.5" stroke-miterlimit="10"/>
  <path d="M501.646 8.22339C501.305 8.22339 501.033 8.49549 501.033 8.83562C501.033 9.17575 501.305 9.44786 501.646 9.44786C501.986 9.44786 502.258 9.17575 502.258 8.83562C502.235 8.49549 501.986 8.22339 501.646 8.22339Z" fill="#AFB0B1" stroke="#AFB0B1" stroke-width="0.5" stroke-miterlimit="10"/>
  <path d="M504.481 8.92737H503.505V10.0838H502.961V10.8548H503.505V13.4171C503.505 14.3468 504.027 14.7096 504.844 14.7096H505.592V13.8933H505.002C504.594 13.8933 504.458 13.7572 504.458 13.4171V10.8548H505.592V10.0838H504.458V8.92737H504.481Z" fill="#AFB0B1" stroke="#AFB0B1" stroke-width="0.5" stroke-miterlimit="10"/>
  <path d="M502.847 23.8463C503.142 23.869 503.46 23.8916 503.777 23.8916C503.8 23.8916 503.823 23.8916 503.846 23.8916C505.048 23.8916 506.25 23.6876 507.429 23.2341C507.52 23.2114 507.588 23.166 507.679 23.1207C508.768 22.6672 509.766 22.0323 510.628 21.2386C511.626 20.3316 512.442 19.1978 513.01 17.928C513.463 16.8849 513.758 15.8192 513.849 14.7081C513.871 14.5267 513.871 14.3453 513.871 14.1866C513.917 12.8714 513.69 11.5336 513.214 10.2637C512.533 8.49506 511.376 6.97581 509.879 5.84205C509.72 5.72867 509.584 5.61529 509.426 5.52459C509.176 5.36586 508.927 5.20713 508.654 5.04841C508.405 4.91236 508.178 4.79898 507.928 4.6856C507.86 4.66293 507.792 4.61758 507.724 4.5949C505.32 3.59718 502.689 3.55183 500.262 4.48152C500.171 4.52687 500.057 4.57222 499.967 4.5949C499.649 4.73095 499.332 4.88968 499.014 5.04841C497.109 6.09147 495.589 7.7241 494.682 9.76488C493.593 12.2138 493.525 14.9349 494.477 17.4292C494.568 17.6559 494.659 17.8827 494.772 18.0867C494.908 18.3588 495.045 18.631 495.203 18.9031C496.111 20.5584 497.472 21.8282 499.059 22.6898C499.218 22.7805 499.354 22.8486 499.513 22.9166C499.717 23.0073 499.921 23.098 500.126 23.1887C500.284 23.2567 500.42 23.3021 500.579 23.3474C501.305 23.6195 502.076 23.7783 502.847 23.8463ZM500.579 23.2567V23.098H500.602V23.166C500.919 23.3021 501.26 23.4381 501.6 23.5288C501.26 23.4835 500.919 23.3701 500.579 23.2567ZM500.579 23.03V22.4177L502.235 23.4835C501.668 23.3701 501.124 23.2114 500.579 23.03ZM502.53 23.7329L502.394 23.6195C502.144 23.5742 501.895 23.4835 501.645 23.4155C501.895 23.4835 502.144 23.5288 502.417 23.5742L502.711 23.7556C502.643 23.7329 502.575 23.7329 502.53 23.7329ZM509.879 6.27288C511.195 7.31594 512.261 8.72182 512.919 10.3998C513.372 11.5562 513.577 12.7807 513.554 14.0052L513.055 13.665L513.032 13.6877L509.879 12.1911V6.27288ZM509.879 12.6673L512.579 13.9598L509.879 15.6378V12.6673ZM513.055 14.1866L513.531 14.5267C513.463 15.6378 513.168 16.7716 512.715 17.8146C511.649 20.1956 509.743 22.0096 507.316 22.9393C506 23.4381 504.617 23.6422 503.256 23.5742L500.67 21.9189L513.055 14.1866ZM503.823 4.14139C504.844 4.14139 505.842 4.30012 506.817 4.61758H500.829C501.827 4.30012 502.825 4.14139 503.823 4.14139ZM499.354 22.4858C497.903 21.7375 496.7 20.6491 495.793 19.3339L500.012 22.0323L499.354 22.4858ZM500.126 22.8486C500.035 22.8032 499.967 22.7805 499.876 22.7352C499.853 22.7352 499.853 22.7125 499.831 22.7125L500.126 22.5084V22.8486ZM495.271 18.4495C495.09 18.0867 494.908 17.7239 494.772 17.3385C493.842 14.9122 493.91 12.2818 494.976 9.90094C495.929 7.74678 497.608 6.04612 499.717 5.07108H507.974C508.496 5.32051 508.972 5.59262 509.448 5.91007V15.9099L500.262 21.6468L495.271 18.4495Z" fill="#AFB0B1" stroke="#AFB0B1" stroke-width="0.5" stroke-miterlimit="10"/>
  <path d="M512.715 30.4001L513.509 29.924V22.3504C514.507 21.1939 515.301 19.8788 515.845 18.4729L518 17.1124L516.526 16.0693C516.911 13.8471 516.73 11.5116 515.868 9.2667C513.305 2.6455 505.842 -0.687779 499.218 1.85186C497.54 2.48677 496.088 3.43914 494.863 4.61826H490.599V12.1918L483.227 16.9083L483 17.2938L487.65 20.1509V29.6972L500.398 37.815L500.466 37.9284L500.534 37.883L500.579 37.9057V37.8377L508.677 32.8718L511.445 40.1052C511.739 40.8535 512.443 41.3297 513.214 41.3297C513.441 41.3297 513.668 41.2843 513.894 41.1936L514.711 40.8762C515.686 40.5134 516.163 39.4023 515.8 38.4272L512.715 30.4001ZM513.055 29.6745L512.556 29.992L511.263 26.5907C511.082 26.1145 510.719 25.7517 510.265 25.5476C510.061 25.4569 509.834 25.4116 509.63 25.3889C510.946 24.7313 512.102 23.8696 513.078 22.8719V29.6745H513.055ZM517.183 17.0897L516.095 17.7926C516.231 17.3845 516.321 16.9763 516.412 16.5682L517.183 17.0897ZM491.052 5.07176H494.41C492.572 7.04452 491.393 9.56148 491.052 12.2145V5.07176ZM490.599 12.736V15.4798L488.467 14.1192L490.599 12.736ZM483.658 17.1577L488.036 14.3687L491.211 16.3868C491.347 17.0897 491.552 17.77 491.801 18.4729C492.754 20.9899 494.432 23.008 496.496 24.4365L496.043 24.754L483.658 17.1577ZM500.126 37.0894L488.104 29.4478V20.423L496.043 25.2982L496.905 24.7086C497.903 25.3435 498.992 25.8424 500.126 26.1825V37.0894ZM500.126 25.8651C499.649 25.7063 499.173 25.5476 498.719 25.3435C498.198 25.1168 497.676 24.822 497.2 24.5272C497.064 24.4365 496.927 24.3458 496.791 24.2551C494.682 22.8266 493.049 20.7858 492.119 18.3595C491.892 17.7926 491.733 17.2258 491.597 16.6362C491.552 16.4321 491.506 16.228 491.461 16.024C491.03 13.5977 491.347 11.0807 492.368 8.76785C492.981 7.38465 493.843 6.1375 494.863 5.09444C495.022 4.93571 495.181 4.77698 495.34 4.64093C496.496 3.57519 497.835 2.7362 499.355 2.16932C500.784 1.57976 502.303 1.30765 503.823 1.30765C505.57 1.30765 507.294 1.67046 508.949 2.39607C512.012 3.75659 514.371 6.22821 515.573 9.35741C516.367 11.4662 516.594 13.6884 516.253 15.8426C516.231 16.0013 516.185 16.16 516.163 16.3414C516.049 16.9083 515.89 17.4752 515.686 18.0421C515.596 18.2915 515.505 18.5183 515.414 18.7677C515.391 18.8357 515.346 18.9037 515.323 18.9944C514.847 20.0602 514.257 21.0125 513.531 21.8969C513.395 22.0783 513.237 22.2597 513.078 22.4184C511.785 23.8243 510.174 24.9127 508.36 25.6156C505.842 26.568 503.165 26.7041 500.602 26.0238C500.421 25.9558 500.285 25.9104 500.126 25.8651ZM500.579 37.3161V26.3186C501.645 26.5907 502.734 26.7494 503.846 26.7494C505.003 26.7494 506.159 26.5907 507.294 26.2732C507.157 26.432 507.021 26.6134 506.931 26.7948C506.727 27.2483 506.704 27.7698 506.885 28.246L508.496 32.4409L500.579 37.3161ZM514.598 40.6041L513.781 40.9215C512.964 41.239 512.057 40.8308 511.739 40.0145L508.949 32.713L508.791 32.2822L507.203 28.1326C506.885 27.3163 507.294 26.4093 508.11 26.0918L508.927 25.7744C509.108 25.7063 509.312 25.661 509.494 25.661C510.129 25.661 510.719 26.0465 510.968 26.6814L512.284 30.128L512.443 30.5589L515.505 38.5633C515.822 39.3796 515.414 40.2866 514.598 40.6041Z" fill="#AFB0B1" stroke="#AFB0B1" stroke-width="0.5" stroke-miterlimit="10"/>
  <rect x="37" y="89" width="1.99996" height="823" transform="rotate(-90 37 89)" fill="#004357"/>
  <circle cx="159" cy="88" r="9" transform="rotate(-90 159 88)" fill="#004357"/>
  <circle cx="289" cy="88" r="7" transform="rotate(-90 289 88)" fill="#919388"/>
  <circle cx="399" cy="88" r="7" transform="rotate(-90 399 88)" fill="#919388"/>
  <circle cx="500" cy="88" r="7" transform="rotate(-90 500 88)" fill="#919388"/>
  <circle cx="617" cy="88" r="7" transform="rotate(-90 617 88)" fill="#919388"/>
</svg>
