<svg width="49" height="49" viewBox="0 0 49 49" fill="none" xmlns="http://www.w3.org/2000/svg">
  <g clip-path="url(#clip0_1089_25)">
    <path d="M36.4856 12.1018H32.4516C32.4516 7.64431 28.8413 4.03394 24.3838 4.03394C19.9263 4.03394 16.3159 7.64431 16.3159 12.1018H12.282C10.0633 12.1018 8.24805 13.9171 8.24805 16.1357V40.3393C8.24805 42.558 10.0633 44.3733 12.282 44.3733H36.4856C38.7042 44.3733 40.5195 42.558 40.5195 40.3393V16.1357C40.5195 13.9171 38.7042 12.1018 36.4856 12.1018ZM24.3838 8.06787C26.6024 8.06787 28.4177 9.88314 28.4177 12.1018H20.3498C20.3498 9.88314 22.1651 8.06787 24.3838 8.06787ZM36.4856 40.3393H12.282V16.1357H16.3159V20.1697C16.3159 21.279 17.2235 22.1866 18.3329 22.1866C19.4422 22.1866 20.3498 21.279 20.3498 20.1697V16.1357H28.4177V20.1697C28.4177 21.279 29.3253 22.1866 30.4347 22.1866C31.544 22.1866 32.4516 21.279 32.4516 20.1697V16.1357H36.4856V40.3393Z" fill="#637080"/>
  </g>
  <defs>
    <clipPath id="clip0_1089_25">
      <rect width="48.4072" height="48.4072" fill="white" transform="translate(0.179688)"/>
    </clipPath>
  </defs>
</svg>
