<svg width="106" height="137" viewBox="0 0 106 137" fill="none" xmlns="http://www.w3.org/2000/svg">
  <path d="M104.675 45.0265V125.863C104.675 131.083 100.423 135.349 95.2215 135.349H10.4538C5.25195 135.349 1 131.083 1 125.863V10.4861C1 5.26649 5.25195 1 10.4538 1H55.416H61.3416C62.1558 1 62.8795 1.31772 63.4675 1.90776L103.861 42.9387C104.359 43.4833 104.675 44.2549 104.675 45.0265Z" stroke="#004357" stroke-width="2" stroke-miterlimit="10"/>
  <path d="M104.675 51.3809H55.0089V1" stroke="#004357" stroke-width="2" stroke-miterlimit="10"/>
  <path d="M77.6256 79.5673H26.9641C23.9787 79.5673 21.536 77.1163 21.536 74.1207V66.5862C21.536 63.5906 23.9787 61.1396 26.9641 61.1396H77.6709C80.6563 61.1396 83.0989 63.5906 83.0989 66.5862V74.1207C83.0537 77.1163 80.611 79.5673 77.6256 79.5673Z" stroke="#004357" stroke-width="2" stroke-miterlimit="10"/>
  <path d="M77.6256 97.9496H26.9641C23.9787 97.9496 21.536 95.4986 21.536 92.503V84.9686C21.536 81.9729 23.9787 79.522 26.9641 79.522H77.6709C80.6563 79.522 83.0989 81.9729 83.0989 84.9686V92.503C83.0537 95.4986 80.6111 97.9496 77.6256 97.9496Z" stroke="#004357" stroke-width="2" stroke-miterlimit="10"/>
  <path d="M55.5064 116.377H26.9641C23.9787 116.377 21.536 113.926 21.536 110.931V103.396C21.536 100.401 23.9787 97.9497 26.9641 97.9497H55.5064C58.4918 97.9497 60.9345 100.401 60.9345 103.396V110.931C60.9345 113.926 58.4918 116.377 55.5064 116.377Z" stroke="#004357" stroke-width="2" stroke-miterlimit="10"/>
</svg>
