<svg width="436" height="127" viewBox="0 0 436 127" fill="none" xmlns="http://www.w3.org/2000/svg">
  <path d="M365.081 46.0324L365.903 29.4895C365.903 29.4895 367.136 24.2492 373.509 19.4199C374.331 19.0089 374.948 18.8034 375.77 20.5502C376.592 22.2969 380.189 26.6125 379.778 46.0324C379.778 47.9846 365.081 46.0324 365.081 46.0324Z" fill="#C7D1D6"/>
  <path d="M383.993 43.8745H361.072V75.7273H383.993V43.8745Z" fill="white"/>
  <path d="M381.834 46.0322H363.23V73.5694H381.834V46.0322Z" fill="#C7D1D6"/>
  <path d="M372.481 107.991C370.117 107.991 367.856 107.888 365.492 107.683L359.428 107.169V72.8502L362.306 69.9731L363.436 70.1787C363.436 70.1787 367.547 70.7952 372.789 70.7952C375.873 70.7952 378.751 70.5897 381.423 70.1787L382.554 69.9731L383.376 70.7952C384.095 71.5144 384.815 72.0282 384.815 72.0282L385.637 72.6447V107.169L379.573 107.683C377.209 107.888 374.845 107.991 372.481 107.991Z" fill="white"/>
  <path d="M381.731 72.2339C372.378 73.7751 363.025 72.2339 363.025 72.2339L361.483 73.7751V105.217L365.595 105.525C370.117 105.833 374.742 105.833 379.265 105.525L383.376 105.217V73.7751C383.479 73.7751 382.656 73.1586 381.731 72.2339Z" fill="#C7D1D6"/>
  <path d="M367.753 29.5924C367.753 29.5924 374.331 27.5374 374.536 21.4751" stroke="white" stroke-miterlimit="10" stroke-linecap="round" stroke-linejoin="round"/>
  <path d="M53.8575 63.5H34.8429C28.7787 63.5 23.8452 68.432 23.8452 74.4943V77.8851H64.8551V74.4943C64.8551 68.432 59.9216 63.5 53.8575 63.5Z" fill="#C7D1D6"/>
  <path d="M64.8551 85.7969H23.8452V89.1877C23.8452 95.25 28.7787 100.182 34.8429 100.182H53.8575C59.9216 100.182 64.8551 95.25 64.8551 89.1877V85.7969Z" fill="#C7D1D6"/>
  <path d="M64.7526 83.8447H23.9482C23.126 83.8447 22.5093 83.2282 22.5093 82.4062V81.4815C22.5093 80.6595 23.126 80.043 23.9482 80.043H64.7526C65.5748 80.043 66.1915 80.6595 66.1915 81.4815V82.4062C66.1915 83.2282 65.5748 83.8447 64.7526 83.8447Z" fill="#C7D1D6"/>
  <path d="M104.838 42.6416H64.0332C63.2109 42.6416 62.5942 42.0251 62.5942 41.2031V40.2784C62.5942 39.4564 63.2109 38.8398 64.0332 38.8398H104.838C105.66 38.8398 106.276 39.4564 106.276 40.2784V41.2031C106.276 42.0251 105.66 42.6416 104.838 42.6416Z" fill="#C7D1D6"/>
  <path d="M102.576 44.1826H66.1914L72.5639 96.38H96.7176L102.576 44.1826Z" fill="#C7D1D6"/>
  <path d="M56.7354 19.0088V23.0161H68.4525C68.4525 23.0161 69.4803 22.7078 69.5831 25.0711C69.7886 27.4344 71.3304 39.3534 71.3304 39.3534H75.3388L73.0776 23.2216C73.0776 23.2216 72.5637 19.0088 68.3497 19.0088H56.7354Z" fill="#C7D1D6"/>
  <path d="M26.6785 13.9499L14.1763 26.4448L103.92 116.187L116.422 103.692L26.6785 13.9499Z" fill="white"/>
  <path d="M26.6783 19.6192L19.8457 26.4487L103.86 110.45L110.693 103.62L26.6783 19.6192Z" fill="#002F43"/>
  <path d="M63.5191 127C28.4705 127 0 98.538 0 63.5C0 28.462 28.4705 0 63.5191 0C98.5676 0 127.038 28.462 127.038 63.5C127.038 98.538 98.5676 127 63.5191 127ZM63.5191 8.11731C32.8901 8.11731 8.01697 32.983 8.01697 63.5C8.01697 94.017 32.8901 118.883 63.4163 118.883C93.9425 118.883 118.816 94.017 118.816 63.5C118.918 32.983 94.0453 8.11731 63.5191 8.11731Z" fill="#002F43"/>
  <path d="M198.574 72.8501C198.574 78.2959 194.155 82.8169 188.605 82.8169C183.157 82.8169 178.635 78.3987 178.635 72.8501C178.635 67.4043 183.054 62.8833 188.605 62.8833C194.155 62.9861 198.574 67.4043 198.574 72.8501Z" fill="#C7D1D6"/>
  <path d="M213.067 72.8501C213.067 78.2959 208.647 82.8169 203.097 82.8169C197.649 82.8169 193.127 78.3987 193.127 72.8501C193.127 67.4043 197.547 62.8833 203.097 62.8833C208.544 62.9861 213.067 67.4043 213.067 72.8501Z" fill="#C7D1D6"/>
  <path d="M194.463 64.7328C194.463 64.7328 195.799 65.6576 197.444 64.7328C199.088 63.8081 200.013 65.8631 200.013 65.8631L194.771 68.5346L192.305 66.2741L194.463 64.7328Z" fill="#C7D1D6"/>
  <path d="M182.232 80.3512C182.232 80.3512 185.007 88.1603 184.904 93.1951C184.801 98.2299 187.371 103.778 188.707 103.881C190.043 103.984 191.688 104.087 192.202 98.1271C192.818 92.1676 193.538 88.0575 195.799 87.852V74.5972L182.232 80.3512Z" fill="#C7D1D6"/>
  <path d="M209.572 80.3512C209.572 80.3512 206.797 88.1603 206.9 93.1951C207.003 98.2299 204.433 103.778 203.097 103.881C201.761 103.984 200.116 104.087 199.602 98.1271C198.986 92.1676 198.266 88.0575 196.005 87.852V74.5972L209.572 80.3512Z" fill="#C7D1D6"/>
  <path d="M179.56 58.1571L181.101 63.9111L182.643 58.1571V55.2801L181.101 49.2178L179.56 55.3828V58.1571Z" fill="#C7D1D6"/>
  <path d="M179.457 54.9717L173.701 56.6157L179.457 58.0542H182.335L188.399 56.5129L182.232 54.9717H179.457Z" fill="#C7D1D6"/>
  <path d="M223.55 89.8043C223.55 89.8043 218 28.3594 219.542 25.9961H246.779L243.079 89.8043L240.098 93.1951L229.1 92.4759L223.55 89.8043Z" fill="#C7D1D6"/>
  <path d="M230.128 85.7968L229.512 85.6941C227.662 64.5274 225.914 42.2305 225.606 32.2637H240.201L237.015 85.6941L235.987 85.7968C234.034 86.2078 232.081 86.1051 230.128 85.7968Z" fill="white"/>
  <path d="M233.314 105.936C231.978 105.936 230.539 105.833 229.203 105.731L225.4 105.32C223.447 105.114 222.008 103.47 222.008 101.518L221.803 87.8521L225.708 88.2631C228.278 88.5713 230.848 88.6741 233.417 88.6741C235.987 88.6741 238.556 88.5713 241.126 88.2631L245.031 87.8521L244.826 101.518C244.826 103.47 243.284 105.114 241.434 105.32L237.528 105.731C236.089 105.833 234.753 105.936 233.314 105.936Z" fill="white"/>
  <path d="M242.976 101.518C242.976 102.545 242.154 103.47 241.126 103.573L237.22 103.984C234.651 104.292 231.978 104.292 229.409 103.984L225.606 103.573C224.578 103.47 223.756 102.648 223.756 101.518L223.55 89.9067L225.4 90.1122C230.642 90.626 235.884 90.626 241.126 90.1122L243.079 89.9067L242.976 101.518Z" fill="#C7D1D6"/>
  <path d="M218.411 27.8452L217.897 26.8177C217.589 26.2012 216.664 23.9407 217.692 22.3994C218 21.8857 218.72 21.0637 220.261 21.0637H245.854C246.06 21.0637 246.265 20.9609 246.471 20.9609C247.396 20.9609 248.218 21.3719 248.732 22.0912C249.657 23.427 249.04 25.3792 248.526 26.6122L248.115 27.7425H218.411V27.8452Z" fill="white"/>
  <path d="M219.541 25.9961C219.541 25.9961 218 22.9136 220.261 22.9136H246.059C246.059 22.9136 248.423 22.1943 246.881 25.9961H219.541Z" fill="#C7D1D6"/>
  <path d="M181.158 13.9543L168.656 26.4492L258.4 116.191L270.902 103.696L181.158 13.9543Z" fill="white"/>
  <path d="M181.169 19.6187L174.336 26.4482L258.351 110.449L265.184 103.62L181.169 19.6187Z" fill="#002F43"/>
  <path d="M218 127C182.951 127 154.481 98.538 154.481 63.5C154.481 28.462 182.951 0 218 0C253.049 0 281.519 28.462 281.519 63.5C281.519 98.538 253.049 127 218 127ZM218 8.11731C187.474 8.11731 162.601 32.983 162.601 63.5C162.601 94.017 187.474 118.883 218 118.883C248.526 118.883 273.399 94.017 273.399 63.5C273.502 32.983 248.629 8.11731 218 8.11731Z" fill="#002F43"/>
  <path d="M335.638 13.9587L323.136 26.4536L412.879 116.195L425.381 103.7L335.638 13.9587Z" fill="white"/>
  <path d="M335.659 19.6187L328.827 26.4482L412.841 110.449L419.674 103.62L335.659 19.6187Z" fill="#002F43"/>
  <path d="M372.481 127C337.432 127 308.962 98.538 308.962 63.5C308.962 28.462 337.432 0 372.481 0C407.53 0 436 28.462 436 63.5C436 98.538 407.53 127 372.481 127ZM372.481 8.11731C341.955 8.11731 317.082 32.983 317.082 63.5C317.082 94.017 341.955 118.883 372.481 118.883C403.007 118.883 427.88 94.017 427.88 63.5C427.983 32.983 403.11 8.11731 372.481 8.11731Z" fill="#002F43"/>
</svg>
