<svg width="58" height="74" viewBox="0 0 58 74" fill="none" xmlns="http://www.w3.org/2000/svg">
  <path d="M6 37H50.8" stroke="#004357" stroke-width="2" stroke-miterlimit="10"/>
  <path d="M6.75 45.7263H50.0201" stroke="#004357" stroke-width="2" stroke-miterlimit="10"/>
  <path d="M6 54.4817H50.8" stroke="#004357" stroke-width="2" stroke-miterlimit="10"/>
  <path d="M6.75 63.208H50.0201" stroke="#004357" stroke-width="2" stroke-miterlimit="10"/>
  <path d="M26.4021 1H6.05155C3.28041 1 1 3.2752 1 6.04V67.384C1 70.1488 3.28041 72.424 6.05155 72.424H51.3711C54.1423 72.424 56.4227 70.1488 56.4227 67.384V55.72" stroke="#004357" stroke-width="2" stroke-miterlimit="10"/>
  <path d="M26.4023 1H29.8663H30.0683H33.2436C33.6766 1 34.0807 1.1728 34.3694 1.4608L55.9611 23.2912C56.2498 23.5792 56.423 23.9824 56.423 24.4144V27.784V55.72" stroke="#004357" stroke-width="2" stroke-miterlimit="10"/>
  <path d="M56.4219 27.784V24.4144C56.4219 24.0112 56.2487 23.608 55.9601 23.2912L34.3683 1.4608C34.0797 1.1728 33.6755 1 33.2426 1H30.0673H29.8652V27.784H56.4219Z" stroke="#004357" stroke-width="2" stroke-miterlimit="10"/>
</svg>
