<svg width="35" height="35" viewBox="0 0 35 35" fill="none" xmlns="http://www.w3.org/2000/svg">
  <path d="M17.4998 2.91667C9.46296 2.91667 2.9165 9.46313 2.9165 17.5C2.9165 25.5369 9.46296 32.0833 17.4998 32.0833C25.5367 32.0833 32.0832 25.5369 32.0832 17.5C32.0832 9.46313 25.5367 2.91667 17.4998 2.91667ZM17.4998 5.83334C23.9604 5.83334 29.1665 11.0394 29.1665 17.5C29.1665 23.9606 23.9604 29.1667 17.4998 29.1667C11.0392 29.1667 5.83317 23.9606 5.83317 17.5C5.83317 11.0394 11.0392 5.83334 17.4998 5.83334ZM16.0415 16.0417H10.2082V18.9583H16.0415L16 19L18.9582 18.9583H24.7915V16.0417H18.9582H16.0415Z" fill="#004357"/>
</svg>
