<svg width="49" height="49" viewBox="0 0 49 49" fill="none" xmlns="http://www.w3.org/2000/svg">
  <g clip-path="url(#clip0_1089_37)">
    <path d="M40.9241 30.7998C40.8942 30.5993 40.8643 30.3987 40.8345 30.1981C40.426 27.1896 38.8519 24.3817 36.5206 22.4763C34.7074 20.9921 31.5792 19.3574 27.0063 19.9391C22.6825 20.4907 19.5144 22.8473 17.5717 26.9289C17.5617 26.9389 17.5418 26.9489 17.5318 26.959C17.0736 26.979 16.6053 26.979 16.147 26.979C15.9578 26.979 15.7784 26.979 15.5891 26.979C14.2741 26.979 13.9353 27.33 13.9353 28.6538C13.9353 29.1452 13.9353 29.6466 13.9353 30.148V30.3185C13.8656 30.3185 13.8058 30.3185 13.7361 30.3185C13.1782 30.3185 12.6601 30.3285 12.1421 30.3084C11.4746 30.2784 10.9764 30.5391 10.6576 31.0907L10.5879 31.211V36.9172L10.6576 37.0375C10.9565 37.5991 11.4646 37.8699 12.1421 37.8398C12.6601 37.8197 13.1782 37.8197 13.7361 37.8297C13.8058 37.8297 13.8756 37.8297 13.9453 37.8297C13.9453 38.1306 13.9453 38.4314 13.9453 38.7323V39.0131C13.9353 39.9457 13.9353 40.4672 14.294 40.8282C14.6526 41.1893 15.1408 41.1792 16.0375 41.1792C16.147 41.1792 16.2666 41.1792 16.3961 41.1792C16.4459 41.1792 16.5057 41.1792 16.5555 41.1792C16.5555 41.2394 16.5555 41.2996 16.5555 41.3597C16.5555 41.9213 16.5655 42.4629 16.5455 42.9944C16.5256 43.6562 16.7448 44.1276 17.213 44.4585L17.3525 44.5588H40.9739V31.1207L40.9241 30.7998ZM18.9864 38.5016C18.9864 38.5718 18.9864 38.632 18.9864 38.7022H16.3662V37.1478C16.3662 35.7539 16.0275 35.4129 14.6128 35.4129H13.0885V32.7453H13.2579C13.8058 32.7453 14.3438 32.7453 14.8818 32.7453C15.9179 32.7453 16.3662 32.2941 16.3662 31.2411C16.3662 30.7096 16.3662 30.1781 16.3662 29.6265V29.446H18.9964V29.6165C18.9964 30.158 18.9964 30.6996 18.9964 31.2411C19.0063 32.3041 19.4347 32.7353 20.4808 32.7453C21.0188 32.7453 21.5568 32.7453 22.1047 32.7453H22.3139V35.4129H20.9092C20.7299 35.4129 20.5605 35.4129 20.3812 35.4129C19.4646 35.433 19.0163 35.8842 19.0063 36.8169C18.9864 37.3684 18.9864 37.92 18.9864 38.5016ZM25.7211 23.4891C25.7211 23.1482 25.7211 22.7872 25.751 22.6768C25.8606 22.6167 26.2193 22.5465 26.5181 22.4863C28.3015 22.1453 30.035 22.1955 31.6888 22.6568C31.7386 22.6668 31.7685 22.6768 31.7884 22.6869C31.7884 22.6969 31.7884 22.7069 31.7884 22.717C31.7685 22.9978 31.7685 23.2785 31.7585 23.5493C31.7585 23.8602 31.7585 24.161 31.7186 24.4418C31.5294 26.0564 30.1744 27.1696 28.5007 27.0893C27.0163 27.0191 25.761 25.7054 25.7211 24.1711C25.7211 24.0206 25.7211 23.8702 25.7211 23.7098C25.7211 23.6295 25.7211 23.5593 25.7211 23.4791V23.4891ZM35.1259 28.8543C35.1259 28.6237 35.345 28.4131 35.5742 28.4031H35.5841C35.7037 28.4031 35.8133 28.4432 35.893 28.5234C35.9827 28.6137 36.0225 28.724 36.0225 28.8543C36.0225 29.105 35.8332 29.2956 35.5941 29.2956C35.4746 29.2956 35.355 29.2454 35.2653 29.1552C35.1657 29.085 35.1159 28.9646 35.1259 28.8543ZM36.3812 26.0865C35.0163 25.6753 33.5418 26.3573 32.954 27.671C32.3363 29.0549 32.8743 30.6594 34.1595 31.3213C34.3587 31.4216 34.3886 31.4617 34.3687 31.7826C34.3089 32.966 33.5418 33.8886 32.4957 34.019C31.3102 34.1694 30.284 33.5075 30.0648 32.4545C29.9553 31.9531 29.9553 31.4216 29.9553 30.85C29.9553 30.6294 29.9553 30.3987 29.9453 30.1681C29.9453 30.0577 29.9353 29.9474 29.9254 29.8471C29.9154 29.7067 29.8955 29.4961 29.9154 29.3959C29.9851 29.3658 30.1147 29.3357 30.2143 29.3156C30.3438 29.2856 30.4833 29.2454 30.6228 29.2053C32.7548 28.4231 34.1595 26.4275 34.2093 24.131C34.2093 24.0307 34.2093 23.9304 34.2093 23.8301C34.6875 24.141 35.1458 24.492 35.5841 24.9332C36.0026 25.3444 36.3812 25.7756 36.7099 26.2169C36.5904 26.1567 36.4907 26.1266 36.3812 26.0865ZM27.5343 31.913C27.5742 34.0089 28.949 35.784 30.9615 36.3255C32.3164 36.6965 33.7411 36.4258 34.8768 35.5934C36.0125 34.7611 36.7099 33.4774 36.7797 32.0634C36.7896 31.8628 36.7896 31.6623 36.7896 31.4617C37.5667 31.0606 38.0748 30.489 38.3039 29.7469C38.4434 30.3987 38.5132 31.0706 38.5132 31.7626C38.5231 34.2697 38.5231 36.8169 38.5231 39.2839C38.5231 40.2065 38.5231 41.1191 38.5231 42.0417H18.9764V41.1692C19.3152 41.1692 19.6439 41.1692 19.9727 41.1692C21.2479 41.1592 21.4272 40.4171 21.4272 39.685C21.4272 39.1435 21.4272 38.6019 21.4272 38.0403V37.8297H21.6365C22.1844 37.8297 22.7224 37.8297 23.2604 37.8297C24.5555 37.8297 24.7348 37.1077 24.7348 36.3255C24.7348 34.8012 24.7348 33.2869 24.7348 31.7626C24.7348 30.7698 24.2766 30.3084 23.3002 30.3084C22.7523 30.3084 22.1944 30.3084 21.6265 30.3084H21.4272V28.6638C21.4272 27.5506 21.1582 27.1194 20.2716 27.0091C21.0287 25.7355 22.015 24.6926 23.2803 23.8702C23.3102 24.9733 23.5094 26.1366 24.2566 27.1796C25.0736 28.3329 26.1495 29.0549 27.5343 29.4059C27.5343 29.5663 27.5343 29.7268 27.5343 29.8873C27.5244 30.5391 27.5244 31.2311 27.5343 31.913Z" fill="#637080"/>
    <path d="M23.6984 17.6626C25.0433 18.7557 26.6971 19.3374 28.4406 19.3374C28.7096 19.3374 28.9885 19.3274 29.2575 19.2973C32.9736 18.9062 35.7731 15.9378 36.0521 12.0668C36.3011 8.56689 33.7905 5.14721 30.3235 4.27474C30.0844 4.21457 29.8453 4.16443 29.6062 4.11428C29.4966 4.09423 29.397 4.07417 29.2874 4.04409L29.2276 4.03406H27.5838L27.4941 4.06414C27.4543 4.07417 27.4244 4.09423 27.3846 4.10426C27.3547 4.11428 27.3248 4.12431 27.3148 4.13434C25.3721 4.43519 23.6286 5.46812 22.4132 7.06263C21.1878 8.65715 20.6399 10.5826 20.8889 12.498C21.1479 14.5639 22.1442 16.3991 23.6984 17.6626ZM28.4506 16.9005C27.0757 16.9005 25.7706 16.359 24.7843 15.3661C23.798 14.3834 23.26 13.0797 23.26 11.6958C23.26 10.3118 23.808 8.99811 24.8042 8.0053C25.7905 7.02252 27.0757 6.48099 28.4306 6.48099C28.4406 6.48099 28.4506 6.48099 28.4605 6.48099C31.2999 6.49101 33.6112 8.82763 33.6212 11.6757C33.6212 13.0696 33.0932 14.3834 32.1168 15.3762C31.1405 16.359 29.8453 16.9005 28.4605 16.9105C28.4605 16.9005 28.4506 16.9005 28.4506 16.9005Z" fill="#637080"/>
  </g>
  <defs>
    <clipPath id="clip0_1089_37">
      <rect width="30.386" height="40.5147" fill="white" transform="translate(10.5879 4.03406)"/>
    </clipPath>
  </defs>
</svg>
