<svg width="170" height="163" viewBox="0 0 170 163" fill="none" xmlns="http://www.w3.org/2000/svg">
  <path d="M81 152.264H1.20101C1.0804 152.264 1 152.183 1 152.063V14.8789C1 14.7582 1.0804 14.6777 1.20101 14.6777H15.9146" stroke="#004357" stroke-width="2" stroke-miterlimit="10"/>
  <path d="M102.347 14.6777H116.578C116.698 14.6777 116.779 14.7582 116.779 14.8789V99.1605" stroke="#004357" stroke-width="2" stroke-miterlimit="10"/>
  <path d="M96.9598 45.8569H23.1105C21.7839 45.8569 20.6985 44.7707 20.6985 43.4431C20.6985 42.1155 21.7839 41.0293 23.1105 41.0293H96.9598C98.2864 41.0293 99.3719 42.1155 99.3719 43.4431C99.3719 44.7707 98.2864 45.8569 96.9598 45.8569Z" stroke="#004357" stroke-width="2" stroke-miterlimit="10"/>
  <path d="M55.9548 98.7592H23.1105C21.7839 98.7592 20.6985 97.673 20.6985 96.3454C20.6985 95.0178 21.7839 93.9316 23.1105 93.9316H55.9548C57.2814 93.9316 58.3668 95.0178 58.3668 96.3454C58.3668 97.673 57.2814 98.7592 55.9548 98.7592Z" stroke="#004357" stroke-width="2" stroke-miterlimit="10"/>
  <path d="M68.0151 122.494H23.1105C21.7839 122.494 20.6985 121.407 20.6985 120.08C20.6985 118.752 21.7839 117.666 23.1105 117.666H68.0151C69.3417 117.666 70.4271 118.752 70.4271 120.08C70.4271 121.407 69.3417 122.494 68.0151 122.494Z" stroke="#004357" stroke-width="2" stroke-miterlimit="10"/>
  <path d="M96.9598 73.4135H23.1105C21.7839 73.4135 20.6985 72.3273 20.6985 70.9997C20.6985 69.6721 21.7839 68.5859 23.1105 68.5859H96.9598C98.2864 68.5859 99.3719 69.6721 99.3719 70.9997C99.3719 72.3273 98.2864 73.4135 96.9598 73.4135Z" stroke="#004357" stroke-width="2" stroke-miterlimit="10"/>
  <path d="M108.015 97.9539V22.7241C108.015 20.0689 105.844 17.8965 103.191 17.8965H102.387V25.1379H15.9548V17.9367C13.5025 18.1379 11.5327 20.2298 11.5327 22.7241V140.598C11.5327 143.253 13.7035 145.425 16.3568 145.425H74.9698" stroke="#004357" stroke-width="2" stroke-miterlimit="10"/>
  <path d="M16.3568 17.8965C16.2362 17.8965 16.0754 17.8965 15.9548 17.9367V25.1379H102.387V17.8965" stroke="#004357" stroke-width="2" stroke-miterlimit="10"/>
  <path d="M50.3266 12.6672C51.8543 8.88564 55.5126 6.23047 59.8543 6.23047C64.196 6.23047 67.8543 8.88564 69.3819 12.6672" stroke="#004357" stroke-width="2" stroke-miterlimit="10"/>
  <path d="M75.1709 12.6667C73.3216 5.94828 67.1709 1 59.8543 1C52.5377 1 46.3869 5.94828 44.5377 12.6667" stroke="#004357" stroke-width="2" stroke-miterlimit="10"/>
  <path d="M69.3417 12.6672C67.8141 8.88564 64.1558 6.23047 59.8141 6.23047C55.4724 6.23047 51.8141 8.88564 50.2864 12.6672" stroke="#004357" stroke-width="2" stroke-miterlimit="10"/>
  <path d="M15.9548 17.9361V12.7062L102.307 12.666V24.735" stroke="#004357" stroke-width="2" stroke-miterlimit="10"/>
  <path d="M16.1558 20.1895H102.709" stroke="#004357" stroke-width="2" stroke-miterlimit="10"/>
  <path d="M162.528 113.442L168.035 107.931L159.111 99L167.673 90.431L162.206 84.9597L153.603 93.5287L144.678 84.5977L139.171 90.1091L148.095 99.0402L142.106 105.034C133.864 98.5977 123.211 96.8678 113.643 99.8046C103.352 95.2586 91.1306 96.5862 81.9648 103.747L72.598 94.3735L82.2462 94.1724V86.2471H58.9698V111.954H66.8894L67.1307 99.8448L76.4975 109.218C66.9698 121.448 67.8141 139.149 79.0703 150.414C87.392 158.741 99.2111 161.356 109.784 158.299C121.362 163.649 135.513 161.517 145.08 151.983C156.377 140.678 157.261 122.856 147.653 110.506L153.643 104.511L162.528 113.442ZM83.2111 146.27C73.3216 136.374 73.3216 120.362 83.2111 110.465C89.3618 104.31 97.8844 101.977 105.804 103.506C103.995 104.672 102.266 106.04 100.698 107.649C88.4372 119.919 88.4372 139.753 100.698 152.023C101.261 152.586 101.864 153.149 102.508 153.672C95.5528 154.034 88.4774 151.58 83.2111 146.27ZM118.99 110.465C128.879 120.362 128.879 136.374 118.99 146.27C116.417 148.845 113.442 150.736 110.307 151.942C108.377 150.856 106.528 149.448 104.879 147.799C94.9497 137.862 94.9497 121.73 104.879 111.753C107.372 109.259 110.226 107.408 113.322 106.161C115.332 107.328 117.261 108.736 118.99 110.465ZM140.859 147.839C134.548 154.155 125.784 156.448 117.663 154.759C119.593 153.552 121.402 152.103 123.09 150.414C135.271 138.224 135.271 118.471 123.09 106.322C122.407 105.638 121.724 104.994 121 104.391C128.116 103.868 135.392 106.322 140.859 111.793C150.829 121.73 150.829 137.862 140.859 147.839Z" stroke="#004357" stroke-width="2" stroke-miterlimit="10"/>
</svg>
