<svg width="436" height="127" viewBox="0 0 436 127" fill="none" xmlns="http://www.w3.org/2000/svg">
  <path d="M365.081 46.0319L365.903 29.489C365.903 29.489 367.136 24.2487 373.509 19.4194C374.331 19.0084 374.948 18.8029 375.77 20.5497C376.592 22.2964 380.189 26.612 379.778 46.0319C379.778 47.9841 365.081 46.0319 365.081 46.0319Z" fill="#C7D1D6"/>
  <path d="M383.992 43.875H361.072V75.7278H383.992V43.875Z" fill="white"/>
  <path d="M381.834 46.0322H363.23V73.5694H381.834V46.0322Z" fill="#C7D1D6"/>
  <path d="M372.481 107.991C370.117 107.991 367.856 107.889 365.492 107.683L359.428 107.169V72.8507L362.306 69.9736L363.436 70.1791C363.436 70.1791 367.547 70.7956 372.789 70.7956C375.873 70.7956 378.751 70.5901 381.423 70.1791L382.554 69.9736L383.376 70.7956C384.095 71.5149 384.815 72.0286 384.815 72.0286L385.637 72.6452V107.169L379.573 107.683C377.209 107.889 374.845 107.991 372.481 107.991Z" fill="white"/>
  <path d="M381.731 72.2334C372.378 73.7747 363.025 72.2334 363.025 72.2334L361.483 73.7747V105.216L365.595 105.525C370.117 105.833 374.742 105.833 379.265 105.525L383.376 105.216V73.7747C383.479 73.7747 382.656 73.1582 381.731 72.2334Z" fill="#C7D1D6"/>
  <path d="M367.753 29.5919C367.753 29.5919 374.331 27.5369 374.536 21.4746" stroke="white" stroke-miterlimit="10" stroke-linecap="round" stroke-linejoin="round"/>
  <path d="M53.8577 63.5H34.8431C28.779 63.5 23.8455 68.432 23.8455 74.4943V77.8851H64.8554V74.4943C64.8554 68.432 59.9218 63.5 53.8577 63.5Z" fill="#C7D1D6"/>
  <path d="M64.8554 85.7969H23.8455V89.1877C23.8455 95.25 28.779 100.182 34.8431 100.182H53.8577C59.9218 100.182 64.8554 95.25 64.8554 89.1877V85.7969Z" fill="#C7D1D6"/>
  <path d="M64.7526 83.8447H23.9482C23.126 83.8447 22.5093 83.2282 22.5093 82.4062V81.4815C22.5093 80.6595 23.126 80.043 23.9482 80.043H64.7526C65.5748 80.043 66.1915 80.6595 66.1915 81.4815V82.4062C66.1915 83.2282 65.5748 83.8447 64.7526 83.8447Z" fill="#C7D1D6"/>
  <path d="M104.837 42.6416H64.0329C63.2107 42.6416 62.594 42.0251 62.594 41.2031V40.2784C62.594 39.4564 63.2107 38.8398 64.0329 38.8398H104.837C105.66 38.8398 106.276 39.4564 106.276 40.2784V41.2031C106.276 42.0251 105.66 42.6416 104.837 42.6416Z" fill="#C7D1D6"/>
  <path d="M102.576 44.1826H66.1914L72.5639 96.38H96.7176L102.576 44.1826Z" fill="#C7D1D6"/>
  <path d="M56.7356 19.0088V23.0161H68.4527C68.4527 23.0161 69.4805 22.7078 69.5833 25.0711C69.7889 27.4344 71.3306 39.3534 71.3306 39.3534H75.3391L73.0779 23.2216C73.0779 23.2216 72.564 19.0088 68.3499 19.0088H56.7356Z" fill="#C7D1D6"/>
  <path d="M26.6787 13.9504L14.1765 26.4453L103.92 116.187L116.422 103.692L26.6787 13.9504Z" fill="white"/>
  <path d="M26.6785 19.6196L19.8459 26.4492L103.86 110.45L110.693 103.621L26.6785 19.6196Z" fill="#002F43"/>
  <path d="M63.5191 127C28.4705 127 0 98.538 0 63.5C0 28.462 28.4705 0 63.5191 0C98.5676 0 127.038 28.462 127.038 63.5C127.038 98.538 98.5676 127 63.5191 127ZM63.5191 8.11731C32.8901 8.11731 8.01697 32.983 8.01697 63.5C8.01697 94.017 32.8901 118.883 63.4163 118.883C93.9425 118.883 118.816 94.017 118.816 63.5C118.918 32.983 94.0453 8.11731 63.5191 8.11731Z" fill="#002F43"/>
  <path d="M198.574 72.8506C198.574 78.2964 194.155 82.8174 188.604 82.8174C183.157 82.8174 178.635 78.3992 178.635 72.8506C178.635 67.4048 183.054 62.8838 188.604 62.8838C194.155 62.9865 198.574 67.4048 198.574 72.8506Z" fill="#C7D1D6"/>
  <path d="M213.066 72.8506C213.066 78.2964 208.647 82.8174 203.097 82.8174C197.649 82.8174 193.127 78.3992 193.127 72.8506C193.127 67.4048 197.546 62.8838 203.097 62.8838C208.544 62.9865 213.066 67.4048 213.066 72.8506Z" fill="#C7D1D6"/>
  <path d="M194.463 64.7333C194.463 64.7333 195.799 65.6581 197.444 64.7333C199.088 63.8086 200.013 65.8636 200.013 65.8636L194.771 68.5351L192.305 66.2746L194.463 64.7333Z" fill="#C7D1D6"/>
  <path d="M182.232 80.3507C182.232 80.3507 185.007 88.1598 184.904 93.1946C184.801 98.2294 187.371 103.778 188.707 103.881C190.043 103.983 191.688 104.086 192.202 98.1266C192.818 92.1671 193.538 88.057 195.799 87.8515V74.5967L182.232 80.3507Z" fill="#C7D1D6"/>
  <path d="M209.572 80.3507C209.572 80.3507 206.797 88.1598 206.899 93.1946C207.002 98.2294 204.433 103.778 203.097 103.881C201.76 103.983 200.116 104.086 199.602 98.1266C198.985 92.1671 198.266 88.057 196.005 87.8515V74.5967L209.572 80.3507Z" fill="#C7D1D6"/>
  <path d="M179.56 58.1571L181.101 63.9111L182.643 58.1571V55.2801L181.101 49.2178L179.56 55.3828V58.1571Z" fill="#C7D1D6"/>
  <path d="M179.457 54.9717L173.701 56.6157L179.457 58.0542H182.335L188.399 56.5129L182.232 54.9717H179.457Z" fill="#C7D1D6"/>
  <path d="M223.55 89.8043C223.55 89.8043 218 28.3594 219.542 25.9961H246.779L243.079 89.8043L240.098 93.1951L229.1 92.4759L223.55 89.8043Z" fill="#C7D1D6"/>
  <path d="M230.128 85.7968L229.512 85.6941C227.662 64.5274 225.914 42.2305 225.606 32.2637H240.201L237.015 85.6941L235.987 85.7968C234.034 86.2078 232.081 86.1051 230.128 85.7968Z" fill="white"/>
  <path d="M233.315 105.936C231.978 105.936 230.539 105.833 229.203 105.73L225.4 105.319C223.447 105.114 222.009 103.47 222.009 101.517L221.803 87.8516L225.709 88.2626C228.278 88.5708 230.848 88.6736 233.417 88.6736C235.987 88.6736 238.556 88.5708 241.126 88.2626L245.032 87.8516L244.826 101.517C244.826 103.47 243.284 105.114 241.434 105.319L237.529 105.73C236.09 105.833 234.753 105.936 233.315 105.936Z" fill="white"/>
  <path d="M242.976 101.518C242.976 102.546 242.154 103.47 241.126 103.573L237.22 103.984C234.651 104.292 231.978 104.292 229.409 103.984L225.606 103.573C224.578 103.47 223.756 102.648 223.756 101.518L223.55 89.9072L225.4 90.1127C230.642 90.6265 235.884 90.6265 241.126 90.1127L243.079 89.9072L242.976 101.518Z" fill="#C7D1D6"/>
  <path d="M218.411 27.8452L217.897 26.8177C217.589 26.2012 216.664 23.9407 217.692 22.3994C218 21.8857 218.719 21.0637 220.261 21.0637H245.854C246.059 21.0637 246.265 20.9609 246.47 20.9609C247.396 20.9609 248.218 21.3719 248.732 22.0912C249.657 23.427 249.04 25.3792 248.526 26.6122L248.115 27.7425H218.411V27.8452Z" fill="white"/>
  <path d="M219.542 25.9961C219.542 25.9961 218 22.9136 220.261 22.9136H246.059C246.059 22.9136 248.423 22.1943 246.882 25.9961H219.542Z" fill="#C7D1D6"/>
  <path d="M181.158 13.9543L168.656 26.4492L258.399 116.191L270.902 103.696L181.158 13.9543Z" fill="white"/>
  <path d="M181.169 19.6187L174.336 26.4482L258.351 110.449L265.183 103.62L181.169 19.6187Z" fill="#002F43"/>
  <path d="M218 127C182.951 127 154.481 98.538 154.481 63.5C154.481 28.462 182.951 0 218 0C253.049 0 281.519 28.462 281.519 63.5C281.519 98.538 253.049 127 218 127ZM218 8.11731C187.474 8.11731 162.601 32.983 162.601 63.5C162.601 94.017 187.474 118.883 218 118.883C248.526 118.883 273.399 94.017 273.399 63.5C273.502 32.983 248.629 8.11731 218 8.11731Z" fill="#002F43"/>
  <path d="M335.638 13.9592L323.136 26.4541L412.879 116.196L425.381 103.701L335.638 13.9592Z" fill="white"/>
  <path d="M335.659 19.6187L328.827 26.4482L412.841 110.449L419.674 103.62L335.659 19.6187Z" fill="#002F43"/>
  <path d="M372.481 127C337.432 127 308.962 98.538 308.962 63.5C308.962 28.462 337.432 0 372.481 0C407.53 0 436 28.462 436 63.5C436 98.538 407.53 127 372.481 127ZM372.481 8.11731C341.955 8.11731 317.082 32.983 317.082 63.5C317.082 94.017 341.955 118.883 372.481 118.883C403.007 118.883 427.88 94.017 427.88 63.5C427.983 32.983 403.11 8.11731 372.481 8.11731Z" fill="#002F43"/>
</svg>
