<svg width="373" height="520" viewBox="0 0 373 520" fill="none" xmlns="http://www.w3.org/2000/svg">
  <path d="M183.35 369.925H103.202C103.081 369.925 103 369.844 103 369.723V231.938C103 231.817 103.081 231.736 103.202 231.736H117.98" stroke="#004357" stroke-width="2" stroke-miterlimit="10"/>
  <path d="M204.79 231.736H219.084C219.205 231.736 219.285 231.817 219.285 231.938V316.589" stroke="#004357" stroke-width="2" stroke-miterlimit="10"/>
  <path d="M199.38 263.052H125.207C123.875 263.052 122.785 261.961 122.785 260.627C122.785 259.294 123.875 258.203 125.207 258.203H199.38C200.712 258.203 201.802 259.294 201.802 260.627C201.802 261.961 200.712 263.052 199.38 263.052Z" stroke="#004357" stroke-width="2" stroke-miterlimit="10"/>
  <path d="M158.195 316.187H125.207C123.875 316.187 122.785 315.096 122.785 313.762C122.785 312.429 123.875 311.338 125.207 311.338H158.195C159.528 311.338 160.618 312.429 160.618 313.762C160.618 315.096 159.528 316.187 158.195 316.187Z" stroke="#004357" stroke-width="2" stroke-miterlimit="10"/>
  <path d="M170.308 340.026H125.207C123.875 340.026 122.785 338.935 122.785 337.602C122.785 336.269 123.875 335.178 125.207 335.178H170.308C171.641 335.178 172.731 336.269 172.731 337.602C172.731 338.935 171.641 340.026 170.308 340.026Z" stroke="#004357" stroke-width="2" stroke-miterlimit="10"/>
  <path d="M199.38 290.73H125.207C123.875 290.73 122.785 289.639 122.785 288.305C122.785 286.972 123.875 285.881 125.207 285.881H199.38C200.712 285.881 201.802 286.972 201.802 288.305C201.802 289.639 200.712 290.73 199.38 290.73Z" stroke="#004357" stroke-width="2" stroke-miterlimit="10"/>
  <path d="M210.483 315.379V239.819C210.483 237.153 208.303 234.971 205.638 234.971H204.831V242.244H118.02V235.011C115.557 235.213 113.579 237.314 113.579 239.819V358.209C113.579 360.876 115.759 363.057 118.424 363.057H177.293" stroke="#004357" stroke-width="2" stroke-miterlimit="10"/>
  <path d="M118.424 234.971C118.303 234.971 118.141 234.971 118.02 235.011V242.244H204.831V234.971" stroke="#004357" stroke-width="2" stroke-miterlimit="10"/>
  <path d="M152.543 229.721C154.077 225.923 157.751 223.256 162.112 223.256C166.473 223.256 170.147 225.923 171.681 229.721" stroke="#004357" stroke-width="2" stroke-miterlimit="10"/>
  <path d="M177.495 229.718C175.638 222.97 169.46 218 162.112 218C154.763 218 148.585 222.97 146.728 229.718" stroke="#004357" stroke-width="2" stroke-miterlimit="10"/>
  <path d="M171.641 229.721C170.106 225.923 166.432 223.256 162.071 223.256C157.711 223.256 154.036 225.923 152.502 229.721" stroke="#004357" stroke-width="2" stroke-miterlimit="10"/>
  <path d="M118.02 235.01V229.757L204.75 229.717V241.839" stroke="#004357" stroke-width="2" stroke-miterlimit="10"/>
  <path d="M118.222 237.271H205.154" stroke="#004357" stroke-width="2" stroke-miterlimit="10"/>
  <path d="M265.234 330.932L270.766 325.396L261.802 316.426L270.403 307.82L264.911 302.325L256.271 310.931L247.307 301.961L241.775 307.497L250.739 316.467L244.723 322.487C236.446 316.022 225.746 314.285 216.136 317.234C205.8 312.669 193.525 314.002 184.319 321.194L174.911 311.78L184.602 311.578V303.618H161.223V329.437H169.178L169.42 317.275L178.828 326.689C169.258 338.973 170.106 356.751 181.412 368.065C189.77 376.429 201.641 379.055 212.26 375.985C223.888 381.359 238.101 379.217 247.711 369.641C259.057 358.287 259.945 340.387 250.295 327.982L256.311 321.962L265.234 330.932ZM185.571 363.903C175.638 353.963 175.638 337.882 185.571 327.942C191.748 321.76 200.308 319.416 208.263 320.952C206.446 322.123 204.709 323.497 203.135 325.114C190.82 337.437 190.82 357.357 203.135 369.681C203.7 370.247 204.306 370.813 204.952 371.338C197.966 371.702 190.86 369.237 185.571 363.903ZM221.506 327.942C231.439 337.882 231.439 353.963 221.506 363.903C218.922 366.489 215.934 368.388 212.785 369.6C210.847 368.51 208.989 367.095 207.334 365.439C197.361 355.458 197.361 339.256 207.334 329.235C209.837 326.73 212.704 324.871 215.813 323.619C217.832 324.79 219.77 326.204 221.506 327.942ZM243.471 365.479C237.132 371.823 228.33 374.126 220.174 372.429C222.112 371.217 223.929 369.762 225.625 368.065C237.859 355.822 237.859 335.983 225.625 323.78C224.938 323.093 224.252 322.447 223.525 321.841C230.672 321.315 237.98 323.78 243.471 329.275C253.485 339.256 253.485 355.458 243.471 365.479Z" stroke="#004357" stroke-width="2" stroke-miterlimit="10"/>
  <path d="M158.763 51.0977L157.347 52.3713C159.859 57.4206 163.672 61.7193 168.329 64.858L169.722 63.5843C165.019 60.5366 161.206 56.1924 158.763 51.0977Z" stroke="#004357" stroke-miterlimit="10"/>
  <path d="M201.253 64.6996L202.509 66.087C207.418 63.2895 211.504 59.241 214.358 54.3965L213.057 52.9863C210.294 57.8764 206.185 61.9476 201.253 64.6996Z" stroke="#004357" stroke-miterlimit="10"/>
  <path d="M213.514 23.9173L214.906 22.6436C212.212 17.7081 208.239 13.5459 203.445 10.5664L202.029 11.8401C206.892 14.7514 210.888 18.9363 213.514 23.9173Z" stroke="#004357" stroke-miterlimit="10"/>
  <path d="M174.015 10.2031L172.713 8.79297C167.576 11.1811 163.17 14.8884 159.927 19.46L161.183 20.8474C164.38 16.2076 168.809 12.5003 174.015 10.2031Z" stroke="#004357" stroke-miterlimit="10"/>
  <path d="M214.609 29.4199C214.609 29.4199 212.098 40.7921 224.884 38.5176C224.884 38.5176 221.185 48.6616 212.783 42.8391C209.952 40.883 207.988 32.6041 214.609 29.4199Z" stroke="#004357" stroke-miterlimit="10"/>
  <path d="M220.089 29.4199H225.797C225.797 29.4199 226.254 30.1022 225.797 30.5571C225.34 31.012 223.286 32.8316 223.286 32.8316H225.569C225.569 32.8316 226.254 33.7413 225.569 34.6511H220.089C220.089 34.6511 219.404 34.1962 219.861 33.059L222.372 31.2395H220.089C220.089 31.2395 219.404 30.5571 220.089 29.4199Z" stroke="#004357" stroke-miterlimit="10"/>
  <path d="M161.982 41.5634H146V36.7871H149.836H161.982V41.5634Z" stroke="#004357" stroke-miterlimit="10"/>
  <path d="M150.452 36.9004H149.082V38.7199H150.452V36.9004Z" stroke="#004357" stroke-miterlimit="10"/>
  <path d="M154.562 36.9004H153.192V38.7199H154.562V36.9004Z" stroke="#004357" stroke-miterlimit="10"/>
  <path d="M158.672 36.9004H157.302V38.7199H158.672V36.9004Z" stroke="#004357" stroke-miterlimit="10"/>
  <path d="M149.493 36.7857C149.493 36.7857 150.566 30.4173 157.188 32.0094C157.188 32.0094 164.243 30.3264 165.407 36.5583C165.978 39.6288 165.521 41.9032 160.384 46.5658C160.384 46.5658 155.818 44.9737 154.676 47.0207C154.676 47.0207 151.502 45.4513 150.566 41.562" stroke="#004357" stroke-miterlimit="10"/>
  <path d="M156.754 31.9648C156.754 31.9648 156.731 27.4842 159.014 27.0293C159.014 27.0293 160.156 27.2567 159.471 28.6214C158.786 29.9861 157.69 31.3735 158.238 31.8056" stroke="#004357" stroke-miterlimit="10"/>
  <path d="M188.007 25.8259C190.087 25.8259 191.774 24.1457 191.774 22.0731C191.774 20.0005 190.087 18.3203 188.007 18.3203C185.926 18.3203 184.24 20.0005 184.24 22.0731C184.24 24.1457 185.926 25.8259 188.007 25.8259Z" stroke="#004357" stroke-miterlimit="10"/>
  <path d="M183.463 28.0996H179.354V40.8364H183.463V28.0996Z" stroke="#004357" stroke-miterlimit="10"/>
  <path d="M197.162 28.0996H193.053V40.8364H197.162V28.0996Z" stroke="#004357" stroke-miterlimit="10"/>
  <path d="M186.888 43.793H189.628" stroke="#004357" stroke-miterlimit="10"/>
  <path d="M193.053 43.7936V40.8369V28.1V27.9863H183.463V28.1V40.8369V43.7936" stroke="#004357" stroke-miterlimit="10"/>
  <path d="M189.628 43.793V55.8474H193.053V43.793" stroke="#004357" stroke-miterlimit="10"/>
  <path d="M183.463 43.793V55.8474H186.888V43.793" stroke="#004357" stroke-miterlimit="10"/>
  <path d="M194.152 1.53694C192.759 0.627164 189.563 0.513443 188.056 4.12978C188.079 4.17527 188.079 4.17527 188.056 4.12978C188.033 4.17527 188.033 4.17527 188.056 4.12978C186.526 0.536187 183.33 0.649908 181.937 1.53694C174.357 6.47244 187.097 15.8203 188.033 16.5027C188.992 15.8431 201.732 6.47244 194.152 1.53694Z" stroke="#004357" stroke-miterlimit="10"/>
  <path d="M180.453 8.36117H182.736L185.248 5.17697L188.673 12.4551L191.184 3.35742L193.011 7.90628L196.024 7.88354" stroke="#004357" stroke-miterlimit="10"/>
  <path d="M180.681 9.04231H182.965L185.065 6.08555L188.718 13.8186L191.321 5.17578L192.691 8.35998H195.659" stroke="#004357" stroke-miterlimit="10"/>
  <path d="M185.75 63.9004H182.097V73.6805H185.75V63.9004Z" stroke="#004357" stroke-miterlimit="10"/>
  <path d="M193.97 63.9004H190.316V73.6805H193.97V63.9004Z" stroke="#004357" stroke-miterlimit="10"/>
  <path d="M197.623 66.0625H193.97V71.5211H197.623V66.0625Z" stroke="#004357" stroke-miterlimit="10"/>
  <path d="M182.097 66.0625H178.444V71.5211H182.097V66.0625Z" stroke="#004357" stroke-miterlimit="10"/>
  <path d="M190.316 68.2207H185.75V69.3579H190.316V68.2207Z" stroke="#004357" stroke-miterlimit="10"/>
  <path d="M199.449 68.2207H197.623V69.3579H199.449V68.2207Z" stroke="#004357" stroke-miterlimit="10"/>
  <path d="M178.444 68.2207H176.617V69.3579H178.444V68.2207Z" stroke="#004357" stroke-miterlimit="10"/>
  <path d="M120.953 92.7V95.54H125.533V98.18H120.953V101.26H126.133V104H117.533V89.96H126.133V92.7H120.953ZM133.105 104.16C132.132 104.16 131.265 103.993 130.505 103.66C129.745 103.327 129.145 102.873 128.705 102.3C128.265 101.713 128.019 101.06 127.965 100.34H131.345C131.385 100.727 131.565 101.04 131.885 101.28C132.205 101.52 132.599 101.64 133.065 101.64C133.492 101.64 133.819 101.56 134.045 101.4C134.285 101.227 134.405 101.007 134.405 100.74C134.405 100.42 134.239 100.187 133.905 100.04C133.572 99.88 133.032 99.7067 132.285 99.52C131.485 99.3333 130.819 99.14 130.285 98.94C129.752 98.7267 129.292 98.4 128.905 97.96C128.519 97.5067 128.325 96.9 128.325 96.14C128.325 95.5 128.499 94.92 128.845 94.4C129.205 93.8667 129.725 93.4467 130.405 93.14C131.099 92.8333 131.919 92.68 132.865 92.68C134.265 92.68 135.365 93.0267 136.165 93.72C136.979 94.4133 137.445 95.3333 137.565 96.48H134.405C134.352 96.0933 134.179 95.7867 133.885 95.56C133.605 95.3333 133.232 95.22 132.765 95.22C132.365 95.22 132.059 95.3 131.845 95.46C131.632 95.6067 131.525 95.8133 131.525 96.08C131.525 96.4 131.692 96.64 132.025 96.8C132.372 96.96 132.905 97.12 133.625 97.28C134.452 97.4933 135.125 97.7067 135.645 97.92C136.165 98.12 136.619 98.4533 137.005 98.92C137.405 99.3733 137.612 99.9867 137.625 100.76C137.625 101.413 137.439 102 137.065 102.52C136.705 103.027 136.179 103.427 135.485 103.72C134.805 104.013 134.012 104.16 133.105 104.16ZM146.149 101.1V104H144.409C143.169 104 142.203 103.7 141.509 103.1C140.816 102.487 140.469 101.493 140.469 100.12V95.68H139.109V92.84H140.469V90.12H143.889V92.84H146.129V95.68H143.889V100.16C143.889 100.493 143.969 100.733 144.129 100.88C144.289 101.027 144.556 101.1 144.929 101.1H146.149ZM149.986 91.68C149.386 91.68 148.893 91.5067 148.506 91.16C148.133 90.8 147.946 90.36 147.946 89.84C147.946 89.3067 148.133 88.8667 148.506 88.52C148.893 88.16 149.386 87.98 149.986 87.98C150.573 87.98 151.053 88.16 151.426 88.52C151.813 88.8667 152.006 89.3067 152.006 89.84C152.006 90.36 151.813 90.8 151.426 91.16C151.053 91.5067 150.573 91.68 149.986 91.68ZM151.686 92.84V104H148.266V92.84H151.686ZM157.796 89.2V104H154.376V89.2H157.796ZM165.567 104.16C164.473 104.16 163.487 103.927 162.607 103.46C161.74 102.993 161.053 102.327 160.547 101.46C160.053 100.593 159.807 99.58 159.807 98.42C159.807 97.2733 160.06 96.2667 160.567 95.4C161.073 94.52 161.767 93.8467 162.647 93.38C163.527 92.9133 164.513 92.68 165.607 92.68C166.7 92.68 167.687 92.9133 168.567 93.38C169.447 93.8467 170.14 94.52 170.647 95.4C171.153 96.2667 171.407 97.2733 171.407 98.42C171.407 99.5667 171.147 100.58 170.627 101.46C170.12 102.327 169.42 102.993 168.527 103.46C167.647 103.927 166.66 104.16 165.567 104.16ZM165.567 101.2C166.22 101.2 166.773 100.96 167.227 100.48C167.693 100 167.927 99.3133 167.927 98.42C167.927 97.5267 167.7 96.84 167.247 96.36C166.807 95.88 166.26 95.64 165.607 95.64C164.94 95.64 164.387 95.88 163.947 96.36C163.507 96.8267 163.287 97.5133 163.287 98.42C163.287 99.3133 163.5 100 163.927 100.48C164.367 100.96 164.913 101.2 165.567 101.2ZM177.203 98.4C177.203 97.2533 177.416 96.2467 177.843 95.38C178.283 94.5133 178.876 93.8467 179.623 93.38C180.37 92.9133 181.203 92.68 182.123 92.68C182.856 92.68 183.523 92.8333 184.123 93.14C184.736 93.4467 185.216 93.86 185.563 94.38V89.2H188.983V104H185.563V102.4C185.243 102.933 184.783 103.36 184.183 103.68C183.596 104 182.91 104.16 182.123 104.16C181.203 104.16 180.37 103.927 179.623 103.46C178.876 102.98 178.283 102.307 177.843 101.44C177.416 100.56 177.203 99.5467 177.203 98.4ZM185.563 98.42C185.563 97.5667 185.323 96.8933 184.843 96.4C184.376 95.9067 183.803 95.66 183.123 95.66C182.443 95.66 181.863 95.9067 181.383 96.4C180.916 96.88 180.683 97.5467 180.683 98.4C180.683 99.2533 180.916 99.9333 181.383 100.44C181.863 100.933 182.443 101.18 183.123 101.18C183.803 101.18 184.376 100.933 184.843 100.44C185.323 99.9467 185.563 99.2733 185.563 98.42ZM202.189 98.24C202.189 98.56 202.169 98.8933 202.129 99.24H194.389C194.442 99.9333 194.662 100.467 195.049 100.84C195.449 101.2 195.936 101.38 196.509 101.38C197.362 101.38 197.956 101.02 198.289 100.3H201.929C201.742 101.033 201.402 101.693 200.909 102.28C200.429 102.867 199.822 103.327 199.089 103.66C198.356 103.993 197.536 104.16 196.629 104.16C195.536 104.16 194.562 103.927 193.709 103.46C192.856 102.993 192.189 102.327 191.709 101.46C191.229 100.593 190.989 99.58 190.989 98.42C190.989 97.26 191.222 96.2467 191.689 95.38C192.169 94.5133 192.836 93.8467 193.689 93.38C194.542 92.9133 195.522 92.68 196.629 92.68C197.709 92.68 198.669 92.9067 199.509 93.36C200.349 93.8133 201.002 94.46 201.469 95.3C201.949 96.14 202.189 97.12 202.189 98.24ZM198.689 97.34C198.689 96.7533 198.489 96.2867 198.089 95.94C197.689 95.5933 197.189 95.42 196.589 95.42C196.016 95.42 195.529 95.5867 195.129 95.92C194.742 96.2533 194.502 96.7267 194.409 97.34H198.689ZM221.835 89.96L216.855 104H212.575L207.595 89.96H211.235L214.715 100.56L218.215 89.96H221.835ZM225.196 91.68C224.596 91.68 224.103 91.5067 223.716 91.16C223.343 90.8 223.156 90.36 223.156 89.84C223.156 89.3067 223.343 88.8667 223.716 88.52C224.103 88.16 224.596 87.98 225.196 87.98C225.783 87.98 226.263 88.16 226.636 88.52C227.023 88.8667 227.216 89.3067 227.216 89.84C227.216 90.36 227.023 90.8 226.636 91.16C226.263 91.5067 225.783 91.68 225.196 91.68ZM226.896 92.84V104H223.476V92.84H226.896ZM228.907 98.4C228.907 97.2533 229.12 96.2467 229.547 95.38C229.987 94.5133 230.58 93.8467 231.327 93.38C232.073 92.9133 232.907 92.68 233.827 92.68C234.56 92.68 235.227 92.8333 235.827 93.14C236.44 93.4467 236.92 93.86 237.267 94.38V89.2H240.687V104H237.267V102.4C236.947 102.933 236.487 103.36 235.887 103.68C235.3 104 234.613 104.16 233.827 104.16C232.907 104.16 232.073 103.927 231.327 103.46C230.58 102.98 229.987 102.307 229.547 101.44C229.12 100.56 228.907 99.5467 228.907 98.4ZM237.267 98.42C237.267 97.5667 237.027 96.8933 236.547 96.4C236.08 95.9067 235.507 95.66 234.827 95.66C234.147 95.66 233.567 95.9067 233.087 96.4C232.62 96.88 232.387 97.5467 232.387 98.4C232.387 99.2533 232.62 99.9333 233.087 100.44C233.567 100.933 234.147 101.18 234.827 101.18C235.507 101.18 236.08 100.933 236.547 100.44C237.027 99.9467 237.267 99.2733 237.267 98.42ZM242.693 98.4C242.693 97.2533 242.906 96.2467 243.333 95.38C243.773 94.5133 244.366 93.8467 245.113 93.38C245.859 92.9133 246.693 92.68 247.613 92.68C248.399 92.68 249.086 92.84 249.673 93.16C250.273 93.48 250.733 93.9 251.053 94.42V92.84H254.473V104H251.053V102.42C250.719 102.94 250.253 103.36 249.653 103.68C249.066 104 248.379 104.16 247.593 104.16C246.686 104.16 245.859 103.927 245.113 103.46C244.366 102.98 243.773 102.307 243.333 101.44C242.906 100.56 242.693 99.5467 242.693 98.4ZM251.053 98.42C251.053 97.5667 250.813 96.8933 250.333 96.4C249.866 95.9067 249.293 95.66 248.613 95.66C247.933 95.66 247.353 95.9067 246.873 96.4C246.406 96.88 246.173 97.5467 246.173 98.4C246.173 99.2533 246.406 99.9333 246.873 100.44C247.353 100.933 247.933 101.18 248.613 101.18C249.293 101.18 249.866 100.933 250.333 100.44C250.813 99.9467 251.053 99.2733 251.053 98.42Z" fill="#004357"/>
  <path d="M90.7918 394.9V430H82.2418V415.55H68.9418V430H60.3918V394.9H68.9418V408.65H82.2418V394.9H90.7918ZM109.876 430.4C107.143 430.4 104.676 429.817 102.476 428.65C100.309 427.483 98.5926 425.817 97.3259 423.65C96.0926 421.483 95.4759 418.95 95.4759 416.05C95.4759 413.183 96.1093 410.667 97.3759 408.5C98.6426 406.3 100.376 404.617 102.576 403.45C104.776 402.283 107.243 401.7 109.976 401.7C112.709 401.7 115.176 402.283 117.376 403.45C119.576 404.617 121.309 406.3 122.576 408.5C123.843 410.667 124.476 413.183 124.476 416.05C124.476 418.917 123.826 421.45 122.526 423.65C121.259 425.817 119.509 427.483 117.276 428.65C115.076 429.817 112.609 430.4 109.876 430.4ZM109.876 423C111.509 423 112.893 422.4 114.026 421.2C115.193 420 115.776 418.283 115.776 416.05C115.776 413.817 115.209 412.1 114.076 410.9C112.976 409.7 111.609 409.1 109.976 409.1C108.309 409.1 106.926 409.7 105.826 410.9C104.726 412.067 104.176 413.783 104.176 416.05C104.176 418.283 104.709 420 105.776 421.2C106.876 422.4 108.243 423 109.876 423ZM137.774 406.75C138.774 405.217 140.024 404.017 141.524 403.15C143.024 402.25 144.69 401.8 146.524 401.8V410.85H144.174C142.04 410.85 140.44 411.317 139.374 412.25C138.307 413.15 137.774 414.75 137.774 417.05V430H129.224V402.1H137.774V406.75ZM186.422 401.8C189.889 401.8 192.639 402.85 194.672 404.95C196.739 407.05 197.772 409.967 197.772 413.7V430H189.272V414.85C189.272 413.05 188.789 411.667 187.822 410.7C186.889 409.7 185.589 409.2 183.922 409.2C182.256 409.2 180.939 409.7 179.972 410.7C179.039 411.667 178.572 413.05 178.572 414.85V430H170.072V414.85C170.072 413.05 169.589 411.667 168.622 410.7C167.689 409.7 166.389 409.2 164.722 409.2C163.056 409.2 161.739 409.7 160.772 410.7C159.839 411.667 159.372 413.05 159.372 414.85V430H150.822V402.1H159.372V405.6C160.239 404.433 161.372 403.517 162.772 402.85C164.172 402.15 165.756 401.8 167.522 401.8C169.622 401.8 171.489 402.25 173.122 403.15C174.789 404.05 176.089 405.333 177.022 407C177.989 405.467 179.306 404.217 180.972 403.25C182.639 402.283 184.456 401.8 186.422 401.8ZM216.664 430.4C213.93 430.4 211.464 429.817 209.264 428.65C207.097 427.483 205.38 425.817 204.114 423.65C202.88 421.483 202.264 418.95 202.264 416.05C202.264 413.183 202.897 410.667 204.164 408.5C205.43 406.3 207.164 404.617 209.364 403.45C211.564 402.283 214.03 401.7 216.764 401.7C219.497 401.7 221.964 402.283 224.164 403.45C226.364 404.617 228.097 406.3 229.364 408.5C230.63 410.667 231.264 413.183 231.264 416.05C231.264 418.917 230.614 421.45 229.314 423.65C228.047 425.817 226.297 427.483 224.064 428.65C221.864 429.817 219.397 430.4 216.664 430.4ZM216.664 423C218.297 423 219.68 422.4 220.814 421.2C221.98 420 222.564 418.283 222.564 416.05C222.564 413.817 221.997 412.1 220.864 410.9C219.764 409.7 218.397 409.1 216.764 409.1C215.097 409.1 213.714 409.7 212.614 410.9C211.514 412.067 210.964 413.783 210.964 416.05C210.964 418.283 211.497 420 212.564 421.2C213.664 422.4 215.03 423 216.664 423ZM253.011 401.8C256.278 401.8 258.878 402.867 260.811 405C262.778 407.1 263.761 410 263.761 413.7V430H255.261V414.85C255.261 412.983 254.778 411.533 253.811 410.5C252.845 409.467 251.545 408.95 249.911 408.95C248.278 408.95 246.978 409.467 246.011 410.5C245.045 411.533 244.561 412.983 244.561 414.85V430H236.011V402.1H244.561V405.8C245.428 404.567 246.595 403.6 248.061 402.9C249.528 402.167 251.178 401.8 253.011 401.8ZM268.215 416C268.215 413.133 268.748 410.617 269.815 408.45C270.915 406.283 272.398 404.617 274.265 403.45C276.131 402.283 278.215 401.7 280.515 401.7C282.481 401.7 284.198 402.1 285.665 402.9C287.165 403.7 288.315 404.75 289.115 406.05V402.1H297.665V430H289.115V426.05C288.281 427.35 287.115 428.4 285.615 429.2C284.148 430 282.431 430.4 280.465 430.4C278.198 430.4 276.131 429.817 274.265 428.65C272.398 427.45 270.915 425.767 269.815 423.6C268.748 421.4 268.215 418.867 268.215 416ZM289.115 416.05C289.115 413.917 288.515 412.233 287.315 411C286.148 409.767 284.715 409.15 283.015 409.15C281.315 409.15 279.865 409.767 278.665 411C277.498 412.2 276.915 413.867 276.915 416C276.915 418.133 277.498 419.833 278.665 421.1C279.865 422.333 281.315 422.95 283.015 422.95C284.715 422.95 286.148 422.333 287.315 421.1C288.515 419.867 289.115 418.183 289.115 416.05ZM312.612 393V430H304.062V393H312.612Z" fill="#004357"/>
  <rect x="185" y="120" width="2" height="65" fill="#004357"/>
  <circle cx="186" cy="455" r="9" fill="#004357"/>
  <circle cx="186" cy="120" r="7" fill="#004357"/>
  <circle cx="186" cy="149" r="7" fill="#004357"/>
  <circle cx="186" cy="178" r="7" fill="#004357"/>
  <rect x="185" y="455" width="2" height="59" fill="#004357"/>
  <circle cx="186" cy="513" r="7" fill="#919388"/>
  <circle cx="186" cy="484" r="7" fill="#919388"/>
</svg>
