<svg width="267" height="561" viewBox="0 0 267 561" fill="none" xmlns="http://www.w3.org/2000/svg">
  <g clip-path="url(#clip0_163_8014)">
    <path d="M146.905 66.8817C146.573 66.8817 146.241 66.8817 145.925 66.8662V65.236C145.925 64.7858 145.53 64.4442 145.008 64.4442L142.59 64.4287V63.1246C142.59 62.6122 142.163 62.1931 141.641 62.1775L138.574 62.1465C138.574 62.1465 138.574 62.1465 138.559 62.1465C138.306 62.1465 138.069 62.2396 137.879 62.4104C137.689 62.5812 137.594 62.8296 137.594 63.078V66.9283H134.306V63.078C134.306 62.8296 134.211 62.5812 134.022 62.4104C133.832 62.2396 133.595 62.1465 133.342 62.1465L130.275 62.1775C129.754 62.1775 129.327 62.6122 129.327 63.1246V64.4287L126.908 64.4442C126.386 64.4442 125.991 64.7858 125.991 65.236V66.8662C125.659 66.8662 125.327 66.8662 125.011 66.8817C124.094 66.8972 124.094 68.2945 125.011 68.279C125.343 68.279 125.675 68.279 125.991 68.2635V69.9091C125.991 70.3438 126.402 70.7009 126.908 70.7009H129.327V72.0361C129.327 72.5484 129.754 72.9832 130.291 72.9832H133.358C133.879 72.9832 134.322 72.564 134.322 72.0361V68.1858H137.61V72.0361C137.61 72.5484 138.037 72.9832 138.574 72.9832H141.641C142.163 72.9832 142.605 72.564 142.605 72.0361V70.7009H145.024C145.546 70.7009 145.941 70.3594 145.941 69.9091V68.2635C146.273 68.2635 146.605 68.2635 146.921 68.279C147.822 68.2945 147.822 66.8972 146.905 66.8817ZM127.256 69.4744V65.7173L129.327 65.7018V69.4744H127.256ZM133.042 71.7567H130.591V69.9557C130.591 69.9402 130.591 69.9402 130.591 69.9247V65.236V65.2205V63.4506L133.042 63.4196V71.7567ZM138.875 71.7567V63.4196L141.325 63.4506V65.2205V65.236V69.9247C141.325 69.9402 141.325 69.9402 141.325 69.9557V71.7567H138.875ZM144.66 69.4744H142.59V65.7018L144.66 65.7173V69.4744Z" fill="#004357"/>
    <path d="M113.566 32.245V32.1984C113.108 29.9317 112.064 28.3016 110.468 27.37C108.729 26.3454 106.8 26.4075 105.725 26.5627C105.694 25.5536 106.864 24.1253 107.322 23.5974C108.049 22.7435 106.8 21.5015 106.057 22.3554C105.156 23.3956 104.05 24.9326 103.971 26.423C101.22 26.0038 99.3706 27.1682 98.2641 28.3171C97.1891 29.4194 96.6358 30.6769 96.4461 31.1893H94.0749C93.4742 31.1893 93 31.6706 93 32.245V36.1729C93 36.7629 93.49 37.2286 94.0749 37.2286H97.6159C98.1692 40.3026 101.931 42.383 102.105 42.4762L102.58 42.7401L102.912 42.3209C103.765 41.2341 106.563 41.9794 107.48 42.3209L107.78 42.4296L108.049 42.2743C114.278 38.4862 113.598 32.5089 113.566 32.245ZM94.2646 32.4313H96.5094C96.5094 32.7728 96.5094 33.0989 96.4936 33.4404C96.4778 34.3409 97.9005 34.3409 97.9163 33.4404C97.9163 33.0989 97.9163 32.7728 97.9321 32.4313H100.778C100.778 32.7573 100.778 33.0834 100.762 33.4094C100.746 34.3099 102.169 34.3099 102.184 33.4094C102.184 33.0834 102.184 32.7573 102.2 32.4313H104.951C104.951 32.6952 104.951 32.9436 104.951 33.2076C104.935 34.108 106.358 34.108 106.374 33.2076C106.374 32.9436 106.374 32.6952 106.374 32.4313H108.745V36.0021H94.2646V32.4313ZM107.622 41.0478C107.227 40.9081 106.484 40.6908 105.646 40.5821C103.923 40.3337 102.912 40.6908 102.311 41.1565C101.426 40.5976 99.3548 39.1072 98.8964 37.2441H108.919C109.519 37.2441 109.994 36.7629 109.994 36.1884V32.2605C109.994 31.6706 109.504 31.2048 108.919 31.2048H97.8214C98.4379 29.8851 100.272 26.9043 104.208 27.7582C104.239 27.8203 104.271 27.8669 104.303 27.929C104.698 28.6276 105.599 28.3792 105.868 27.8203C106.737 27.6961 108.397 27.6029 109.804 28.4568C111.069 29.202 111.906 30.5527 112.302 32.4468C112.349 32.7728 112.744 37.772 107.622 41.0478Z" fill="#004357"/>
    <path d="M165.574 42.8339C161.464 42.8184 157.86 39.9773 157.022 36.1115C156.153 32.0904 158.145 28.1004 161.859 26.4082C162.27 26.2218 162.666 26.1132 163.045 26.4392C163.409 26.7497 163.361 27.1223 163.25 27.5415C161.954 32.1991 165.527 36.6083 170.443 36.3754C171.17 36.3443 171.913 36.1115 172.625 35.8941C173.036 35.7699 173.415 35.6768 173.763 36.0028C174.126 36.3288 174.063 36.7325 173.921 37.1517C172.656 40.5362 169.305 42.8494 165.574 42.8339ZM161.18 28.9233C159.188 30.3671 158.065 33.1927 158.84 36.0028C159.63 38.8905 162.112 40.7846 164.784 41.0175C167.598 41.2659 170.554 39.8686 171.313 38.0677C165.574 38.906 160.8 34.1242 161.18 28.9233Z" fill="#004357"/>
    <path d="M171.344 30.7544C171.866 30.7544 172.388 30.7544 172.925 30.7544C173.541 30.7544 173.937 31.0804 173.952 31.5928C173.968 32.1206 173.589 32.4777 172.941 32.4932C171.565 32.5088 170.19 32.4932 168.815 32.4932C168.372 32.4932 168.009 32.338 167.866 31.9033C167.708 31.453 167.898 31.1425 168.262 30.8631C169.005 30.2886 169.748 29.6987 170.475 29.0156C170.016 29.0156 169.558 29.0156 169.115 29.0156C168.515 29.0156 168.119 28.674 168.119 28.1617C168.119 27.6804 168.515 27.3233 169.099 27.3233C170.412 27.3078 171.724 27.3233 173.036 27.3233C173.447 27.3233 173.779 27.463 173.921 27.8667C174.063 28.2859 173.937 28.643 173.573 28.9224C172.83 29.4969 172.087 30.0868 171.344 30.6768C171.313 30.6768 171.328 30.7234 171.344 30.7544Z" fill="#004357"/>
    <path d="M144.17 29.2494H141.325C141.183 29.2494 141.04 29.2805 140.914 29.327C140.74 29.2183 140.534 29.1562 140.329 29.1562L131.54 29.2184C131.35 29.2184 131.176 29.2649 131.034 29.3426C130.907 29.296 130.781 29.2649 130.639 29.2649H127.793C127.193 29.2649 126.718 29.7462 126.718 30.3206V41.9025C126.718 42.4925 127.208 42.9583 127.793 42.9583H130.465V56.279C130.465 56.8689 130.955 57.3347 131.54 57.3347H134.132C134.733 57.3347 135.207 56.8534 135.207 56.279V45.7373H136.646V56.4653C136.646 57.0552 137.136 57.521 137.721 57.521H140.313C140.914 57.521 141.388 57.0397 141.388 56.4653V42.9272H144.139C144.739 42.9272 145.214 42.4459 145.214 41.8715V30.2896C145.261 29.7307 144.771 29.2494 144.17 29.2494ZM130.465 41.7473H127.983V30.5225H130.465V41.7473ZM140.155 56.3255H137.942V45.5976C137.942 45.0076 137.452 44.5418 136.867 44.5418H135.049C134.448 44.5418 133.974 45.0231 133.974 45.5976V56.1392H131.761V30.4759L140.171 30.4138V56.3255H140.155ZM143.996 41.7162H141.515V30.4914H143.996V41.7162Z" fill="#004357"/>
    <path d="M135.571 19.2207C133.073 19.2207 131.034 21.2235 131.034 23.6765C131.034 26.1295 133.073 28.1322 135.571 28.1322C138.068 28.1322 140.108 26.1295 140.108 23.6765C140.108 21.2235 138.068 19.2207 135.571 19.2207ZM135.571 26.8902C133.769 26.8902 132.299 25.4463 132.299 23.6765C132.299 21.9066 133.769 20.4627 135.571 20.4627C137.373 20.4627 138.843 21.9066 138.843 23.6765C138.843 25.4463 137.373 26.8902 135.571 26.8902Z" fill="#004357"/>
    <path d="M149.071 63.9174L149.403 65.501C157.07 61.6662 162.982 54.9438 165.653 46.793H163.978C161.417 54.183 156.026 60.3155 149.071 63.9174Z" fill="#004357"/>
    <path d="M162.46 23.6298H164.215C161.053 16.9229 155.6 11.4735 148.85 8.25977L148.154 9.65704C154.367 12.6069 159.425 17.5439 162.46 23.6298Z" fill="#004357"/>
    <path d="M104.982 45.582L103.338 45.5976C105.915 54.6333 112.444 62.0854 120.98 65.9823L121.644 64.5695C113.661 60.921 107.512 54.0123 104.982 45.582Z" fill="#004357"/>
    <path d="M123.098 8.817L122.466 7.38867C116.38 9.82615 111.195 14.018 107.591 19.3276L108.982 20.0884C112.396 15.0737 117.313 11.1147 123.098 8.817Z" fill="#004357"/>
    <path d="M144.66 4.54836C144.55 3.43054 144.123 2.45244 143.348 1.64513C142.052 0.294425 140.456 -0.202385 138.606 0.0925963C137.737 0.232324 136.962 0.604931 136.298 1.17937C135.966 1.47435 135.666 1.80038 135.381 2.07984C135.097 1.80038 134.812 1.45882 134.464 1.19489C133.216 0.154698 131.761 -0.202385 130.18 0.108122C128.331 0.480729 127.05 1.58303 126.371 3.30633C125.944 4.37758 125.975 5.46435 126.244 6.56665C126.576 7.90183 127.256 9.0507 128.11 10.1064C128.932 11.1311 129.88 12.0316 130.892 12.8699C132.283 14.0343 133.769 15.059 135.271 16.0681C135.365 16.1302 135.429 16.1147 135.508 16.0526C136.14 15.6179 136.772 15.1987 137.389 14.7485C138.717 13.8014 140.013 12.8233 141.183 11.69C142.321 10.6032 143.333 9.40778 144.012 7.97945C144.502 6.89268 144.771 5.75933 144.66 4.54836ZM130.275 1.13279C132.03 0.77571 133.468 1.36567 134.543 2.794C134.812 3.16661 135.081 3.53921 135.365 3.92735C135.587 3.61684 135.808 3.33739 135.998 3.02688C136.456 2.34377 137.009 1.76933 137.784 1.42777C139.302 0.760184 140.724 0.899912 142.068 1.87801C142.874 2.46797 143.364 3.27528 143.586 4.23785C143.744 4.92097 143.68 5.60408 143.507 6.28719C143.507 6.30272 143.491 6.33377 143.491 6.3493H140.803L138.701 1.70723L136.045 9.51646L132.884 3.29081L130.022 6.79953H127.351C127.24 6.44245 127.145 6.08536 127.098 5.69723C126.782 3.53921 128.141 1.5675 130.275 1.13279ZM139.602 11.7366C138.29 12.8854 136.614 14.0654 135.334 14.9037C134.449 14.2672 133.563 13.6462 132.678 12.9941C131.619 12.2179 130.623 11.364 129.706 10.4169C128.963 9.64066 128.315 8.81782 127.809 7.87078C127.778 7.8242 127.762 7.77762 127.746 7.73105H130.481L132.694 5.01412L136.219 11.9384L138.812 4.28443L140.155 7.28081H143.159C142.858 8.0105 142.416 8.69362 141.926 9.33015C141.23 10.2151 140.44 11.0069 139.602 11.7366Z" fill="#004357"/>
  </g>
  <g clip-path="url(#clip1_163_8014)">
    <path d="M145.905 266.882C145.573 266.882 145.241 266.882 144.925 266.866V265.236C144.925 264.786 144.53 264.444 144.008 264.444L141.59 264.429V263.125C141.59 262.612 141.163 262.193 140.641 262.178L137.574 262.146C137.574 262.146 137.574 262.146 137.559 262.146C137.306 262.146 137.069 262.24 136.879 262.41C136.689 262.581 136.594 262.83 136.594 263.078V266.928H133.306V263.078C133.306 262.83 133.211 262.581 133.022 262.41C132.832 262.24 132.595 262.146 132.342 262.146L129.275 262.178C128.754 262.178 128.327 262.612 128.327 263.125V264.429L125.908 264.444C125.386 264.444 124.991 264.786 124.991 265.236V266.866C124.659 266.866 124.327 266.866 124.011 266.882C123.094 266.897 123.094 268.295 124.011 268.279C124.343 268.279 124.675 268.279 124.991 268.263V269.909C124.991 270.344 125.402 270.701 125.908 270.701H128.327V272.036C128.327 272.548 128.754 272.983 129.291 272.983H132.358C132.879 272.983 133.322 272.564 133.322 272.036V268.186H136.61V272.036C136.61 272.548 137.037 272.983 137.574 272.983H140.641C141.163 272.983 141.605 272.564 141.605 272.036V270.701H144.024C144.546 270.701 144.941 270.359 144.941 269.909V268.263C145.273 268.263 145.605 268.263 145.921 268.279C146.822 268.295 146.822 266.897 145.905 266.882ZM126.256 269.474V265.717L128.327 265.702V269.474H126.256ZM132.042 271.757H129.591V269.956C129.591 269.94 129.591 269.94 129.591 269.925V265.236V265.22V263.451L132.042 263.42V271.757ZM137.875 271.757V263.42L140.325 263.451V265.22V265.236V269.925C140.325 269.94 140.325 269.94 140.325 269.956V271.757H137.875ZM143.66 269.474H141.59V265.702L143.66 265.717V269.474Z" fill="#004357"/>
    <path d="M112.566 232.245V232.198C112.108 229.932 111.064 228.302 109.468 227.37C107.729 226.345 105.8 226.407 104.725 226.563C104.694 225.554 105.864 224.125 106.322 223.597C107.049 222.744 105.8 221.501 105.057 222.355C104.156 223.396 103.05 224.933 102.971 226.423C100.22 226.004 98.3706 227.168 97.2641 228.317C96.1891 229.419 95.6358 230.677 95.4461 231.189H93.0749C92.4742 231.189 92 231.671 92 232.245V236.173C92 236.763 92.49 237.229 93.0749 237.229H96.6159C97.1692 240.303 100.931 242.383 101.105 242.476L101.58 242.74L101.912 242.321C102.765 241.234 105.563 241.979 106.48 242.321L106.78 242.43L107.049 242.274C113.278 238.486 112.598 232.509 112.566 232.245ZM93.2646 232.431H95.5094C95.5094 232.773 95.5094 233.099 95.4936 233.44C95.4778 234.341 96.9005 234.341 96.9163 233.44C96.9163 233.099 96.9163 232.773 96.9321 232.431H99.7775C99.7775 232.757 99.7775 233.083 99.7617 233.409C99.7459 234.31 101.169 234.31 101.184 233.409C101.184 233.083 101.184 232.757 101.2 232.431H103.951C103.951 232.695 103.951 232.944 103.951 233.208C103.935 234.108 105.358 234.108 105.374 233.208C105.374 232.944 105.374 232.695 105.374 232.431H107.745V236.002H93.2646V232.431ZM106.622 241.048C106.227 240.908 105.484 240.691 104.646 240.582C102.923 240.334 101.912 240.691 101.311 241.157C100.426 240.598 98.3548 239.107 97.8964 237.244H107.919C108.519 237.244 108.994 236.763 108.994 236.188V232.261C108.994 231.671 108.504 231.205 107.919 231.205H96.8214C97.4379 229.885 99.2717 226.904 103.208 227.758C103.239 227.82 103.271 227.867 103.303 227.929C103.698 228.628 104.599 228.379 104.868 227.82C105.737 227.696 107.397 227.603 108.804 228.457C110.069 229.202 110.906 230.553 111.302 232.447C111.349 232.773 111.744 237.772 106.622 241.048Z" fill="#004357"/>
    <path d="M164.574 242.834C160.464 242.818 156.86 239.977 156.022 236.111C155.153 232.09 157.145 228.1 160.859 226.408C161.27 226.222 161.666 226.113 162.045 226.439C162.409 226.75 162.361 227.122 162.25 227.541C160.954 232.199 164.527 236.608 169.443 236.375C170.17 236.344 170.913 236.111 171.625 235.894C172.036 235.77 172.415 235.677 172.763 236.003C173.126 236.329 173.063 236.732 172.921 237.152C171.656 240.536 168.305 242.849 164.574 242.834ZM160.18 228.923C158.188 230.367 157.065 233.193 157.84 236.003C158.63 238.89 161.112 240.785 163.784 241.017C166.598 241.266 169.554 239.869 170.313 238.068C164.574 238.906 159.8 234.124 160.18 228.923Z" fill="#004357"/>
    <path d="M170.344 230.754C170.866 230.754 171.388 230.754 171.925 230.754C172.541 230.754 172.937 231.08 172.952 231.593C172.968 232.121 172.589 232.478 171.941 232.493C170.565 232.509 169.19 232.493 167.815 232.493C167.372 232.493 167.009 232.338 166.866 231.903C166.708 231.453 166.898 231.143 167.262 230.863C168.005 230.289 168.748 229.699 169.475 229.016C169.016 229.016 168.558 229.016 168.115 229.016C167.515 229.016 167.119 228.674 167.119 228.162C167.119 227.68 167.515 227.323 168.099 227.323C169.412 227.308 170.724 227.323 172.036 227.323C172.447 227.323 172.779 227.463 172.921 227.867C173.063 228.286 172.937 228.643 172.573 228.922C171.83 229.497 171.087 230.087 170.344 230.677C170.313 230.677 170.328 230.723 170.344 230.754Z" fill="#004357"/>
    <path d="M143.17 229.249H140.325C140.183 229.249 140.04 229.28 139.914 229.327C139.74 229.218 139.534 229.156 139.329 229.156L130.54 229.218C130.35 229.218 130.176 229.265 130.034 229.343C129.907 229.296 129.781 229.265 129.639 229.265H126.793C126.193 229.265 125.718 229.746 125.718 230.321V241.903C125.718 242.492 126.208 242.958 126.793 242.958H129.465V256.279C129.465 256.869 129.955 257.335 130.54 257.335H133.132C133.733 257.335 134.207 256.853 134.207 256.279V245.737H135.646V256.465C135.646 257.055 136.136 257.521 136.721 257.521H139.313C139.914 257.521 140.388 257.04 140.388 256.465V242.927H143.139C143.739 242.927 144.214 242.446 144.214 241.871V230.29C144.261 229.731 143.771 229.249 143.17 229.249ZM129.465 241.747H126.983V230.522H129.465V241.747ZM139.155 256.326H136.942V245.598C136.942 245.008 136.452 244.542 135.867 244.542H134.049C133.448 244.542 132.974 245.023 132.974 245.598V256.139H130.761V230.476L139.171 230.414V256.326H139.155ZM142.996 241.716H140.515V230.491H142.996V241.716Z" fill="#004357"/>
    <path d="M134.571 219.221C132.073 219.221 130.034 221.223 130.034 223.676C130.034 226.129 132.073 228.132 134.571 228.132C137.068 228.132 139.108 226.129 139.108 223.676C139.108 221.223 137.068 219.221 134.571 219.221ZM134.571 226.89C132.769 226.89 131.299 225.446 131.299 223.676C131.299 221.907 132.769 220.463 134.571 220.463C136.373 220.463 137.843 221.907 137.843 223.676C137.843 225.446 136.373 226.89 134.571 226.89Z" fill="#004357"/>
    <path d="M148.071 263.917L148.403 265.501C156.07 261.666 161.982 254.944 164.653 246.793H162.978C160.417 254.183 155.026 260.316 148.071 263.917Z" fill="#004357"/>
    <path d="M161.46 223.63H163.215C160.053 216.923 154.6 211.474 147.85 208.26L147.154 209.657C153.367 212.607 158.425 217.544 161.46 223.63Z" fill="#004357"/>
    <path d="M103.982 245.582L102.338 245.598C104.915 254.633 111.444 262.085 119.98 265.982L120.644 264.569C112.661 260.921 106.512 254.012 103.982 245.582Z" fill="#004357"/>
    <path d="M122.098 208.817L121.466 207.389C115.38 209.826 110.195 214.018 106.591 219.328L107.982 220.088C111.396 215.074 116.313 211.115 122.098 208.817Z" fill="#004357"/>
    <path d="M143.66 204.548C143.55 203.431 143.123 202.452 142.348 201.645C141.052 200.294 139.456 199.798 137.606 200.093C136.737 200.232 135.962 200.605 135.298 201.179C134.966 201.474 134.666 201.8 134.381 202.08C134.097 201.8 133.812 201.459 133.464 201.195C132.216 200.155 130.761 199.798 129.18 200.108C127.331 200.481 126.05 201.583 125.371 203.306C124.944 204.378 124.975 205.464 125.244 206.567C125.576 207.902 126.256 209.051 127.11 210.106C127.932 211.131 128.88 212.032 129.892 212.87C131.283 214.034 132.769 215.059 134.271 216.068C134.365 216.13 134.429 216.115 134.508 216.053C135.14 215.618 135.772 215.199 136.389 214.748C137.717 213.801 139.013 212.823 140.183 211.69C141.321 210.603 142.333 209.408 143.012 207.979C143.502 206.893 143.771 205.759 143.66 204.548ZM129.275 201.133C131.03 200.776 132.468 201.366 133.543 202.794C133.812 203.167 134.081 203.539 134.365 203.927C134.587 203.617 134.808 203.337 134.998 203.027C135.456 202.344 136.009 201.769 136.784 201.428C138.302 200.76 139.724 200.9 141.068 201.878C141.874 202.468 142.364 203.275 142.586 204.238C142.744 204.921 142.68 205.604 142.507 206.287C142.507 206.303 142.491 206.334 142.491 206.349H139.803L137.701 201.707L135.045 209.516L131.884 203.291L129.022 206.8H126.351C126.24 206.442 126.145 206.085 126.098 205.697C125.782 203.539 127.141 201.568 129.275 201.133ZM138.602 211.737C137.29 212.885 135.614 214.065 134.334 214.904C133.449 214.267 132.563 213.646 131.678 212.994C130.619 212.218 129.623 211.364 128.706 210.417C127.963 209.641 127.315 208.818 126.809 207.871C126.778 207.824 126.762 207.778 126.746 207.731H129.481L131.694 205.014L135.219 211.938L137.812 204.284L139.155 207.281H142.159C141.858 208.011 141.416 208.694 140.926 209.33C140.23 210.215 139.44 211.007 138.602 211.737Z" fill="#004357"/>
  </g>
  <g clip-path="url(#clip2_163_8014)">
    <path d="M142.905 455.882C142.573 455.882 142.241 455.882 141.925 455.866V454.236C141.925 453.786 141.53 453.444 141.008 453.444L138.59 453.429V452.125C138.59 451.612 138.163 451.193 137.641 451.178L134.574 451.146C134.574 451.146 134.574 451.146 134.559 451.146C134.306 451.146 134.069 451.24 133.879 451.41C133.689 451.581 133.594 451.83 133.594 452.078V455.928H130.306V452.078C130.306 451.83 130.211 451.581 130.022 451.41C129.832 451.24 129.595 451.146 129.342 451.146L126.275 451.178C125.754 451.178 125.327 451.612 125.327 452.125V453.429L122.908 453.444C122.386 453.444 121.991 453.786 121.991 454.236V455.866C121.659 455.866 121.327 455.866 121.011 455.882C120.094 455.897 120.094 457.295 121.011 457.279C121.343 457.279 121.675 457.279 121.991 457.263V458.909C121.991 459.344 122.402 459.701 122.908 459.701H125.327V461.036C125.327 461.548 125.754 461.983 126.291 461.983H129.358C129.879 461.983 130.322 461.564 130.322 461.036V457.186H133.61V461.036C133.61 461.548 134.037 461.983 134.574 461.983H137.641C138.163 461.983 138.605 461.564 138.605 461.036V459.701H141.024C141.546 459.701 141.941 459.359 141.941 458.909V457.263C142.273 457.263 142.605 457.263 142.921 457.279C143.822 457.295 143.822 455.897 142.905 455.882ZM123.256 458.474V454.717L125.327 454.702V458.474H123.256ZM129.042 460.757H126.591V458.956C126.591 458.94 126.591 458.94 126.591 458.925V454.236V454.22V452.451L129.042 452.42V460.757ZM134.875 460.757V452.42L137.325 452.451V454.22V454.236V458.925C137.325 458.94 137.325 458.94 137.325 458.956V460.757H134.875ZM140.66 458.474H138.59V454.702L140.66 454.717V458.474Z" fill="#004357"/>
    <path d="M109.566 421.245V421.198C109.108 418.932 108.064 417.302 106.468 416.37C104.729 415.345 102.8 415.407 101.725 415.563C101.694 414.554 102.864 413.125 103.322 412.597C104.049 411.744 102.8 410.501 102.057 411.355C101.156 412.396 100.05 413.933 99.9707 415.423C97.2201 415.004 95.3706 416.168 94.2641 417.317C93.1891 418.419 92.6358 419.677 92.4461 420.189H90.0749C89.4742 420.189 89 420.671 89 421.245V425.173C89 425.763 89.49 426.229 90.0749 426.229H93.6159C94.1692 429.303 97.9315 431.383 98.1054 431.476L98.5796 431.74L98.9116 431.321C99.7652 430.234 102.563 430.979 103.48 431.321L103.78 431.43L104.049 431.274C110.278 427.486 109.598 421.509 109.566 421.245ZM90.2646 421.431H92.5094C92.5094 421.773 92.5094 422.099 92.4936 422.44C92.4778 423.341 93.9005 423.341 93.9163 422.44C93.9163 422.099 93.9163 421.773 93.9321 421.431H96.7775C96.7775 421.757 96.7775 422.083 96.7617 422.409C96.7459 423.31 98.1686 423.31 98.1844 422.409C98.1844 422.083 98.1844 421.757 98.2002 421.431H100.951C100.951 421.695 100.951 421.944 100.951 422.208C100.935 423.108 102.358 423.108 102.374 422.208C102.374 421.944 102.374 421.695 102.374 421.431H104.745V425.002H90.2646V421.431ZM103.622 430.048C103.227 429.908 102.484 429.691 101.646 429.582C99.9233 429.334 98.9116 429.691 98.3109 430.157C97.4256 429.598 95.3548 428.107 94.8964 426.244H104.919C105.519 426.244 105.994 425.763 105.994 425.188V421.261C105.994 420.671 105.504 420.205 104.919 420.205H93.8214C94.4379 418.885 96.2717 415.904 100.208 416.758C100.239 416.82 100.271 416.867 100.303 416.929C100.698 417.628 101.599 417.379 101.868 416.82C102.737 416.696 104.397 416.603 105.804 417.457C107.069 418.202 107.906 419.553 108.302 421.447C108.349 421.773 108.744 426.772 103.622 430.048Z" fill="#004357"/>
    <path d="M161.574 431.834C157.464 431.818 153.86 428.977 153.022 425.111C152.153 421.09 154.145 417.1 157.859 415.408C158.27 415.222 158.666 415.113 159.045 415.439C159.409 415.75 159.361 416.122 159.25 416.541C157.954 421.199 161.527 425.608 166.443 425.375C167.17 425.344 167.913 425.111 168.625 424.894C169.036 424.77 169.415 424.677 169.763 425.003C170.126 425.329 170.063 425.732 169.921 426.152C168.656 429.536 165.305 431.849 161.574 431.834ZM157.18 417.923C155.188 419.367 154.065 422.193 154.84 425.003C155.63 427.89 158.112 429.785 160.784 430.017C163.598 430.266 166.554 428.869 167.313 427.068C161.574 427.906 156.8 423.124 157.18 417.923Z" fill="#004357"/>
    <path d="M167.344 419.754C167.866 419.754 168.388 419.754 168.925 419.754C169.541 419.754 169.937 420.08 169.952 420.593C169.968 421.121 169.589 421.478 168.941 421.493C167.565 421.509 166.19 421.493 164.815 421.493C164.372 421.493 164.009 421.338 163.866 420.903C163.708 420.453 163.898 420.143 164.262 419.863C165.005 419.289 165.748 418.699 166.475 418.016C166.016 418.016 165.558 418.016 165.115 418.016C164.515 418.016 164.119 417.674 164.119 417.162C164.119 416.68 164.515 416.323 165.099 416.323C166.412 416.308 167.724 416.323 169.036 416.323C169.447 416.323 169.779 416.463 169.921 416.867C170.063 417.286 169.937 417.643 169.573 417.922C168.83 418.497 168.087 419.087 167.344 419.677C167.313 419.677 167.328 419.723 167.344 419.754Z" fill="#004357"/>
    <path d="M140.17 418.249H137.325C137.183 418.249 137.04 418.28 136.914 418.327C136.74 418.218 136.534 418.156 136.329 418.156L127.54 418.218C127.35 418.218 127.176 418.265 127.034 418.343C126.907 418.296 126.781 418.265 126.639 418.265H123.793C123.193 418.265 122.718 418.746 122.718 419.321V430.903C122.718 431.492 123.208 431.958 123.793 431.958H126.465V445.279C126.465 445.869 126.955 446.335 127.54 446.335H130.132C130.733 446.335 131.207 445.853 131.207 445.279V434.737H132.646V445.465C132.646 446.055 133.136 446.521 133.721 446.521H136.313C136.914 446.521 137.388 446.04 137.388 445.465V431.927H140.139C140.739 431.927 141.214 431.446 141.214 430.871V419.29C141.261 418.731 140.771 418.249 140.17 418.249ZM126.465 430.747H123.983V419.522H126.465V430.747ZM136.155 445.326H133.942V434.598C133.942 434.008 133.452 433.542 132.867 433.542H131.049C130.448 433.542 129.974 434.023 129.974 434.598V445.139H127.761V419.476L136.171 419.414V445.326H136.155ZM139.996 430.716H137.515V419.491H139.996V430.716Z" fill="#004357"/>
    <path d="M131.571 408.221C129.073 408.221 127.034 410.223 127.034 412.676C127.034 415.129 129.073 417.132 131.571 417.132C134.068 417.132 136.108 415.129 136.108 412.676C136.108 410.223 134.068 408.221 131.571 408.221ZM131.571 415.89C129.769 415.89 128.299 414.446 128.299 412.676C128.299 410.907 129.769 409.463 131.571 409.463C133.373 409.463 134.843 410.907 134.843 412.676C134.843 414.446 133.373 415.89 131.571 415.89Z" fill="#004357"/>
    <path d="M145.071 452.917L145.403 454.501C153.07 450.666 158.982 443.944 161.653 435.793H159.978C157.417 443.183 152.026 449.316 145.071 452.917Z" fill="#004357"/>
    <path d="M158.46 412.63H160.215C157.053 405.923 151.6 400.474 144.85 397.26L144.154 398.657C150.367 401.607 155.425 406.544 158.46 412.63Z" fill="#004357"/>
    <path d="M100.982 434.582L99.3384 434.598C101.915 443.633 108.444 451.085 116.98 454.982L117.644 453.569C109.661 449.921 103.512 443.012 100.982 434.582Z" fill="#004357"/>
    <path d="M119.098 397.817L118.466 396.389C112.38 398.826 107.195 403.018 103.591 408.328L104.982 409.088C108.396 404.074 113.313 400.115 119.098 397.817Z" fill="#004357"/>
    <path d="M140.66 393.548C140.55 392.431 140.123 391.452 139.348 390.645C138.052 389.294 136.456 388.798 134.606 389.093C133.737 389.232 132.962 389.605 132.298 390.179C131.966 390.474 131.666 390.8 131.381 391.08C131.097 390.8 130.812 390.459 130.464 390.195C129.216 389.155 127.761 388.798 126.18 389.108C124.331 389.481 123.05 390.583 122.371 392.306C121.944 393.378 121.975 394.464 122.244 395.567C122.576 396.902 123.256 398.051 124.11 399.106C124.932 400.131 125.88 401.032 126.892 401.87C128.283 403.034 129.769 404.059 131.271 405.068C131.365 405.13 131.429 405.115 131.508 405.053C132.14 404.618 132.772 404.199 133.389 403.748C134.717 402.801 136.013 401.823 137.183 400.69C138.321 399.603 139.333 398.408 140.012 396.979C140.502 395.893 140.771 394.759 140.66 393.548ZM126.275 390.133C128.03 389.776 129.468 390.366 130.543 391.794C130.812 392.167 131.081 392.539 131.365 392.927C131.587 392.617 131.808 392.337 131.998 392.027C132.456 391.344 133.009 390.769 133.784 390.428C135.302 389.76 136.724 389.9 138.068 390.878C138.874 391.468 139.364 392.275 139.586 393.238C139.744 393.921 139.68 394.604 139.507 395.287C139.507 395.303 139.491 395.334 139.491 395.349H136.803L134.701 390.707L132.045 398.516L128.884 392.291L126.022 395.8H123.351C123.24 395.442 123.145 395.085 123.098 394.697C122.782 392.539 124.141 390.568 126.275 390.133ZM135.602 400.737C134.29 401.885 132.614 403.065 131.334 403.904C130.449 403.267 129.563 402.646 128.678 401.994C127.619 401.218 126.623 400.364 125.706 399.417C124.963 398.641 124.315 397.818 123.809 396.871C123.778 396.824 123.762 396.778 123.746 396.731H126.481L128.694 394.014L132.219 400.938L134.812 393.284L136.155 396.281H139.159C138.858 397.011 138.416 397.694 137.926 398.33C137.23 399.215 136.44 400.007 135.602 400.737Z" fill="#004357"/>
  </g>
  <path d="M73.6331 89.96H65.0331V104H73.6331V101.26H68.4531V98.18H73.0331V95.54H68.4531V92.7H73.6331V89.96ZM85.1252 100.76C85.0652 96.6 79.0252 97.86 79.0252 96.08C79.0252 95.54 79.4652 95.22 80.2652 95.22C81.2252 95.22 81.8052 95.72 81.9052 96.48H85.0652C84.8452 94.28 83.2452 92.68 80.3652 92.68C77.4452 92.68 75.8252 94.24 75.8252 96.14C75.8252 100.24 81.9052 98.94 81.9052 100.74C81.9052 101.24 81.4452 101.64 80.5652 101.64C79.6252 101.64 78.9252 101.12 78.8452 100.34H75.4652C75.6252 102.5 77.6252 104.16 80.6052 104.16C83.4052 104.16 85.1252 102.7 85.1252 100.76ZM87.9694 100.12C87.9694 103.02 89.5894 104 91.9094 104H93.6494V101.1H92.4294C91.6694 101.1 91.3894 100.82 91.3894 100.16V95.68H93.6294V92.84H91.3894V90.12H87.9694V92.84H86.6094V95.68H87.9694V100.12ZM95.7662 104H99.1862V92.84H95.7662V104ZM97.4862 91.68C98.6862 91.68 99.5062 90.86 99.5062 89.84C99.5062 88.8 98.6862 87.98 97.4862 87.98C96.2662 87.98 95.4462 88.8 95.4462 89.84C95.4462 90.86 96.2662 91.68 97.4862 91.68ZM101.876 104H105.296V89.2H101.876V104ZM118.907 98.42C118.907 94.88 116.387 92.68 113.107 92.68C109.847 92.68 107.307 94.88 107.307 98.42C107.307 101.96 109.787 104.16 113.067 104.16C116.347 104.16 118.907 101.96 118.907 98.42ZM110.787 98.42C110.787 96.52 111.867 95.64 113.107 95.64C114.307 95.64 115.427 96.52 115.427 98.42C115.427 100.3 114.287 101.2 113.067 101.2C111.827 101.2 110.787 100.3 110.787 98.42ZM124.703 98.4C124.703 101.92 126.883 104.16 129.623 104.16C131.263 104.16 132.443 103.42 133.063 102.4V104H136.483V89.2H133.063V94.38C132.383 93.36 131.103 92.68 129.623 92.68C126.883 92.68 124.703 94.88 124.703 98.4ZM133.063 98.42C133.063 100.2 131.923 101.18 130.623 101.18C129.343 101.18 128.183 100.18 128.183 98.4C128.183 96.62 129.343 95.66 130.623 95.66C131.923 95.66 133.063 96.64 133.063 98.42ZM144.089 95.42C145.229 95.42 146.189 96.12 146.189 97.34H141.909C142.109 96.1 142.969 95.42 144.089 95.42ZM149.429 100.3H145.789C145.509 100.9 144.969 101.38 144.009 101.38C142.909 101.38 142.009 100.7 141.889 99.24H149.629C149.669 98.9 149.689 98.56 149.689 98.24C149.689 94.84 147.389 92.68 144.129 92.68C140.809 92.68 138.489 94.88 138.489 98.42C138.489 101.96 140.849 104.16 144.129 104.16C146.909 104.16 148.889 102.48 149.429 100.3ZM162.215 100.56L158.735 89.96H155.095L160.075 104H164.355L169.335 89.96H165.715L162.215 100.56ZM170.976 104H174.396V92.84H170.976V104ZM172.696 91.68C173.896 91.68 174.716 90.86 174.716 89.84C174.716 88.8 173.896 87.98 172.696 87.98C171.476 87.98 170.656 88.8 170.656 89.84C170.656 90.86 171.476 91.68 172.696 91.68ZM176.407 98.4C176.407 101.92 178.587 104.16 181.327 104.16C182.967 104.16 184.147 103.42 184.767 102.4V104H188.187V89.2H184.767V94.38C184.087 93.36 182.807 92.68 181.327 92.68C178.587 92.68 176.407 94.88 176.407 98.4ZM184.767 98.42C184.767 100.2 183.627 101.18 182.327 101.18C181.047 101.18 179.887 100.18 179.887 98.4C179.887 96.62 181.047 95.66 182.327 95.66C183.627 95.66 184.767 96.64 184.767 98.42ZM190.193 98.4C190.193 101.92 192.373 104.16 195.093 104.16C196.753 104.16 197.933 103.4 198.553 102.42V104H201.973V92.84H198.553V94.42C197.953 93.44 196.773 92.68 195.113 92.68C192.373 92.68 190.193 94.88 190.193 98.4ZM198.553 98.42C198.553 100.2 197.413 101.18 196.113 101.18C194.833 101.18 193.673 100.18 193.673 98.4C193.673 96.62 194.833 95.66 196.113 95.66C197.413 95.66 198.553 96.64 198.553 98.42Z" fill="#004357"/>
  <path d="M73.6188 295H77.7988L72.1588 287.84L77.5988 280.96H73.5788L68.8988 287.12V280.96H65.4788V295H68.8988V288.8L73.6188 295ZM79.636 295H83.056V283.84H79.636V295ZM81.356 282.68C82.556 282.68 83.376 281.86 83.376 280.84C83.376 279.8 82.556 278.98 81.356 278.98C80.136 278.98 79.316 279.8 79.316 280.84C79.316 281.86 80.136 282.68 81.356 282.68ZM86.2862 291.12C86.2862 294.02 87.9062 295 90.2262 295H91.9662V292.1H90.7462C89.9862 292.1 89.7062 291.82 89.7062 291.16V286.68H91.9462V283.84H89.7062V281.12H86.2862V283.84H84.9262V286.68H86.2862V291.12ZM107.273 295H110.693V280.96H107.273V286.46H101.953V280.96H98.5332V295H101.953V289.22H107.273V295ZM124.294 289.42C124.294 285.88 121.774 283.68 118.494 283.68C115.234 283.68 112.694 285.88 112.694 289.42C112.694 292.96 115.174 295.16 118.454 295.16C121.734 295.16 124.294 292.96 124.294 289.42ZM116.174 289.42C116.174 287.52 117.254 286.64 118.494 286.64C119.694 286.64 120.814 287.52 120.814 289.42C120.814 291.3 119.674 292.2 118.454 292.2C117.214 292.2 116.174 291.3 116.174 289.42ZM129.74 289.82C129.74 287.9 130.68 287.34 132.3 287.34H133.24V283.72C131.74 283.72 130.52 284.52 129.74 285.7V283.84H126.32V295H129.74V289.82ZM150.467 295H153.867V288.48C153.867 285.48 152.087 283.72 149.327 283.72C147.707 283.72 146.307 284.62 145.567 285.8C144.807 284.46 143.447 283.72 141.767 283.72C140.307 283.72 139.167 284.34 138.507 285.24V283.84H135.087V295H138.507V288.94C138.507 287.48 139.347 286.68 140.647 286.68C141.947 286.68 142.787 287.48 142.787 288.94V295H146.187V288.94C146.187 287.48 147.027 286.68 148.327 286.68C149.627 286.68 150.467 287.48 150.467 288.94V295ZM167.39 289.42C167.39 285.88 164.87 283.68 161.59 283.68C158.33 283.68 155.79 285.88 155.79 289.42C155.79 292.96 158.27 295.16 161.55 295.16C164.83 295.16 167.39 292.96 167.39 289.42ZM159.27 289.42C159.27 287.52 160.35 286.64 161.59 286.64C162.79 286.64 163.91 287.52 163.91 289.42C163.91 291.3 162.77 292.2 161.55 292.2C160.31 292.2 159.27 291.3 159.27 289.42ZM177.116 295H180.516V288.48C180.516 285.48 178.796 283.72 176.216 283.72C174.716 283.72 173.516 284.38 172.836 285.32V283.84H169.416V295H172.836V288.94C172.836 287.42 173.676 286.58 174.976 286.58C176.276 286.58 177.116 287.42 177.116 288.94V295ZM182.425 289.4C182.425 292.92 184.605 295.16 187.325 295.16C188.985 295.16 190.165 294.4 190.785 293.42V295H194.205V283.84H190.785V285.42C190.185 284.44 189.005 283.68 187.345 283.68C184.605 283.68 182.425 285.88 182.425 289.4ZM190.785 289.42C190.785 291.2 189.645 292.18 188.345 292.18C187.065 292.18 185.905 291.18 185.905 289.4C185.905 287.62 187.065 286.66 188.345 286.66C189.645 286.66 190.785 287.64 190.785 289.42ZM196.891 295H200.311V280.2H196.891V295Z" fill="#004357"/>
  <path d="M78.798 478.56L75.318 467.96H71.678L76.658 482H80.938L85.918 467.96H82.298L78.798 478.56ZM87.5592 482H90.9792V470.84H87.5592V482ZM89.2792 469.68C90.4792 469.68 91.2992 468.86 91.2992 467.84C91.2992 466.8 90.4792 465.98 89.2792 465.98C88.0592 465.98 87.2392 466.8 87.2392 467.84C87.2392 468.86 88.0592 469.68 89.2792 469.68ZM94.2094 478.12C94.2094 481.02 95.8294 482 98.1494 482H99.8894V479.1H98.6694C97.9094 479.1 97.6294 478.82 97.6294 478.16V473.68H99.8694V470.84H97.6294V468.12H94.2094V470.84H92.8494V473.68H94.2094V478.12ZM101.326 476.4C101.326 479.92 103.506 482.16 106.226 482.16C107.886 482.16 109.066 481.4 109.686 480.42V482H113.106V470.84H109.686V472.42C109.086 471.44 107.906 470.68 106.246 470.68C103.506 470.68 101.326 472.88 101.326 476.4ZM109.686 476.42C109.686 478.2 108.546 479.18 107.246 479.18C105.966 479.18 104.806 478.18 104.806 476.4C104.806 474.62 105.966 473.66 107.246 473.66C108.546 473.66 109.686 474.64 109.686 476.42ZM131.172 482H134.572V475.48C134.572 472.48 132.792 470.72 130.032 470.72C128.412 470.72 127.012 471.62 126.272 472.8C125.512 471.46 124.152 470.72 122.472 470.72C121.012 470.72 119.872 471.34 119.212 472.24V470.84H115.792V482H119.212V475.94C119.212 474.48 120.052 473.68 121.352 473.68C122.652 473.68 123.492 474.48 123.492 475.94V482H126.892V475.94C126.892 474.48 127.732 473.68 129.032 473.68C130.332 473.68 131.172 474.48 131.172 475.94V482ZM137.176 482H140.596V470.84H137.176V482ZM138.896 469.68C140.096 469.68 140.916 468.86 140.916 467.84C140.916 466.8 140.096 465.98 138.896 465.98C137.676 465.98 136.856 466.8 136.856 467.84C136.856 468.86 137.676 469.68 138.896 469.68ZM150.986 482H154.386V475.48C154.386 472.48 152.666 470.72 150.086 470.72C148.586 470.72 147.386 471.38 146.706 472.32V470.84H143.286V482H146.706V475.94C146.706 474.42 147.546 473.58 148.846 473.58C150.146 473.58 150.986 474.42 150.986 475.94V482ZM156.295 476.4C156.295 479.92 158.475 482.16 161.195 482.16C162.855 482.16 164.035 481.4 164.655 480.42V482H168.075V470.84H164.655V472.42C164.055 471.44 162.875 470.68 161.215 470.68C158.475 470.68 156.295 472.88 156.295 476.4ZM164.655 476.42C164.655 478.2 163.515 479.18 162.215 479.18C160.935 479.18 159.775 478.18 159.775 476.4C159.775 474.62 160.935 473.66 162.215 473.66C163.515 473.66 164.655 474.64 164.655 476.42ZM180.471 467.96H175.211V482H180.471C184.951 482 187.831 479.14 187.831 474.98C187.831 470.8 184.951 467.96 180.471 467.96ZM178.631 479.04V470.88H180.251C182.831 470.88 184.351 472.4 184.351 474.98C184.351 477.56 182.831 479.04 180.251 479.04H178.631Z" fill="#004357"/>
  <rect x="132" y="124" width="2" height="65" fill="#004357"/>
  <circle cx="133" cy="182" r="7" fill="#004357"/>
  <circle cx="133" cy="153" r="7" fill="#004357"/>
  <circle cx="133" cy="124" r="7" fill="#004357"/>
  <rect x="132" y="313" width="2" height="59" fill="#004357"/>
  <circle cx="133" cy="371" r="7" fill="#004357"/>
  <circle cx="133" cy="342" r="7" fill="#004357"/>
  <circle cx="133" cy="313" r="7" fill="#004357"/>
  <rect x="131" y="496" width="2" height="59" fill="#004357"/>
  <circle cx="132" cy="496" r="7" fill="#C4C4C4"/>
  <circle cx="132" cy="496" r="9" fill="#004357"/>
  <circle cx="132" cy="554" r="7" fill="#C4C4C4"/>
  <circle cx="132" cy="525" r="7" fill="#C4C4C4"/>
  <defs>
    <clipPath id="clip0_163_8014">
      <rect width="81" height="73" fill="white" transform="translate(93)"/>
    </clipPath>
    <clipPath id="clip1_163_8014">
      <rect width="81" height="73" fill="white" transform="translate(92 200)"/>
    </clipPath>
    <clipPath id="clip2_163_8014">
      <rect width="81" height="73" fill="white" transform="translate(89 389)"/>
    </clipPath>
  </defs>
</svg>
