<svg width="112" height="112" viewBox="0 0 112 112" fill="none" xmlns="http://www.w3.org/2000/svg">
  <path d="M14.6942 31.0976C-3.56474 49.3368 -3.56474 78.8926 14.6942 97.0716C32.9532 115.251 62.5411 115.311 80.7398 97.0716C97.6128 80.2169 98.8783 53.731 84.5965 35.4317L98.6372 21.4062L98.9385 35.853H110.81V1H72.3033V12.8585L90.4418 13.2196L76.4011 27.2451C58.0818 12.9788 31.5672 14.3031 14.6942 31.0976ZM74.533 37.2977C89.3571 52.1057 89.3571 76.0634 74.533 90.8715C59.7089 105.679 35.7252 105.679 20.9011 90.8715C6.07695 76.0634 6.07695 52.1057 20.9011 37.2977C35.7252 22.4897 59.7089 22.5499 74.533 37.2977Z" stroke="#004357" stroke-width="2" stroke-miterlimit="10"/>
</svg>
