<svg width="90" height="108" viewBox="0 0 90 108" fill="none" xmlns="http://www.w3.org/2000/svg">
  <g clip-path="url(#clip0_221_487)">
    <path d="M57.6999 20.1C57.6999 23.4 55.0999 26 51.7999 26C48.4999 26 45.8999 23.4 45.8999 20.1C45.8999 16.8 47.6999 13.1 51.7999 7.5C56.0999 13.1 57.6999 16.9 57.6999 20.1Z" fill="#002F43"/>
    <path d="M73.6999 12.6C73.6999 15.9 71.0999 18.5 67.7999 18.5C64.4999 18.5 61.8999 15.9 61.8999 12.6C61.8999 9.3 63.6999 5.6 67.7999 0C72.1999 5.6 73.6999 9.3 73.6999 12.6Z" fill="#002F43"/>
    <path d="M41.9001 12.6C41.9001 15.9 39.3001 18.5 36.0001 18.5C32.7001 18.5 30.1001 15.9 30.1001 12.6C30.1001 9.3 31.9001 5.6 36.0001 0C40.3001 5.6 41.9001 9.3 41.9001 12.6Z" fill="#002F43"/>
    <path d="M18.8001 68.1002L31.6001 51.3002L31.2001 51.5002C30.6001 51.8002 28.7001 52.7002 27.3001 53.0002C26.6001 53.2002 26.0001 53.1002 25.6001 52.8002C25.2001 52.4002 25.2001 51.9002 25.2001 51.8002L31.0001 31.6002C31.4001 30.2002 31.2001 28.7002 30.5001 27.5002C29.8001 26.2002 28.6001 25.3002 27.2001 24.9002C25.8001 24.5002 24.3001 24.7002 23.1001 25.4002C21.8001 26.1002 20.9001 27.3002 20.5001 28.7002L14.1001 51.0002C14.8001 52.0002 15.3001 53.1002 15.6001 54.4002L18.8001 68.1002Z" fill="#C7D1D6"/>
    <path d="M71.8999 41.4L78.5999 38.4C79.4999 38 80.1999 37.3 80.4999 36.4C80.8999 35.5 80.7999 34.5 80.3999 33.6C79.9999 32.7 79.2999 32 78.3999 31.7C77.4999 31.3 76.4999 31.4 75.5999 31.8L70.8999 33.9C71.6999 35 72.1999 36.2 72.2999 37.5C72.4999 38.8 72.3999 40.2 71.8999 41.4Z" fill="#C7D1D6"/>
    <path d="M72.7 74.0001L81.9 69.7001C82.8 69.3001 83.5 68.6001 83.8 67.7001C84.2 66.8001 84.1 65.8001 83.7 64.9001C83.3 64.0001 82.6 63.3001 81.7 63.0001C80.9 62.7001 80.1 62.7001 79.4 62.9001C79.3 64.4001 78.7 65.8001 77.8 67.1001L72.7 74.0001Z" fill="#C7D1D6"/>
    <path d="M76.2001 55.5C77.8001 56.7 78.9001 58.5 79.2001 60.4L84.9001 57.9C85.8001 57.5 86.5001 56.8 86.8001 55.9C87.2001 55 87.1001 54 86.7001 53.1C86.3001 52.2 85.6001 51.5 84.7001 51.2C83.8001 50.8 82.8001 50.9 81.9001 51.3L75.5001 54C75.4001 54.2 75.2001 54.5 75.1001 54.7C75.4001 55 75.8001 55.2 76.2001 55.5Z" fill="#C7D1D6"/>
    <path d="M76.3999 49.0003C76.4999 49.5003 76.4999 49.9003 76.4999 50.4003L86.9999 45.8003C87.8999 45.4003 88.5999 44.7003 88.8999 43.8003C89.2999 42.9003 89.1999 41.9003 88.7999 41.0003C88.3999 40.1003 87.6999 39.4003 86.7999 39.1003C85.8999 38.7003 84.8999 38.8003 83.9999 39.2003L73.3999 43.9003C75.0999 45.1003 76.0999 46.9003 76.3999 49.0003Z" fill="#C7D1D6"/>
    <path d="M73.7001 58.7005C71.9001 57.3005 69.3001 57.7005 67.9001 59.5005L56.7001 75.1005C54.9001 76.0005 54.9001 74.4005 54.9001 74.4005L71.5001 52.6005C72.9001 50.8005 72.5001 48.2005 70.7001 46.8005C68.9001 45.4005 66.3001 45.8005 64.9001 47.6005L49.5001 68.0005C47.5001 68.1005 47.8001 66.9005 47.8001 66.9005L67.4001 41.1005C68.8001 39.3005 68.4001 36.7005 66.6001 35.3005C64.8001 33.9005 62.2001 34.3005 60.8001 36.1005L41.5001 61.6005C39.7001 62.4005 39.7001 60.8005 39.7001 60.8005L56.5001 38.7005C57.9001 36.9005 57.5001 34.3005 55.7001 32.9005C53.9001 31.5005 51.3001 31.9005 49.9001 33.7005L20.7001 72.4005C20.3001 72.9005 19.1001 74.6005 18.1001 75.6005C16.9001 76.8005 16.4001 75.7005 16.4001 75.7005L11.7001 55.3005C11.0001 52.1005 7.80011 50.2005 4.60011 50.9005C1.40011 51.6005 -0.499891 54.8005 0.200109 58.0005L5.70011 82.0005H5.80011C5.90011 82.8005 6.00011 83.7005 6.20011 84.7005C9.10011 97.5005 21.5001 104.7 21.5001 104.7C24.6001 106.9 28.4001 108.1 32.5001 108.1C38.7001 108.1 44.2001 105.2 47.7001 100.7C47.9001 100.5 48.0001 100.3 48.2001 100.1L55.6001 90.8005L74.6001 64.6005C75.9001 62.7005 75.6001 60.1005 73.7001 58.7005Z" fill="#C7D1D6"/>
  </g>
  <defs>
    <clipPath id="clip0_221_487">
      <rect width="89.2" height="108" fill="white"/>
    </clipPath>
  </defs>
</svg>
