<svg width="31" height="91" viewBox="0 0 31 91" fill="none" xmlns="http://www.w3.org/2000/svg">
  <path d="M26.5503 15.1543H3.79297V90.9998H26.5503V15.1543Z" fill="#004357"/>
  <path d="M24.0703 18.9434H6.27295V87.2116H24.0703V18.9434Z" fill="white"/>
  <path d="M0 15.1545V2.25861C0 1.02002 1.02116 0 2.26114 0H28.0819C29.3219 0 30.3431 1.02002 30.3431 2.25861V15.1545H0Z" fill="#004357"/>
  <path d="M30.3431 12.5312H0" stroke="white" stroke-width="0.5" stroke-miterlimit="10"/>
  <path d="M3.35522 2.55078V12.5324" stroke="white" stroke-width="0.5" stroke-miterlimit="10"/>
  <path d="M6.27295 2.55078V12.5324" stroke="white" stroke-width="0.5" stroke-miterlimit="10"/>
  <path d="M9.26343 2.55078V12.5324" stroke="white" stroke-width="0.5" stroke-miterlimit="10"/>
  <path d="M12.1809 2.55078V12.5324" stroke="white" stroke-width="0.5" stroke-miterlimit="10"/>
  <path d="M15.1716 2.55078V12.5324" stroke="white" stroke-width="0.5" stroke-miterlimit="10"/>
  <path d="M18.1621 2.55078V12.5324" stroke="white" stroke-width="0.5" stroke-miterlimit="10"/>
  <path d="M21.0796 2.55078V12.5324" stroke="white" stroke-width="0.5" stroke-miterlimit="10"/>
  <path d="M24.0703 2.55078V12.5324" stroke="white" stroke-width="0.5" stroke-miterlimit="10"/>
  <path d="M27.0608 2.55078V12.5324" stroke="white" stroke-width="0.5" stroke-miterlimit="10"/>
</svg>
