<svg width="262" height="325" viewBox="0 0 262 325" fill="none" xmlns="http://www.w3.org/2000/svg">
  <path d="M127.35 152.925H47.2019C47.0808 152.925 47 152.844 47 152.723V14.9384C47 14.8171 47.0808 14.7363 47.2019 14.7363H61.9798" stroke="#004357" stroke-width="2" stroke-miterlimit="10"/>
  <path d="M148.79 14.7363H163.083C163.205 14.7363 163.285 14.8171 163.285 14.9384V99.5888" stroke="#004357" stroke-width="2" stroke-miterlimit="10"/>
  <path d="M143.379 46.0518H69.2068C67.8744 46.0518 66.7842 44.9609 66.7842 43.6275C66.7842 42.2941 67.8744 41.2031 69.2068 41.2031H143.379C144.712 41.2031 145.802 42.2941 145.802 43.6275C145.802 44.9609 144.712 46.0518 143.379 46.0518Z" stroke="#004357" stroke-width="2" stroke-miterlimit="10"/>
  <path d="M102.195 99.1866H69.2068C67.8744 99.1866 66.7842 98.0956 66.7842 96.7622C66.7842 95.4289 67.8744 94.3379 69.2068 94.3379H102.195C103.527 94.3379 104.617 95.4289 104.617 96.7622C104.617 98.0956 103.527 99.1866 102.195 99.1866Z" stroke="#004357" stroke-width="2" stroke-miterlimit="10"/>
  <path d="M114.308 123.026H69.2068C67.8744 123.026 66.7842 121.935 66.7842 120.602C66.7842 119.269 67.8744 118.178 69.2068 118.178H114.308C115.64 118.178 116.73 119.269 116.73 120.602C116.73 121.935 115.64 123.026 114.308 123.026Z" stroke="#004357" stroke-width="2" stroke-miterlimit="10"/>
  <path d="M143.379 73.7296H69.2068C67.8744 73.7296 66.7842 72.6386 66.7842 71.3052C66.7842 69.9718 67.8744 68.8809 69.2068 68.8809H143.379C144.712 68.8809 145.802 69.9718 145.802 71.3052C145.802 72.6386 144.712 73.7296 143.379 73.7296Z" stroke="#004357" stroke-width="2" stroke-miterlimit="10"/>
  <path d="M154.484 98.3785V22.8194C154.484 20.1526 152.303 17.9707 149.638 17.9707H148.831V25.2438H62.0206V18.0111C59.5576 18.2131 57.5791 20.3142 57.5791 22.8194V141.209C57.5791 143.876 59.7595 146.057 62.4243 146.057H121.294" stroke="#004357" stroke-width="2" stroke-miterlimit="10"/>
  <path d="M62.4243 17.9707C62.3031 17.9707 62.1416 17.9707 62.0205 18.0111V25.2438H148.831V17.9707" stroke="#004357" stroke-width="2" stroke-miterlimit="10"/>
  <path d="M96.543 12.7208C98.0773 8.92265 101.752 6.25586 106.112 6.25586C110.473 6.25586 114.147 8.92265 115.682 12.7208" stroke="#004357" stroke-width="2" stroke-miterlimit="10"/>
  <path d="M121.496 12.7177C119.638 5.96993 113.461 1 106.112 1C98.7635 1 92.5859 5.96993 90.7285 12.7177" stroke="#004357" stroke-width="2" stroke-miterlimit="10"/>
  <path d="M115.642 12.7208C114.107 8.92265 110.433 6.25586 106.072 6.25586C101.712 6.25586 98.0373 8.92265 96.5029 12.7208" stroke="#004357" stroke-width="2" stroke-miterlimit="10"/>
  <path d="M62.0205 18.01V12.7572L148.75 12.7168V24.8386" stroke="#004357" stroke-width="2" stroke-miterlimit="10"/>
  <path d="M62.2217 20.2715H149.153" stroke="#004357" stroke-width="2" stroke-miterlimit="10"/>
  <path d="M209.235 113.932L214.766 108.396L205.803 99.4263L214.403 90.8198L208.912 85.3246L200.271 93.9311L191.307 84.9609L185.776 90.4965L194.739 99.4667L188.723 105.487C180.446 99.0222 169.746 97.2847 160.136 100.234C149.8 95.6685 137.525 97.0019 128.319 104.194L118.911 94.7796L128.602 94.5775V86.6176H105.224V112.437H113.178L113.42 100.275L122.828 109.689C113.259 121.973 114.107 139.751 125.412 151.065C133.77 159.429 145.641 162.055 156.26 158.985C167.889 164.359 182.101 162.217 191.711 152.641C203.057 141.287 203.945 123.387 194.295 110.982L200.311 104.962L209.235 113.932ZM129.571 146.903C119.638 136.963 119.638 120.882 129.571 110.942C135.749 104.76 144.308 102.416 152.263 103.952C150.446 105.123 148.71 106.497 147.135 108.114C134.82 120.437 134.82 140.357 147.135 152.681C147.7 153.247 148.306 153.813 148.952 154.338C141.967 154.702 134.86 152.237 129.571 146.903ZM165.506 110.942C175.439 120.882 175.439 136.963 165.506 146.903C162.922 149.489 159.934 151.388 156.785 152.6C154.847 151.51 152.99 150.095 151.334 148.439C141.361 138.458 141.361 122.256 151.334 112.235C153.837 109.73 156.704 107.871 159.813 106.619C161.832 107.79 163.77 109.204 165.506 110.942ZM187.471 148.479C181.132 154.823 172.33 157.126 164.174 155.429C166.112 154.217 167.929 152.762 169.625 151.065C181.859 138.822 181.859 118.983 169.625 106.78C168.938 106.093 168.252 105.447 167.525 104.841C174.672 104.315 181.98 106.78 187.471 112.275C197.485 122.256 197.485 138.458 187.471 148.479Z" stroke="#004357" stroke-width="2" stroke-miterlimit="10"/>
  <path d="M26.7418 226H35.2918V190.9H26.7418V204.65H13.4418V190.9H4.89184V226H13.4418V211.55H26.7418V226ZM68.9759 212.05C68.9759 203.2 62.6759 197.7 54.4759 197.7C46.3259 197.7 39.9759 203.2 39.9759 212.05C39.9759 220.9 46.1759 226.4 54.3759 226.4C62.5759 226.4 68.9759 220.9 68.9759 212.05ZM48.6759 212.05C48.6759 207.3 51.3759 205.1 54.4759 205.1C57.4759 205.1 60.2759 207.3 60.2759 212.05C60.2759 216.75 57.4259 219 54.3759 219C51.2759 219 48.6759 216.75 48.6759 212.05ZM82.2737 213.05C82.2737 208.25 84.6237 206.85 88.6737 206.85H91.0237V197.8C87.2737 197.8 84.2237 199.8 82.2737 202.75V198.1H73.7237V226H82.2737V213.05ZM133.772 226H142.272V209.7C142.272 202.2 137.822 197.8 130.922 197.8C126.872 197.8 123.372 200.05 121.522 203C119.622 199.65 116.222 197.8 112.022 197.8C108.372 197.8 105.522 199.35 103.872 201.6V198.1H95.3222V226H103.872V210.85C103.872 207.2 105.972 205.2 109.222 205.2C112.472 205.2 114.572 207.2 114.572 210.85V226H123.072V210.85C123.072 207.2 125.172 205.2 128.422 205.2C131.672 205.2 133.772 207.2 133.772 210.85V226ZM175.764 212.05C175.764 203.2 169.464 197.7 161.264 197.7C153.114 197.7 146.764 203.2 146.764 212.05C146.764 220.9 152.964 226.4 161.164 226.4C169.364 226.4 175.764 220.9 175.764 212.05ZM155.464 212.05C155.464 207.3 158.164 205.1 161.264 205.1C164.264 205.1 167.064 207.3 167.064 212.05C167.064 216.75 164.214 219 161.164 219C158.064 219 155.464 216.75 155.464 212.05ZM199.761 226H208.261V209.7C208.261 202.2 203.961 197.8 197.511 197.8C193.761 197.8 190.761 199.45 189.061 201.8V198.1H180.511V226H189.061V210.85C189.061 207.05 191.161 204.95 194.411 204.95C197.661 204.95 199.761 207.05 199.761 210.85V226ZM212.715 212C212.715 220.8 218.165 226.4 224.965 226.4C229.115 226.4 232.065 224.5 233.615 222.05V226H242.165V198.1H233.615V202.05C232.115 199.6 229.165 197.7 225.015 197.7C218.165 197.7 212.715 203.2 212.715 212ZM233.615 212.05C233.615 216.5 230.765 218.95 227.515 218.95C224.315 218.95 221.415 216.45 221.415 212C221.415 207.55 224.315 205.15 227.515 205.15C230.765 205.15 233.615 207.6 233.615 212.05ZM248.562 226H257.112V189H248.562V226Z" fill="#004357"/>
  <circle cx="131" cy="289" r="9" fill="#004357"/>
  <rect x="130" y="260" width="2" height="59" fill="#004357"/>
  <circle cx="131" cy="318" r="7" fill="#919388"/>
  <circle cx="131" cy="260" r="7" fill="#004357"/>
</svg>
