<svg width="31" height="114" viewBox="0 0 31 114" fill="none" xmlns="http://www.w3.org/2000/svg">
  <path d="M26.5503 18.9844H3.79297V114H26.5503V18.9844Z" fill="#004357"/>
  <path d="M24.0703 23.7305H6.27295V109.254H24.0703V23.7305Z" fill="white"/>
  <path d="M0 18.9848V2.82947C0 1.27783 1.02116 0 2.26114 0H28.0819C29.3219 0 30.3431 1.27783 30.3431 2.82947V18.9848H0Z" fill="#004357"/>
  <path d="M30.3431 15.6992H0" stroke="white" stroke-width="0.5" stroke-miterlimit="10"/>
  <path d="M3.35547 3.19531V15.6997" stroke="white" stroke-width="0.5" stroke-miterlimit="10"/>
  <path d="M6.27295 3.19531V15.6997" stroke="white" stroke-width="0.5" stroke-miterlimit="10"/>
  <path d="M9.26367 3.19531V15.6997" stroke="white" stroke-width="0.5" stroke-miterlimit="10"/>
  <path d="M12.1807 3.19531V15.6997" stroke="white" stroke-width="0.5" stroke-miterlimit="10"/>
  <path d="M15.1719 3.19531V15.6997" stroke="white" stroke-width="0.5" stroke-miterlimit="10"/>
  <path d="M18.1621 3.19531V15.6997" stroke="white" stroke-width="0.5" stroke-miterlimit="10"/>
  <path d="M21.0796 3.19531V15.6997" stroke="white" stroke-width="0.5" stroke-miterlimit="10"/>
  <path d="M24.0703 3.19531V15.6997" stroke="white" stroke-width="0.5" stroke-miterlimit="10"/>
  <path d="M27.0605 3.19531V15.6997" stroke="white" stroke-width="0.5" stroke-miterlimit="10"/>
</svg>
