<svg width="120" height="176" viewBox="0 0 120 176" fill="none" xmlns="http://www.w3.org/2000/svg">
  <g clip-path="url(#clip0_161_6605)">
    <path d="M53.2631 0C55.0175 0.245125 56.7368 0.525269 58.5263 0.350179C60.2456 0.490251 62 0.66534 63.7193 0.805412C63.9649 0.875448 64.2105 0.980501 64.4561 1.05054C66 0.945484 67.4736 1.64584 69.0175 1.40072C70.6666 2.06606 72.4912 1.99602 74.2105 2.31118C75.8947 2.59133 77.5438 2.90649 79.228 3.18663C79.4035 3.43176 79.614 3.53681 79.9298 3.46677C81.6491 3.46677 83.2631 3.88699 84.807 4.51731C86.8772 5.42778 88.5263 6.86351 90.0702 8.43932C91.2281 10.0501 92.1754 11.801 92.7368 13.727C93.1228 15.4429 93.2631 17.1938 93.3333 18.9447C93.3333 20.6956 93.3333 22.4465 93.3333 24.1974C93.3333 25.9483 93.3333 27.6992 93.3333 29.4501C93.3333 31.201 93.3333 32.9519 93.3333 34.7027C92.8421 36.4536 92.3859 38.2045 91.8947 39.9554C91.2982 40.8659 90.7017 41.7764 90.1052 42.6868C89.2982 43.4222 88.4912 44.1926 87.6842 44.928C86.7017 45.5233 85.7193 46.0836 84.6315 46.7139C88 49.1651 90.1403 52.4218 91.8947 55.9936C92.2807 57.6395 92.6666 59.2853 93.0877 60.9312C93.193 62.6821 93.2631 64.433 93.3684 66.1838C93.3684 67.9347 93.3684 69.6856 93.3684 71.4365C93.3684 73.1874 93.3684 74.9383 93.3684 76.6892C93.3684 78.4401 93.3684 80.191 93.3684 81.9419C93.3684 83.6928 93.3684 85.4437 93.3684 87.1946C93.3684 88.9455 93.3684 90.6964 93.3684 92.4473C93.3684 94.1982 93.3684 95.9491 93.3684 97.7C93.3684 99.4509 93.3684 101.202 93.3684 102.953C93.3684 104.704 93.3684 106.454 93.3684 108.205C93.3684 109.956 93.3684 111.707 93.3684 113.458C93.3684 115.209 93.3684 116.96 93.3684 118.711C93.3684 120.287 93.3684 121.862 93.3684 123.543C94.1403 123.193 94.807 122.913 95.4386 122.598C97.193 122.388 98.8772 121.757 100.702 121.792C102.456 121.792 104.211 121.967 105.93 122.388C112.351 124.244 116.667 128.341 119.123 134.504C119.614 136.22 120.035 137.936 120.07 139.721C120.035 141.472 120.035 143.258 119.719 144.974C119.123 146.585 118.491 148.231 117.895 149.842C117.368 150.682 116.807 151.522 116.281 152.363C115.298 153.413 114.316 154.429 113.333 155.48C112.632 155.97 111.965 156.425 111.263 156.915C107.754 158.806 104.246 160.662 100.737 162.553C97.2281 164.409 93.7193 166.3 90.2105 168.156C86.7017 170.012 83.193 171.903 79.6842 173.759C74.5614 176.385 69.2982 176.56 63.8947 174.809C62.0351 174.214 60.7017 172.533 58.6315 172.358C56.8772 172.463 55.1228 172.603 53.3684 172.708C51.614 172.813 49.8596 172.953 48.1052 173.059C46.3508 173.059 44.5965 173.059 42.8421 173.059C41.3684 173.023 39.8596 172.953 38.3859 172.918C36.3859 172.358 34.3158 172.848 32.3158 172.428C30.5614 172.288 28.807 172.113 27.0526 171.973C23.5438 171.273 20.0351 170.607 16.5263 169.907C14.7719 169.312 13.0175 168.751 11.2631 168.156C5.47365 165.74 0.385926 162.728 0.105225 155.48C0.315751 153.729 0.315751 152.013 0.105225 150.262C0.350839 148.511 0.350839 146.725 0.105225 144.974C0.315751 143.223 0.315751 141.507 0.105225 139.756C0.350839 138.006 0.350839 136.22 0.105225 134.469C0.315751 132.718 0.315751 130.967 0.105225 129.216C0.350839 127.465 0.350839 125.679 0.105225 123.928C0.315751 122.177 0.315751 120.462 0.105225 118.711C0.350839 116.96 0.350839 115.174 0.105225 113.423C0.315751 111.672 0.315751 109.956 0.105225 108.205C0.350839 106.454 0.350839 104.669 0.105225 102.918C0.315751 101.167 0.315751 99.4509 0.105225 97.7C0.350839 95.9491 0.350839 94.1982 0.105225 92.4473C0.315751 90.6964 0.315751 88.9805 0.105225 87.2296C0.350839 85.4787 0.350839 83.6928 0.105225 81.9419C0.315751 80.191 0.315751 78.4401 0.105225 76.6892C0.350839 74.9383 0.350839 73.1524 0.105225 71.4015C0.315751 69.6506 0.315751 67.9347 0.105225 66.1838C0.350839 64.433 0.350839 62.6821 0.315751 60.8961C0.982418 57.1842 2.35084 53.7875 4.59645 50.7409C5.05259 50.1807 5.54382 49.6204 5.99996 49.0601C6.91224 48.2897 7.78944 47.4843 8.7368 46.6789C7.78944 46.1536 6.91224 45.6633 5.99996 45.1381H6.03505C2.77189 42.5117 0.666628 39.2551 0.315751 35.0179C0.245575 33.162 0.1754 31.271 0.105225 29.415C0.315751 27.6641 0.315751 25.9483 0.105225 24.1974C0.350839 22.4465 0.350839 20.6606 0.105225 18.9097C0.315751 18.1743 0.280663 17.4389 0.105225 16.7386C0.1754 16.5285 0.245575 16.3183 0.315751 16.1433C0.421014 15.3378 0.561365 14.4974 0.666628 13.692C0.701716 13.4819 0.701716 13.2718 0.736804 13.0267C1.57891 11.4859 2.38593 9.9801 3.22803 8.43932C4.14031 7.59889 5.05259 6.79347 5.96487 5.95304C7.64909 4.83247 9.47365 3.95702 11.4386 3.60684C13.0175 3.36172 14.7368 3.25667 16.421 2.80143C18.1754 2.48627 19.9649 2.38122 21.6842 1.82093C23.4736 1.82093 25.228 1.54079 26.9473 1.12057C28.7017 0.980501 30.4561 0.84043 32.2105 0.700358C33.7193 0.595304 35.2631 0.455233 36.7719 0.350179C38.7719 0.245125 40.7368 0.105054 42.7368 0C44.4912 0 46.2456 0 48 0C49.7544 0 51.5087 0 53.2631 0ZM68.3859 40.5507C70.1403 40.2006 72 40.6208 73.7193 40.0605C73.9298 40.0605 74.1403 40.0605 74.3158 40.0605C76.0701 40.0955 77.8245 39.8504 79.5789 39.5702C82.4912 39.4652 84.421 37.7493 84.9473 34.8078C85.0175 34.5277 85.1579 34.2825 85.1579 34.0024C85.1579 28.4345 85.193 22.8667 85.1228 17.2988C85.1228 15.9682 84.7719 14.7075 83.7894 13.692C82.7017 12.3263 81.3684 11.4859 79.5438 11.6259C77.7894 11.2758 76.0351 10.9256 74.2807 10.5754C72.5263 10.3303 70.807 9.73498 69.0175 9.80501C67.2982 9.34978 65.5438 8.9996 63.7544 9.13967C62.0701 8.43932 60.2105 8.89455 58.4912 8.43932C52.3158 7.91405 46.1052 8.0191 39.9298 8.08914C39.0877 8.19419 38.2456 7.98408 37.4386 8.43932C35.6491 8.26423 33.9298 8.43932 32.1754 8.78949C30.421 8.75448 28.6666 9.13967 26.9122 9.45483C25.1579 9.59491 23.3684 9.69996 21.6842 10.2602C19.9649 10.1552 18.3508 10.8205 16.7017 11.1007C16.5965 11.1707 16.4912 11.2057 16.3859 11.2758V11.2407C15.5789 11.3808 14.807 11.5209 14 11.6259C9.68417 12.1862 7.78944 14.6375 8.28066 18.9797C8.03505 20.7306 8.03505 22.5165 8.28066 24.2674C8.07014 26.0183 8.07014 27.7342 8.28066 29.4851C8.07014 31.236 7.8947 33.0219 8.38593 34.7728C8.31575 36.5937 9.47365 37.6443 10.7719 38.6598C12.421 40.1655 14.5614 39.4302 16.421 39.9904C19.9298 40.2356 23.4386 40.4457 26.9473 40.6908C28.3859 40.7959 29.8596 40.971 31.2982 40.971C39.1228 41.041 46.9473 41.076 54.7368 41.111C57.7544 41.111 60.7719 41.2861 63.7894 40.7258C65.3333 40.6558 66.8421 40.7959 68.3859 40.5507ZM17.5438 98.3653C17.5438 98.1552 17.5438 97.9451 17.5438 97.77C17.614 96.0191 17.6842 94.2682 17.7543 92.5173C18.1052 90.7664 18.4561 89.0155 18.807 87.2646C19.4035 85.5137 19.9649 83.7628 20.5614 82.0119C22.1754 78.23 24.4561 74.8333 27.0526 71.6116C30.1052 68.3199 33.614 65.6586 37.4736 63.3824C39.1579 62.612 40.8421 61.8416 42.5614 61.0712C42.6315 61.0712 42.7017 61.0712 42.7719 61.0012C44.5263 60.5109 46.2807 60.0557 48.035 59.5655C49.7894 59.3554 51.5789 59.3904 53.2982 58.9001C55.0526 58.9702 56.807 59.0402 58.5614 59.1452C60.3158 59.3904 62.0701 59.6705 63.8245 59.9156C67.5087 60.8961 71.0175 62.2618 74.3508 64.1178C77.7543 66.1488 80.7017 68.7402 83.4386 71.5416C83.9649 72.1719 84.4912 72.8372 85.3333 73.8177C84.9473 69.2654 85.7544 65.0983 84.8421 61.0012C84.4561 59.0402 83.7193 57.2543 82.3508 55.7835C81.6842 54.698 80.8772 53.7875 79.6491 53.2622C78.1754 51.8615 76.3508 51.1962 74.3508 50.916C72.5965 50.3557 70.8421 50.846 69.0877 50.916C67.3333 50.7059 65.5789 51.2662 63.8245 51.2662C62.0351 51.0211 60.3158 51.5464 58.5614 51.6164C57.1579 51.6164 55.7543 51.6164 54.3508 51.6164C52.2456 51.7214 50.1403 51.8265 48.035 51.9666C46.2807 51.9666 44.5263 51.9666 42.7719 51.9666C41.0175 51.5814 39.2631 51.5814 37.5087 51.6164C35.7543 51.5814 34 51.5464 32.2807 51.4763C30.5614 50.9511 28.7719 51.3012 27.0175 51.1261C26.9473 51.0561 26.8421 51.0561 26.7719 51.1261C26.4912 51.0561 26.2456 50.9861 25.9649 50.916C24.5614 50.881 23.1579 50.811 21.7543 50.776C19.7193 50.4958 17.8596 50.9511 16.0701 51.8615C14 52.5969 12.3859 53.8926 11.1579 55.7135C9.57891 57.1142 9.08768 59.0402 8.56137 60.9662C8.28066 62.7171 7.92979 64.503 8.31575 66.2889C8.10523 68.0398 8.10523 69.7557 8.31575 71.5066C8.07014 73.2575 8.07014 75.0434 8.31575 76.7943C8.10523 78.5452 8.10523 80.2961 8.31575 82.047C8.07014 83.7979 8.07014 85.5838 8.31575 87.3347C8.10523 89.0856 8.10523 90.8014 8.31575 92.5523C8.07014 94.3032 8.07014 96.0891 8.31575 97.84C8.10523 99.5909 8.10523 101.307 8.31575 103.058C8.07014 104.809 8.07014 106.559 8.31575 108.31C8.10523 110.061 8.10523 111.812 8.31575 113.563C8.07014 115.314 8.07014 117.1 8.31575 118.851C8.10523 120.602 8.10523 122.318 8.31575 124.068C8.07014 125.819 8.07014 127.605 8.31575 129.356C8.10523 131.107 8.10523 132.858 8.31575 134.609C8.07014 136.36 8.07014 138.111 8.31575 139.862C8.10523 141.612 8.10523 143.363 8.31575 145.114C8.07014 146.865 8.07014 148.616 8.31575 150.367C8.10523 152.118 8.10523 153.834 8.31575 155.585C7.96488 157.826 9.78944 158.421 11.1929 159.331C14.3158 161.082 17.7193 162.063 21.228 162.693C23.1228 163.218 25.0175 163.569 26.9824 163.639C28.7017 164.094 30.4561 164.339 32.2456 164.304C34 164.654 35.7543 164.829 37.5087 164.654C39.2631 165.004 40.9824 165.109 42.7719 165.004C44.5263 165.004 46.2807 165.004 48.035 165.004C49.7543 165.144 51.4386 164.759 53.193 164.654C52.7368 163.324 52.3158 162.098 51.8947 160.872C51.7894 159.121 51.7193 157.406 51.614 155.655C51.6842 155.409 51.7894 155.164 51.8596 154.919C52.1403 153.519 52.3859 152.153 52.6666 150.752C53.0526 150.227 53.3333 149.667 53.3333 149.001C54.1403 147.706 54.9824 146.41 55.7894 145.114C56.7368 144.169 57.6491 143.258 58.5965 142.313C59.8596 141.472 61.1228 140.667 62.3859 139.827C63.0175 139.827 63.3684 139.371 63.8596 139.091C67.3684 137.235 70.8772 135.379 74.3859 133.523C77.9298 131.772 81.5087 130.021 84.9122 127.92C85.7544 125.364 85.0175 122.808 85.2982 119.831C83.8245 121.512 82.6666 122.808 81.5087 124.103C80.807 124.594 80.1052 125.049 79.6491 125.819C78 126.975 76.3508 128.166 74.7017 129.321C74.5965 129.391 74.4912 129.426 74.3859 129.496C72.6315 130.372 70.8772 131.247 69.1228 132.088C67.3684 132.578 65.6491 133.103 63.8947 133.593C62.3859 133.838 60.8772 134.049 59.3684 134.294C59.1228 134.364 58.8772 134.434 58.6315 134.504C56.8772 134.539 55.1228 134.574 53.3684 134.609C49.8245 134.084 46.2807 133.523 42.8421 132.473C41.228 131.772 39.5789 131.037 37.9649 130.337C37.4386 129.811 36.7719 129.601 36.1052 129.321C34.9122 128.376 33.6842 127.5 32.3158 126.8C31.4736 125.644 30.2105 124.979 29.1929 124.033C28.5614 123.333 27.9298 122.668 27.2982 121.967C26.421 120.917 25.5438 119.831 24.6315 118.781C23.6842 117.24 22.7368 115.734 21.7894 114.193C21.7543 113.948 21.8245 113.633 21.4736 113.528C20.7719 111.777 20.0701 110.026 19.3684 108.275C18.9824 106.524 18.5965 104.774 18.2105 103.023C18.1052 101.867 17.9649 100.676 17.8596 99.5209C17.8596 99.0657 17.7543 98.7155 17.5438 98.3653ZM64.1052 125.434C65.4035 125.224 66.5965 124.734 67.6842 124.033C68.2456 123.998 68.6666 123.753 69.0526 123.368C69.4386 123.228 69.8245 123.123 70.1754 122.913C76.0351 119.411 80.421 114.614 83.0175 108.24C83.7544 106.595 84.2807 104.844 84.6315 103.058C85.3684 99.5209 85.3684 95.9491 84.9473 92.3772C84.7719 90.5913 84.5263 88.8404 83.7193 87.2296C83.2982 85.3036 82.421 83.5877 81.3684 81.9419C81.0175 80.8563 80.3508 79.9459 79.5789 79.1405C79.0877 78.195 78.421 77.4246 77.6491 76.6892C76.7368 75.4286 75.5789 74.378 74.3158 73.5026C71.2631 70.7712 67.7544 68.8802 63.7894 67.8997C62.1052 67.1293 60.3158 66.9542 58.5263 66.8492C56.7719 66.3239 55.0175 66.6391 53.228 66.6391C51.4736 66.9542 49.614 66.8142 47.9649 67.6196C46.0701 67.7597 44.3859 68.5651 42.7017 69.4055C41.3684 69.8257 40.1754 70.4911 39.1579 71.4365C38.3859 71.4715 38.0351 72.1369 37.4736 72.5221C35.6842 73.6076 34.2456 75.1134 32.8772 76.6892C32.4912 76.8293 32.3859 77.1795 32.2105 77.4946C30.9122 78.7903 29.9298 80.3311 29.0877 81.9419C27.228 85.1986 25.9649 88.7004 25.5789 92.4473C25.1929 94.1632 25.0526 95.914 25.228 97.7C25.4386 101.342 25.8947 104.914 27.614 108.205C29.1228 112.372 31.6491 115.839 34.9122 118.746C35.5789 119.656 36.4561 120.251 37.4035 120.847C39.0175 122.177 40.7368 123.228 42.7017 123.928C44.421 124.909 46.2807 125.539 48.2456 125.889C49.8596 126.38 51.5438 126.66 53.228 126.695C54.8772 126.695 56.4912 126.695 58.1403 126.695C60.1403 126.31 62.2456 126.345 64.1052 125.434ZM70.8421 170.817C72.7017 170.712 74.7017 170.397 76.5263 169.417C87.0526 163.814 97.614 158.246 108.14 152.573C113.193 149.842 115.86 143.328 114.456 137.795C112.175 128.831 102.947 124.489 94.6666 128.761C84.3158 134.084 74.0351 139.546 63.7544 145.044C58.4912 147.846 55.7193 154.534 57.1929 160.242C58.8421 166.51 64.3158 170.817 70.8421 170.817Z" fill="#004357"/>
    <path d="M93.2983 103.023C94.0001 103.023 94.6667 103.023 95.3685 103.023C95.3685 104.774 95.3685 106.525 95.3685 108.276C94.6667 108.276 94.0001 108.276 93.2983 108.276C93.2983 106.525 93.2983 104.774 93.2983 103.023Z" fill="#E7E6E7"/>
    <path d="M92.7018 156.741C92.6667 158.456 91.7895 159.297 90.5264 159.577C89.2281 159.892 88.3158 159.052 87.7194 158.001C86.6667 156.145 85.6843 154.219 84.7018 152.328C82.9825 149.002 81.2281 145.675 79.5088 142.348C78.7018 140.772 79.0878 139.162 80.4211 138.496C81.6141 137.866 83.2632 138.461 84.0351 139.897C86.772 145.045 89.5088 150.192 92.2106 155.375C92.4562 155.9 92.5965 156.46 92.7018 156.741Z" fill="#004357"/>
  </g>
  <defs>
    <clipPath id="clip0_161_6605">
      <rect width="120" height="176" fill="white"/>
    </clipPath>
  </defs>
</svg>
