<svg width="162" height="91" viewBox="0 0 162 91" fill="none" xmlns="http://www.w3.org/2000/svg">
  <path d="M26.5503 15.1543H3.79297V90.9998H26.5503V15.1543Z" fill="#C7D1D6"/>
  <path d="M24.0703 18.9434H6.27295V87.2116H24.0703V18.9434Z" fill="white"/>
  <path d="M0 15.1545V2.25861C0 1.02002 1.02116 0 2.26114 0H28.0819C29.3219 0 30.3431 1.02002 30.3431 2.25861V15.1545H0Z" fill="#698490"/>
  <path d="M30.3431 12.5312H0" stroke="#002F43" stroke-width="0.5" stroke-miterlimit="10"/>
  <path d="M3.35522 2.5498V12.5314" stroke="#002F43" stroke-width="0.5" stroke-miterlimit="10"/>
  <path d="M6.27295 2.5498V12.5314" stroke="#002F43" stroke-width="0.5" stroke-miterlimit="10"/>
  <path d="M9.26343 2.5498V12.5314" stroke="#002F43" stroke-width="0.5" stroke-miterlimit="10"/>
  <path d="M12.1809 2.5498V12.5314" stroke="#002F43" stroke-width="0.5" stroke-miterlimit="10"/>
  <path d="M15.1716 2.5498V12.5314" stroke="#002F43" stroke-width="0.5" stroke-miterlimit="10"/>
  <path d="M18.1621 2.5498V12.5314" stroke="#002F43" stroke-width="0.5" stroke-miterlimit="10"/>
  <path d="M21.0796 2.5498V12.5314" stroke="#002F43" stroke-width="0.5" stroke-miterlimit="10"/>
  <path d="M24.0703 2.5498V12.5314" stroke="#002F43" stroke-width="0.5" stroke-miterlimit="10"/>
  <path d="M27.0608 2.5498V12.5314" stroke="#002F43" stroke-width="0.5" stroke-miterlimit="10"/>
  <path d="M70.4602 15.1543H47.7029V90.9998H70.4602V15.1543Z" fill="#C7D1D6"/>
  <path d="M67.9802 18.9434H50.1829V87.2116H67.9802V18.9434Z" fill="white"/>
  <path d="M43.9099 15.1545V2.25861C43.9099 1.02002 44.9311 0 46.1711 0H71.9919C73.2318 0 74.253 1.02002 74.253 2.25861V15.1545H43.9099Z" fill="#698490"/>
  <path d="M74.253 12.5312H43.9099" stroke="#002F43" stroke-width="0.5" stroke-miterlimit="10"/>
  <path d="M47.1921 2.5498V12.5314" stroke="#002F43" stroke-width="0.5" stroke-miterlimit="10"/>
  <path d="M50.1829 2.5498V12.5314" stroke="#002F43" stroke-width="0.5" stroke-miterlimit="10"/>
  <path d="M53.1003 2.5498V12.5314" stroke="#002F43" stroke-width="0.5" stroke-miterlimit="10"/>
  <path d="M56.0911 2.5498V12.5314" stroke="#002F43" stroke-width="0.5" stroke-miterlimit="10"/>
  <path d="M59.0815 2.5498V12.5314" stroke="#002F43" stroke-width="0.5" stroke-miterlimit="10"/>
  <path d="M61.999 2.5498V12.5314" stroke="#002F43" stroke-width="0.5" stroke-miterlimit="10"/>
  <path d="M64.9897 2.5498V12.5314" stroke="#002F43" stroke-width="0.5" stroke-miterlimit="10"/>
  <path d="M67.9802 2.5498V12.5314" stroke="#002F43" stroke-width="0.5" stroke-miterlimit="10"/>
  <path d="M70.8977 2.5498V12.5314" stroke="#002F43" stroke-width="0.5" stroke-miterlimit="10"/>
  <path d="M114.297 15.1543H91.5398V90.9998H114.297V15.1543Z" fill="#C7D1D6"/>
  <path d="M111.817 18.9434H94.0198V87.2116H111.817V18.9434Z" fill="white"/>
  <path d="M87.7471 15.1545V2.25861C87.7471 1.02002 88.7682 0 90.0082 0H115.829C117.069 0 118.09 1.02002 118.09 2.25861V15.1545H87.7471Z" fill="#698490"/>
  <path d="M118.09 12.5312H87.7471" stroke="#002F43" stroke-width="0.5" stroke-miterlimit="10"/>
  <path d="M91.1023 2.5498V12.5314" stroke="#002F43" stroke-width="0.5" stroke-miterlimit="10"/>
  <path d="M94.0198 2.5498V12.5314" stroke="#002F43" stroke-width="0.5" stroke-miterlimit="10"/>
  <path d="M97.0103 2.5498V12.5314" stroke="#002F43" stroke-width="0.5" stroke-miterlimit="10"/>
  <path d="M100.001 2.5498V12.5314" stroke="#002F43" stroke-width="0.5" stroke-miterlimit="10"/>
  <path d="M102.918 2.5498V12.5314" stroke="#002F43" stroke-width="0.5" stroke-miterlimit="10"/>
  <path d="M105.909 2.5498V12.5314" stroke="#002F43" stroke-width="0.5" stroke-miterlimit="10"/>
  <path d="M108.9 2.5498V12.5314" stroke="#002F43" stroke-width="0.5" stroke-miterlimit="10"/>
  <path d="M111.817 2.5498V12.5314" stroke="#002F43" stroke-width="0.5" stroke-miterlimit="10"/>
  <path d="M114.808 2.5498V12.5314" stroke="#002F43" stroke-width="0.5" stroke-miterlimit="10"/>
  <path d="M158.207 15.1543H135.45V90.9998H158.207V15.1543Z" fill="#C7D1D6"/>
  <path d="M155.727 18.9434H137.93V87.2116H155.727V18.9434Z" fill="white"/>
  <path d="M131.657 15.1545V2.25861C131.657 1.02002 132.678 0 133.918 0H159.739C160.979 0 162 1.02002 162 2.25861V15.1545H131.657Z" fill="#698490"/>
  <path d="M162 12.5312H131.657" stroke="#002F43" stroke-width="0.5" stroke-miterlimit="10"/>
  <path d="M134.939 2.5498V12.5314" stroke="#002F43" stroke-width="0.5" stroke-miterlimit="10"/>
  <path d="M137.93 2.5498V12.5314" stroke="#002F43" stroke-width="0.5" stroke-miterlimit="10"/>
  <path d="M140.92 2.5498V12.5314" stroke="#002F43" stroke-width="0.5" stroke-miterlimit="10"/>
  <path d="M143.838 2.5498V12.5314" stroke="#002F43" stroke-width="0.5" stroke-miterlimit="10"/>
  <path d="M146.828 2.5498V12.5314" stroke="#002F43" stroke-width="0.5" stroke-miterlimit="10"/>
  <path d="M149.819 2.5498V12.5314" stroke="#002F43" stroke-width="0.5" stroke-miterlimit="10"/>
  <path d="M152.737 2.5498V12.5314" stroke="#002F43" stroke-width="0.5" stroke-miterlimit="10"/>
  <path d="M155.727 2.5498V12.5314" stroke="#002F43" stroke-width="0.5" stroke-miterlimit="10"/>
  <path d="M158.645 2.5498V12.5314" stroke="#002F43" stroke-width="0.5" stroke-miterlimit="10"/>
</svg>
