<svg width="95" height="136" viewBox="0 0 95 136" fill="none" xmlns="http://www.w3.org/2000/svg">
  <path d="M93.0705 47.0353C93.0705 21.5777 72.434 1 47.0353 1C21.6365 1 1 21.5777 1 47.0353C1 70.4938 18.5792 89.8957 41.3323 92.7177V105.182H22.8124V116.588H41.2735V134.402H52.7382V116.588H71.1994V105.182H52.7382V92.7177C75.4325 89.8957 93.0705 70.4938 93.0705 47.0353ZM47.0353 84.3691C26.3988 84.3691 9.64263 67.6129 9.64263 46.9765C9.64263 26.34 26.3988 9.58384 47.0353 9.58384C67.6718 9.58384 84.4279 26.34 84.4279 46.9765C84.4279 67.6129 67.6718 84.3691 47.0353 84.3691Z" stroke="#004357" stroke-width="2" stroke-miterlimit="10"/>
</svg>
