<svg width="176" height="161" viewBox="0 0 176 161" fill="none" xmlns="http://www.w3.org/2000/svg">
  <g clip-path="url(#clip0_107_36)">
    <path d="M117.127 147.509C116.406 147.509 115.685 147.509 114.998 147.475V143.88C114.998 142.887 114.139 142.133 113.005 142.133L107.75 142.099V139.223C107.75 138.093 106.823 137.168 105.689 137.134L99.0258 137.066C99.0258 137.066 99.0258 137.066 98.9914 137.066C98.4419 137.066 97.9266 137.271 97.5145 137.648C97.1023 138.024 96.8962 138.572 96.8962 139.12V147.612H89.7518V139.12C89.7518 138.572 89.5457 138.024 89.1335 137.648C88.7213 137.271 88.2061 137.066 87.6565 137.066L80.993 137.134C79.8595 137.134 78.9321 138.093 78.9321 139.223V142.099L73.6768 142.133C72.5433 142.133 71.6846 142.887 71.6846 143.88V147.475C70.9633 147.475 70.242 147.475 69.5551 147.509C67.5629 147.543 67.5629 150.625 69.5551 150.591C70.2764 150.591 70.9977 150.591 71.6846 150.557V154.186C71.6846 155.145 72.5777 155.932 73.6768 155.932H78.9321V158.877C78.9321 160.007 79.8595 160.966 81.0273 160.966H87.6909C88.8244 160.966 89.7861 160.041 89.7861 158.877V150.385H96.9305V158.877C96.9305 160.007 97.8579 160.966 99.0258 160.966H105.689C106.823 160.966 107.785 160.041 107.785 158.877V155.932H113.04C114.173 155.932 115.032 155.179 115.032 154.186V150.557C115.753 150.557 116.475 150.557 117.162 150.591C119.119 150.625 119.119 147.543 117.127 147.509ZM74.4325 153.227V144.941L78.9321 144.907V153.227H74.4325ZM87.0039 158.261H81.68V154.289C81.68 154.255 81.68 154.255 81.68 154.22V143.88V143.845V139.942L87.0039 139.873V158.261ZM99.6784 158.261V139.873L105.002 139.942V143.845V143.88V154.22C105.002 154.255 105.002 154.255 105.002 154.289V158.261H99.6784ZM112.25 153.227H107.75V144.907L112.25 144.941V153.227Z" fill="#004357"/>
    <path d="M44.687 71.118V71.0153C43.6909 66.0161 41.4239 62.4208 37.9547 60.3664C34.1764 58.1065 29.9859 58.2435 27.6503 58.5859C27.5816 56.3602 30.1233 53.2101 31.1194 52.0459C32.6995 50.1627 29.9859 47.4234 28.3716 49.3066C26.4137 51.6008 24.0094 54.9906 23.8376 58.2777C17.861 57.3532 13.8423 59.9213 11.4379 62.4551C9.10226 64.8862 7.90008 67.6597 7.4879 68.7896H2.33568C1.03045 68.7896 0 69.8511 0 71.118V79.7809C0 81.0821 1.06479 82.1093 2.33568 82.1093H10.0297C11.2319 88.8889 19.4067 93.4772 19.7845 93.6826L20.815 94.2647L21.5363 93.3402C23.3911 90.9434 29.4707 92.5869 31.4629 93.3402L32.1155 93.5799L32.6995 93.2375C46.2326 84.8828 44.7557 71.7001 44.687 71.118ZM2.74785 71.5289H7.62529C7.62529 72.2822 7.62529 73.0012 7.59094 73.7545C7.5566 75.7405 10.6479 75.7405 10.6823 73.7545C10.6823 73.0012 10.6823 72.2822 10.7166 71.5289H16.8993C16.8993 72.2479 16.8993 72.967 16.8649 73.686C16.8306 75.672 19.9219 75.672 19.9563 73.686C19.9563 72.967 19.9563 72.2479 19.9906 71.5289H25.9672C25.9672 72.111 25.9672 72.6588 25.9672 73.2409C25.9329 75.2269 29.0242 75.2269 29.0585 73.2409C29.0585 72.6588 29.0585 72.111 29.0585 71.5289H34.2108V79.4042H2.74785V71.5289ZM31.7721 90.5325C30.9133 90.2243 29.299 89.745 27.4785 89.5053C23.7346 88.9574 21.5363 89.745 20.2311 90.7722C18.3076 89.5395 13.808 86.2524 12.8119 82.1435H34.5886C35.8938 82.1435 36.9243 81.0821 36.9243 79.8151V71.1522C36.9243 69.8511 35.8595 68.8239 34.5886 68.8239H10.4762C11.8158 65.9134 15.8002 59.3392 24.3528 61.2224C24.4215 61.3594 24.4902 61.4621 24.5589 61.5991C25.4176 63.1399 27.3755 62.592 27.9594 61.3594C29.8486 61.0855 33.4551 60.88 36.5121 62.7633C39.26 64.4068 41.0804 67.3857 41.9391 71.5631C42.0422 72.2822 42.9009 83.3077 31.7721 90.5325Z" fill="#004357"/>
    <path d="M157.692 94.4702C148.762 94.436 140.93 88.1699 139.11 79.644C137.221 70.7756 141.549 61.9757 149.621 58.2435C150.514 57.8326 151.372 57.5929 152.197 58.312C152.987 58.9968 152.884 59.8186 152.643 60.7431C149.827 71.0153 157.589 80.7397 168.272 80.2261C169.852 80.1576 171.466 79.644 173.012 79.1646C173.905 78.8907 174.729 78.6852 175.485 79.4043C176.275 80.1233 176.137 81.0136 175.828 81.9381C173.08 89.4026 165.799 94.5044 157.692 94.4702ZM148.144 63.7905C143.816 66.9749 141.377 73.2067 143.06 79.4043C144.777 85.7731 150.17 89.9504 155.975 90.464C162.089 91.0119 168.512 87.9302 170.161 83.9583C157.692 85.8073 147.319 75.2612 148.144 63.7905Z" fill="#004357"/>
    <path d="M170.229 67.8309C171.363 67.8309 172.496 67.8309 173.664 67.8309C175.004 67.8309 175.863 68.55 175.897 69.6799C175.931 70.8441 175.107 71.6316 173.699 71.6659C170.71 71.7001 167.722 71.6659 164.734 71.6659C163.772 71.6659 162.982 71.3235 162.673 70.3647C162.329 69.3717 162.742 68.6869 163.532 68.0706C165.146 66.8037 166.76 65.5025 168.34 63.9959C167.344 63.9959 166.348 63.9959 165.386 63.9959C164.081 63.9959 163.222 63.2426 163.222 62.1127C163.222 61.0512 164.081 60.2637 165.352 60.2637C168.203 60.2295 171.054 60.2637 173.905 60.2637C174.798 60.2637 175.519 60.5719 175.828 61.4621C176.137 62.3866 175.863 63.1742 175.073 63.7905C173.458 65.0574 171.844 66.3585 170.229 67.6597C170.161 67.6597 170.195 67.7624 170.229 67.8309Z" fill="#004357"/>
    <path d="M111.185 64.5095H105.002C104.693 64.5095 104.384 64.578 104.109 64.6807C103.731 64.441 103.285 64.3041 102.838 64.3041L83.7408 64.441C83.3287 64.441 82.9508 64.5438 82.6417 64.715C82.3669 64.6122 82.0921 64.5438 81.783 64.5438H75.6003C74.2951 64.5438 73.2646 65.6052 73.2646 66.8721V92.4157C73.2646 93.7169 74.3294 94.7441 75.6003 94.7441H81.4052V124.123C81.4052 125.424 82.47 126.451 83.7408 126.451H89.3739C90.6792 126.451 91.7096 125.39 91.7096 124.123V100.873H94.8353V124.534C94.8353 125.835 95.9001 126.862 97.171 126.862H102.804C104.109 126.862 105.14 125.8 105.14 124.534V94.6756H111.116C112.422 94.6756 113.452 93.6142 113.452 92.3473V66.8037C113.555 65.571 112.49 64.5095 111.185 64.5095ZM81.4052 92.0733H76.0125V67.3173H81.4052V92.0733ZM102.461 124.225H97.6518V100.565C97.6518 99.2639 96.5871 98.2367 95.3162 98.2367H91.3661C90.0609 98.2367 89.0305 99.2981 89.0305 100.565V123.814H84.2217V67.2145L102.495 67.0776V124.225H102.461ZM110.807 92.0048H105.415V67.2488H110.807V92.0048Z" fill="#004357"/>
    <path d="M92.4996 42.39C87.0726 42.39 82.6417 46.8071 82.6417 52.2171C82.6417 57.6271 87.0726 62.0442 92.4996 62.0442C97.9267 62.0442 102.358 57.6271 102.358 52.2171C102.358 46.8071 97.9267 42.39 92.4996 42.39ZM92.4996 59.3049C88.5839 59.3049 85.3896 56.1206 85.3896 52.2171C85.3896 48.3137 88.5839 45.1293 92.4996 45.1293C96.4153 45.1293 99.6097 48.3137 99.6097 52.2171C99.6097 56.1206 96.4153 59.3049 92.4996 59.3049Z" fill="#004357"/>
    <path d="M121.833 140.969L122.554 144.462C139.213 136.004 152.059 121.178 157.864 103.202H154.223C148.659 119.5 136.946 133.025 121.833 140.969Z" fill="#004357"/>
    <path d="M150.926 52.1144H154.738C147.869 37.3224 136.019 25.3039 121.352 18.2161L119.841 21.2977C133.34 27.8035 144.331 38.692 150.926 52.1144Z" fill="#004357"/>
    <path d="M26.036 100.531L22.4637 100.565C28.0625 120.493 42.2483 136.929 60.7963 145.523L62.2389 142.407C44.8931 134.361 31.5317 119.124 26.036 100.531Z" fill="#004357"/>
    <path d="M65.3989 19.4487L64.025 16.2986C50.8009 21.6744 39.5348 30.9194 31.7034 42.6297L34.726 44.3075C42.1452 33.2478 52.8275 24.5164 65.3989 19.4487Z" fill="#004357"/>
    <path d="M112.25 10.0325C112.009 7.5672 111.082 5.41003 109.399 3.62951C106.582 0.65057 103.113 -0.445134 99.0945 0.20544C97.2054 0.513607 95.5223 1.33538 94.0797 2.60229C93.3584 3.25287 92.7058 3.97192 92.0875 4.58826C91.4692 3.97192 90.851 3.21863 90.0953 2.63653C87.3818 0.342403 84.2218 -0.445134 80.7869 0.239681C76.7682 1.06146 73.986 3.49255 72.509 7.29327C71.5816 9.65589 71.6503 12.0527 72.2343 14.4838C72.9556 17.4285 74.4325 19.9624 76.2873 22.2907C78.0734 24.5506 80.1343 26.5366 82.3326 28.3856C85.3552 30.9536 88.584 33.2135 91.8471 35.4392C92.0531 35.5761 92.1905 35.5419 92.3623 35.4049C93.7362 34.4462 95.1101 33.5217 96.4497 32.5287C99.3349 30.44 102.152 28.2829 104.693 25.7833C107.166 23.3864 109.365 20.7499 110.842 17.5997C111.906 15.2029 112.49 12.7033 112.25 10.0325ZM80.993 2.49957C84.8057 1.71203 87.9314 3.01318 90.267 6.16333C90.851 6.98511 91.4349 7.80689 92.0531 8.6629C92.534 7.97809 93.0149 7.36176 93.4271 6.67694C94.4232 5.17035 95.6253 3.90344 97.3084 3.15014C100.606 1.67779 103.697 1.98596 106.617 4.14313C108.369 5.44427 109.433 7.22479 109.914 9.34772C110.258 10.8543 110.12 12.3609 109.742 13.8675C109.742 13.9017 109.708 13.9702 109.708 14.0045H103.869L99.3006 3.76648L93.5301 20.9896L86.6605 7.25903L80.4435 14.9974H74.6386C74.3982 14.2099 74.1921 13.4224 74.0891 12.5663C73.4021 7.80689 76.356 3.45831 80.993 2.49957ZM101.258 25.886C98.4076 28.4198 94.7666 31.0221 91.9844 32.8711C90.0609 31.4672 88.1375 30.0976 86.214 28.6595C83.9126 26.9475 81.7487 25.0642 79.7565 22.9755C78.1421 21.2635 76.7339 19.4487 75.6347 17.3601C75.566 17.2573 75.5317 17.1546 75.4973 17.0519H81.4396L86.2483 11.0598L93.9079 26.3311L99.541 9.45044L102.461 16.0589H108.987C108.334 17.6682 107.372 19.1748 106.308 20.5787C104.796 22.5304 103.079 24.2767 101.258 25.886Z" fill="#004357"/>
  </g>
  <defs>
    <clipPath id="clip0_107_36">
      <rect width="176" height="161" fill="white"/>
    </clipPath>
  </defs>
</svg>
