<svg width="124" height="136" viewBox="0 0 124 136" fill="none" xmlns="http://www.w3.org/2000/svg">
  <path d="M39.3429 26.3496H8.625C4.44214 26.3496 1 29.8024 1 33.9983V127.093C1 131.289 4.44214 134.742 8.625 134.742H77.0321C81.215 134.742 84.6571 131.289 84.6571 127.093V109.392" stroke="#004357" stroke-width="2" stroke-miterlimit="10"/>
  <path d="M122.303 34.829L89.7114 1.69931C89.2757 1.26224 88.6657 1 88.0121 1H83.2193H82.9143V41.6472H123V36.5335C123 35.8779 122.739 35.266 122.303 34.829Z" stroke="#004357" stroke-width="2" stroke-miterlimit="10"/>
  <path d="M82.9143 1H46.9679C42.785 1 39.3429 4.45283 39.3429 8.64866V26.3499H44.5714H44.8764H49.6693C50.3229 26.3499 50.9329 26.6121 51.3686 27.0492L83.96 60.1788C84.3957 60.6159 84.6571 61.2278 84.6571 61.8834V66.997V109.392H115.375C119.558 109.392 123 105.94 123 101.744V41.6472H82.9143V1Z" stroke="#004357" stroke-width="2" stroke-miterlimit="10"/>
  <path d="M84.6572 66.9968V61.8831C84.6572 61.2712 84.3957 60.6593 83.96 60.1786L51.3686 27.0489C50.9329 26.6118 50.3229 26.3496 49.6693 26.3496H44.8764H44.5714V66.9968H84.6572Z" stroke="#004357" stroke-width="2" stroke-miterlimit="10"/>
  <path d="M8.32001 81.4202H75.9429" stroke="#004357" stroke-width="2" stroke-miterlimit="10"/>
  <path d="M9.45288 94.6633H74.7665" stroke="#004357" stroke-width="2" stroke-miterlimit="10"/>
  <path d="M8.32001 107.95H75.9429" stroke="#004357" stroke-width="2" stroke-miterlimit="10"/>
  <path d="M9.45288 121.193H74.7665" stroke="#004357" stroke-width="2" stroke-miterlimit="10"/>
  <path d="M84.6571 60.4407H114.286" stroke="#004357" stroke-width="2" stroke-miterlimit="10"/>
  <path d="M85.18 73.6838H113.763" stroke="#004357" stroke-width="2" stroke-miterlimit="10"/>
  <path d="M84.6571 86.9707H114.286" stroke="#004357" stroke-width="2" stroke-miterlimit="10"/>
  <path d="M85.18 100.214H113.763" stroke="#004357" stroke-width="2" stroke-miterlimit="10"/>
</svg>
