<svg width="175" height="159" viewBox="0 0 175 159" fill="none" xmlns="http://www.w3.org/2000/svg">
  <g clip-path="url(#clip0_1248_651)">
    <path d="M28.0876 109.489L25 112.267C30.4781 123.281 38.7948 132.657 48.9542 139.503L51.992 136.725C41.7331 130.077 33.4163 120.602 28.0876 109.489Z" stroke="#004357" stroke-miterlimit="10"/>
    <path d="M120.767 139.157L123.506 142.183C134.213 136.081 143.128 127.25 149.353 116.683L146.514 113.607C140.488 124.274 131.524 133.154 120.767 139.157Z" stroke="#004357" stroke-miterlimit="10"/>
    <path d="M147.51 50.205L150.548 47.4269C144.671 36.6615 136.006 27.5829 125.548 21.084L122.46 23.8621C133.068 30.2122 141.783 39.3405 147.51 50.205Z" stroke="#004357" stroke-miterlimit="10"/>
    <path d="M61.3546 20.2907L58.5159 17.2148C47.3108 22.4239 37.6992 30.5103 30.6275 40.4819L33.3665 43.5081C40.3387 33.3877 50 25.3013 61.3546 20.2907Z" stroke="#004357" stroke-miterlimit="10"/>
    <path d="M149.9 62.2109C149.9 62.2109 144.422 87.0159 172.311 82.0549C172.311 82.0549 164.243 104.181 145.916 91.4808C139.741 87.2144 135.458 69.1563 149.9 62.2109Z" stroke="#004357" stroke-miterlimit="10"/>
    <path d="M161.853 62.2109H174.303C174.303 62.2109 175.299 63.6992 174.303 64.6914C173.307 65.6836 168.825 69.6524 168.825 69.6524H173.805C173.805 69.6524 175.299 71.6368 173.805 73.6212H161.853C161.853 73.6212 160.359 72.629 161.355 70.1485L166.833 66.1797H161.853C161.853 66.1797 160.359 64.6914 161.853 62.2109Z" stroke="#004357" stroke-miterlimit="10"/>
    <path d="M35.1095 88.7023H0.248993V78.2842H8.61553H35.1095V88.7023Z" stroke="#004357" stroke-miterlimit="10"/>
    <path d="M9.96015 78.5322H6.97211V82.501H9.96015V78.5322Z" stroke="#004357" stroke-miterlimit="10"/>
    <path d="M18.9243 78.5322H15.9362V82.501H18.9243V78.5322Z" stroke="#004357" stroke-miterlimit="10"/>
    <path d="M27.8884 78.5322H24.9004V82.501H27.8884V78.5322Z" stroke="#004357" stroke-miterlimit="10"/>
    <path d="M7.86853 78.285C7.86853 78.285 10.2092 64.3942 24.6514 67.8669C24.6514 67.8669 40.0398 64.1958 42.5797 77.7889C43.8247 84.4863 42.8287 89.4473 31.6235 99.6173C31.6235 99.6173 21.6633 96.1446 19.1733 100.61C19.1733 100.61 12.251 97.1864 10.2092 88.7031" stroke="#004357" stroke-miterlimit="10"/>
    <path d="M23.7052 67.7673C23.7052 67.7673 23.6554 57.9942 28.6354 57.002C28.6354 57.002 31.1255 57.4981 29.6315 60.4746C28.1374 63.4512 25.747 66.4774 26.9422 67.42" stroke="#004357" stroke-miterlimit="10"/>
    <path d="M91.3844 54.2238C95.9226 54.2238 99.6016 50.559 99.6016 46.0382C99.6016 41.5174 95.9226 37.8525 91.3844 37.8525C86.8463 37.8525 83.1673 41.5174 83.1673 46.0382C83.1673 50.559 86.8463 54.2238 91.3844 54.2238Z" stroke="#004357" stroke-miterlimit="10"/>
    <path d="M81.4741 59.1846H72.5099V86.9662H81.4741V59.1846Z" stroke="#004357" stroke-miterlimit="10"/>
    <path d="M111.355 59.1846H102.39V86.9662H111.355V59.1846Z" stroke="#004357" stroke-miterlimit="10"/>
    <path d="M88.9442 93.416H94.9203" stroke="#004357" stroke-miterlimit="10"/>
    <path d="M102.39 93.4155V86.9662V59.1846V58.9365H81.4741V59.1846V86.9662V93.4155" stroke="#004357" stroke-miterlimit="10"/>
    <path d="M94.9203 93.416V119.709H102.39V93.416" stroke="#004357" stroke-miterlimit="10"/>
    <path d="M81.4741 93.416V119.709H88.9442V93.416" stroke="#004357" stroke-miterlimit="10"/>
    <path d="M105.279 1.38894C102.241 -0.595459 95.2689 -0.843509 91.982 7.04448C92.0319 7.1437 92.0319 7.1437 91.982 7.04448C91.9322 7.1437 91.9322 7.1437 91.982 7.04448C88.6454 -0.793899 81.6733 -0.545849 78.6354 1.38894C62.1016 12.1543 89.8904 32.544 91.9323 34.0323C94.0239 32.5936 121.813 12.1543 105.279 1.38894Z" stroke="#004357" stroke-miterlimit="10"/>
    <path d="M75.3984 16.2716H80.3785L85.8565 9.32622L93.3267 25.2014L98.8048 5.35742L102.789 15.2794L109.363 15.2298" stroke="#004357" stroke-miterlimit="10"/>
    <path d="M75.8964 17.7599H80.8765L85.4582 11.3106L93.4263 28.178L99.1036 9.32617L102.092 16.2716H108.566" stroke="#004357" stroke-miterlimit="10"/>
    <path d="M86.9522 137.42H78.984V158.752H86.9522V137.42Z" stroke="#004357" stroke-miterlimit="10"/>
    <path d="M104.88 137.42H96.9124V158.752H104.88V137.42Z" stroke="#004357" stroke-miterlimit="10"/>
    <path d="M112.849 142.133H104.88V154.039H112.849V142.133Z" stroke="#004357" stroke-miterlimit="10"/>
    <path d="M78.9841 142.133H71.0159V154.039H78.9841V142.133Z" stroke="#004357" stroke-miterlimit="10"/>
    <path d="M96.9124 146.846H86.9522V149.326H96.9124V146.846Z" stroke="#004357" stroke-miterlimit="10"/>
    <path d="M116.833 146.846H112.849V149.326H116.833V146.846Z" stroke="#004357" stroke-miterlimit="10"/>
    <path d="M71.0159 146.846H67.0319V149.326H71.0159V146.846Z" stroke="#004357" stroke-miterlimit="10"/>
  </g>
  <defs>
    <clipPath id="clip0_1248_651">
      <rect width="175" height="159" fill="white"/>
    </clipPath>
  </defs>
</svg>
