<svg width="373" height="537" viewBox="0 0 373 537" fill="none" xmlns="http://www.w3.org/2000/svg">
  <path d="M25.948 213.75V220.85H37.398V227.45H25.948V235.15H38.898V242H17.398V206.9H38.898V213.75H25.948ZM56.0106 242.4C53.5772 242.4 51.4106 241.983 49.5106 241.15C47.6106 240.317 46.1106 239.183 45.0106 237.75C43.9106 236.283 43.2939 234.65 43.1606 232.85H51.6106C51.7106 233.817 52.1606 234.6 52.9606 235.2C53.7606 235.8 54.7439 236.1 55.9106 236.1C56.9772 236.1 57.7939 235.9 58.3606 235.5C58.9606 235.067 59.2606 234.517 59.2606 233.85C59.2606 233.05 58.8439 232.467 58.0106 232.1C57.1772 231.7 55.8272 231.267 53.9606 230.8C51.9606 230.333 50.2939 229.85 48.9606 229.35C47.6272 228.817 46.4772 228 45.5106 226.9C44.5439 225.767 44.0606 224.25 44.0606 222.35C44.0606 220.75 44.4939 219.3 45.3606 218C46.2606 216.667 47.5606 215.617 49.2606 214.85C50.9939 214.083 53.0439 213.7 55.4106 213.7C58.9106 213.7 61.6606 214.567 63.6606 216.3C65.6939 218.033 66.8606 220.333 67.1606 223.2H59.2606C59.1272 222.233 58.6939 221.467 57.9606 220.9C57.2606 220.333 56.3272 220.05 55.1606 220.05C54.1606 220.05 53.3939 220.25 52.8606 220.65C52.3272 221.017 52.0606 221.533 52.0606 222.2C52.0606 223 52.4772 223.6 53.3106 224C54.1772 224.4 55.5106 224.8 57.3106 225.2C59.3772 225.733 61.0606 226.267 62.3606 226.8C63.6606 227.3 64.7939 228.133 65.7606 229.3C66.7606 230.433 67.2772 231.967 67.3106 233.9C67.3106 235.533 66.8439 237 65.9106 238.3C65.0106 239.567 63.6939 240.567 61.9606 241.3C60.2606 242.033 58.2772 242.4 56.0106 242.4ZM88.3033 234.75V242H83.9533C80.8533 242 78.4366 241.25 76.7033 239.75C74.9699 238.217 74.1033 235.733 74.1033 232.3V221.2H70.7033V214.1H74.1033V207.3H82.6533V214.1H88.2533V221.2H82.6533V232.4C82.6533 233.233 82.8533 233.833 83.2533 234.2C83.6533 234.567 84.3199 234.75 85.2533 234.75H88.3033ZM97.5776 211.2C96.0776 211.2 94.8442 210.767 93.8776 209.9C92.9442 209 92.4776 207.9 92.4776 206.6C92.4776 205.267 92.9442 204.167 93.8776 203.3C94.8442 202.4 96.0776 201.95 97.5776 201.95C99.0442 201.95 100.244 202.4 101.178 203.3C102.144 204.167 102.628 205.267 102.628 206.6C102.628 207.9 102.144 209 101.178 209.9C100.244 210.767 99.0442 211.2 97.5776 211.2ZM101.828 214.1V242H93.2776V214.1H101.828ZM116.785 205V242H108.235V205H116.785ZM135.893 242.4C133.16 242.4 130.693 241.817 128.493 240.65C126.327 239.483 124.61 237.817 123.343 235.65C122.11 233.483 121.493 230.95 121.493 228.05C121.493 225.183 122.127 222.667 123.393 220.5C124.66 218.3 126.393 216.617 128.593 215.45C130.793 214.283 133.26 213.7 135.993 213.7C138.727 213.7 141.193 214.283 143.393 215.45C145.593 216.617 147.327 218.3 148.593 220.5C149.86 222.667 150.493 225.183 150.493 228.05C150.493 230.917 149.843 233.45 148.543 235.65C147.277 237.817 145.527 239.483 143.293 240.65C141.093 241.817 138.627 242.4 135.893 242.4ZM135.893 235C137.527 235 138.91 234.4 140.043 233.2C141.21 232 141.793 230.283 141.793 228.05C141.793 225.817 141.227 224.1 140.093 222.9C138.993 221.7 137.627 221.1 135.993 221.1C134.327 221.1 132.943 221.7 131.843 222.9C130.743 224.067 130.193 225.783 130.193 228.05C130.193 230.283 130.727 232 131.793 233.2C132.893 234.4 134.26 235 135.893 235ZM164.349 228C164.349 225.133 164.882 222.617 165.949 220.45C167.049 218.283 168.532 216.617 170.399 215.45C172.265 214.283 174.349 213.7 176.649 213.7C178.482 213.7 180.149 214.083 181.649 214.85C183.182 215.617 184.382 216.65 185.249 217.95V205H193.799V242H185.249V238C184.449 239.333 183.299 240.4 181.799 241.2C180.332 242 178.615 242.4 176.649 242.4C174.349 242.4 172.265 241.817 170.399 240.65C168.532 239.45 167.049 237.767 165.949 235.6C164.882 233.4 164.349 230.867 164.349 228ZM185.249 228.05C185.249 225.917 184.649 224.233 183.449 223C182.282 221.767 180.849 221.15 179.149 221.15C177.449 221.15 175.999 221.767 174.799 223C173.632 224.2 173.049 225.867 173.049 228C173.049 230.133 173.632 231.833 174.799 233.1C175.999 234.333 177.449 234.95 179.149 234.95C180.849 234.95 182.282 234.333 183.449 233.1C184.649 231.867 185.249 230.183 185.249 228.05ZM226.496 227.6C226.496 228.4 226.446 229.233 226.346 230.1H206.996C207.129 231.833 207.679 233.167 208.646 234.1C209.646 235 210.863 235.45 212.296 235.45C214.429 235.45 215.913 234.55 216.746 232.75H225.846C225.379 234.583 224.529 236.233 223.296 237.7C222.096 239.167 220.579 240.317 218.746 241.15C216.913 241.983 214.863 242.4 212.596 242.4C209.863 242.4 207.429 241.817 205.296 240.65C203.163 239.483 201.496 237.817 200.296 235.65C199.096 233.483 198.496 230.95 198.496 228.05C198.496 225.15 199.079 222.617 200.246 220.45C201.446 218.283 203.113 216.617 205.246 215.45C207.379 214.283 209.829 213.7 212.596 213.7C215.296 213.7 217.696 214.267 219.796 215.4C221.896 216.533 223.529 218.15 224.696 220.25C225.896 222.35 226.496 224.8 226.496 227.6ZM217.746 225.35C217.746 223.883 217.246 222.717 216.246 221.85C215.246 220.983 213.996 220.55 212.496 220.55C211.063 220.55 209.846 220.967 208.846 221.8C207.879 222.633 207.279 223.817 207.046 225.35H217.746ZM274.976 206.9L262.526 242H251.826L239.376 206.9H248.476L257.176 233.4L265.926 206.9H274.976ZM283.061 211.2C281.561 211.2 280.328 210.767 279.361 209.9C278.428 209 277.961 207.9 277.961 206.6C277.961 205.267 278.428 204.167 279.361 203.3C280.328 202.4 281.561 201.95 283.061 201.95C284.528 201.95 285.728 202.4 286.661 203.3C287.628 204.167 288.111 205.267 288.111 206.6C288.111 207.9 287.628 209 286.661 209.9C285.728 210.767 284.528 211.2 283.061 211.2ZM287.311 214.1V242H278.761V214.1H287.311ZM292.019 228C292.019 225.133 292.552 222.617 293.619 220.45C294.719 218.283 296.202 216.617 298.069 215.45C299.936 214.283 302.019 213.7 304.319 213.7C306.152 213.7 307.819 214.083 309.319 214.85C310.852 215.617 312.052 216.65 312.919 217.95V205H321.469V242H312.919V238C312.119 239.333 310.969 240.4 309.469 241.2C308.002 242 306.286 242.4 304.319 242.4C302.019 242.4 299.936 241.817 298.069 240.65C296.202 239.45 294.719 237.767 293.619 235.6C292.552 233.4 292.019 230.867 292.019 228ZM312.919 228.05C312.919 225.917 312.319 224.233 311.119 223C309.952 221.767 308.519 221.15 306.819 221.15C305.119 221.15 303.669 221.767 302.469 223C301.302 224.2 300.719 225.867 300.719 228C300.719 230.133 301.302 231.833 302.469 233.1C303.669 234.333 305.119 234.95 306.819 234.95C308.519 234.95 309.952 234.333 311.119 233.1C312.319 231.867 312.919 230.183 312.919 228.05ZM326.166 228C326.166 225.133 326.7 222.617 327.766 220.45C328.866 218.283 330.35 216.617 332.216 215.45C334.083 214.283 336.166 213.7 338.466 213.7C340.433 213.7 342.15 214.1 343.616 214.9C345.116 215.7 346.266 216.75 347.066 218.05V214.1H355.616V242H347.066V238.05C346.233 239.35 345.066 240.4 343.566 241.2C342.1 242 340.383 242.4 338.416 242.4C336.15 242.4 334.083 241.817 332.216 240.65C330.35 239.45 328.866 237.767 327.766 235.6C326.7 233.4 326.166 230.867 326.166 228ZM347.066 228.05C347.066 225.917 346.466 224.233 345.266 223C344.1 221.767 342.666 221.15 340.966 221.15C339.266 221.15 337.816 221.767 336.616 223C335.45 224.2 334.866 225.867 334.866 228C334.866 230.133 335.45 231.833 336.616 233.1C337.816 234.333 339.266 234.95 340.966 234.95C342.666 234.95 344.1 234.333 345.266 233.1C346.466 231.867 347.066 230.183 347.066 228.05Z" fill="#004357"/>
  <path d="M143.746 454H147.166V439.96H143.746V445.46H138.426V439.96H135.006V454H138.426V448.22H143.746V454ZM160.767 448.42C160.767 444.88 158.247 442.68 154.967 442.68C151.707 442.68 149.167 444.88 149.167 448.42C149.167 451.96 151.647 454.16 154.927 454.16C158.207 454.16 160.767 451.96 160.767 448.42ZM152.647 448.42C152.647 446.52 153.727 445.64 154.967 445.64C156.167 445.64 157.287 446.52 157.287 448.42C157.287 450.3 156.147 451.2 154.927 451.2C153.687 451.2 152.647 450.3 152.647 448.42ZM166.213 448.82C166.213 446.9 167.153 446.34 168.773 446.34H169.713V442.72C168.213 442.72 166.993 443.52 166.213 444.7V442.84H162.793V454H166.213V448.82ZM186.939 454H190.339V447.48C190.339 444.48 188.559 442.72 185.799 442.72C184.179 442.72 182.779 443.62 182.039 444.8C181.279 443.46 179.919 442.72 178.239 442.72C176.779 442.72 175.639 443.34 174.979 444.24V442.84H171.559V454H174.979V447.94C174.979 446.48 175.819 445.68 177.119 445.68C178.419 445.68 179.259 446.48 179.259 447.94V454H182.659V447.94C182.659 446.48 183.499 445.68 184.799 445.68C186.099 445.68 186.939 446.48 186.939 447.94V454ZM203.863 448.42C203.863 444.88 201.343 442.68 198.063 442.68C194.803 442.68 192.263 444.88 192.263 448.42C192.263 451.96 194.743 454.16 198.023 454.16C201.303 454.16 203.863 451.96 203.863 448.42ZM195.743 448.42C195.743 446.52 196.823 445.64 198.063 445.64C199.263 445.64 200.383 446.52 200.383 448.42C200.383 450.3 199.243 451.2 198.023 451.2C196.783 451.2 195.743 450.3 195.743 448.42ZM213.589 454H216.989V447.48C216.989 444.48 215.269 442.72 212.689 442.72C211.189 442.72 209.989 443.38 209.309 444.32V442.84H205.889V454H209.309V447.94C209.309 446.42 210.149 445.58 211.449 445.58C212.749 445.58 213.589 446.42 213.589 447.94V454ZM218.898 448.4C218.898 451.92 221.078 454.16 223.798 454.16C225.458 454.16 226.638 453.4 227.258 452.42V454H230.678V442.84H227.258V444.42C226.658 443.44 225.478 442.68 223.818 442.68C221.078 442.68 218.898 444.88 218.898 448.4ZM227.258 448.42C227.258 450.2 226.118 451.18 224.818 451.18C223.538 451.18 222.378 450.18 222.378 448.4C222.378 446.62 223.538 445.66 224.818 445.66C226.118 445.66 227.258 446.64 227.258 448.42ZM233.364 454H236.784V439.2H233.364V454Z" fill="#919388"/>
  <rect x="185" y="283" width="2" height="65" fill="#004357"/>
  <circle cx="186" cy="283" r="9" fill="#004357"/>
  <circle cx="186" cy="341" r="7" fill="#919388"/>
  <circle cx="186" cy="312" r="7" fill="#919388"/>
  <rect x="185" y="472" width="2" height="59" fill="#004357"/>
  <circle cx="186" cy="472" r="7" fill="#919388"/>
  <circle cx="186" cy="530" r="7" fill="#919388"/>
  <circle cx="186" cy="501" r="7" fill="#919388"/>
  <g clip-path="url(#clip0_1277_369)">
    <path d="M127.088 109.489L124 112.267C129.478 123.281 137.795 132.657 147.954 139.503L150.992 136.725C140.733 130.077 132.416 120.602 127.088 109.489Z" stroke="#004357" stroke-miterlimit="10"/>
    <path d="M219.767 139.157L222.506 142.183C233.213 136.081 242.128 127.25 248.353 116.683L245.514 113.607C239.488 124.274 230.524 133.154 219.767 139.157Z" stroke="#004357" stroke-miterlimit="10"/>
    <path d="M246.51 50.205L249.548 47.4269C243.671 36.6615 235.006 27.5829 224.548 21.084L221.46 23.8621C232.068 30.2122 240.783 39.3405 246.51 50.205Z" stroke="#004357" stroke-miterlimit="10"/>
    <path d="M160.355 20.2907L157.516 17.2148C146.311 22.4239 136.699 30.5103 129.628 40.4819L132.367 43.5081C139.339 33.3877 149 25.3013 160.355 20.2907Z" stroke="#004357" stroke-miterlimit="10"/>
    <path d="M248.9 62.2109C248.9 62.2109 243.422 87.0159 271.311 82.0549C271.311 82.0549 263.243 104.181 244.916 91.4808C238.741 87.2144 234.458 69.1563 248.9 62.2109Z" stroke="#004357" stroke-miterlimit="10"/>
    <path d="M260.853 62.2109H273.303C273.303 62.2109 274.299 63.6992 273.303 64.6914C272.307 65.6836 267.825 69.6524 267.825 69.6524H272.805C272.805 69.6524 274.299 71.6368 272.805 73.6212H260.853C260.853 73.6212 259.359 72.629 260.355 70.1485L265.833 66.1797H260.853C260.853 66.1797 259.359 64.6914 260.853 62.2109Z" stroke="#004357" stroke-miterlimit="10"/>
    <path d="M134.11 88.7023H99.249V78.2842H107.616H134.11V88.7023Z" stroke="#004357" stroke-miterlimit="10"/>
    <path d="M108.96 78.5322H105.972V82.501H108.96V78.5322Z" stroke="#004357" stroke-miterlimit="10"/>
    <path d="M117.924 78.5322H114.936V82.501H117.924V78.5322Z" stroke="#004357" stroke-miterlimit="10"/>
    <path d="M126.888 78.5322H123.9V82.501H126.888V78.5322Z" stroke="#004357" stroke-miterlimit="10"/>
    <path d="M106.869 78.285C106.869 78.285 109.209 64.3942 123.651 67.8669C123.651 67.8669 139.04 64.1958 141.58 77.7889C142.825 84.4863 141.829 89.4473 130.624 99.6173C130.624 99.6173 120.663 96.1446 118.173 100.61C118.173 100.61 111.251 97.1864 109.209 88.7031" stroke="#004357" stroke-miterlimit="10"/>
    <path d="M122.705 67.7673C122.705 67.7673 122.655 57.9942 127.635 57.002C127.635 57.002 130.125 57.4981 128.631 60.4746C127.137 63.4512 124.747 66.4774 125.942 67.42" stroke="#004357" stroke-miterlimit="10"/>
    <path d="M190.384 54.2238C194.923 54.2238 198.602 50.559 198.602 46.0382C198.602 41.5174 194.923 37.8525 190.384 37.8525C185.846 37.8525 182.167 41.5174 182.167 46.0382C182.167 50.559 185.846 54.2238 190.384 54.2238Z" stroke="#004357" stroke-miterlimit="10"/>
    <path d="M180.474 59.1846H171.51V86.9662H180.474V59.1846Z" stroke="#004357" stroke-miterlimit="10"/>
    <path d="M210.355 59.1846H201.39V86.9662H210.355V59.1846Z" stroke="#004357" stroke-miterlimit="10"/>
    <path d="M187.944 93.416H193.92" stroke="#004357" stroke-miterlimit="10"/>
    <path d="M201.39 93.4155V86.9662V59.1846V58.9365H180.474V59.1846V86.9662V93.4155" stroke="#004357" stroke-miterlimit="10"/>
    <path d="M193.92 93.416V119.709H201.39V93.416" stroke="#004357" stroke-miterlimit="10"/>
    <path d="M180.474 93.416V119.709H187.944V93.416" stroke="#004357" stroke-miterlimit="10"/>
    <path d="M204.279 1.38894C201.241 -0.595459 194.269 -0.843509 190.982 7.04448C191.032 7.1437 191.032 7.1437 190.982 7.04448C190.932 7.1437 190.932 7.1437 190.982 7.04448C187.645 -0.793899 180.673 -0.545849 177.635 1.38894C161.102 12.1543 188.89 32.544 190.932 34.0323C193.024 32.5936 220.813 12.1543 204.279 1.38894Z" stroke="#004357" stroke-miterlimit="10"/>
    <path d="M174.398 16.2716H179.378L184.857 9.32622L192.327 25.2014L197.805 5.35742L201.789 15.2794L208.363 15.2298" stroke="#004357" stroke-miterlimit="10"/>
    <path d="M174.896 17.7599H179.876L184.458 11.3106L192.426 28.178L198.104 9.32617L201.092 16.2716H207.566" stroke="#004357" stroke-miterlimit="10"/>
    <path d="M185.952 137.42H177.984V158.752H185.952V137.42Z" stroke="#004357" stroke-miterlimit="10"/>
    <path d="M203.88 137.42H195.912V158.752H203.88V137.42Z" stroke="#004357" stroke-miterlimit="10"/>
    <path d="M211.849 142.133H203.88V154.039H211.849V142.133Z" stroke="#004357" stroke-miterlimit="10"/>
    <path d="M177.984 142.133H170.016V154.039H177.984V142.133Z" stroke="#004357" stroke-miterlimit="10"/>
    <path d="M195.912 146.846H185.952V149.326H195.912V146.846Z" stroke="#004357" stroke-miterlimit="10"/>
    <path d="M215.833 146.846H211.849V149.326H215.833V146.846Z" stroke="#004357" stroke-miterlimit="10"/>
    <path d="M170.016 146.846H166.032V149.326H170.016V146.846Z" stroke="#004357" stroke-miterlimit="10"/>
  </g>
  <path d="M184.897 428.873H149.09C149.036 428.873 149 428.837 149 428.783V367.227C149 367.173 149.036 367.137 149.09 367.137H155.692" stroke="#919388" stroke-miterlimit="10"/>
  <path d="M194.475 367.137H200.861C200.915 367.137 200.951 367.173 200.951 367.227V405.045" stroke="#919388" stroke-miterlimit="10"/>
  <path d="M192.058 381.127H158.921C158.326 381.127 157.839 380.64 157.839 380.044C157.839 379.448 158.326 378.961 158.921 378.961H192.058C192.654 378.961 193.141 379.448 193.141 380.044C193.141 380.64 192.654 381.127 192.058 381.127Z" stroke="#919388" stroke-miterlimit="10"/>
  <path d="M173.659 404.865H158.921C158.326 404.865 157.839 404.378 157.839 403.782C157.839 403.187 158.326 402.699 158.921 402.699H173.659C174.254 402.699 174.741 403.187 174.741 403.782C174.741 404.378 174.254 404.865 173.659 404.865Z" stroke="#919388" stroke-miterlimit="10"/>
  <path d="M179.07 415.516H158.921C158.326 415.516 157.839 415.028 157.839 414.433C157.839 413.837 158.326 413.35 158.921 413.35H179.07C179.666 413.35 180.153 413.837 180.153 414.433C180.153 415.028 179.666 415.516 179.07 415.516Z" stroke="#919388" stroke-miterlimit="10"/>
  <path d="M192.058 393.492H158.921C158.326 393.492 157.839 393.005 157.839 392.409C157.839 391.814 158.326 391.326 158.921 391.326H192.058C192.654 391.326 193.141 391.814 193.141 392.409C193.141 393.005 192.654 393.492 192.058 393.492Z" stroke="#919388" stroke-miterlimit="10"/>
  <path d="M197.019 404.504V370.747C197.019 369.556 196.045 368.581 194.854 368.581H194.493V371.83H155.71V368.599C154.61 368.689 153.726 369.628 153.726 370.747V423.639C153.726 424.83 154.7 425.805 155.891 425.805H182.191" stroke="#919388" stroke-miterlimit="10"/>
  <path d="M155.891 368.581C155.837 368.581 155.765 368.581 155.71 368.599V371.83H194.494V368.581" stroke="#919388" stroke-miterlimit="10"/>
  <path d="M171.133 366.235C171.819 364.538 173.46 363.347 175.409 363.347C177.357 363.347 178.998 364.538 179.684 366.235" stroke="#919388" stroke-miterlimit="10"/>
  <path d="M182.281 366.235C181.452 363.22 178.692 361 175.409 361C172.126 361 169.366 363.22 168.536 366.235" stroke="#919388" stroke-miterlimit="10"/>
  <path d="M179.666 366.235C178.98 364.538 177.339 363.347 175.391 363.347C173.442 363.347 171.801 364.538 171.115 366.235" stroke="#919388" stroke-miterlimit="10"/>
  <path d="M155.71 368.599V366.252L194.457 366.234V371.65" stroke="#919388" stroke-miterlimit="10"/>
  <path d="M155.801 369.609H194.638" stroke="#919388" stroke-miterlimit="10"/>
  <path d="M221.479 411.453L223.951 408.98L219.946 404.972L223.788 401.127L221.335 398.672L217.475 402.517L213.47 398.51L210.999 400.983L215.003 404.99L212.316 407.68C208.618 404.792 203.838 404.016 199.544 405.333C194.926 403.293 189.443 403.889 185.33 407.102L181.127 402.896L185.456 402.806V399.25H175.012V410.785H178.565L178.674 405.351L182.877 409.557C178.601 415.045 178.98 422.988 184.031 428.042C187.765 431.779 193.068 432.952 197.813 431.58C203.008 433.981 209.357 433.024 213.651 428.746C218.719 423.674 219.116 415.677 214.805 410.135L217.493 407.445L221.479 411.453ZM185.889 426.183C181.452 421.742 181.452 414.558 185.889 410.117C188.649 407.355 192.473 406.308 196.027 406.994C195.215 407.518 194.439 408.131 193.736 408.853C188.234 414.359 188.234 423.259 193.736 428.764C193.988 429.017 194.259 429.27 194.548 429.504C191.427 429.667 188.252 428.566 185.889 426.183ZM201.943 410.117C206.381 414.558 206.381 421.742 201.943 426.183C200.789 427.338 199.454 428.187 198.047 428.728C197.181 428.241 196.351 427.609 195.612 426.869C191.156 422.41 191.156 415.171 195.612 410.695C196.73 409.575 198.011 408.745 199.4 408.185C200.302 408.709 201.168 409.341 201.943 410.117ZM211.756 426.887C208.924 429.721 204.992 430.75 201.348 429.992C202.214 429.45 203.026 428.8 203.783 428.042C209.249 422.573 209.249 413.709 203.783 408.258C203.477 407.951 203.17 407.662 202.845 407.391C206.038 407.156 209.303 408.258 211.756 410.713C216.23 415.171 216.23 422.41 211.756 426.887Z" stroke="#919388" stroke-miterlimit="10"/>
  <defs>
    <clipPath id="clip0_1277_369">
      <rect width="175" height="159" fill="white" transform="translate(99)"/>
    </clipPath>
  </defs>
</svg>
