<svg width="481" height="445" viewBox="0 0 481 445" fill="none" xmlns="http://www.w3.org/2000/svg">
  <path d="M473.865 445H7.13473C3.21063 445 0 441.788 0 437.862V7.13808C0 3.21214 3.21063 0 7.13473 0H473.865C477.789 0 481 3.21214 481 7.13808V437.862C481 441.788 477.789 445 473.865 445Z" fill="#1BA795" fill-opacity="0.9"/>
  <path d="M85.9144 167.805C87.163 165.069 88.2926 158.585 87.5197 154.361C86.7468 150.079 85.9144 128.486 88.2926 122.775C90.6709 117.065 87.817 106.596 94.1788 96.2456C100.541 85.8953 115.048 86.3117 115.048 86.3117C115.048 86.3117 128.663 81.8504 130.566 79.1142C132.469 76.3779 131.517 64.4216 131.517 64.4216C127.831 61.6853 127.415 53.5955 127.415 53.5955C127.415 53.5955 127.117 55.0231 125.691 54.0714C124.264 53.1196 123.788 43.5427 124.204 42.7099C124.561 41.8772 126.166 42.1151 126.166 42.1151C126.166 42.1151 123.907 29.6235 127.771 23.1397C131.636 16.7154 140.852 15.7637 144.419 15.7637C148.046 15.7637 157.202 16.7154 161.067 23.1397C164.932 29.564 162.672 42.1151 162.672 42.1151C162.672 42.1151 164.278 41.8177 164.634 42.7099C164.991 43.5427 164.515 53.1196 163.148 54.0714C161.721 55.0231 161.424 53.5955 161.424 53.5955C161.424 53.5955 161.067 61.6259 157.321 64.4216C157.321 64.4216 156.37 76.3779 158.272 79.1142C160.175 81.8504 173.791 86.3117 173.791 86.3117C173.791 86.3117 188.298 85.9548 194.66 96.2456C201.021 106.596 198.168 117.124 200.546 122.775C202.924 128.486 202.032 150.079 201.319 154.361C200.546 158.644 201.675 165.069 202.924 167.805C204.173 170.541 200.367 215.571 200.962 221.757C201.557 227.943 203.519 244.48 202.746 245.907C201.973 247.335 196.978 260.005 191.746 260.778C191.746 260.778 187.941 263.515 186.633 262.682C185.325 261.849 186.93 259.946 186.93 259.946C186.93 259.946 185.86 260.124 185.206 259.47C184.552 258.815 190.2 253.283 190.2 253.283C190.2 253.283 187.347 254.533 186.395 253.402C185.444 252.272 193.708 247.93 195.135 244.658C196.562 241.446 194.66 239.364 194.66 239.364L192.281 240.494C192.281 240.494 190.022 247.989 188.417 248.049C186.811 248.168 185.741 248.168 187.109 239.305C187.109 239.305 185.206 232.761 186.752 229.847C188.238 226.932 189.963 226.159 189.963 223.006C189.963 219.853 185.325 203.555 183.779 194.573C182.293 185.591 185.087 168.043 183.601 164.593C182.114 161.202 180.271 153.112 180.212 147.342C180.093 141.572 178.606 133.899 177.18 131.995C175.753 130.092 177.834 143 174.623 151.268C171.472 159.537 173.672 173.813 175.158 179.999C176.704 186.185 181.698 220.746 182.174 233.356C182.649 245.967 179.023 292.721 179.498 299.443C179.974 306.165 183.185 315.682 183.185 335.014C183.185 354.347 179.974 355.953 177.239 364.043C174.504 372.073 171.769 393.071 172.007 396.937C172.007 396.937 173.672 399.674 173.731 401.28C173.791 402.886 173.731 404.908 174.266 406.871C174.861 408.834 180.628 422.872 178.904 424.895C177.18 426.858 167.131 427.096 163.624 426.798C163.624 426.798 162.791 428.404 159.283 427.869C155.775 427.274 156.251 414.961 157.321 408.537C158.391 402.112 155.359 400.506 156.251 396.402C157.202 392.298 158.986 390.513 159.164 388.729C159.343 386.944 160.77 366.006 158.332 355.834C155.894 345.662 156.251 330.256 158.629 323.415C161.007 316.574 157.5 312.827 154.943 304.559C152.386 296.29 151.078 276.304 151.078 267.5C151.078 258.696 148.165 252.51 146.738 247.394C145.311 242.279 145.489 234.903 145.489 234.903L144.479 234.367L143.349 234.843C143.349 234.843 143.527 242.219 142.1 247.335C140.673 252.451 137.76 258.637 137.76 267.441C137.76 276.244 136.452 296.231 133.895 304.499C131.339 312.767 127.831 316.515 130.209 323.356C132.587 330.196 132.944 345.662 130.506 355.774C128.069 365.887 129.436 386.885 129.674 388.669C129.852 390.454 131.636 392.298 132.587 396.342C133.539 400.447 130.506 402.053 131.517 408.477C132.528 414.902 133.004 427.274 129.555 427.81C126.047 428.404 125.215 426.739 125.215 426.739C121.707 427.036 111.659 426.858 109.935 424.835C108.21 422.872 114.037 408.834 114.572 406.812C115.167 404.849 115.048 402.826 115.107 401.22C115.167 399.614 116.832 396.878 116.832 396.878C117.129 393.011 114.394 372.014 111.599 363.983C108.864 355.953 105.654 354.287 105.654 334.955C105.654 315.623 108.864 306.165 109.34 299.384C109.816 292.662 106.189 245.907 106.665 233.297C107.14 220.686 112.135 186.066 113.68 179.94C115.226 173.753 117.367 159.477 114.215 151.209C111.064 142.941 113.086 130.092 111.659 131.936C110.232 133.839 108.746 141.513 108.627 147.283C108.508 153.053 106.724 161.143 105.238 164.533C103.692 167.924 106.546 185.472 105.059 194.513C103.573 203.495 98.8758 219.794 98.8758 222.947C98.8758 226.099 100.6 226.813 102.086 229.787C103.573 232.702 101.73 239.245 101.73 239.245C103.038 248.049 102.027 248.049 100.422 247.989C98.8164 247.87 96.557 240.435 96.557 240.435L94.1788 239.305C94.1788 239.305 92.2762 241.387 93.7031 244.599C95.1301 247.811 103.394 252.153 102.443 253.343C101.492 254.473 98.638 253.224 98.638 253.224C98.638 253.224 104.346 258.696 103.632 259.41C102.978 260.065 101.908 259.886 101.908 259.886C101.908 259.886 103.513 261.79 102.205 262.622C100.897 263.455 97.0921 260.719 97.0921 260.719C91.86 259.946 86.8657 247.275 86.0928 245.848C85.3198 244.42 87.3413 227.824 87.8764 221.697C88.471 215.63 84.6658 170.601 85.9144 167.805Z" fill="url(#paint0_linear_832_4023)"/>
  <g opacity="0.75">
    <path opacity="0.75" d="M85.9144 167.805C87.163 165.069 88.2926 158.585 87.5197 154.361C86.7468 150.079 85.9144 128.486 88.2926 122.775C90.6709 117.065 87.817 106.596 94.1788 96.2456C100.541 85.8953 115.048 86.3117 115.048 86.3117C115.048 86.3117 128.663 81.8504 130.566 79.1142C132.469 76.3779 131.517 64.4216 131.517 64.4216C127.831 61.6853 127.415 53.5955 127.415 53.5955C127.415 53.5955 127.117 55.0231 125.691 54.0714C124.264 53.1196 123.788 43.5427 124.204 42.7099C124.561 41.8772 126.166 42.1151 126.166 42.1151C126.166 42.1151 123.907 29.6235 127.771 23.1397C131.636 16.7154 140.852 15.7637 144.419 15.7637C148.046 15.7637 157.202 16.7154 161.067 23.1397C164.932 29.564 162.672 42.1151 162.672 42.1151C162.672 42.1151 164.278 41.8177 164.634 42.7099C164.991 43.5427 164.515 53.1196 163.148 54.0714C161.721 55.0231 161.424 53.5955 161.424 53.5955C161.424 53.5955 161.067 61.6259 157.321 64.4216C157.321 64.4216 156.37 76.3779 158.272 79.1142C160.175 81.8504 173.791 86.3117 173.791 86.3117C173.791 86.3117 188.298 85.9548 194.66 96.2456C201.021 106.596 198.168 117.124 200.546 122.775C202.924 128.486 202.032 150.079 201.319 154.361C200.546 158.644 201.675 165.069 202.924 167.805C204.173 170.541 200.367 215.571 200.962 221.757C201.557 227.943 203.519 244.48 202.746 245.907C201.973 247.335 196.978 260.005 191.746 260.778C191.746 260.778 187.941 263.515 186.633 262.682C185.325 261.849 186.93 259.946 186.93 259.946C186.93 259.946 185.86 260.124 185.206 259.47C184.552 258.815 190.2 253.283 190.2 253.283C190.2 253.283 187.347 254.533 186.395 253.402C185.444 252.272 193.708 247.93 195.135 244.658C196.562 241.446 194.66 239.364 194.66 239.364L192.281 240.494C192.281 240.494 190.022 247.989 188.417 248.049C186.811 248.168 185.741 248.168 187.109 239.305C187.109 239.305 185.206 232.761 186.752 229.847C188.238 226.932 189.963 226.159 189.963 223.006C189.963 219.853 185.325 203.555 183.779 194.573C182.293 185.591 185.087 168.043 183.601 164.593C182.114 161.202 180.271 153.112 180.212 147.342C180.093 141.572 178.606 133.899 177.18 131.995C175.753 130.092 177.834 143 174.623 151.268C171.472 159.537 173.672 173.813 175.158 179.999C176.704 186.185 181.698 220.746 182.174 233.356C182.649 245.967 179.023 292.721 179.498 299.443C179.974 306.165 183.185 315.682 183.185 335.014C183.185 354.347 179.974 355.953 177.239 364.043C174.504 372.073 171.769 393.071 172.007 396.937C172.007 396.937 173.672 399.674 173.731 401.28C173.791 402.886 173.731 404.908 174.266 406.871C174.861 408.834 180.628 422.872 178.904 424.895C177.18 426.858 167.131 427.096 163.624 426.798C163.624 426.798 162.791 428.404 159.283 427.869C155.775 427.274 156.251 414.961 157.321 408.537C158.391 402.112 155.359 400.506 156.251 396.402C157.202 392.298 158.986 390.513 159.164 388.729C159.343 386.944 160.77 366.006 158.332 355.834C155.894 345.662 156.251 330.256 158.629 323.415C161.007 316.574 157.5 312.827 154.943 304.559C152.386 296.29 151.078 276.304 151.078 267.5C151.078 258.696 148.165 252.51 146.738 247.394C145.311 242.279 145.489 234.903 145.489 234.903L144.479 234.367L143.349 234.843C143.349 234.843 143.527 242.219 142.1 247.335C140.673 252.451 137.76 258.637 137.76 267.441C137.76 276.244 136.452 296.231 133.895 304.499C131.339 312.767 127.831 316.515 130.209 323.356C132.587 330.196 132.944 345.662 130.506 355.774C128.069 365.887 129.436 386.885 129.674 388.669C129.852 390.454 131.636 392.298 132.587 396.342C133.539 400.447 130.506 402.053 131.517 408.477C132.528 414.902 133.004 427.274 129.555 427.81C126.047 428.404 125.215 426.739 125.215 426.739C121.707 427.036 111.659 426.858 109.935 424.835C108.21 422.872 114.037 408.834 114.572 406.812C115.167 404.849 115.048 402.826 115.107 401.22C115.167 399.614 116.832 396.878 116.832 396.878C117.129 393.011 114.394 372.014 111.599 363.983C108.864 355.953 105.654 354.287 105.654 334.955C105.654 315.623 108.864 306.165 109.34 299.384C109.816 292.662 106.189 245.907 106.665 233.297C107.14 220.686 112.135 186.066 113.68 179.94C115.226 173.753 117.367 159.477 114.215 151.209C111.064 142.941 113.086 130.092 111.659 131.936C110.232 133.839 108.746 141.513 108.627 147.283C108.508 153.053 106.724 161.143 105.238 164.533C103.692 167.924 106.546 185.472 105.059 194.513C103.573 203.495 98.8758 219.794 98.8758 222.947C98.8758 226.099 100.6 226.813 102.086 229.787C103.573 232.702 101.73 239.245 101.73 239.245C103.038 248.049 102.027 248.049 100.422 247.989C98.8164 247.87 96.557 240.435 96.557 240.435L94.1788 239.305C94.1788 239.305 92.2762 241.387 93.7031 244.599C95.1301 247.811 103.394 252.153 102.443 253.343C101.492 254.473 98.638 253.224 98.638 253.224C98.638 253.224 104.346 258.696 103.632 259.41C102.978 260.065 101.908 259.886 101.908 259.886C101.908 259.886 103.513 261.79 102.205 262.622C100.897 263.455 97.0921 260.719 97.0921 260.719C91.86 259.946 86.8657 247.275 86.0928 245.848C85.3198 244.42 87.3413 227.824 87.8764 221.697C88.471 215.63 84.6658 170.601 85.9144 167.805Z" fill="white"/>
  </g>
  <path d="M291.989 226.754C291.989 226.754 294.011 221.341 293.595 197.904C293.238 174.527 295.378 170.184 296.33 165.664C297.221 161.143 298.708 145.737 299.6 127.594C300.491 109.451 302.513 109.451 304.832 105.109C307.21 100.767 325.285 96.6027 327.841 95.4725C330.398 94.4018 333.43 92.0225 333.787 90.0595C334.144 88.037 333.787 78.6386 333.787 78.6386C328.674 73.9393 328.198 66.2064 328.198 66.2064C326.414 66.3254 326.236 63.3512 326.177 62.3994C326.117 61.4477 324.928 57.1053 324.987 54.9639C325.047 52.8225 327.722 53.5363 327.722 53.5363C327.722 36.4644 336.522 34.7988 342.705 34.7988C348.889 34.7988 357.688 36.4644 357.688 53.5363C357.688 53.5363 360.364 52.763 360.423 54.9639C360.483 57.1053 359.294 61.4477 359.234 62.3994C359.175 63.3512 358.996 66.3254 357.213 66.2064C357.213 66.2064 356.678 73.9393 351.624 78.6386C351.624 78.6386 351.267 88.037 351.624 90.0595C351.98 92.0819 355.072 94.4018 357.569 95.4725C360.126 96.5433 378.201 100.707 380.579 105.109C382.957 109.451 384.919 109.451 385.811 127.594C386.703 145.737 388.189 161.143 389.081 165.664C389.973 170.184 392.173 174.527 391.816 197.904C391.459 221.281 393.421 226.754 393.421 226.754C393.421 226.754 396.691 243.052 394.848 246.859C393.065 250.666 390.865 253.403 389.795 253.224C388.724 253.046 389.259 251.023 389.259 251.023C389.259 251.023 384.741 253.938 383.671 253.224C382.6 252.51 382.244 253.046 381.292 251.737C380.4 250.488 382.006 249.179 382.006 249.179C382.006 249.179 380.936 248.822 380.222 247.93C379.509 247.038 385.276 243.766 385.276 239.245C385.276 234.725 384.384 229.609 385.811 224.374C387.238 219.14 379.271 204.09 378.022 188.089C376.774 172.147 378.379 172.326 377.13 167.032C375.882 161.797 370.412 143.119 370.412 136.754C370.412 136.517 370.412 136.279 370.412 136.041C370.412 136.041 368.985 144.904 366.607 147.64C364.228 150.376 362.98 167.746 363.693 169.947C364.407 172.147 377.666 201.652 377.487 221.043C377.309 240.435 368.628 276.72 369.104 283.026C369.52 289.39 371.898 308.604 372.077 324.189C372.255 339.773 361.553 376.416 361.91 392.536C362.266 408.656 368.45 419.006 366.607 421.921C364.823 424.836 358.996 426.62 356.975 426.62C356.975 426.62 355.548 428.405 352.991 427.691C350.435 426.977 349.721 420.791 350.256 414.069C350.791 407.347 350.613 398.484 349.364 394.677C348.116 390.87 353.883 385.814 352.991 379.806C352.099 373.798 354.061 369.099 351.564 353.157C349.008 337.216 349.602 321.095 351.208 313.303C352.813 305.511 349.186 288.439 347.759 283.383C346.332 278.326 342.705 240.792 342.705 240.792C342.705 240.792 339.138 278.326 337.652 283.383C336.225 288.439 332.598 305.511 334.203 313.303C335.808 321.095 336.403 337.216 333.846 353.157C331.29 369.099 333.311 373.798 332.419 379.806C331.528 385.814 337.295 390.87 336.046 394.677C334.798 398.484 334.619 407.347 335.154 414.069C335.69 420.791 334.976 426.918 332.419 427.691C329.863 428.405 328.436 426.62 328.436 426.62C326.414 426.62 320.647 424.836 318.804 421.921C317.02 419.006 323.144 408.715 323.501 392.536C323.858 376.416 313.156 339.773 313.334 324.189C313.512 308.604 315.891 289.39 316.307 283.026C316.723 276.661 308.102 240.435 307.924 221.043C307.745 201.652 320.944 172.088 321.717 169.947C322.431 167.746 321.182 150.376 318.804 147.64C316.426 144.904 314.999 136.041 314.999 136.041C314.999 136.279 314.999 136.517 314.999 136.754C314.999 143.119 309.588 161.797 308.28 167.032C307.032 172.266 308.637 172.088 307.388 188.089C306.14 204.031 298.173 219.08 299.6 224.374C301.027 229.609 300.135 234.725 300.135 239.245C300.135 243.766 305.961 247.038 305.189 247.93C304.475 248.822 303.405 249.179 303.405 249.179C303.405 249.179 305.01 250.428 304.118 251.737C303.226 252.986 302.87 252.451 301.74 253.224C300.67 253.938 296.151 251.023 296.151 251.023C296.151 251.023 296.686 253.046 295.616 253.224C294.546 253.403 292.346 250.666 290.562 246.859C288.719 243.052 291.989 226.754 291.989 226.754Z" fill="url(#paint1_linear_832_4023)"/>
  <g opacity="0.75">
    <path opacity="0.75" d="M291.989 226.754C291.989 226.754 294.011 221.341 293.595 197.904C293.238 174.527 295.378 170.184 296.33 165.664C297.221 161.143 298.708 145.737 299.6 127.594C300.491 109.451 302.513 109.451 304.832 105.109C307.21 100.767 325.285 96.6027 327.841 95.4725C330.398 94.4018 333.43 92.0225 333.787 90.0595C334.144 88.037 333.787 78.6386 333.787 78.6386C328.674 73.9393 328.198 66.2064 328.198 66.2064C326.414 66.3254 326.236 63.3512 326.177 62.3994C326.117 61.4477 324.928 57.1053 324.987 54.9639C325.047 52.8225 327.722 53.5363 327.722 53.5363C327.722 36.4644 336.522 34.7988 342.705 34.7988C348.889 34.7988 357.688 36.4644 357.688 53.5363C357.688 53.5363 360.364 52.763 360.423 54.9639C360.483 57.1053 359.294 61.4477 359.234 62.3994C359.175 63.3512 358.996 66.3254 357.213 66.2064C357.213 66.2064 356.678 73.9393 351.624 78.6386C351.624 78.6386 351.267 88.037 351.624 90.0595C351.98 92.0819 355.072 94.4018 357.569 95.4725C360.126 96.5433 378.201 100.707 380.579 105.109C382.957 109.451 384.919 109.451 385.811 127.594C386.703 145.737 388.189 161.143 389.081 165.664C389.973 170.184 392.173 174.527 391.816 197.904C391.459 221.281 393.421 226.754 393.421 226.754C393.421 226.754 396.691 243.052 394.848 246.859C393.065 250.666 390.865 253.403 389.795 253.224C388.724 253.046 389.259 251.023 389.259 251.023C389.259 251.023 384.741 253.938 383.671 253.224C382.6 252.51 382.244 253.046 381.292 251.737C380.4 250.488 382.006 249.179 382.006 249.179C382.006 249.179 380.936 248.822 380.222 247.93C379.509 247.038 385.276 243.766 385.276 239.245C385.276 234.725 384.384 229.609 385.811 224.374C387.238 219.14 379.271 204.09 378.022 188.089C376.774 172.147 378.379 172.326 377.13 167.032C375.882 161.797 370.412 143.119 370.412 136.754C370.412 136.517 370.412 136.279 370.412 136.041C370.412 136.041 368.985 144.904 366.607 147.64C364.228 150.376 362.98 167.746 363.693 169.947C364.407 172.147 377.666 201.652 377.487 221.043C377.309 240.435 368.628 276.72 369.104 283.026C369.52 289.39 371.898 308.604 372.077 324.189C372.255 339.773 361.553 376.416 361.91 392.536C362.266 408.656 368.45 419.006 366.607 421.921C364.823 424.836 358.996 426.62 356.975 426.62C356.975 426.62 355.548 428.405 352.991 427.691C350.435 426.977 349.721 420.791 350.256 414.069C350.791 407.347 350.613 398.484 349.364 394.677C348.116 390.87 353.883 385.814 352.991 379.806C352.099 373.798 354.061 369.099 351.564 353.157C349.008 337.216 349.602 321.095 351.208 313.303C352.813 305.511 349.186 288.439 347.759 283.383C346.332 278.326 342.705 240.792 342.705 240.792C342.705 240.792 339.138 278.326 337.652 283.383C336.225 288.439 332.598 305.511 334.203 313.303C335.808 321.095 336.403 337.216 333.846 353.157C331.29 369.099 333.311 373.798 332.419 379.806C331.528 385.814 337.295 390.87 336.046 394.677C334.798 398.484 334.619 407.347 335.154 414.069C335.69 420.791 334.976 426.918 332.419 427.691C329.863 428.405 328.436 426.62 328.436 426.62C326.414 426.62 320.647 424.836 318.804 421.921C317.02 419.006 323.144 408.715 323.501 392.536C323.858 376.416 313.156 339.773 313.334 324.189C313.512 308.604 315.891 289.39 316.307 283.026C316.723 276.661 308.102 240.435 307.924 221.043C307.745 201.652 320.944 172.088 321.717 169.947C322.431 167.746 321.182 150.376 318.804 147.64C316.426 144.904 314.999 136.041 314.999 136.041C314.999 136.279 314.999 136.517 314.999 136.754C314.999 143.119 309.588 161.797 308.28 167.032C307.032 172.266 308.637 172.088 307.388 188.089C306.14 204.031 298.173 219.08 299.6 224.374C301.027 229.609 300.135 234.725 300.135 239.245C300.135 243.766 305.961 247.038 305.189 247.93C304.475 248.822 303.405 249.179 303.405 249.179C303.405 249.179 305.01 250.428 304.118 251.737C303.226 252.986 302.87 252.451 301.74 253.224C300.67 253.938 296.151 251.023 296.151 251.023C296.151 251.023 296.686 253.046 295.616 253.224C294.546 253.403 292.346 250.666 290.562 246.859C288.719 243.052 291.989 226.754 291.989 226.754Z" fill="white"/>
  </g>
  <path d="M393.124 218.128H307.924" stroke="#004357" stroke-width="5" stroke-miterlimit="10"/>
  <path d="M80.8008 218.961H180.747" stroke="#004357" stroke-width="5" stroke-miterlimit="10"/>
  <path d="M80.1465 178.393H174.384" stroke="#004357" stroke-width="5" stroke-miterlimit="10"/>
  <path d="M321.42 171.969H394.908" stroke="#004357" stroke-width="5" stroke-miterlimit="10"/>
  <path d="M401.444 172.812C401.444 175.32 403.352 177.072 405.704 177.072C407.444 177.072 408.944 176.208 409.58 174.576H407.936C407.492 175.464 406.7 175.884 405.704 175.884C404.048 175.884 402.848 174.696 402.848 172.812C402.848 170.928 404.048 169.752 405.704 169.752C406.7 169.752 407.492 170.172 407.936 171.06H409.58C408.944 169.428 407.444 168.552 405.704 168.552C403.352 168.552 401.444 170.316 401.444 172.812ZM411.181 177H412.549V170.388H411.181V177ZM411.877 169.512C412.357 169.512 412.741 169.128 412.741 168.636C412.741 168.144 412.357 167.76 411.877 167.76C411.385 167.76 411.001 168.144 411.001 168.636C411.001 169.128 411.385 169.512 411.877 169.512ZM419.037 177H420.393V173.1C420.393 171.252 419.229 170.28 417.681 170.28C416.889 170.28 416.157 170.604 415.713 171.144V170.388H414.345V177H415.713V173.304C415.713 172.092 416.373 171.468 417.381 171.468C418.377 171.468 419.037 172.092 419.037 173.304V177ZM422.354 175.164C422.354 176.508 423.086 177 424.262 177H425.342V175.86H424.502C423.926 175.86 423.734 175.656 423.734 175.164V171.504H425.342V170.388H423.734V168.744H422.354V170.388H421.574V171.504H422.354V175.164ZM432.591 170.388H431.223V174.072C431.223 175.284 430.563 175.908 429.555 175.908C428.559 175.908 427.899 175.284 427.899 174.072V170.388H426.543V174.276C426.543 176.124 427.719 177.096 429.267 177.096C430.047 177.096 430.791 176.772 431.223 176.208V177H432.591V170.388ZM435.764 173.52C435.764 172.116 436.388 171.696 437.396 171.696H437.744V170.28C436.808 170.28 436.148 170.688 435.764 171.348V170.388H434.396V177H435.764V173.52ZM438.546 173.664C438.546 175.704 439.926 177.108 441.642 177.108C442.746 177.108 443.538 176.58 443.958 176.016V177H445.338V170.388H443.958V171.348C443.55 170.808 442.782 170.28 441.666 170.28C439.926 170.28 438.546 171.624 438.546 173.664ZM443.958 173.688C443.958 175.116 442.986 175.92 441.954 175.92C440.934 175.92 439.95 175.092 439.95 173.664C439.95 172.236 440.934 171.468 441.954 171.468C442.986 171.468 443.958 172.272 443.958 173.688Z" fill="black"/>
  <path d="M399.444 217.812C399.444 220.32 401.352 222.072 403.704 222.072C405.444 222.072 406.944 221.208 407.58 219.576H405.936C405.492 220.464 404.7 220.884 403.704 220.884C402.048 220.884 400.848 219.696 400.848 217.812C400.848 215.928 402.048 214.752 403.704 214.752C404.7 214.752 405.492 215.172 405.936 216.06H407.58C406.944 214.428 405.444 213.552 403.704 213.552C401.352 213.552 399.444 215.316 399.444 217.812ZM408.725 218.664C408.725 220.704 410.105 222.108 411.821 222.108C412.925 222.108 413.717 221.58 414.137 221.016V222H415.517V215.388H414.137V216.348C413.729 215.808 412.961 215.28 411.845 215.28C410.105 215.28 408.725 216.624 408.725 218.664ZM414.137 218.688C414.137 220.116 413.165 220.92 412.133 220.92C411.113 220.92 410.129 220.092 410.129 218.664C410.129 217.236 411.113 216.468 412.133 216.468C413.165 216.468 414.137 217.272 414.137 218.688ZM416.858 218.664C416.858 220.704 418.238 222.108 419.978 222.108C421.058 222.108 421.85 221.604 422.27 221.004V222H423.65V213.12H422.27V216.312C421.766 215.688 420.854 215.28 419.99 215.28C418.238 215.28 416.858 216.624 416.858 218.664ZM422.27 218.688C422.27 220.116 421.298 220.92 420.266 220.92C419.246 220.92 418.262 220.092 418.262 218.664C418.262 217.236 419.246 216.468 420.266 216.468C421.298 216.468 422.27 217.272 422.27 218.688ZM428.231 216.432C429.251 216.432 430.055 217.08 430.079 218.1H426.419C426.563 217.056 427.307 216.432 428.231 216.432ZM431.327 220.032H429.851C429.599 220.548 429.131 220.956 428.291 220.956C427.283 220.956 426.503 220.296 426.407 219.204H431.459C431.495 218.976 431.507 218.76 431.507 218.532C431.507 216.588 430.175 215.28 428.291 215.28C426.335 215.28 424.991 216.612 424.991 218.688C424.991 220.764 426.395 222.108 428.291 222.108C429.911 222.108 430.955 221.184 431.327 220.032ZM434.221 218.52C434.221 217.116 434.845 216.696 435.853 216.696H436.201V215.28C435.265 215.28 434.605 215.688 434.221 216.348V215.388H432.853V222H434.221V218.52ZM437.003 218.664C437.003 220.704 438.383 222.108 440.099 222.108C441.203 222.108 441.995 221.58 442.415 221.016V222H443.795V215.388H442.415V216.348C442.007 215.808 441.239 215.28 440.123 215.28C438.383 215.28 437.003 216.624 437.003 218.664ZM442.415 218.688C442.415 220.116 441.443 220.92 440.411 220.92C439.391 220.92 438.407 220.092 438.407 218.664C438.407 217.236 439.391 216.468 440.411 216.468C441.443 216.468 442.415 217.272 442.415 218.688Z" fill="black"/>
  <path d="M31.444 177.812C31.444 180.32 33.352 182.072 35.704 182.072C37.444 182.072 38.944 181.208 39.58 179.576H37.936C37.492 180.464 36.7 180.884 35.704 180.884C34.048 180.884 32.848 179.696 32.848 177.812C32.848 175.928 34.048 174.752 35.704 174.752C36.7 174.752 37.492 175.172 37.936 176.06H39.58C38.944 174.428 37.444 173.552 35.704 173.552C33.352 173.552 31.444 175.316 31.444 177.812ZM41.1813 182H42.5493V175.388H41.1813V182ZM41.8773 174.512C42.3573 174.512 42.7413 174.128 42.7413 173.636C42.7413 173.144 42.3573 172.76 41.8773 172.76C41.3853 172.76 41.0013 173.144 41.0013 173.636C41.0013 174.128 41.3853 174.512 41.8773 174.512ZM49.0373 182H50.3933V178.1C50.3933 176.252 49.2293 175.28 47.6813 175.28C46.8893 175.28 46.1573 175.604 45.7133 176.144V175.388H44.3453V182H45.7133V178.304C45.7133 177.092 46.3733 176.468 47.3813 176.468C48.3773 176.468 49.0373 177.092 49.0373 178.304V182ZM52.3543 180.164C52.3543 181.508 53.0863 182 54.2623 182H55.3423V180.86H54.5023C53.9263 180.86 53.7343 180.656 53.7343 180.164V176.504H55.3423V175.388H53.7343V173.744H52.3543V175.388H51.5743V176.504H52.3543V180.164ZM62.5911 175.388H61.2231V179.072C61.2231 180.284 60.5631 180.908 59.5551 180.908C58.5591 180.908 57.8991 180.284 57.8991 179.072V175.388H56.5431V179.276C56.5431 181.124 57.7191 182.096 59.2671 182.096C60.0471 182.096 60.7911 181.772 61.2231 181.208V182H62.5911V175.388ZM65.7641 178.52C65.7641 177.116 66.3881 176.696 67.3961 176.696H67.7441V175.28C66.8081 175.28 66.1481 175.688 65.7641 176.348V175.388H64.3961V182H65.7641V178.52ZM68.5456 178.664C68.5456 180.704 69.9256 182.108 71.6416 182.108C72.7456 182.108 73.5376 181.58 73.9576 181.016V182H75.3376V175.388H73.9576V176.348C73.5496 175.808 72.7816 175.28 71.6656 175.28C69.9256 175.28 68.5456 176.624 68.5456 178.664ZM73.9576 178.688C73.9576 180.116 72.9856 180.92 71.9536 180.92C70.9336 180.92 69.9496 180.092 69.9496 178.664C69.9496 177.236 70.9336 176.468 71.9536 176.468C72.9856 176.468 73.9576 177.272 73.9576 178.688Z" fill="black"/>
  <path d="M31.444 218.812C31.444 221.32 33.352 223.072 35.704 223.072C37.444 223.072 38.944 222.208 39.58 220.576H37.936C37.492 221.464 36.7 221.884 35.704 221.884C34.048 221.884 32.848 220.696 32.848 218.812C32.848 216.928 34.048 215.752 35.704 215.752C36.7 215.752 37.492 216.172 37.936 217.06H39.58C38.944 215.428 37.444 214.552 35.704 214.552C33.352 214.552 31.444 216.316 31.444 218.812ZM40.7253 219.664C40.7253 221.704 42.1053 223.108 43.8213 223.108C44.9253 223.108 45.7173 222.58 46.1373 222.016V223H47.5173V216.388H46.1373V217.348C45.7293 216.808 44.9613 216.28 43.8453 216.28C42.1053 216.28 40.7253 217.624 40.7253 219.664ZM46.1373 219.688C46.1373 221.116 45.1653 221.92 44.1333 221.92C43.1133 221.92 42.1293 221.092 42.1293 219.664C42.1293 218.236 43.1133 217.468 44.1333 217.468C45.1653 217.468 46.1373 218.272 46.1373 219.688ZM48.8581 219.664C48.8581 221.704 50.2381 223.108 51.9781 223.108C53.0581 223.108 53.8501 222.604 54.2701 222.004V223H55.6501V214.12H54.2701V217.312C53.7661 216.688 52.8541 216.28 51.9901 216.28C50.2381 216.28 48.8581 217.624 48.8581 219.664ZM54.2701 219.688C54.2701 221.116 53.2981 221.92 52.2661 221.92C51.2461 221.92 50.2621 221.092 50.2621 219.664C50.2621 218.236 51.2461 217.468 52.2661 217.468C53.2981 217.468 54.2701 218.272 54.2701 219.688ZM60.2309 217.432C61.2509 217.432 62.0549 218.08 62.0789 219.1H58.4189C58.5629 218.056 59.3069 217.432 60.2309 217.432ZM63.3269 221.032H61.8509C61.5989 221.548 61.1309 221.956 60.2909 221.956C59.2829 221.956 58.5029 221.296 58.4069 220.204H63.4589C63.4949 219.976 63.5069 219.76 63.5069 219.532C63.5069 217.588 62.1749 216.28 60.2909 216.28C58.3349 216.28 56.9909 217.612 56.9909 219.688C56.9909 221.764 58.3949 223.108 60.2909 223.108C61.9109 223.108 62.9549 222.184 63.3269 221.032ZM66.2211 219.52C66.2211 218.116 66.8451 217.696 67.8531 217.696H68.2011V216.28C67.2651 216.28 66.6051 216.688 66.2211 217.348V216.388H64.8531V223H66.2211V219.52ZM69.0026 219.664C69.0026 221.704 70.3826 223.108 72.0986 223.108C73.2026 223.108 73.9946 222.58 74.4146 222.016V223H75.7946V216.388H74.4146V217.348C74.0066 216.808 73.2386 216.28 72.1226 216.28C70.3826 216.28 69.0026 217.624 69.0026 219.664ZM74.4146 219.688C74.4146 221.116 73.4426 221.92 72.4106 221.92C71.3906 221.92 70.4066 221.092 70.4066 219.664C70.4066 218.236 71.3906 217.468 72.4106 217.468C73.4426 217.468 74.4146 218.272 74.4146 219.688Z" fill="black"/>
  <defs>
    <linearGradient id="paint0_linear_832_4023" x1="184.807" y1="420.28" x2="106.254" y2="24.1307" gradientUnits="userSpaceOnUse">
      <stop offset="0.5638" stop-color="white"/>
      <stop offset="0.7342" stop-color="#EFEFEE"/>
      <stop offset="0.8911" stop-color="#E5E5E4"/>
    </linearGradient>
    <linearGradient id="paint1_linear_832_4023" x1="371.8" y1="422.861" x2="317.645" y2="41.5756" gradientUnits="userSpaceOnUse">
      <stop offset="0.4513" stop-color="white"/>
      <stop offset="0.6789" stop-color="#EFEFEE"/>
      <stop offset="0.8886" stop-color="#E5E5E4"/>
    </linearGradient>
  </defs>
</svg>
