<svg width="53" height="53" viewBox="0 0 53 53" fill="none" xmlns="http://www.w3.org/2000/svg">
  <path d="M44.2881 17.0329C42.7931 15.1735 40.5936 13.9191 38.1843 13.4664C37.0404 8.76929 32.8534 6.625 28.8077 6.625H15.5842C14.1885 6.625 12.9806 7.52821 12.5632 8.85321C12.5301 8.94154 12.5058 9.03429 12.4837 9.12925L6.70008 35.9119C6.68021 36.0025 6.66696 36.0952 6.65813 36.188C6.63825 36.3249 6.625 36.4662 6.625 36.57C6.625 38.3234 8.056 39.75 9.81383 39.75H14.9283L14.3387 42.5369C14.321 42.6252 14.3078 42.7158 14.299 42.8041C14.2791 42.9432 14.2636 43.0824 14.2636 43.1862C14.268 44.9462 15.699 46.375 17.4569 46.375H24.6538C24.7775 46.375 24.899 46.364 25.0204 46.3419C26.2328 46.2028 27.253 45.3768 27.6505 44.2152C27.6969 44.1048 27.7345 43.9878 27.761 43.8707L29.7573 35.3333H32.8445C40.2756 35.3333 44.7254 32.1423 46.0702 25.8485C46.9889 21.5357 45.6087 18.6737 44.2881 17.0329ZM11.3442 35.3333L16.589 11.0417H28.8077C29.4548 11.0417 32.1202 11.1764 33.3966 13.2787H23.0042C21.6218 13.2787 20.4205 14.1642 19.9942 15.465C19.9523 15.5732 19.9214 15.6858 19.8993 15.7984L17.6159 27.0455L15.8625 35.3333H11.3442ZM41.7507 24.9255C40.8542 29.1235 38.1887 30.9167 32.8445 30.9167H28.7437C26.9262 30.9167 25.7889 32.3565 25.641 33.5622L23.6755 41.9583H18.9784L21.7852 28.7083H24.974C34.3793 28.7083 37.4842 23.4216 38.4316 18.9872C38.4912 18.7046 38.531 18.4219 38.5575 18.1437C39.3922 18.4771 40.2115 19.0115 40.8497 19.8021C41.8943 21.105 42.1968 22.8275 41.7507 24.9255Z" fill="#637080"/>
</svg>
