<svg width="37" height="37" viewBox="0 0 37 37" fill="none" xmlns="http://www.w3.org/2000/svg">
  <path d="M30.8335 4.62508H29.2918V3.08341C29.2918 2.2355 28.5981 1.54175 27.7502 1.54175C26.9022 1.54175 26.2085 2.2355 26.2085 3.08341V4.62508H10.7918V3.08341C10.7918 2.2355 10.0981 1.54175 9.25016 1.54175C8.40225 1.54175 7.7085 2.2355 7.7085 3.08341V4.62508H6.16683C4.471 4.62508 3.0835 6.01258 3.0835 7.70841V32.3751C3.0835 34.0709 4.471 35.4584 6.16683 35.4584H30.8335C32.5293 35.4584 33.9168 34.0709 33.9168 32.3751V7.70841C33.9168 6.01258 32.5293 4.62508 30.8335 4.62508ZM29.2918 32.3751H7.7085C6.86058 32.3751 6.16683 31.6813 6.16683 30.8334V12.3334H30.8335V30.8334C30.8335 31.6813 30.1397 32.3751 29.2918 32.3751Z" fill="#004357"/>
</svg>
