<svg width="37" height="37" viewBox="0 0 37 37" fill="none" xmlns="http://www.w3.org/2000/svg">
  <path d="M18.5002 3.08325C9.98554 3.08325 3.0835 9.98529 3.0835 18.4999C3.0835 27.0145 9.98554 33.9166 18.5002 33.9166C27.0148 33.9166 33.9168 27.0145 33.9168 18.4999C33.9168 9.98529 27.0148 3.08325 18.5002 3.08325ZM22.4869 24.6666L17.4102 19.5899C17.1204 19.3 16.9585 18.9085 16.9585 18.4999V10.7916C16.9585 9.94059 17.6492 9.24992 18.5002 9.24992C19.3512 9.24992 20.0418 9.94059 20.0418 10.7916V17.8617L24.6668 22.4867C25.2681 23.0879 25.2681 24.0653 24.6668 24.6666C24.0656 25.2678 23.0882 25.2678 22.4869 24.6666Z" fill="#004357"/>
</svg>
