<svg width="33" height="28" viewBox="0 0 33 28" fill="none" xmlns="http://www.w3.org/2000/svg">
  <path d="M16.5 1.1665C11.9298 1.1665 8.25 4.28873 8.25 8.1665V9.33317C6.74704 9.33317 5.5 10.3913 5.5 11.6665V23.3332C5.5 24.6084 6.74704 25.6665 8.25 25.6665H24.75C26.253 25.6665 27.5 24.6084 27.5 23.3332V11.6665C27.5 10.3913 26.253 9.33317 24.75 9.33317V8.1665C24.75 4.28873 21.0702 1.1665 16.5 1.1665ZM16.5 3.49984C19.6298 3.49984 22 5.51095 22 8.1665V9.33317H11V8.1665C11 5.51095 13.3702 3.49984 16.5 3.49984ZM8.25 11.6665H24.75V23.3332H8.25V11.6665ZM16.5 15.1665C14.9875 15.1665 13.75 16.2165 13.75 17.4998C13.75 18.7832 14.9875 19.8332 16.5 19.8332C18.0125 19.8332 19.25 18.7832 19.25 17.4998C19.25 16.2165 18.0125 15.1665 16.5 15.1665Z" fill="white"/>
</svg>
