<svg width="121" height="98" viewBox="0 0 121 98" fill="none" xmlns="http://www.w3.org/2000/svg">
  <path d="M70.2344 94.7896C70.2344 93.0337 70.2344 91.731 70.2344 90.4849C70.2344 77.9106 70.2344 65.3931 70.2344 52.8188C70.2344 51.3462 70.1212 50.27 68.5352 49.4204C54.7715 42.4536 41.0645 35.3168 27.3574 28.2367C26.9609 28.0102 26.5078 27.8969 25.7148 27.557C25.6582 28.8031 25.5449 29.766 25.5449 30.7289C25.5449 36.2797 25.6015 41.8871 25.4883 47.4379C25.4883 48.2309 24.6953 49.0805 24.2988 49.8735C23.9023 49.1372 23.2226 48.4008 23.2226 47.6079C23.166 40.4145 23.1093 33.2778 23.2226 26.0844C23.2226 25.1781 24.0156 23.932 24.8086 23.5355C39.8184 15.7191 54.8848 7.95935 70.0079 0.312848C70.9141 -0.140278 72.4434 -0.083637 73.3497 0.369489C88.3595 8.01599 103.369 15.7191 118.266 23.5355C119.115 23.9887 119.965 25.3481 119.965 26.2543C120.078 41.3774 120.078 56.4438 119.965 71.5669C119.965 72.4731 119.115 73.8325 118.266 74.2856C103.313 82.1021 88.3595 89.8618 73.3497 97.5083C72.3868 98.0181 70.7442 97.9615 69.7247 97.4517C60.3223 92.6939 50.9766 87.8228 41.6309 82.9517C40.8379 82.5552 40.3848 81.4224 39.7617 80.6294C40.7813 80.686 41.9707 80.3462 42.7637 80.7993C50.9199 84.8775 59.0196 89.1255 67.1192 93.3169C68.0254 93.7701 68.9317 94.1665 70.2344 94.7896ZM72.8965 94.563C73.5762 94.4497 73.8028 94.4497 73.9161 94.3365C87.963 87.0864 102.067 79.8931 116.057 72.5864C116.85 72.1333 117.586 70.7173 117.586 69.6977C117.699 56.3305 117.643 42.9067 117.643 29.5395C117.643 28.9731 117.416 28.35 117.303 27.5004C112.602 29.936 108.184 32.2016 103.766 34.4672C103.369 34.6938 102.746 34.8071 102.576 35.1469C102.067 35.9399 101.274 36.9594 101.443 37.6957C102.973 44.9457 99.6876 49.1372 93.0606 51.4594C92.5509 51.6294 92.0411 51.9692 91.588 52.2524C89.6056 53.4419 88.8126 52.7622 88.8692 50.6098C88.9259 48.0043 88.8692 45.3989 88.8692 42.227C84.1681 44.6625 79.9766 46.8715 75.6719 48.9106C73.6895 49.8735 72.8399 51.0063 72.8399 53.3852C73.0098 64.3169 72.8965 75.2485 72.8965 86.2368C72.8965 88.9556 72.8965 91.6177 72.8965 94.563ZM87.5099 39.9047C86.0372 38.9985 84.9044 38.3188 83.8282 37.6957C73.4063 31.9184 62.7012 26.5375 52.5625 20.1937C46.9551 16.682 42.3106 16.1156 36.873 20.0238C34.041 22.0629 30.6992 23.3656 27.1875 25.1781C41.9141 32.8246 56.1309 40.1879 70.3477 47.4946C70.9141 47.7778 71.877 48.0043 72.4434 47.7211C77.3145 45.229 82.1856 42.6801 87.5099 39.9047ZM57.6602 9.43201C58.0567 9.88513 58.1133 10.1117 58.2832 10.1683C71.877 17.5883 85.5274 25.0648 99.1778 32.4848C99.6876 32.768 100.537 33.1645 100.99 32.9379C105.861 30.5024 110.733 27.9535 115.604 25.4613C115.32 25.0082 115.32 24.8949 115.264 24.8383C101.104 17.5316 87.0001 10.225 72.8399 2.97496C72.1602 2.63512 70.9708 2.63512 70.2911 3.0316C66.0997 5.07067 61.9649 7.22302 57.6602 9.43201ZM97.6485 34.6371C83.3751 26.8207 69.6114 19.2875 55.791 11.8109C55.168 11.4711 54.0918 11.3578 53.4688 11.641C51.5996 12.434 49.8438 13.5101 47.9746 14.5297C48.3145 14.8695 48.4278 15.1527 48.6543 15.3226C62.1348 22.7992 75.6719 30.2758 89.1524 37.6957C89.7188 38.0356 90.6817 38.2055 91.1915 37.9789C93.2306 37.0727 95.1564 35.9399 97.6485 34.6371ZM98.6114 37.4125C91.2481 40.0746 89.6056 42.9633 91.8712 48.9106C99.1778 45.6821 99.8009 44.6625 98.6114 37.4125Z" fill="#004357"/>
  <path d="M34.211 77.7407C29.1133 77.7407 24.0156 77.7974 18.918 77.6841C18.125 77.6841 17.332 76.8345 16.5391 76.438C17.332 75.9849 18.1816 75.1919 18.9746 75.1919C29.3399 75.0786 39.7618 75.0786 50.127 75.1919C50.92 75.1919 51.713 76.0415 52.5059 76.4946C51.713 76.9478 50.92 77.7407 50.0704 77.7407C44.7461 77.7974 39.4786 77.7407 34.211 77.7407Z" fill="#004357"/>
  <path d="M24.2422 52.9321C29.4532 52.9321 34.6075 52.8755 39.8184 52.9887C40.5548 52.9887 41.2911 53.7251 42.0274 54.1216C41.3477 54.5747 40.668 55.4809 39.9317 55.4809C29.3399 55.5376 18.8047 55.5376 8.21289 55.4809C7.53321 55.4809 6.85352 54.6313 6.17383 54.1216C6.91016 53.7251 7.64649 52.9887 8.38282 52.9887C13.707 52.8755 18.9746 52.9321 24.2422 52.9321Z" fill="#004357"/>
  <path d="M17.6719 63.5806C12.5742 63.5806 7.47658 63.6372 2.43555 63.5239C1.58594 63.5239 0.79297 62.7876 0 62.3911C0.736329 61.938 1.5293 61.0317 2.26563 61.0317C12.6309 60.9185 22.9961 60.9185 33.3614 61.0317C34.1544 61.0317 34.8907 61.8813 35.6837 62.3345C34.8907 62.731 34.0977 63.4673 33.2481 63.5239C28.0372 63.6372 22.8262 63.5806 17.6719 63.5806Z" fill="#004357"/>
  <path d="M104.049 69.5278C104.049 71.0571 104.162 72.5298 103.992 74.0591C103.936 74.5689 103.313 74.9654 102.916 75.4751C102.406 75.022 101.557 74.5689 101.5 74.1157C101.387 71.0005 101.387 67.8853 101.5 64.77C101.5 64.2603 102.406 63.8071 102.916 63.354C103.313 63.9204 103.936 64.4302 103.992 65.0532C104.162 66.4692 104.049 67.9985 104.049 69.5278Z" fill="#004357"/>
  <path d="M99.5176 71.9068C99.5176 73.2095 99.6875 74.5689 99.4609 75.8716C99.3477 76.5513 98.668 77.1177 98.2148 77.6841C97.7617 77.1743 96.9688 76.6079 96.9688 76.0982C96.8555 73.0962 96.8555 70.0942 96.9688 67.0357C96.9688 66.5259 97.8184 66.0161 98.2715 65.5063C98.668 66.0161 99.4043 66.5259 99.4609 67.0923C99.6309 68.6782 99.5176 70.3208 99.5176 71.9068Z" fill="#004357"/>
  <path d="M113.111 64.9966C113.111 66.5259 113.225 67.9986 113.055 69.5279C112.998 70.0376 112.205 70.4907 111.752 70.9439C111.355 70.4907 110.619 70.0376 110.619 69.5845C110.506 66.4693 110.506 63.354 110.619 60.2388C110.619 59.7856 111.412 59.3892 111.809 58.936C112.262 59.4458 112.998 59.8989 113.055 60.4653C113.225 61.9946 113.111 63.4673 113.111 64.9966Z" fill="#004357"/>
  <path d="M108.58 67.2622C108.58 68.7349 108.693 70.2642 108.523 71.7368C108.467 72.2466 107.844 72.6431 107.504 73.1529C106.994 72.6997 106.088 72.3032 106.088 71.7935C105.975 68.6782 105.975 65.6196 106.088 62.5044C106.088 61.9946 106.994 61.5415 107.447 61.0884C107.844 61.6548 108.467 62.1646 108.523 62.731C108.693 64.2603 108.58 65.7896 108.58 67.2622Z" fill="#004357"/>
</svg>
