<svg width="33" height="33" viewBox="0 0 33 33" fill="none" xmlns="http://www.w3.org/2000/svg">
  <path d="M16.5 2.75C8.91 2.75 2.75 8.91 2.75 16.5C2.75 24.09 8.91 30.25 16.5 30.25C24.09 30.25 30.25 24.09 30.25 16.5C30.25 8.91 24.09 2.75 16.5 2.75ZM16.5 27.5C10.4363 27.5 5.5 22.5637 5.5 16.5C5.5 10.4363 10.4363 5.5 16.5 5.5C22.5637 5.5 27.5 10.4363 27.5 16.5C27.5 22.5637 22.5637 27.5 16.5 27.5ZM15.125 22H17.875V24.75H15.125V22ZM17.3387 8.305C14.5062 7.8925 12.0038 9.63875 11.2475 12.1412C11 12.9388 11.605 13.75 12.4438 13.75H12.7188C13.2825 13.75 13.7362 13.3512 13.9288 12.8287C14.3688 11.605 15.675 10.7663 17.0913 11.0688C18.3975 11.3438 19.36 12.6225 19.25 13.9562C19.1125 15.7987 17.0225 16.1975 15.8813 17.9162C15.8813 17.93 15.8675 17.93 15.8675 17.9438C15.8538 17.9713 15.84 17.985 15.8263 18.0125C15.7025 18.2188 15.5788 18.4525 15.4825 18.7C15.4688 18.7413 15.4413 18.7688 15.4275 18.81C15.4138 18.8375 15.4137 18.865 15.4 18.9062C15.235 19.3738 15.125 19.9375 15.125 20.625H17.875C17.875 20.0475 18.0262 19.5662 18.26 19.1538C18.2875 19.1125 18.3012 19.0713 18.3287 19.03C18.4388 18.8375 18.5762 18.6587 18.7137 18.4937C18.7275 18.48 18.7413 18.4525 18.755 18.4387C18.8925 18.2737 19.0438 18.1225 19.2087 17.9712C20.5287 16.72 22.3162 15.7025 21.945 13.0763C21.615 10.6838 19.7312 8.6625 17.3387 8.305Z" fill="#C4C4C4"/>
</svg>
