<svg width="40" height="40" viewBox="0 0 40 40" fill="none" xmlns="http://www.w3.org/2000/svg">
  <path d="M20.0007 3.3335C10.8007 3.3335 3.33398 10.8002 3.33398 20.0002C3.33398 29.2002 10.8007 36.6668 20.0007 36.6668C29.2007 36.6668 36.6673 29.2002 36.6673 20.0002C36.6673 10.8002 29.2007 3.3335 20.0007 3.3335ZM11.784 30.4668C12.5007 28.9668 16.8673 27.5002 20.0007 27.5002C23.134 27.5002 27.5173 28.9668 28.2173 30.4668C25.9507 32.2668 23.1007 33.3335 20.0007 33.3335C16.9007 33.3335 14.0507 32.2668 11.784 30.4668ZM30.6007 28.0502C28.2173 25.1502 22.434 24.1668 20.0007 24.1668C17.5673 24.1668 11.784 25.1502 9.40065 28.0502C7.70065 25.8168 6.66732 23.0335 6.66732 20.0002C6.66732 12.6502 12.6507 6.66683 20.0007 6.66683C27.3507 6.66683 33.334 12.6502 33.334 20.0002C33.334 23.0335 32.3007 25.8168 30.6007 28.0502ZM20.0007 10.0002C16.7673 10.0002 14.1673 12.6002 14.1673 15.8335C14.1673 19.0668 16.7673 21.6668 20.0007 21.6668C23.234 21.6668 25.834 19.0668 25.834 15.8335C25.834 12.6002 23.234 10.0002 20.0007 10.0002ZM20.0007 18.3335C18.6173 18.3335 17.5007 17.2168 17.5007 15.8335C17.5007 14.4502 18.6173 13.3335 20.0007 13.3335C21.384 13.3335 22.5007 14.4502 22.5007 15.8335C22.5007 17.2168 21.384 18.3335 20.0007 18.3335Z" fill="white"/>
</svg>
