<svg width="36" height="37" viewBox="0 0 36 37" fill="none" xmlns="http://www.w3.org/2000/svg">
  <path d="M17.7 16.8042C14.295 15.8946 13.2 14.9542 13.2 13.4896C13.2 11.8092 14.715 10.6375 17.25 10.6375C19.38 10.6375 20.445 11.47 20.835 12.7958C21.015 13.4125 21.51 13.875 22.14 13.875H22.59C23.58 13.875 24.285 12.8729 23.94 11.9171C23.31 10.0979 21.84 8.58708 19.5 8.00125V6.9375C19.5 5.65792 18.495 4.625 17.25 4.625C16.005 4.625 15 5.65792 15 6.9375V7.955C12.09 8.6025 9.75 10.545 9.75 13.5204C9.75 17.0817 12.615 18.8546 16.8 19.8875C20.55 20.8125 21.3 22.1692 21.3 23.6029C21.3 24.6667 20.565 26.3625 17.25 26.3625C14.775 26.3625 13.5 25.4529 13.005 24.1579C12.78 23.5567 12.27 23.125 11.655 23.125H11.235C10.23 23.125 9.525 24.1733 9.9 25.1292C10.755 27.2721 12.75 28.5362 15 29.0296V30.0625C15 31.3421 16.005 32.375 17.25 32.375C18.495 32.375 19.5 31.3421 19.5 30.0625V29.0604C22.425 28.49 24.75 26.7479 24.75 23.5875C24.75 19.2092 21.105 17.7137 17.7 16.8042Z" fill="#004357"/>
</svg>
