<svg width="38" height="38" viewBox="0 0 38 38" fill="none" xmlns="http://www.w3.org/2000/svg">
  <path d="M17.1 30.4H20.9V26.6H17.1V30.4ZM19 0C8.512 0 0 8.512 0 19C0 29.488 8.512 38 19 38C29.488 38 38 29.488 38 19C38 8.512 29.488 0 19 0ZM19 34.2C10.621 34.2 3.8 27.379 3.8 19C3.8 10.621 10.621 3.8 19 3.8C27.379 3.8 34.2 10.621 34.2 19C34.2 27.379 27.379 34.2 19 34.2ZM19 7.6C14.801 7.6 11.4 11.001 11.4 15.2H15.2C15.2 13.11 16.91 11.4 19 11.4C21.09 11.4 22.8 13.11 22.8 15.2C22.8 19 17.1 18.525 17.1 24.7H20.9C20.9 20.425 26.6 19.95 26.6 15.2C26.6 11.001 23.199 7.6 19 7.6Z" fill="#637080"/>
</svg>
