<svg width="112" height="141" viewBox="0 0 112 141" fill="none" xmlns="http://www.w3.org/2000/svg">
  <path d="M105.458 132.178L105.422 132.215C105.35 132.323 105.241 132.396 105.169 132.504C103.539 134.315 101.584 135.872 99.448 137.066C99.4118 137.103 99.3394 137.139 99.3032 137.139C99.2308 137.175 99.1584 137.211 99.0859 137.247C95.8635 138.985 92.2065 139.963 88.2961 139.963C84.3133 139.963 80.5477 138.949 77.2529 137.139C74.4649 135.618 72.0752 133.518 70.1562 131.02C67.2234 127.182 65.4854 122.402 65.4854 117.189C65.4854 104.588 75.6959 94.4141 88.2599 94.4141C91.4824 94.4141 94.56 95.102 97.348 96.2969C100.317 97.6003 102.96 99.4831 105.096 101.873C105.133 101.945 105.205 101.981 105.241 102.054C108.826 106.073 110.998 111.395 110.998 117.225C111.071 122.946 108.971 128.159 105.458 132.178Z" stroke="#004357" stroke-width="2" stroke-miterlimit="10"/>
  <path d="M71.17 115.631L81.5253 130.693C81.8874 131.236 82.6477 131.308 83.0822 130.838L105.277 109.62C105.712 109.222 105.712 108.534 105.277 108.136L100.534 103.392C100.136 102.994 99.4842 102.994 99.0859 103.392L83.0822 119.396C82.6477 119.831 81.8874 119.794 81.5253 119.288L74.9356 110.236C74.4649 109.62 73.5235 109.693 73.1614 110.381L71.0976 114.508C70.9165 114.906 70.9527 115.341 71.17 115.631Z" stroke="#004357" stroke-width="2" stroke-miterlimit="10"/>
  <path d="M77.0718 137.14H1.18104C1.07241 137.14 1 137.068 1 136.959V13.4916C1 13.383 1.07241 13.3105 1.18104 13.3105H14.433" stroke="#004357" stroke-width="2" stroke-miterlimit="10"/>
  <path d="M92.2789 13.3105H105.096C105.205 13.3105 105.277 13.383 105.277 13.4916V101.983" stroke="#004357" stroke-width="2" stroke-miterlimit="10"/>
  <path d="M87.4271 41.3722H20.9141C19.7192 41.3722 18.7416 40.3946 18.7416 39.1998C18.7416 38.0049 19.7192 37.0273 20.9141 37.0273H87.4271C88.622 37.0273 89.5996 38.0049 89.5996 39.1998C89.5996 40.3946 88.622 41.3722 87.4271 41.3722Z" stroke="#004357" stroke-width="2" stroke-miterlimit="10"/>
  <path d="M87.8978 88.9855H21.3848C20.1899 88.9855 19.2123 88.0079 19.2123 86.8131C19.2123 85.6182 20.1899 84.6406 21.3848 84.6406H87.8978C89.0927 84.6406 90.0703 85.6182 90.0703 86.8131C90.0703 88.0079 89.0927 88.9855 87.8978 88.9855Z" stroke="#004357" stroke-width="2" stroke-miterlimit="10"/>
  <path d="M87.4271 66.175H20.9141C19.7192 66.175 18.7416 65.1974 18.7416 64.0025C18.7416 62.8077 19.7192 61.8301 20.9141 61.8301H87.4271C88.622 61.8301 89.5996 62.8077 89.5996 64.0025C89.5996 65.1974 88.622 66.175 87.4271 66.175Z" stroke="#004357" stroke-width="2" stroke-miterlimit="10"/>
  <path d="M97.3842 96.4427V20.5519C97.3842 18.1622 95.429 16.207 93.0393 16.207H92.3151V22.7244H14.4691V16.2432C12.2605 16.4243 10.4863 18.3071 10.4863 20.5519V126.64C10.4863 129.029 12.4415 130.985 14.8312 130.985H70.1562" stroke="#004357" stroke-width="2" stroke-miterlimit="10"/>
  <path d="M14.8312 16.207C14.7226 16.207 14.5778 16.207 14.4691 16.2432V22.7244H92.3151V16.207" stroke="#004357" stroke-width="2" stroke-miterlimit="10"/>
  <path d="M45.4265 11.5002C46.8024 8.09672 50.0973 5.70703 54.0077 5.70703C57.9181 5.70703 61.213 8.09672 62.5888 11.5002" stroke="#004357" stroke-width="2" stroke-miterlimit="10"/>
  <path d="M67.8027 11.5002C66.1372 5.45351 60.5974 1 54.0077 1C47.4179 1 41.8782 5.45351 40.2126 11.5002" stroke="#004357" stroke-width="2" stroke-miterlimit="10"/>
  <path d="M62.5526 11.5002C61.1767 8.09672 57.8819 5.70703 53.9715 5.70703C50.061 5.70703 46.7662 8.09672 45.3903 11.5002" stroke="#004357" stroke-width="2" stroke-miterlimit="10"/>
  <path d="M14.4691 16.2432V11.5362L92.2427 11.5V22.3622" stroke="#004357" stroke-width="2" stroke-miterlimit="10"/>
  <path d="M14.6502 18.2715H92.6048" stroke="#004357" stroke-width="2" stroke-miterlimit="10"/>
</svg>
