<svg width="102" height="83" viewBox="0 0 102 83" fill="none" xmlns="http://www.w3.org/2000/svg">
  <path d="M77.5222 11C77.4092 11 77.2961 11 77.1454 11C67.9517 11.1871 60.5667 18.6719 60.5667 27.8407C60.5667 37.1592 68.1401 44.6813 77.5222 44.6813C81.5915 44.6813 85.3218 43.2592 88.2607 40.8641C72.6616 32.0695 75.3745 17.4369 77.5222 11Z" stroke="#004357" stroke-width="2" stroke-miterlimit="10"/>
  <path d="M47.5867 64.54C47.6827 65.824 48.5707 67.012 50.4307 67.012C52.7467 67.012 53.4067 65.404 53.4067 62.428C53.4067 59.656 52.6747 58.048 50.2987 58.048C48.4507 58.048 47.3467 59.2 47.3467 60.952C47.3467 62.8 48.5587 63.748 50.0707 63.748C50.8387 63.748 51.5467 63.448 51.9187 62.932C51.9187 64.9 51.4867 65.632 50.5027 65.632C49.7227 65.632 49.2787 65.236 49.1467 64.54H47.5867ZM50.4187 62.38C49.3987 62.38 48.9547 61.732 48.9547 60.94C48.9547 60.064 49.4827 59.476 50.3587 59.476C51.2107 59.476 51.7627 60.004 51.7627 60.964C51.7627 61.816 51.2587 62.38 50.4187 62.38ZM56.8822 66.1C56.8822 65.548 56.4502 65.116 55.8622 65.116C55.2502 65.116 54.8182 65.548 54.8182 66.1C54.8182 66.652 55.2502 67.084 55.8622 67.084C56.4502 67.084 56.8822 66.652 56.8822 66.1ZM56.8822 61.132C56.8822 60.58 56.4502 60.148 55.8622 60.148C55.2502 60.148 54.8182 60.58 54.8182 61.132C54.8182 61.684 55.2502 62.116 55.8622 62.116C56.4502 62.116 56.8822 61.684 56.8822 61.132ZM58.2904 62.512C58.2904 65.068 59.0584 66.976 61.5304 66.976C64.0024 66.976 64.7704 65.068 64.7704 62.512C64.7704 59.98 64.0024 58.084 61.5304 58.084C59.0584 58.084 58.2904 59.98 58.2904 62.512ZM63.1144 62.512C63.1144 64.072 62.9464 65.416 61.5304 65.416C60.1144 65.416 59.9464 64.072 59.9464 62.512C59.9464 61.012 60.1144 59.644 61.5304 59.644C62.9464 59.644 63.1144 61.012 63.1144 62.512ZM66.26 62.512C66.26 65.068 67.028 66.976 69.5 66.976C71.972 66.976 72.74 65.068 72.74 62.512C72.74 59.98 71.972 58.084 69.5 58.084C67.028 58.084 66.26 59.98 66.26 62.512ZM71.084 62.512C71.084 64.072 70.916 65.416 69.5 65.416C68.084 65.416 67.916 64.072 67.916 62.512C67.916 61.012 68.084 59.644 69.5 59.644C70.916 59.644 71.084 61.012 71.084 62.512ZM79.1728 61.312V60.352H77.4928V70.168H79.1728V66.052C79.5808 66.592 80.3248 67.108 81.3688 67.108C83.0728 67.108 84.4048 65.728 84.4048 63.652C84.4048 61.576 83.0728 60.244 81.3688 60.244C80.3368 60.244 79.5688 60.748 79.1728 61.312ZM82.6888 63.652C82.6888 64.912 81.8368 65.632 80.9248 65.632C80.0248 65.632 79.1728 64.936 79.1728 63.676C79.1728 62.416 80.0248 61.72 80.9248 61.72C81.8368 61.72 82.6888 62.392 82.6888 63.652ZM87.6014 66.1C87.6014 65.548 87.1694 65.116 86.5814 65.116C85.9694 65.116 85.5374 65.548 85.5374 66.1C85.5374 66.652 85.9694 67.084 86.5814 67.084C87.1694 67.084 87.6014 66.652 87.6014 66.1ZM98.4665 67H100.146V63.1C100.146 61.264 99.0185 60.256 97.4225 60.256C96.4505 60.256 95.5745 60.772 95.1425 61.528C94.6865 60.7 93.8345 60.256 92.8025 60.256C91.9745 60.256 91.2665 60.604 90.8465 61.156V60.352H89.1665V67H90.8465V63.328C90.8465 62.272 91.4345 61.72 92.3465 61.72C93.2345 61.72 93.8225 62.272 93.8225 63.328V67H95.5025V63.328C95.5025 62.272 96.0905 61.72 96.9905 61.72C97.8785 61.72 98.4665 62.272 98.4665 63.328V67Z" fill="#004357"/>
  <path d="M23.1 14.2793H4.03333V81.1154H23.1V14.2793Z" stroke="#004357" stroke-width="2" stroke-miterlimit="10"/>
  <path d="M25.0067 13.8361H2.12667C1.52 13.8361 1 13.3049 1 12.6852V2.15082C1 1.53115 1.52 1 2.12667 1H25.0067C25.6133 1 26.1333 1.53115 26.1333 2.15082V12.6852C26.1333 13.3049 25.6133 13.8361 25.0067 13.8361Z" stroke="#004357" stroke-width="2" stroke-miterlimit="10"/>
  <path d="M3.38333 3.21289V13.8358" stroke="#004357" stroke-width="2" stroke-miterlimit="10"/>
  <path d="M5.94 3.21289V13.8358" stroke="#004357" stroke-width="2" stroke-miterlimit="10"/>
  <path d="M8.45334 3.21289V13.8358" stroke="#004357" stroke-width="2" stroke-miterlimit="10"/>
  <path d="M11.01 3.21289V13.8358" stroke="#004357" stroke-width="2" stroke-miterlimit="10"/>
  <path d="M13.5667 3.21289V13.8358" stroke="#004357" stroke-width="2" stroke-miterlimit="10"/>
  <path d="M16.1233 3.21289V13.8358" stroke="#004357" stroke-width="2" stroke-miterlimit="10"/>
  <path d="M18.68 3.21289V13.8358" stroke="#004357" stroke-width="2" stroke-miterlimit="10"/>
  <path d="M21.1933 3.21289V13.8358" stroke="#004357" stroke-width="2" stroke-miterlimit="10"/>
  <path d="M23.75 3.21289V13.8358" stroke="#004357" stroke-width="2" stroke-miterlimit="10"/>
  <path d="M22.8833 13.8359H4.25V19.59H22.8833V13.8359Z" fill="#004357"/>
</svg>
