<svg width="112" height="85" viewBox="0 0 112 85" fill="none" xmlns="http://www.w3.org/2000/svg">
  <path d="M23.1 15.2793H4.03333V82.1154H23.1V15.2793Z" stroke="#004357" stroke-width="2" stroke-miterlimit="10"/>
  <path d="M25.0067 14.8361H2.12667C1.52 14.8361 1 14.3049 1 13.6852V3.15082C1 2.53115 1.52 2 2.12667 2H25.0067C25.6133 2 26.1333 2.53115 26.1333 3.15082V13.6852C26.1333 14.3049 25.6133 14.8361 25.0067 14.8361Z" stroke="#004357" stroke-width="2" stroke-miterlimit="10"/>
  <path d="M3.38333 4.21289V14.8358" stroke="#004357" stroke-width="2" stroke-miterlimit="10"/>
  <path d="M5.94 4.21289V14.8358" stroke="#004357" stroke-width="2" stroke-miterlimit="10"/>
  <path d="M8.45334 4.21289V14.8358" stroke="#004357" stroke-width="2" stroke-miterlimit="10"/>
  <path d="M11.01 4.21289V14.8358" stroke="#004357" stroke-width="2" stroke-miterlimit="10"/>
  <path d="M13.5667 4.21289V14.8358" stroke="#004357" stroke-width="2" stroke-miterlimit="10"/>
  <path d="M16.1233 4.21289V14.8358" stroke="#004357" stroke-width="2" stroke-miterlimit="10"/>
  <path d="M18.68 4.21289V14.8358" stroke="#004357" stroke-width="2" stroke-miterlimit="10"/>
  <path d="M21.1933 4.21289V14.8358" stroke="#004357" stroke-width="2" stroke-miterlimit="10"/>
  <path d="M23.75 4.21289V14.8358" stroke="#004357" stroke-width="2" stroke-miterlimit="10"/>
  <path d="M22.8833 14.8359H4.25V20.59H22.8833V14.8359Z" fill="#004357"/>
  <path d="M78.2259 67.3333H74V66H78.2259V67.3333Z" fill="#004357"/>
  <path d="M80.8606 36.8889C80.4158 36.8889 80.1934 36.6667 80.1934 36.2222V0.666667C80.1934 0.222222 80.4158 0 80.8606 0C81.3054 0 81.5278 0.222222 81.5278 0.666667V36.2222C81.7503 36.4444 81.3054 36.8889 80.8606 36.8889Z" fill="#004357"/>
  <path d="M70.4005 18.7266H75.2934" stroke="#004357" stroke-width="2" stroke-miterlimit="10"/>
  <path d="M70.4003 7.47461L67.171 10.7039" stroke="#004357" stroke-width="2" stroke-miterlimit="10"/>
  <path d="M59.2056 2.77734V7.27884" stroke="#004357" stroke-width="2" stroke-miterlimit="10"/>
  <path d="M47.8929 18.7266H43" stroke="#004357" stroke-width="2" stroke-miterlimit="10"/>
  <path d="M47.8932 7.47461L51.1226 10.7039" stroke="#004357" stroke-width="2" stroke-miterlimit="10"/>
  <path d="M59.1466 27.9271C64.0107 27.9271 67.9539 23.9839 67.9539 19.1198C67.9539 14.2557 64.0107 10.3125 59.1466 10.3125C54.2825 10.3125 50.3393 14.2557 50.3393 19.1198C50.3393 23.9839 54.2825 27.9271 59.1466 27.9271Z" stroke="#004357" stroke-width="2" stroke-miterlimit="10"/>
  <path d="M47.8953 30.0809L51.1246 26.8516" stroke="#004357" stroke-width="2" stroke-miterlimit="10"/>
  <path d="M59.0901 34.7788V30.2773" stroke="#004357" stroke-width="2" stroke-miterlimit="10"/>
  <path d="M70.4034 30.0809L67.1741 26.8516" stroke="#004357" stroke-width="2" stroke-miterlimit="10"/>
  <path d="M100.439 4.77734C100.342 4.77734 100.246 4.77734 100.118 4.77734C92.2888 4.93668 86 11.3103 86 19.118C86 27.0532 92.4492 33.4587 100.439 33.4587C103.904 33.4587 107.08 32.2477 109.583 30.2081C96.2995 22.7191 98.6096 10.2587 100.439 4.77734Z" stroke="#004357" stroke-width="2" stroke-miterlimit="10"/>
  <path d="M55.732 50.436C55.6 49.2 54.76 48.048 52.972 48.048C50.752 48.048 49.828 49.632 49.828 52.488C49.828 55.2 50.476 57.024 53.068 57.024C54.94 57.024 55.984 55.788 55.984 54.096C55.984 52.272 54.892 51.24 53.332 51.24C52.48 51.24 51.688 51.6 51.292 52.26C51.316 50.244 51.82 49.428 52.912 49.428C53.668 49.428 54.016 49.788 54.172 50.436H55.732ZM52.948 52.62C53.92 52.62 54.388 53.232 54.388 54.132C54.388 55.032 53.848 55.596 52.984 55.596C52 55.596 51.448 55.008 51.448 54.072C51.448 53.076 52.168 52.62 52.948 52.62ZM59.4796 56.1C59.4796 55.548 59.0476 55.116 58.4596 55.116C57.8476 55.116 57.4156 55.548 57.4156 56.1C57.4156 56.652 57.8476 57.084 58.4596 57.084C59.0476 57.084 59.4796 56.652 59.4796 56.1ZM59.4796 51.132C59.4796 50.58 59.0476 50.148 58.4596 50.148C57.8476 50.148 57.4156 50.58 57.4156 51.132C57.4156 51.684 57.8476 52.116 58.4596 52.116C59.0476 52.116 59.4796 51.684 59.4796 51.132ZM60.8878 52.512C60.8878 55.068 61.6558 56.976 64.1278 56.976C66.5998 56.976 67.3678 55.068 67.3678 52.512C67.3678 49.98 66.5998 48.084 64.1278 48.084C61.6558 48.084 60.8878 49.98 60.8878 52.512ZM65.7118 52.512C65.7118 54.072 65.5438 55.416 64.1278 55.416C62.7118 55.416 62.5438 54.072 62.5438 52.512C62.5438 51.012 62.7118 49.644 64.1278 49.644C65.5438 49.644 65.7118 51.012 65.7118 52.512ZM68.8574 52.512C68.8574 55.068 69.6254 56.976 72.0974 56.976C74.5694 56.976 75.3374 55.068 75.3374 52.512C75.3374 49.98 74.5694 48.084 72.0974 48.084C69.6254 48.084 68.8574 49.98 68.8574 52.512ZM73.6814 52.512C73.6814 54.072 73.5134 55.416 72.0974 55.416C70.6814 55.416 70.5134 54.072 70.5134 52.512C70.5134 51.012 70.6814 49.644 72.0974 49.644C73.5134 49.644 73.6814 51.012 73.6814 52.512ZM81.7702 51.312V50.352H80.0902V60.168H81.7702V56.052C82.1782 56.592 82.9222 57.108 83.9662 57.108C85.6702 57.108 87.0022 55.728 87.0022 53.652C87.0022 51.576 85.6702 50.244 83.9662 50.244C82.9342 50.244 82.1662 50.748 81.7702 51.312ZM85.2862 53.652C85.2862 54.912 84.4342 55.632 83.5222 55.632C82.6222 55.632 81.7702 54.936 81.7702 53.676C81.7702 52.416 82.6222 51.72 83.5222 51.72C84.4342 51.72 85.2862 52.392 85.2862 53.652ZM90.1989 56.1C90.1989 55.548 89.7669 55.116 89.1789 55.116C88.5669 55.116 88.1349 55.548 88.1349 56.1C88.1349 56.652 88.5669 57.084 89.1789 57.084C89.7669 57.084 90.1989 56.652 90.1989 56.1ZM101.064 57H102.744V53.1C102.744 51.264 101.616 50.256 100.02 50.256C99.0479 50.256 98.1719 50.772 97.7399 51.528C97.2839 50.7 96.4319 50.256 95.3999 50.256C94.5719 50.256 93.8639 50.604 93.4439 51.156V50.352H91.7639V57H93.4439V53.328C93.4439 52.272 94.0319 51.72 94.9439 51.72C95.8319 51.72 96.4199 52.272 96.4199 53.328V57H98.0999V53.328C98.0999 52.272 98.6879 51.72 99.5879 51.72C100.476 51.72 101.064 52.272 101.064 53.328V57Z" fill="#004357"/>
  <path d="M49.42 72.276V73.716H53.524L50.308 81H52.012L55.204 73.524V72.276H49.42ZM58.378 80.1C58.378 79.548 57.946 79.116 57.358 79.116C56.746 79.116 56.314 79.548 56.314 80.1C56.314 80.652 56.746 81.084 57.358 81.084C57.946 81.084 58.378 80.652 58.378 80.1ZM58.378 75.132C58.378 74.58 57.946 74.148 57.358 74.148C56.746 74.148 56.314 74.58 56.314 75.132C56.314 75.684 56.746 76.116 57.358 76.116C57.946 76.116 58.378 75.684 58.378 75.132ZM59.7862 76.512C59.7862 79.068 60.5542 80.976 63.0262 80.976C65.4982 80.976 66.2662 79.068 66.2662 76.512C66.2662 73.98 65.4982 72.084 63.0262 72.084C60.5542 72.084 59.7862 73.98 59.7862 76.512ZM64.6102 76.512C64.6102 78.072 64.4422 79.416 63.0262 79.416C61.6102 79.416 61.4422 78.072 61.4422 76.512C61.4422 75.012 61.6102 73.644 63.0262 73.644C64.4422 73.644 64.6102 75.012 64.6102 76.512ZM67.7558 76.512C67.7558 79.068 68.5238 80.976 70.9958 80.976C73.4678 80.976 74.2358 79.068 74.2358 76.512C74.2358 73.98 73.4678 72.084 70.9958 72.084C68.5238 72.084 67.7558 73.98 67.7558 76.512ZM72.5798 76.512C72.5798 78.072 72.4118 79.416 70.9958 79.416C69.5798 79.416 69.4118 78.072 69.4118 76.512C69.4118 75.012 69.5798 73.644 70.9958 73.644C72.4118 73.644 72.5798 75.012 72.5798 76.512ZM80.6687 75.312V74.352H78.9887V84.168H80.6687V80.052C81.0767 80.592 81.8207 81.108 82.8647 81.108C84.5687 81.108 85.9007 79.728 85.9007 77.652C85.9007 75.576 84.5687 74.244 82.8647 74.244C81.8327 74.244 81.0647 74.748 80.6687 75.312ZM84.1847 77.652C84.1847 78.912 83.3327 79.632 82.4207 79.632C81.5207 79.632 80.6687 78.936 80.6687 77.676C80.6687 76.416 81.5207 75.72 82.4207 75.72C83.3327 75.72 84.1847 76.392 84.1847 77.652ZM89.0973 80.1C89.0973 79.548 88.6653 79.116 88.0773 79.116C87.4653 79.116 87.0333 79.548 87.0333 80.1C87.0333 80.652 87.4653 81.084 88.0773 81.084C88.6653 81.084 89.0973 80.652 89.0973 80.1ZM99.9623 81H101.642V77.1C101.642 75.264 100.514 74.256 98.9183 74.256C97.9463 74.256 97.0703 74.772 96.6383 75.528C96.1823 74.7 95.3303 74.256 94.2983 74.256C93.4703 74.256 92.7623 74.604 92.3423 75.156V74.352H90.6623V81H92.3423V77.328C92.3423 76.272 92.9303 75.72 93.8423 75.72C94.7303 75.72 95.3183 76.272 95.3183 77.328V81H96.9983V77.328C96.9983 76.272 97.5863 75.72 98.4863 75.72C99.3743 75.72 99.9623 76.272 99.9623 77.328V81Z" fill="#004357"/>
</svg>
