<svg width="111" height="83" viewBox="0 0 111 83" fill="none" xmlns="http://www.w3.org/2000/svg">
  <path d="M46.0827 56.5566H47.8587L44.8467 48.1686H42.8907L39.8787 56.5566H41.6427L42.1947 54.9606H45.5307L46.0827 56.5566ZM45.0747 53.6166H42.6507L43.8627 50.1126L45.0747 53.6166ZM49.1963 56.5566H50.8763V47.6766H49.1963V56.5566ZM55.3872 53.2086C55.3872 55.2846 56.7312 56.6646 58.4232 56.6646C59.4672 56.6646 60.2112 56.1846 60.6072 55.5726V56.5566H62.3112V47.6766H60.6072V50.8326C60.1512 50.2086 59.3112 49.8006 58.4352 49.8006C56.7312 49.8006 55.3872 51.1326 55.3872 53.2086ZM60.6192 53.2326C60.6192 54.4926 59.7792 55.1886 58.8552 55.1886C57.9552 55.1886 57.1032 54.4686 57.1032 53.2086C57.1032 51.9486 57.9552 51.2766 58.8552 51.2766C59.7792 51.2766 60.6192 51.9726 60.6192 53.2326ZM67.0198 51.1806C67.8838 51.1806 68.5798 51.7326 68.6038 52.6086H65.4478C65.5798 51.6966 66.2158 51.1806 67.0198 51.1806ZM70.1758 54.4686H68.3638C68.1478 54.9126 67.7518 55.2726 67.0318 55.2726C66.1918 55.2726 65.5198 54.7206 65.4358 53.7366H70.2958C70.3318 53.5206 70.3438 53.3046 70.3438 53.0886C70.3438 51.1086 68.9878 49.8006 67.0678 49.8006C65.0998 49.8006 63.7318 51.1326 63.7318 53.2326C63.7318 55.3206 65.1358 56.6646 67.0678 56.6646C68.7118 56.6646 69.8158 55.6926 70.1758 54.4686ZM73.4619 50.8686V49.9086H71.7819V59.7246H73.4619V55.6086C73.8699 56.1486 74.6139 56.6646 75.6579 56.6646C77.3619 56.6646 78.6939 55.2846 78.6939 53.2086C78.6939 51.1326 77.3619 49.8006 75.6579 49.8006C74.6259 49.8006 73.8579 50.3046 73.4619 50.8686ZM76.9779 53.2086C76.9779 54.4686 76.1259 55.1886 75.2139 55.1886C74.3139 55.1886 73.4619 54.4926 73.4619 53.2326C73.4619 51.9726 74.3139 51.2766 75.2139 51.2766C76.1259 51.2766 76.9779 51.9486 76.9779 53.2086ZM82.9825 51.1806C83.8465 51.1806 84.5425 51.7326 84.5665 52.6086H81.4105C81.5425 51.6966 82.1785 51.1806 82.9825 51.1806ZM86.1385 54.4686H84.3265C84.1105 54.9126 83.7145 55.2726 82.9945 55.2726C82.1545 55.2726 81.4825 54.7206 81.3985 53.7366H86.2585C86.2945 53.5206 86.3065 53.3046 86.3065 53.0886C86.3065 51.1086 84.9505 49.8006 83.0305 49.8006C81.0625 49.8006 79.6945 51.1326 79.6945 53.2326C79.6945 55.3206 81.0985 56.6646 83.0305 56.6646C84.6745 56.6646 85.7785 55.6926 86.1385 54.4686ZM89.4246 53.2446C89.4246 51.9606 90.0246 51.5766 91.0206 51.5766H91.4646V49.8126C90.5406 49.8126 89.8446 50.2566 89.4246 50.9406V49.9086H87.7446V56.5566H89.4246V53.2446ZM93.072 54.4926C93.072 56.0166 93.924 56.5566 95.196 56.5566H96.252V55.1406H95.472C94.944 55.1406 94.764 54.9486 94.764 54.5046V51.2886H96.252V49.9086H94.764V48.2646H93.072V49.9086H92.28V51.2886H93.072V54.4926ZM97.2401 53.2086C97.2401 55.2846 98.5841 56.6646 100.264 56.6646C101.32 56.6646 102.076 56.1606 102.472 55.5846V56.5566H104.164V49.9086H102.472V50.8566C102.076 50.3046 101.344 49.8006 100.276 49.8006C98.5841 49.8006 97.2401 51.1326 97.2401 53.2086ZM102.472 53.2326C102.472 54.4926 101.632 55.1886 100.708 55.1886C99.8081 55.1886 98.9561 54.4686 98.9561 53.2086C98.9561 51.9486 99.8081 51.2766 100.708 51.2766C101.632 51.2766 102.472 51.9726 102.472 53.2326ZM107.697 53.2446C107.697 51.9606 108.297 51.5766 109.293 51.5766H109.737V49.8126C108.813 49.8126 108.117 50.2566 107.697 50.9406V49.9086H106.017V56.5566H107.697V53.2446Z" fill="#004357"/>
  <path d="M92.4434 34.1855H99.9983" stroke="#004357" stroke-width="2" stroke-miterlimit="10"/>
  <path d="M92.4434 16.8086L87.4571 21.7949" stroke="#004357" stroke-width="2" stroke-miterlimit="10"/>
  <path d="M75.1274 9.55664V16.5072" stroke="#004357" stroke-width="2" stroke-miterlimit="10"/>
  <path d="M57.6906 34.1855H50.1357" stroke="#004357" stroke-width="2" stroke-miterlimit="10"/>
  <path d="M57.6906 16.8086L62.6768 21.7949" stroke="#004357" stroke-width="2" stroke-miterlimit="10"/>
  <path d="M61.4677 34.6392C61.5584 27.2051 67.6024 21.1914 75.0666 21.1914C82.5914 21.1914 88.6655 27.2656 88.6655 34.7903" stroke="#004357" stroke-width="2" stroke-miterlimit="10"/>
  <path d="M47.5667 38.416H102.567" stroke="#004357" stroke-width="2" stroke-miterlimit="10"/>
  <path d="M23.1 14.2793H4.03333V81.1154H23.1V14.2793Z" stroke="#004357" stroke-width="2" stroke-miterlimit="10"/>
  <path d="M25.0067 13.8361H2.12667C1.52 13.8361 1 13.3049 1 12.6852V2.15082C1 1.53115 1.52 1 2.12667 1H25.0067C25.6133 1 26.1333 1.53115 26.1333 2.15082V12.6852C26.1333 13.3049 25.6133 13.8361 25.0067 13.8361Z" stroke="#004357" stroke-width="2" stroke-miterlimit="10"/>
  <path d="M3.38333 3.21289V13.8358" stroke="#004357" stroke-width="2" stroke-miterlimit="10"/>
  <path d="M5.94 3.21289V13.8358" stroke="#004357" stroke-width="2" stroke-miterlimit="10"/>
  <path d="M8.45334 3.21289V13.8358" stroke="#004357" stroke-width="2" stroke-miterlimit="10"/>
  <path d="M11.01 3.21289V13.8358" stroke="#004357" stroke-width="2" stroke-miterlimit="10"/>
  <path d="M13.5667 3.21289V13.8358" stroke="#004357" stroke-width="2" stroke-miterlimit="10"/>
  <path d="M16.1233 3.21289V13.8358" stroke="#004357" stroke-width="2" stroke-miterlimit="10"/>
  <path d="M18.68 3.21289V13.8358" stroke="#004357" stroke-width="2" stroke-miterlimit="10"/>
  <path d="M21.1933 3.21289V13.8358" stroke="#004357" stroke-width="2" stroke-miterlimit="10"/>
  <path d="M23.75 3.21289V13.8358" stroke="#004357" stroke-width="2" stroke-miterlimit="10"/>
  <path d="M22.8833 13.8359H4.25V19.59H22.8833V13.8359Z" fill="#004357"/>
</svg>
