<svg width="106" height="88" viewBox="0 0 106 88" fill="none" xmlns="http://www.w3.org/2000/svg">
  <path d="M23.1 14.2793H4.03333V81.1154H23.1V14.2793Z" stroke="#004357" stroke-width="2" stroke-miterlimit="10"/>
  <path d="M25.0067 13.8361H2.12667C1.52 13.8361 1 13.3049 1 12.6852V2.15082C1 1.53115 1.52 1 2.12667 1H25.0067C25.6133 1 26.1333 1.53115 26.1333 2.15082V12.6852C26.1333 13.3049 25.6133 13.8361 25.0067 13.8361Z" stroke="#004357" stroke-width="2" stroke-miterlimit="10"/>
  <path d="M3.38333 3.21289V13.8358" stroke="#004357" stroke-width="2" stroke-miterlimit="10"/>
  <path d="M5.94 3.21289V13.8358" stroke="#004357" stroke-width="2" stroke-miterlimit="10"/>
  <path d="M8.45334 3.21289V13.8358" stroke="#004357" stroke-width="2" stroke-miterlimit="10"/>
  <path d="M11.01 3.21289V13.8358" stroke="#004357" stroke-width="2" stroke-miterlimit="10"/>
  <path d="M13.5667 3.21289V13.8358" stroke="#004357" stroke-width="2" stroke-miterlimit="10"/>
  <path d="M16.1233 3.21289V13.8358" stroke="#004357" stroke-width="2" stroke-miterlimit="10"/>
  <path d="M18.68 3.21289V13.8358" stroke="#004357" stroke-width="2" stroke-miterlimit="10"/>
  <path d="M21.1933 3.21289V13.8358" stroke="#004357" stroke-width="2" stroke-miterlimit="10"/>
  <path d="M23.75 3.21289V13.8358" stroke="#004357" stroke-width="2" stroke-miterlimit="10"/>
  <path d="M22.8833 13.8359H4.25V19.59H22.8833V13.8359Z" fill="#004357"/>
  <path d="M89.8415 28.5098H95.9619" stroke="#004357" stroke-width="2" stroke-miterlimit="10"/>
  <path d="M89.8412 14.4336L85.8017 18.4731" stroke="#004357" stroke-width="2" stroke-miterlimit="10"/>
  <path d="M75.8376 8.55664V14.1874" stroke="#004357" stroke-width="2" stroke-miterlimit="10"/>
  <path d="M61.6871 28.5098H55.5667" stroke="#004357" stroke-width="2" stroke-miterlimit="10"/>
  <path d="M61.6873 14.4336L65.7268 18.4731" stroke="#004357" stroke-width="2" stroke-miterlimit="10"/>
  <path d="M75.7639 40.016C81.8483 40.016 86.7807 35.0836 86.7807 28.9992C86.7807 22.9148 81.8483 17.9824 75.7639 17.9824C69.6795 17.9824 64.7472 22.9148 64.7472 28.9992C64.7472 35.0836 69.6795 40.016 75.7639 40.016Z" stroke="#004357" stroke-width="2" stroke-miterlimit="10"/>
  <path d="M61.6887 42.7094L65.7281 38.6699" stroke="#004357" stroke-width="2" stroke-miterlimit="10"/>
  <path d="M75.6917 48.5839V42.9531" stroke="#004357" stroke-width="2" stroke-miterlimit="10"/>
  <path d="M89.8434 42.7094L85.804 38.6699" stroke="#004357" stroke-width="2" stroke-miterlimit="10"/>
  <path d="M48.1627 71.5566H49.8907V62.8086H46.9987V64.3566H48.1627V71.5566ZM51.6661 71.4366H57.5941V70.0446H54.0541C55.4461 68.8686 57.4021 67.2846 57.4021 65.2566C57.4021 63.7326 56.4541 62.6166 54.5701 62.6166C52.9981 62.6166 51.7141 63.5406 51.6541 65.5446H53.2861C53.2981 64.6206 53.7421 64.0446 54.5461 64.0446C55.3741 64.0446 55.7221 64.5726 55.7221 65.3526C55.7221 66.9606 53.6461 68.5086 51.6661 70.1886V71.4366ZM60.8206 70.6566C60.8206 70.1046 60.3886 69.6726 59.8006 69.6726C59.1886 69.6726 58.7566 70.1046 58.7566 70.6566C58.7566 71.2086 59.1886 71.6406 59.8006 71.6406C60.3886 71.6406 60.8206 71.2086 60.8206 70.6566ZM60.8206 65.6886C60.8206 65.1366 60.3886 64.7046 59.8006 64.7046C59.1886 64.7046 58.7566 65.1366 58.7566 65.6886C58.7566 66.2406 59.1886 66.6726 59.8006 66.6726C60.3886 66.6726 60.8206 66.2406 60.8206 65.6886ZM62.2287 67.0686C62.2287 69.6246 62.9967 71.5326 65.4687 71.5326C67.9407 71.5326 68.7087 69.6246 68.7087 67.0686C68.7087 64.5366 67.9407 62.6406 65.4687 62.6406C62.9967 62.6406 62.2287 64.5366 62.2287 67.0686ZM67.0527 67.0686C67.0527 68.6286 66.8847 69.9726 65.4687 69.9726C64.0527 69.9726 63.8847 68.6286 63.8847 67.0686C63.8847 65.5686 64.0527 64.2006 65.4687 64.2006C66.8847 64.2006 67.0527 65.5686 67.0527 67.0686ZM70.1984 67.0686C70.1984 69.6246 70.9664 71.5326 73.4384 71.5326C75.9104 71.5326 76.6784 69.6246 76.6784 67.0686C76.6784 64.5366 75.9104 62.6406 73.4384 62.6406C70.9664 62.6406 70.1984 64.5366 70.1984 67.0686ZM75.0224 67.0686C75.0224 68.6286 74.8544 69.9726 73.4384 69.9726C72.0224 69.9726 71.8544 68.6286 71.8544 67.0686C71.8544 65.5686 72.0224 64.2006 73.4384 64.2006C74.8544 64.2006 75.0224 65.5686 75.0224 67.0686ZM83.1112 65.8686V64.9086H81.4312V74.7246H83.1112V70.6086C83.5192 71.1486 84.2632 71.6646 85.3072 71.6646C87.0112 71.6646 88.3432 70.2846 88.3432 68.2086C88.3432 66.1326 87.0112 64.8006 85.3072 64.8006C84.2752 64.8006 83.5072 65.3046 83.1112 65.8686ZM86.6272 68.2086C86.6272 69.4686 85.7752 70.1886 84.8632 70.1886C83.9632 70.1886 83.1112 69.4926 83.1112 68.2326C83.1112 66.9726 83.9632 66.2766 84.8632 66.2766C85.7752 66.2766 86.6272 66.9486 86.6272 68.2086ZM91.5398 70.6566C91.5398 70.1046 91.1078 69.6726 90.5198 69.6726C89.9078 69.6726 89.4758 70.1046 89.4758 70.6566C89.4758 71.2086 89.9078 71.6406 90.5198 71.6406C91.1078 71.6406 91.5398 71.2086 91.5398 70.6566ZM102.405 71.5566H104.085V67.6566C104.085 65.8206 102.957 64.8126 101.361 64.8126C100.389 64.8126 99.5128 65.3286 99.0808 66.0846C98.6248 65.2566 97.7728 64.8126 96.7408 64.8126C95.9128 64.8126 95.2048 65.1606 94.7848 65.7126V64.9086H93.1048V71.5566H94.7848V67.8846C94.7848 66.8286 95.3728 66.2766 96.2848 66.2766C97.1728 66.2766 97.7608 66.8286 97.7608 67.8846V71.5566H99.4408V67.8846C99.4408 66.8286 100.029 66.2766 100.929 66.2766C101.817 66.2766 102.405 66.8286 102.405 67.8846V71.5566Z" fill="#004357"/>
</svg>
