<svg width="103" height="133" viewBox="0 0 103 133" fill="none" xmlns="http://www.w3.org/2000/svg">
  <path d="M101.794 43.7349V122.161C101.794 127.207 97.6466 131.36 92.6069 131.36H10.1869C5.14725 131.36 1 127.207 1 122.161V10.1988C1 5.1526 5.14725 1 10.1869 1H53.8643H59.6389C60.4264 1 61.1613 1.31539 61.6863 1.84103L100.954 41.6849C101.479 42.2106 101.794 42.9465 101.794 43.7349Z" stroke="#004357" stroke-width="2" stroke-miterlimit="10"/>
  <path d="M101.794 49.885H53.4968V1" stroke="#004357" stroke-width="2" stroke-miterlimit="10"/>
  <path d="M74.4955 77.2186H27.2484C23.7836 77.2186 20.9488 74.3801 20.9488 70.9109V65.6544C20.9488 62.1852 23.7836 59.3467 27.2484 59.3467H74.4955C77.9603 59.3467 80.7951 62.1852 80.7951 65.6544V70.9109C80.7951 74.3801 77.9603 77.2186 74.4955 77.2186Z" stroke="#004357" stroke-width="2" stroke-miterlimit="10"/>
  <path d="M74.4955 95.0904H27.2484C23.7836 95.0904 20.9488 92.252 20.9488 88.7827V83.5262C20.9488 80.057 23.7836 77.2185 27.2484 77.2185H74.4955C77.9603 77.2185 80.7951 80.057 80.7951 83.5262V88.7827C80.7951 92.252 77.9603 95.0904 74.4955 95.0904Z" stroke="#004357" stroke-width="2" stroke-miterlimit="10"/>
  <path d="M52.9718 112.963H27.2484C23.7836 112.963 20.9488 110.124 20.9488 106.655V101.398C20.9488 97.9291 23.7836 95.0906 27.2484 95.0906H52.9718C56.4366 95.0906 59.2714 97.9291 59.2714 101.398V106.655C59.2714 110.124 56.4366 112.963 52.9718 112.963Z" stroke="#004357" stroke-width="2" stroke-miterlimit="10"/>
</svg>
