<svg width="70" height="134" viewBox="0 0 70 134" fill="none" xmlns="http://www.w3.org/2000/svg">
  <path d="M17.724 74.4113L30.3992 78.5618C31.204 78.8583 31.6064 79.6489 31.3046 80.3406L21.1443 110.383C20.9431 111.074 20.1383 111.47 19.3336 111.272L7.0607 107.023C6.35652 106.825 6.05473 106.034 6.25592 105.441L16.3156 75.2019C16.5168 74.6089 17.1204 74.3125 17.724 74.4113Z" stroke="#004357" stroke-width="2" stroke-miterlimit="10"/>
  <path d="M49.8145 47.6312C49.8145 47.5324 49.8145 47.5324 49.8145 47.4336" stroke="#004357" stroke-width="2" stroke-miterlimit="10"/>
  <path d="M48.6074 48.2235L28.1861 42.1953C26.8784 43.2824 25.8724 44.6659 25.2688 46.3458L1.42727 119.178C-0.0816931 123.822 2.53383 128.862 7.2619 130.345L13.2977 132.222C18.0258 133.705 23.1563 131.135 24.6652 126.491L48.6074 53.5599C49.2109 51.8799 49.2109 50.1011 48.708 48.5199L48.6074 48.2235Z" stroke="#004357" stroke-width="2" stroke-miterlimit="10"/>
  <path d="M49.7139 47.432C49.7139 47.3332 49.7139 47.3332 49.6133 47.2344" stroke="#004357" stroke-width="2" stroke-miterlimit="10"/>
  <path d="M29.2927 41.899L24.1623 40.5155C23.1563 40.219 22.5527 39.2308 22.8545 38.3414L34.725 2.27131C35.0268 1.28309 36.1333 0.78898 37.2399 1.08545L66.6143 8.89239C67.6203 9.18886 68.2239 10.1771 67.9221 11.0665L55.951 47.1365C55.6492 48.1248 54.5426 48.6189 53.4361 48.3224L49.6134 47.3342L29.2927 41.899Z" stroke="#004357" stroke-width="2" stroke-miterlimit="10"/>
</svg>
