<svg width="83" height="136" viewBox="0 0 83 136" fill="none" xmlns="http://www.w3.org/2000/svg">
  <g clip-path="url(#clip0_1251_1721)">
    <path d="M27.5 92.5996L21 111.7C20.8 112.4 20 112.8 19.2 112.6L7.00002 108.3C6.30002 108.1 6.00002 107.3 6.20002 106.7L16.2 76.0996C16.4 75.4996 17 75.1996 17.6 75.3996L24.6 77.5996" stroke="#004357" stroke-width="2" stroke-miterlimit="10"/>
    <path d="M49.5 48.2C49.5 48.1 49.5 48.1 49.5 48" stroke="#004357" stroke-width="2" stroke-miterlimit="10"/>
    <path d="M38.5 85.5992L48.3 54.2992C48.9 52.5992 48.9 50.7992 48.4 49.1992L48.3 48.7992L28 42.6992C26.7 43.7992 25.7 45.1992 25.1 46.8992L1.40001 120.599C-0.0999906 125.299 2.50001 130.399 7.20001 131.899L13.2 133.799C17.9 135.299 23 132.699 24.5 127.999L27.7 118.099" stroke="#004357" stroke-width="2" stroke-miterlimit="10"/>
    <path d="M49.4 48.0008C49.4 47.9008 49.4 47.9008 49.3 47.8008" stroke="#004357" stroke-width="2" stroke-miterlimit="10"/>
    <path d="M29.1 42.4001L24 41.0001C23 40.7001 22.4 39.7001 22.7 38.8001L34.5 2.30014C34.8 1.30014 35.9 0.800137 37 1.10014L66.2 9.00014C67.2 9.30014 67.8 10.3001 67.5 11.2001L55.6 47.7001C55.3 48.7001 54.2 49.2001 53.1 48.9001L49.3 47.9001L29.1 42.4001Z" stroke="#004357" stroke-width="2" stroke-miterlimit="10"/>
    <path d="M49.9 127.898C61.2218 127.898 70.4 118.72 70.4 107.398C70.4 96.0766 61.2218 86.8984 49.9 86.8984C38.5782 86.8984 29.4 96.0766 29.4 107.398C29.4 118.72 38.5782 127.898 49.9 127.898Z" stroke="#004357" stroke-width="2" stroke-miterlimit="10"/>
    <path d="M49.9 132.398C63.7071 132.398 74.9 121.206 74.9 107.398C74.9 93.5913 63.7071 82.3984 49.9 82.3984C36.0929 82.3984 24.9 93.5913 24.9 107.398C24.9 121.206 36.0929 132.398 49.9 132.398Z" stroke="#004357" stroke-width="2" stroke-miterlimit="10"/>
    <path d="M47 82.2988V78.2988H53.8V82.8988" stroke="#004357" stroke-width="2" stroke-miterlimit="10"/>
    <path d="M65.9 87.8992L70.7 83.1992L75.9 88.3992L71 93.2992" stroke="#004357" stroke-width="2" stroke-miterlimit="10"/>
    <path d="M80.8 93.2994L64.8 77.1994C64.8 77.1994 85.8 71.4994 80.8 93.2994Z" stroke="#004357" stroke-width="2" stroke-miterlimit="10"/>
    <path d="M34.2 87.8992L29.4 83.1992L24.3 88.3992L29.1 93.2992" stroke="#004357" stroke-width="2" stroke-miterlimit="10"/>
    <path d="M19.3 93.2994L35.4 77.1994C35.4 77.1994 14.3 71.4994 19.3 93.2994Z" stroke="#004357" stroke-width="2" stroke-miterlimit="10"/>
    <path d="M36.1 128.6L30.4 134.3" stroke="#004357" stroke-width="2" stroke-miterlimit="10"/>
    <path d="M63.6 128.6L69.3 134.3" stroke="#004357" stroke-width="2" stroke-miterlimit="10"/>
    <path d="M61.2 98.7984C61.8627 98.7984 62.4 98.2612 62.4 97.5984C62.4 96.9357 61.8627 96.3984 61.2 96.3984C60.5373 96.3984 60 96.9357 60 97.5984C60 98.2612 60.5373 98.7984 61.2 98.7984Z" fill="#004357"/>
    <path d="M39.6 98.7984C40.2628 98.7984 40.8 98.2612 40.8 97.5984C40.8 96.9357 40.2628 96.3984 39.6 96.3984C38.9373 96.3984 38.4 96.9357 38.4 97.5984C38.4 98.2612 38.9373 98.7984 39.6 98.7984Z" fill="#004357"/>
    <path d="M35.3 109.5C35.9627 109.5 36.5 108.962 36.5 108.3C36.5 107.637 35.9627 107.1 35.3 107.1C34.6373 107.1 34.1 107.637 34.1 108.3C34.1 108.962 34.6373 109.5 35.3 109.5Z" fill="#004357"/>
    <path d="M65.7 109.5C66.3627 109.5 66.9 108.962 66.9 108.3C66.9 107.637 66.3627 107.1 65.7 107.1C65.0373 107.1 64.5 107.637 64.5 108.3C64.5 108.962 65.0373 109.5 65.7 109.5Z" fill="#004357"/>
    <path d="M61.2 120.199C61.8627 120.199 62.4 119.662 62.4 118.999C62.4 118.336 61.8627 117.799 61.2 117.799C60.5373 117.799 60 118.336 60 118.999C60 119.662 60.5373 120.199 61.2 120.199Z" fill="#004357"/>
    <path d="M50.3 109.898C51.6807 109.898 52.8 108.779 52.8 107.398C52.8 106.018 51.6807 104.898 50.3 104.898C48.9193 104.898 47.8 106.018 47.8 107.398C47.8 108.779 48.9193 109.898 50.3 109.898Z" stroke="#004357" stroke-width="2" stroke-miterlimit="10"/>
    <path d="M50.2 92.1992L50.3 104.699" stroke="#004357" stroke-width="2" stroke-miterlimit="10"/>
    <path d="M50.3 124.798C50.9627 124.798 51.5 124.261 51.5 123.598C51.5 122.936 50.9627 122.398 50.3 122.398C49.6373 122.398 49.1 122.936 49.1 123.598C49.1 124.261 49.6373 124.798 50.3 124.798Z" fill="#004357"/>
    <path d="M39.8 120.199C40.4627 120.199 41 119.662 41 118.999C41 118.336 40.4627 117.799 39.8 117.799C39.1373 117.799 38.6 118.336 38.6 118.999C38.6 119.662 39.1373 120.199 39.8 120.199Z" fill="#004357"/>
  </g>
  <defs>
    <clipPath id="clip0_1251_1721">
      <rect width="82.6" height="135.3" fill="white"/>
    </clipPath>
  </defs>
</svg>
