<svg width="461" height="534" viewBox="0 0 461 534" fill="none" xmlns="http://www.w3.org/2000/svg">
  <g clip-path="url(#clip0_1247_631)">
    <path d="M138.345 61.4875H65.6548C62.2762 61.4875 59.5119 58.7194 59.5119 55.3362V7.66396C59.5119 4.28076 62.2762 1.5127 65.6548 1.5127H138.345C141.724 1.5127 144.488 4.28076 144.488 7.66396V55.3362C144.488 58.7194 141.724 61.4875 138.345 61.4875Z" stroke="#004357" stroke-width="2" stroke-miterlimit="10"/>
    <path d="M102 1.5127V61.4875" stroke="#004357" stroke-width="2" stroke-miterlimit="10"/>
    <path d="M135.018 19.9663H110.958V25.0924H135.018V19.9663Z" stroke="#004357" stroke-width="2" stroke-miterlimit="10"/>
    <path d="M135.018 30.2188H110.958V35.3448H135.018V30.2188Z" stroke="#004357" stroke-width="2" stroke-miterlimit="10"/>
    <path d="M135.018 40.4707H110.958V45.5968H135.018V40.4707Z" stroke="#004357" stroke-width="2" stroke-miterlimit="10"/>
  </g>
  <path d="M12.8175 93H14.2895V81.432H11.2815V82.76H12.8175V93ZM18.4545 92.104C18.4545 91.544 18.0225 91.112 17.4945 91.112C16.9345 91.112 16.5025 91.544 16.5025 92.104C16.5025 92.664 16.9345 93.096 17.4945 93.096C18.0225 93.096 18.4545 92.664 18.4545 92.104ZM25.7232 81.848V93H31.0832V91.816H27.1792V81.848H25.7232ZM36.5692 85.32C38.0732 85.32 39.3532 86.264 39.3372 87.976H33.8012C33.9612 86.264 35.1452 85.32 36.5692 85.32ZM40.6652 90.296H39.0972C38.7772 91.24 37.9452 91.912 36.6332 91.912C35.1452 91.912 33.8972 90.936 33.7852 89.16H40.7932C40.8252 88.856 40.8412 88.6 40.8412 88.28C40.8412 85.88 39.1772 84.088 36.6332 84.088C34.0732 84.088 32.2972 85.832 32.2972 88.6C32.2972 91.384 34.1372 93.144 36.6332 93.144C38.8092 93.144 40.2172 91.896 40.6652 90.296ZM42.4309 88.6C42.4309 91.384 44.2069 93.144 46.7029 93.144C48.8789 93.144 50.3029 91.928 50.7509 90.184H49.1829C48.8629 91.288 47.9989 91.912 46.7029 91.912C45.1029 91.912 43.9189 90.776 43.9189 88.6C43.9189 86.456 45.1029 85.32 46.7029 85.32C47.9989 85.32 48.8789 85.992 49.1829 87.048H50.7509C50.3029 85.208 48.8789 84.088 46.7029 84.088C44.2069 84.088 42.4309 85.848 42.4309 88.6ZM53.2255 90.6C53.2255 92.36 54.1055 93 55.6575 93H56.9695V91.768H55.8975C55.0015 91.768 54.6815 91.464 54.6815 90.6V85.432H56.9695V84.232H54.6815V82.024H53.2255V84.232H52.0895V85.432H53.2255V90.6ZM66.7215 84.232H65.2655V89.048C65.2655 90.936 64.2575 91.864 62.7535 91.864C61.2815 91.864 60.3055 90.952 60.3055 89.176V84.232H58.8655V89.368C58.8655 91.88 60.4495 93.128 62.4655 93.128C63.6335 93.128 64.7055 92.616 65.2655 91.704V93H66.7215V84.232ZM70.8476 88.232C70.8476 86.2 71.9036 85.576 73.2956 85.576H73.6796V84.072C72.2876 84.072 71.3436 84.68 70.8476 85.656V84.232H69.3916V93H70.8476V88.232ZM75.0282 88.584C75.0282 91.304 76.8362 93.144 79.1722 93.144C80.7882 93.144 81.9242 92.312 82.4522 91.368V93H83.9242V84.232H82.4522V85.832C81.9402 84.92 80.8202 84.088 79.1882 84.088C76.8362 84.088 75.0282 85.848 75.0282 88.584ZM82.4522 88.6C82.4522 90.664 81.0762 91.864 79.4762 91.864C77.8762 91.864 76.5162 90.648 76.5162 88.584C76.5162 86.52 77.8762 85.352 79.4762 85.352C81.0762 85.352 82.4522 86.568 82.4522 88.6ZM94.402 91.336L91.65 84.232H90.034L93.57 92.904L91.842 97.128H93.346L98.626 84.232H97.122L94.402 91.336ZM104.235 88.584C104.235 91.304 106.043 93.144 108.379 93.144C109.995 93.144 111.131 92.312 111.659 91.368V93H113.131V84.232H111.659V85.832C111.147 84.92 110.027 84.088 108.395 84.088C106.043 84.088 104.235 85.848 104.235 88.584ZM111.659 88.6C111.659 90.664 110.283 91.864 108.683 91.864C107.083 91.864 105.723 90.648 105.723 88.584C105.723 86.52 107.083 85.352 108.683 85.352C110.283 85.352 111.659 86.568 111.659 88.6ZM117.259 85.848V84.232H115.803V97.16H117.259V91.384C117.803 92.28 118.939 93.144 120.539 93.144C122.891 93.144 124.699 91.304 124.699 88.584C124.699 85.848 122.891 84.088 120.539 84.088C118.939 84.088 117.787 84.92 117.259 85.848ZM123.211 88.584C123.211 90.648 121.851 91.864 120.235 91.864C118.651 91.864 117.259 90.664 117.259 88.6C117.259 86.568 118.651 85.352 120.235 85.352C121.851 85.352 123.211 86.52 123.211 88.584ZM128.284 88.232C128.284 86.2 129.34 85.576 130.732 85.576H131.116V84.072C129.724 84.072 128.78 84.68 128.284 85.656V84.232H126.828V93H128.284V88.232ZM141.328 88.6C141.328 85.832 139.392 84.088 136.896 84.088C134.416 84.088 132.464 85.832 132.464 88.6C132.464 91.384 134.352 93.144 136.832 93.144C139.328 93.144 141.328 91.384 141.328 88.6ZM133.952 88.6C133.952 86.392 135.344 85.352 136.88 85.352C138.384 85.352 139.84 86.392 139.84 88.6C139.84 90.824 138.352 91.864 136.832 91.864C135.312 91.864 133.952 90.824 133.952 88.6ZM144.91 85.864V81.16H143.454V93H144.91V91.384C145.454 92.344 146.59 93.144 148.19 93.144C150.542 93.144 152.35 91.304 152.35 88.584C152.35 85.848 150.558 84.088 148.19 84.088C146.638 84.088 145.47 84.888 144.91 85.864ZM150.862 88.584C150.862 90.648 149.502 91.864 147.886 91.864C146.302 91.864 144.91 90.664 144.91 88.6C144.91 86.568 146.302 85.352 147.886 85.352C149.502 85.352 150.862 86.52 150.862 88.584ZM153.935 88.584C153.935 91.304 155.743 93.144 158.079 93.144C159.695 93.144 160.831 92.312 161.359 91.368V93H162.831V84.232H161.359V85.832C160.847 84.92 159.727 84.088 158.095 84.088C155.743 84.088 153.935 85.848 153.935 88.584ZM161.359 88.6C161.359 90.664 159.983 91.864 158.383 91.864C156.783 91.864 155.423 90.648 155.423 88.584C155.423 86.52 156.783 85.352 158.383 85.352C159.983 85.352 161.359 86.568 161.359 88.6ZM164.959 88.6C164.959 91.384 166.735 93.144 169.231 93.144C171.407 93.144 172.831 91.928 173.279 90.184H171.711C171.391 91.288 170.527 91.912 169.231 91.912C167.631 91.912 166.447 90.776 166.447 88.6C166.447 86.456 167.631 85.32 169.231 85.32C170.527 85.32 171.407 85.992 171.711 87.048H173.279C172.831 85.208 171.407 84.088 169.231 84.088C166.735 84.088 164.959 85.848 164.959 88.6ZM175.433 93H176.889V84.232H175.433V93ZM176.185 82.808C176.713 82.808 177.145 82.376 177.145 81.816C177.145 81.256 176.713 80.824 176.185 80.824C175.625 80.824 175.193 81.256 175.193 81.816C175.193 82.376 175.625 82.808 176.185 82.808ZM187.903 88.6C187.903 85.832 185.967 84.088 183.471 84.088C180.991 84.088 179.039 85.832 179.039 88.6C179.039 91.384 180.927 93.144 183.407 93.144C185.903 93.144 187.903 91.384 187.903 88.6ZM180.527 88.6C180.527 86.392 181.919 85.352 183.455 85.352C184.959 85.352 186.415 86.392 186.415 88.6C186.415 90.824 184.927 91.864 183.407 91.864C181.887 91.864 180.527 90.824 180.527 88.6ZM181.631 82.376V83.464L185.039 81.64V80.376L181.631 82.376ZM196.445 93H197.885V87.832C197.885 85.32 196.333 84.072 194.301 84.072C193.117 84.072 192.061 84.568 191.485 85.48V84.232H190.029V93H191.485V88.152C191.485 86.264 192.509 85.336 193.997 85.336C195.469 85.336 196.445 86.248 196.445 88.04V93ZM23.7 104.584C23.7 107.304 25.508 109.144 27.86 109.144C29.46 109.144 30.596 108.328 31.124 107.352V109H32.596V97.16H31.124V101.8C30.516 100.792 29.252 100.088 27.876 100.088C25.508 100.088 23.7 101.848 23.7 104.584ZM31.124 104.6C31.124 106.664 29.748 107.864 28.148 107.864C26.548 107.864 25.188 106.648 25.188 104.584C25.188 102.52 26.548 101.352 28.148 101.352C29.748 101.352 31.124 102.568 31.124 104.6ZM38.9964 101.32C40.5004 101.32 41.7804 102.264 41.7644 103.976H36.2284C36.3884 102.264 37.5724 101.32 38.9964 101.32ZM43.0924 106.296H41.5244C41.2044 107.24 40.3724 107.912 39.0604 107.912C37.5724 107.912 36.3244 106.936 36.2124 105.16H43.2204C43.2524 104.856 43.2684 104.6 43.2684 104.28C43.2684 101.88 41.6044 100.088 39.0604 100.088C36.5004 100.088 34.7244 101.832 34.7244 104.6C34.7244 107.384 36.5644 109.144 39.0604 109.144C41.2364 109.144 42.6444 107.896 43.0924 106.296ZM49.3355 104.6C49.3355 107.384 51.1115 109.144 53.6075 109.144C55.7835 109.144 57.2075 107.928 57.6555 106.184H56.0875C55.7675 107.288 54.9035 107.912 53.6075 107.912C52.0075 107.912 50.8235 106.776 50.8235 104.6C50.8235 102.456 52.0075 101.32 53.6075 101.32C54.9035 101.32 55.7835 101.992 56.0875 103.048H57.6555C57.2075 101.208 55.7835 100.088 53.6075 100.088C51.1115 100.088 49.3355 101.848 49.3355 104.6ZM68.1301 104.6C68.1301 101.832 66.1941 100.088 63.6981 100.088C61.2181 100.088 59.2661 101.832 59.2661 104.6C59.2661 107.384 61.1541 109.144 63.6341 109.144C66.1301 109.144 68.1301 107.384 68.1301 104.6ZM60.7541 104.6C60.7541 102.392 62.1461 101.352 63.6821 101.352C65.1861 101.352 66.6421 102.392 66.6421 104.6C66.6421 106.824 65.1541 107.864 63.6341 107.864C62.1141 107.864 60.7541 106.824 60.7541 104.6ZM76.6723 109H78.1123V103.832C78.1123 101.32 76.5603 100.072 74.5283 100.072C73.3443 100.072 72.2883 100.568 71.7123 101.48V100.232H70.2563V109H71.7123V104.152C71.7123 102.264 72.7363 101.336 74.2243 101.336C75.6963 101.336 76.6723 102.248 76.6723 104.04V109ZM87.0065 106.616C86.9425 103.48 81.8545 104.616 81.8545 102.536C81.8545 101.832 82.4945 101.32 83.5665 101.32C84.7345 101.32 85.4065 101.96 85.4705 102.84H86.9265C86.8305 101.128 85.5505 100.088 83.6145 100.088C81.6625 100.088 80.3985 101.192 80.3985 102.536C80.3985 105.8 85.5825 104.664 85.5825 106.616C85.5825 107.336 84.9425 107.912 83.7905 107.912C82.5585 107.912 81.8065 107.272 81.7265 106.424H80.2225C80.3185 108.024 81.7585 109.144 83.8065 109.144C85.7425 109.144 87.0065 108.056 87.0065 106.616ZM93.0016 101.32C94.5056 101.32 95.7856 102.264 95.7696 103.976H90.2336C90.3936 102.264 91.5776 101.32 93.0016 101.32ZM97.0976 106.296H95.5296C95.2096 107.24 94.3776 107.912 93.0656 107.912C91.5776 107.912 90.3296 106.936 90.2176 105.16H97.2256C97.2576 104.856 97.2736 104.6 97.2736 104.28C97.2736 101.88 95.6096 100.088 93.0656 100.088C90.5056 100.088 88.7296 101.832 88.7296 104.6C88.7296 107.384 90.5696 109.144 93.0656 109.144C95.2416 109.144 96.6496 107.896 97.0976 106.296ZM105.823 109H107.263V103.832C107.263 101.32 105.711 100.072 103.679 100.072C102.495 100.072 101.439 100.568 100.863 101.48V100.232H99.4073V109H100.863V104.152C100.863 102.264 101.887 101.336 103.375 101.336C104.847 101.336 105.823 102.248 105.823 104.04V109ZM110.174 106.6C110.174 108.36 111.054 109 112.606 109H113.918V107.768H112.846C111.95 107.768 111.63 107.464 111.63 106.6V101.432H113.918V100.232H111.63V98.024H110.174V100.232H109.038V101.432H110.174V106.6ZM115.893 109H117.349V100.232H115.893V109ZM116.645 98.808C117.173 98.808 117.605 98.376 117.605 97.816C117.605 97.256 117.173 96.824 116.645 96.824C116.085 96.824 115.653 97.256 115.653 97.816C115.653 98.376 116.085 98.808 116.645 98.808ZM132.699 109H134.139V103.832C134.139 101.32 132.587 100.072 130.587 100.072C129.243 100.072 127.995 100.76 127.483 102.024C126.907 100.712 125.707 100.072 124.267 100.072C123.115 100.072 122.075 100.568 121.499 101.496V100.232H120.043V109H121.499V104.168C121.499 102.28 122.507 101.336 123.979 101.336C125.419 101.336 126.379 102.248 126.379 104.04V109H127.819V104.168C127.819 102.28 128.827 101.336 130.299 101.336C131.739 101.336 132.699 102.248 132.699 104.04V109ZM136.739 109H138.195V100.232H136.739V109ZM137.491 98.808C138.019 98.808 138.451 98.376 138.451 97.816C138.451 97.256 138.019 96.824 137.491 96.824C136.931 96.824 136.499 97.256 136.499 97.816C136.499 98.376 136.931 98.808 137.491 98.808ZM144.616 101.32C146.12 101.32 147.4 102.264 147.384 103.976H141.848C142.008 102.264 143.192 101.32 144.616 101.32ZM148.712 106.296H147.144C146.824 107.24 145.992 107.912 144.68 107.912C143.192 107.912 141.944 106.936 141.832 105.16H148.84C148.872 104.856 148.888 104.6 148.888 104.28C148.888 101.88 147.224 100.088 144.68 100.088C142.12 100.088 140.344 101.832 140.344 104.6C140.344 107.384 142.184 109.144 144.68 109.144C146.856 109.144 148.264 107.896 148.712 106.296ZM157.438 109H158.878V103.832C158.878 101.32 157.326 100.072 155.294 100.072C154.11 100.072 153.054 100.568 152.478 101.48V100.232H151.022V109H152.478V104.152C152.478 102.264 153.502 101.336 154.99 101.336C156.462 101.336 157.438 102.248 157.438 104.04V109ZM161.788 106.6C161.788 108.36 162.668 109 164.22 109H165.532V107.768H164.46C163.564 107.768 163.244 107.464 163.244 106.6V101.432H165.532V100.232H163.244V98.024H161.788V100.232H160.652V101.432H161.788V106.6ZM175.828 104.6C175.828 101.832 173.892 100.088 171.396 100.088C168.916 100.088 166.964 101.832 166.964 104.6C166.964 107.384 168.852 109.144 171.332 109.144C173.828 109.144 175.828 107.384 175.828 104.6ZM168.452 104.6C168.452 102.392 169.844 101.352 171.38 101.352C172.884 101.352 174.34 102.392 174.34 104.6C174.34 106.824 172.852 107.864 171.332 107.864C169.812 107.864 168.452 106.824 168.452 104.6ZM58.6069 125H60.0629V116.232H58.6069V125ZM59.3589 114.808C59.8869 114.808 60.3189 114.376 60.3189 113.816C60.3189 113.256 59.8869 112.824 59.3589 112.824C58.7989 112.824 58.3669 113.256 58.3669 113.816C58.3669 114.376 58.7989 114.808 59.3589 114.808ZM69.1723 125H70.6123V119.832C70.6123 117.32 69.0603 116.072 67.0283 116.072C65.8443 116.072 64.7883 116.568 64.2123 117.48V116.232H62.7563V125H64.2123V120.152C64.2123 118.264 65.2363 117.336 66.7243 117.336C68.1963 117.336 69.1723 118.248 69.1723 120.04V125ZM73.4745 125H74.9305V117.432H76.7705V116.232H74.9305V115.608C74.9305 114.472 75.3625 113.992 76.6745 113.992V112.776C74.4345 112.776 73.4745 113.656 73.4745 115.608V116.232H72.3385V117.432H73.4745V125ZM86.9999 120.6C86.9999 117.832 85.0639 116.088 82.5679 116.088C80.0879 116.088 78.1359 117.832 78.1359 120.6C78.1359 123.384 80.0239 125.144 82.5039 125.144C84.9999 125.144 86.9999 123.384 86.9999 120.6ZM79.6239 120.6C79.6239 118.392 81.0159 117.352 82.5519 117.352C84.0559 117.352 85.5119 118.392 85.5119 120.6C85.5119 122.824 84.0239 123.864 82.5039 123.864C80.9839 123.864 79.6239 122.824 79.6239 120.6ZM90.5821 120.232C90.5821 118.2 91.6381 117.576 93.0301 117.576H93.4141V116.072C92.0221 116.072 91.0781 116.68 90.5821 117.656V116.232H89.1261V125H90.5821V120.232ZM107.963 125H109.403V119.832C109.403 117.32 107.851 116.072 105.851 116.072C104.507 116.072 103.259 116.76 102.747 118.024C102.171 116.712 100.971 116.072 99.5307 116.072C98.3787 116.072 97.3387 116.568 96.7627 117.496V116.232H95.3067V125H96.7627V120.168C96.7627 118.28 97.7707 117.336 99.2427 117.336C100.683 117.336 101.643 118.248 101.643 120.04V125H103.083V120.168C103.083 118.28 104.091 117.336 105.563 117.336C107.003 117.336 107.963 118.248 107.963 120.04V125ZM111.459 120.584C111.459 123.304 113.267 125.144 115.603 125.144C117.219 125.144 118.355 124.312 118.883 123.368V125H120.355V116.232H118.883V117.832C118.371 116.92 117.251 116.088 115.619 116.088C113.267 116.088 111.459 117.848 111.459 120.584ZM118.883 120.6C118.883 122.664 117.507 123.864 115.907 123.864C114.307 123.864 112.947 122.648 112.947 120.584C112.947 118.52 114.307 117.352 115.907 117.352C117.507 117.352 118.883 118.568 118.883 120.6ZM122.483 120.584C122.483 123.304 124.291 125.144 126.643 125.144C128.243 125.144 129.379 124.328 129.907 123.352V125H131.379V113.16H129.907V117.8C129.299 116.792 128.035 116.088 126.659 116.088C124.291 116.088 122.483 117.848 122.483 120.584ZM129.907 120.6C129.907 122.664 128.531 123.864 126.931 123.864C125.331 123.864 123.971 122.648 123.971 120.584C123.971 118.52 125.331 117.352 126.931 117.352C128.531 117.352 129.907 118.568 129.907 120.6ZM142.372 120.6C142.372 117.832 140.436 116.088 137.94 116.088C135.46 116.088 133.508 117.832 133.508 120.6C133.508 123.384 135.396 125.144 137.876 125.144C140.372 125.144 142.372 123.384 142.372 120.6ZM134.996 120.6C134.996 118.392 136.388 117.352 137.924 117.352C139.428 117.352 140.884 118.392 140.884 120.6C140.884 122.824 139.396 123.864 137.876 123.864C136.356 123.864 134.996 122.824 134.996 120.6ZM145.922 124.104C145.922 123.544 145.49 123.112 144.962 123.112C144.402 123.112 143.97 123.544 143.97 124.104C143.97 124.664 144.402 125.096 144.962 125.096C145.49 125.096 145.922 124.664 145.922 124.104Z" fill="#637080"/>
  <path d="M358.755 35.0409L364.633 36.9655C365.006 37.103 365.192 37.4696 365.052 37.7904L360.341 51.7209C360.248 52.0416 359.875 52.2249 359.501 52.1333L353.81 50.1629C353.484 50.0712 353.344 49.7046 353.437 49.4297L358.102 35.4075C358.195 35.1326 358.475 34.9951 358.755 35.0409Z" stroke="#004357" stroke-width="2" stroke-miterlimit="10"/>
  <path d="M373.635 22.6229C373.635 22.5771 373.635 22.5771 373.635 22.5312" stroke="#004357" stroke-width="2" stroke-miterlimit="10"/>
  <path d="M373.076 22.8978L363.606 20.1025C363 20.6066 362.533 21.2481 362.254 22.0272L351.198 55.7995C350.498 57.9532 351.711 60.2903 353.904 60.9776L356.702 61.8483C358.895 62.5357 361.274 61.3442 361.974 59.1905L373.076 25.3723C373.356 24.5933 373.356 23.7685 373.122 23.0353L373.076 22.8978Z" stroke="#004357" stroke-width="2" stroke-miterlimit="10"/>
  <path d="M373.589 22.5311C373.589 22.4853 373.589 22.4853 373.542 22.4395" stroke="#004357" stroke-width="2" stroke-miterlimit="10"/>
  <path d="M364.119 19.965L361.74 19.3234C361.274 19.186 360.994 18.7277 361.134 18.3153L366.638 1.58951C366.778 1.13127 367.291 0.902149 367.805 1.03962L381.426 4.65973C381.892 4.7972 382.172 5.25544 382.032 5.66786L376.481 22.3937C376.341 22.8519 375.828 23.081 375.315 22.9435L373.542 22.4853L364.119 19.965Z" stroke="#004357" stroke-width="2" stroke-miterlimit="10"/>
  <path d="M286.07 93.872H293.766V92.656H288.262C290.326 90.976 293.43 88.528 293.43 85.648C293.43 83.504 292.022 82.224 289.846 82.224C287.766 82.224 286.214 83.504 286.118 85.968H287.526C287.59 84.512 288.358 83.472 289.862 83.472C291.43 83.472 291.99 84.432 291.99 85.712C291.99 88.08 289.11 90.384 286.07 92.832V93.872ZM297.325 93.104C297.325 92.544 296.893 92.112 296.365 92.112C295.805 92.112 295.373 92.544 295.373 93.104C295.373 93.664 295.805 94.096 296.365 94.096C296.893 94.096 297.325 93.664 297.325 93.104ZM303.262 84.032H306.318V94H307.774V84.032H310.814V82.848H303.262V84.032ZM321.138 89.6C321.138 86.832 319.202 85.088 316.706 85.088C314.226 85.088 312.274 86.832 312.274 89.6C312.274 92.384 314.162 94.144 316.642 94.144C319.138 94.144 321.138 92.384 321.138 89.6ZM313.762 89.6C313.762 87.392 315.154 86.352 316.69 86.352C318.194 86.352 319.65 87.392 319.65 89.6C319.65 91.824 318.162 92.864 316.642 92.864C315.122 92.864 313.762 91.824 313.762 89.6ZM335.92 94H337.36V88.832C337.36 86.32 335.808 85.072 333.808 85.072C332.464 85.072 331.216 85.76 330.704 87.024C330.128 85.712 328.928 85.072 327.488 85.072C326.336 85.072 325.296 85.568 324.72 86.496V85.232H323.264V94H324.72V89.168C324.72 87.28 325.728 86.336 327.2 86.336C328.64 86.336 329.6 87.248 329.6 89.04V94H331.04V89.168C331.04 87.28 332.048 86.336 333.52 86.336C334.96 86.336 335.92 87.248 335.92 89.04V94ZM339.416 89.584C339.416 92.304 341.224 94.144 343.56 94.144C345.176 94.144 346.312 93.312 346.84 92.368V94H348.312V85.232H346.84V86.832C346.328 85.92 345.208 85.088 343.576 85.088C341.224 85.088 339.416 86.848 339.416 89.584ZM346.84 89.6C346.84 91.664 345.464 92.864 343.864 92.864C342.264 92.864 340.904 91.648 340.904 89.584C340.904 87.52 342.264 86.352 343.864 86.352C345.464 86.352 346.84 87.568 346.84 89.6ZM354.918 89.584C354.918 92.304 356.726 94.144 359.078 94.144C360.678 94.144 361.814 93.328 362.342 92.352V94H363.814V82.16H362.342V86.8C361.734 85.792 360.47 85.088 359.094 85.088C356.726 85.088 354.918 86.848 354.918 89.584ZM362.342 89.6C362.342 91.664 360.966 92.864 359.366 92.864C357.766 92.864 356.406 91.648 356.406 89.584C356.406 87.52 357.766 86.352 359.366 86.352C360.966 86.352 362.342 87.568 362.342 89.6ZM370.214 86.32C371.718 86.32 372.998 87.264 372.982 88.976H367.446C367.606 87.264 368.79 86.32 370.214 86.32ZM374.31 91.296H372.742C372.422 92.24 371.59 92.912 370.278 92.912C368.79 92.912 367.542 91.936 367.43 90.16H374.438C374.47 89.856 374.486 89.6 374.486 89.28C374.486 86.88 372.822 85.088 370.278 85.088C367.718 85.088 365.942 86.832 365.942 89.6C365.942 92.384 367.782 94.144 370.278 94.144C372.454 94.144 373.862 92.896 374.31 91.296ZM393.753 94H395.193V88.832C395.193 86.32 393.641 85.072 391.641 85.072C390.297 85.072 389.049 85.76 388.537 87.024C387.961 85.712 386.761 85.072 385.321 85.072C384.169 85.072 383.129 85.568 382.553 86.496V85.232H381.097V94H382.553V89.168C382.553 87.28 383.561 86.336 385.033 86.336C386.473 86.336 387.433 87.248 387.433 89.04V94H388.873V89.168C388.873 87.28 389.881 86.336 391.353 86.336C392.793 86.336 393.753 87.248 393.753 89.04V94ZM405.57 85.232H404.114V90.048C404.114 91.936 403.106 92.864 401.602 92.864C400.13 92.864 399.154 91.952 399.154 90.176V85.232H397.714V90.368C397.714 92.88 399.298 94.128 401.314 94.128C402.482 94.128 403.554 93.616 404.114 92.704V94H405.57V85.232ZM411.968 86.32C413.472 86.32 414.752 87.264 414.736 88.976H409.2C409.36 87.264 410.544 86.32 411.968 86.32ZM416.064 91.296H414.496C414.176 92.24 413.344 92.912 412.032 92.912C410.544 92.912 409.296 91.936 409.184 90.16H416.192C416.224 89.856 416.24 89.6 416.24 89.28C416.24 86.88 414.576 85.088 412.032 85.088C409.472 85.088 407.696 86.832 407.696 89.6C407.696 92.384 409.536 94.144 412.032 94.144C414.208 94.144 415.616 92.896 416.064 91.296ZM424.678 91.616C424.614 88.48 419.526 89.616 419.526 87.536C419.526 86.832 420.166 86.32 421.238 86.32C422.406 86.32 423.078 86.96 423.142 87.84H424.598C424.502 86.128 423.222 85.088 421.286 85.088C419.334 85.088 418.07 86.192 418.07 87.536C418.07 90.8 423.254 89.664 423.254 91.616C423.254 92.336 422.614 92.912 421.462 92.912C420.23 92.912 419.478 92.272 419.398 91.424H417.894C417.99 93.024 419.43 94.144 421.478 94.144C423.414 94.144 424.678 93.056 424.678 91.616ZM427.265 91.6C427.265 93.36 428.145 94 429.697 94H431.009V92.768H429.937C429.041 92.768 428.721 92.464 428.721 91.6V86.432H431.009V85.232H428.721V83.024H427.265V85.232H426.129V86.432H427.265V91.6ZM434.441 89.232C434.441 87.2 435.497 86.576 436.889 86.576H437.273V85.072C435.881 85.072 434.937 85.68 434.441 86.656V85.232H432.985V94H434.441V89.232ZM438.621 89.584C438.621 92.304 440.429 94.144 442.765 94.144C444.381 94.144 445.517 93.312 446.045 92.368V94H447.517V85.232H446.045V86.832C445.533 85.92 444.413 85.088 442.781 85.088C440.429 85.088 438.621 86.848 438.621 89.584ZM446.045 89.6C446.045 91.664 444.669 92.864 443.069 92.864C441.469 92.864 440.109 91.648 440.109 89.584C440.109 87.52 441.469 86.352 443.069 86.352C444.669 86.352 446.045 87.568 446.045 89.6ZM318.012 102.848V101.232H316.556V114.16H318.012V108.384C318.556 109.28 319.692 110.144 321.292 110.144C323.644 110.144 325.452 108.304 325.452 105.584C325.452 102.848 323.644 101.088 321.292 101.088C319.692 101.088 318.54 101.92 318.012 102.848ZM323.964 105.584C323.964 107.648 322.604 108.864 320.988 108.864C319.404 108.864 318.012 107.664 318.012 105.6C318.012 103.568 319.404 102.352 320.988 102.352C322.604 102.352 323.964 103.52 323.964 105.584ZM327.036 105.584C327.036 108.304 328.844 110.144 331.18 110.144C332.796 110.144 333.932 109.312 334.46 108.368V110H335.932V101.232H334.46V102.832C333.948 101.92 332.828 101.088 331.196 101.088C328.844 101.088 327.036 102.848 327.036 105.584ZM334.46 105.6C334.46 107.664 333.084 108.864 331.484 108.864C329.884 108.864 328.524 107.648 328.524 105.584C328.524 103.52 329.884 102.352 331.484 102.352C333.084 102.352 334.46 103.568 334.46 105.6ZM340.06 105.232C340.06 103.2 341.116 102.576 342.508 102.576H342.892V101.072C341.5 101.072 340.556 101.68 340.06 102.656V101.232H338.604V110H340.06V105.232ZM344.241 105.584C344.241 108.304 346.049 110.144 348.385 110.144C350.001 110.144 351.137 109.312 351.665 108.368V110H353.137V101.232H351.665V102.832C351.153 101.92 350.033 101.088 348.401 101.088C346.049 101.088 344.241 102.848 344.241 105.584ZM351.665 105.6C351.665 107.664 350.289 108.864 348.689 108.864C347.089 108.864 345.729 107.648 345.729 105.584C345.729 103.52 347.089 102.352 348.689 102.352C350.289 102.352 351.665 103.568 351.665 105.6ZM361.743 102.848V101.232H360.287V114.16H361.743V108.384C362.287 109.28 363.423 110.144 365.023 110.144C367.375 110.144 369.183 108.304 369.183 105.584C369.183 102.848 367.375 101.088 365.023 101.088C363.423 101.088 362.271 101.92 361.743 102.848ZM367.695 105.584C367.695 107.648 366.335 108.864 364.719 108.864C363.135 108.864 361.743 107.664 361.743 105.6C361.743 103.568 363.135 102.352 364.719 102.352C366.335 102.352 367.695 103.52 367.695 105.584ZM372.767 105.232C372.767 103.2 373.823 102.576 375.215 102.576H375.599V101.072C374.207 101.072 373.263 101.68 372.767 102.656V101.232H371.311V110H372.767V105.232ZM385.268 101.232H383.812V106.048C383.812 107.936 382.804 108.864 381.3 108.864C379.828 108.864 378.852 107.952 378.852 106.176V101.232H377.412V106.368C377.412 108.88 378.996 110.128 381.012 110.128C382.18 110.128 383.252 109.616 383.812 108.704V110H385.268V101.232ZM391.666 102.32C393.17 102.32 394.45 103.264 394.434 104.976H388.898C389.058 103.264 390.242 102.32 391.666 102.32ZM395.762 107.296H394.194C393.874 108.24 393.042 108.912 391.73 108.912C390.242 108.912 388.994 107.936 388.882 106.16H395.89C395.922 105.856 395.938 105.6 395.938 105.28C395.938 102.88 394.274 101.088 391.73 101.088C389.17 101.088 387.394 102.832 387.394 105.6C387.394 108.384 389.234 110.144 391.73 110.144C393.906 110.144 395.314 108.896 395.762 107.296ZM399.527 102.864V98.16H398.071V110H399.527V108.384C400.071 109.344 401.207 110.144 402.807 110.144C405.159 110.144 406.967 108.304 406.967 105.584C406.967 102.848 405.175 101.088 402.807 101.088C401.255 101.088 400.087 101.888 399.527 102.864ZM405.479 105.584C405.479 107.648 404.119 108.864 402.503 108.864C400.919 108.864 399.527 107.664 399.527 105.6C399.527 103.568 400.919 102.352 402.503 102.352C404.119 102.352 405.479 103.52 405.479 105.584ZM408.552 105.584C408.552 108.304 410.36 110.144 412.696 110.144C414.312 110.144 415.448 109.312 415.976 108.368V110H417.448V101.232H415.976V102.832C415.464 101.92 414.344 101.088 412.712 101.088C410.36 101.088 408.552 102.848 408.552 105.584ZM415.976 105.6C415.976 107.664 414.6 108.864 413 108.864C411.4 108.864 410.04 107.648 410.04 105.584C410.04 103.52 411.4 102.352 413 102.352C414.6 102.352 415.976 103.568 415.976 105.6ZM329.567 121.584C329.567 124.304 331.375 126.144 333.727 126.144C335.327 126.144 336.463 125.296 336.991 124.352V126.192C336.991 128.064 335.823 129.056 334.271 129.056C332.831 129.056 331.791 128.336 331.471 127.28H330.031C330.319 129.152 331.967 130.32 334.271 130.32C336.847 130.32 338.463 128.608 338.463 126.192V117.232H336.991V118.832C336.479 117.888 335.327 117.088 333.727 117.088C331.375 117.088 329.567 118.848 329.567 121.584ZM336.991 121.6C336.991 123.664 335.615 124.864 334.015 124.864C332.415 124.864 331.055 123.648 331.055 121.584C331.055 119.52 332.415 118.352 334.015 118.352C335.615 118.352 336.991 119.568 336.991 121.6ZM344.864 118.32C346.368 118.32 347.648 119.264 347.632 120.976H342.096C342.256 119.264 343.44 118.32 344.864 118.32ZM348.96 123.296H347.392C347.072 124.24 346.24 124.912 344.928 124.912C343.44 124.912 342.192 123.936 342.08 122.16H349.088C349.12 121.856 349.136 121.6 349.136 121.28C349.136 118.88 347.472 117.088 344.928 117.088C342.368 117.088 340.592 118.832 340.592 121.6C340.592 124.384 342.432 126.144 344.928 126.144C347.104 126.144 348.512 124.896 348.96 123.296ZM357.685 126H359.125V120.832C359.125 118.32 357.573 117.072 355.541 117.072C354.357 117.072 353.301 117.568 352.725 118.48V117.232H351.269V126H352.725V121.152C352.725 119.264 353.749 118.336 355.237 118.336C356.709 118.336 357.685 119.248 357.685 121.04V126ZM365.443 118.32C366.947 118.32 368.227 119.264 368.211 120.976H362.675C362.835 119.264 364.019 118.32 365.443 118.32ZM369.539 123.296H367.971C367.651 124.24 366.819 124.912 365.507 124.912C364.019 124.912 362.771 123.936 362.659 122.16H369.667C369.699 121.856 369.715 121.6 369.715 121.28C369.715 118.88 368.051 117.088 365.507 117.088C362.947 117.088 361.171 118.832 361.171 121.6C361.171 124.384 363.011 126.144 365.507 126.144C367.683 126.144 369.091 124.896 369.539 123.296ZM363.603 115.488V116.576L367.011 114.752V113.488L363.603 115.488ZM372.169 123.6C372.169 125.36 373.049 126 374.601 126H375.913V124.768H374.841C373.945 124.768 373.625 124.464 373.625 123.6V118.432H375.913V117.232H373.625V115.024H372.169V117.232H371.033V118.432H372.169V123.6ZM377.889 126H379.345V117.232H377.889V126ZM378.641 115.808C379.169 115.808 379.601 115.376 379.601 114.816C379.601 114.256 379.169 113.824 378.641 113.824C378.081 113.824 377.649 114.256 377.649 114.816C377.649 115.376 378.081 115.808 378.641 115.808ZM381.494 121.6C381.494 124.384 383.27 126.144 385.766 126.144C387.942 126.144 389.366 124.928 389.814 123.184H388.246C387.926 124.288 387.062 124.912 385.766 124.912C384.166 124.912 382.982 123.776 382.982 121.6C382.982 119.456 384.166 118.32 385.766 118.32C387.062 118.32 387.942 118.992 388.246 120.048H389.814C389.366 118.208 387.942 117.088 385.766 117.088C383.27 117.088 381.494 118.848 381.494 121.6ZM391.425 121.584C391.425 124.304 393.233 126.144 395.569 126.144C397.185 126.144 398.321 125.312 398.849 124.368V126H400.321V117.232H398.849V118.832C398.337 117.92 397.217 117.088 395.585 117.088C393.233 117.088 391.425 118.848 391.425 121.584ZM398.849 121.6C398.849 123.664 397.473 124.864 395.873 124.864C394.273 124.864 392.913 123.648 392.913 121.584C392.913 119.52 394.273 118.352 395.873 118.352C397.473 118.352 398.849 119.568 398.849 121.6ZM404.417 125.104C404.417 124.544 403.985 124.112 403.457 124.112C402.897 124.112 402.465 124.544 402.465 125.104C402.465 125.664 402.897 126.096 403.457 126.096C403.985 126.096 404.417 125.664 404.417 125.104Z" fill="#637080"/>
  <path d="M358.755 233.041L364.633 234.966C365.006 235.103 365.192 235.47 365.052 235.79L360.341 249.721C360.248 250.042 359.875 250.225 359.501 250.133L353.81 248.163C353.484 248.071 353.344 247.705 353.437 247.43L358.102 233.408C358.195 233.133 358.475 232.995 358.755 233.041Z" stroke="#004357" stroke-width="2" stroke-miterlimit="10"/>
  <path d="M373.635 220.623C373.635 220.577 373.635 220.577 373.635 220.531" stroke="#004357" stroke-width="2" stroke-miterlimit="10"/>
  <path d="M373.076 220.898L363.606 218.103C363 218.607 362.533 219.248 362.254 220.027L351.198 253.8C350.498 255.953 351.711 258.29 353.904 258.978L356.702 259.848C358.895 260.536 361.274 259.344 361.974 257.19L373.076 223.372C373.356 222.593 373.356 221.768 373.122 221.035L373.076 220.898Z" stroke="#004357" stroke-width="2" stroke-miterlimit="10"/>
  <path d="M373.589 220.531C373.589 220.485 373.589 220.485 373.542 220.439" stroke="#004357" stroke-width="2" stroke-miterlimit="10"/>
  <path d="M364.119 217.965L361.74 217.323C361.274 217.186 360.994 216.728 361.134 216.315L366.638 199.59C366.778 199.131 367.291 198.902 367.805 199.04L381.426 202.66C381.892 202.797 382.172 203.255 382.032 203.668L376.481 220.394C376.341 220.852 375.828 221.081 375.315 220.944L373.542 220.485L364.119 217.965Z" stroke="#004357" stroke-width="2" stroke-miterlimit="10"/>
  <path d="M291.385 292H292.825V289.424H294.425V288.16H292.825V280.544H291.081L285.465 288.32V289.424H291.385V292ZM287.145 288.16L291.449 282.064V288.16H287.145ZM297.755 291.104C297.755 290.544 297.323 290.112 296.795 290.112C296.235 290.112 295.803 290.544 295.803 291.104C295.803 291.664 296.235 292.096 296.795 292.096C297.323 292.096 297.755 291.664 297.755 291.104ZM303.691 282.032H306.747V292H308.203V282.032H311.243V280.848H303.691V282.032ZM321.568 287.6C321.568 284.832 319.632 283.088 317.136 283.088C314.656 283.088 312.704 284.832 312.704 287.6C312.704 290.384 314.592 292.144 317.072 292.144C319.568 292.144 321.568 290.384 321.568 287.6ZM314.192 287.6C314.192 285.392 315.584 284.352 317.12 284.352C318.624 284.352 320.08 285.392 320.08 287.6C320.08 289.824 318.592 290.864 317.072 290.864C315.552 290.864 314.192 289.824 314.192 287.6ZM336.35 292H337.79V286.832C337.79 284.32 336.238 283.072 334.238 283.072C332.894 283.072 331.646 283.76 331.134 285.024C330.558 283.712 329.358 283.072 327.918 283.072C326.766 283.072 325.726 283.568 325.15 284.496V283.232H323.694V292H325.15V287.168C325.15 285.28 326.158 284.336 327.63 284.336C329.07 284.336 330.03 285.248 330.03 287.04V292H331.47V287.168C331.47 285.28 332.478 284.336 333.95 284.336C335.39 284.336 336.35 285.248 336.35 287.04V292ZM339.846 287.584C339.846 290.304 341.654 292.144 343.99 292.144C345.606 292.144 346.742 291.312 347.27 290.368V292H348.742V283.232H347.27V284.832C346.758 283.92 345.638 283.088 344.006 283.088C341.654 283.088 339.846 284.848 339.846 287.584ZM347.27 287.6C347.27 289.664 345.894 290.864 344.294 290.864C342.694 290.864 341.334 289.648 341.334 287.584C341.334 285.52 342.694 284.352 344.294 284.352C345.894 284.352 347.27 285.568 347.27 287.6ZM355.348 287.584C355.348 290.304 357.156 292.144 359.508 292.144C361.108 292.144 362.244 291.328 362.772 290.352V292H364.244V280.16H362.772V284.8C362.164 283.792 360.9 283.088 359.524 283.088C357.156 283.088 355.348 284.848 355.348 287.584ZM362.772 287.6C362.772 289.664 361.396 290.864 359.796 290.864C358.196 290.864 356.836 289.648 356.836 287.584C356.836 285.52 358.196 284.352 359.796 284.352C361.396 284.352 362.772 285.568 362.772 287.6ZM370.644 284.32C372.148 284.32 373.428 285.264 373.412 286.976H367.876C368.036 285.264 369.22 284.32 370.644 284.32ZM374.74 289.296H373.172C372.852 290.24 372.02 290.912 370.708 290.912C369.22 290.912 367.972 289.936 367.86 288.16H374.868C374.9 287.856 374.916 287.6 374.916 287.28C374.916 284.88 373.252 283.088 370.708 283.088C368.148 283.088 366.372 284.832 366.372 287.6C366.372 290.384 368.212 292.144 370.708 292.144C372.884 292.144 374.292 290.896 374.74 289.296ZM394.183 292H395.623V286.832C395.623 284.32 394.071 283.072 392.071 283.072C390.727 283.072 389.479 283.76 388.967 285.024C388.391 283.712 387.191 283.072 385.751 283.072C384.599 283.072 383.559 283.568 382.983 284.496V283.232H381.527V292H382.983V287.168C382.983 285.28 383.991 284.336 385.463 284.336C386.903 284.336 387.863 285.248 387.863 287.04V292H389.303V287.168C389.303 285.28 390.311 284.336 391.783 284.336C393.223 284.336 394.183 285.248 394.183 287.04V292ZM405.999 283.232H404.543V288.048C404.543 289.936 403.535 290.864 402.031 290.864C400.559 290.864 399.583 289.952 399.583 288.176V283.232H398.143V288.368C398.143 290.88 399.727 292.128 401.743 292.128C402.911 292.128 403.983 291.616 404.543 290.704V292H405.999V283.232ZM412.398 284.32C413.902 284.32 415.182 285.264 415.166 286.976H409.63C409.79 285.264 410.974 284.32 412.398 284.32ZM416.494 289.296H414.926C414.606 290.24 413.774 290.912 412.462 290.912C410.974 290.912 409.726 289.936 409.614 288.16H416.622C416.654 287.856 416.67 287.6 416.67 287.28C416.67 284.88 415.006 283.088 412.462 283.088C409.902 283.088 408.126 284.832 408.126 287.6C408.126 290.384 409.966 292.144 412.462 292.144C414.638 292.144 416.046 290.896 416.494 289.296ZM425.107 289.616C425.043 286.48 419.955 287.616 419.955 285.536C419.955 284.832 420.595 284.32 421.667 284.32C422.835 284.32 423.507 284.96 423.571 285.84H425.027C424.931 284.128 423.651 283.088 421.715 283.088C419.763 283.088 418.499 284.192 418.499 285.536C418.499 288.8 423.683 287.664 423.683 289.616C423.683 290.336 423.043 290.912 421.891 290.912C420.659 290.912 419.907 290.272 419.827 289.424H418.323C418.419 291.024 419.859 292.144 421.907 292.144C423.843 292.144 425.107 291.056 425.107 289.616ZM427.694 289.6C427.694 291.36 428.574 292 430.126 292H431.438V290.768H430.366C429.47 290.768 429.15 290.464 429.15 289.6V284.432H431.438V283.232H429.15V281.024H427.694V283.232H426.558V284.432H427.694V289.6ZM434.87 287.232C434.87 285.2 435.926 284.576 437.318 284.576H437.702V283.072C436.31 283.072 435.366 283.68 434.87 284.656V283.232H433.414V292H434.87V287.232ZM439.051 287.584C439.051 290.304 440.859 292.144 443.195 292.144C444.811 292.144 445.947 291.312 446.475 290.368V292H447.947V283.232H446.475V284.832C445.963 283.92 444.843 283.088 443.211 283.088C440.859 283.088 439.051 284.848 439.051 287.584ZM446.475 287.6C446.475 289.664 445.099 290.864 443.499 290.864C441.899 290.864 440.539 289.648 440.539 287.584C440.539 285.52 441.899 284.352 443.499 284.352C445.099 284.352 446.475 285.568 446.475 287.6ZM318.012 300.848V299.232H316.556V312.16H318.012V306.384C318.556 307.28 319.692 308.144 321.292 308.144C323.644 308.144 325.452 306.304 325.452 303.584C325.452 300.848 323.644 299.088 321.292 299.088C319.692 299.088 318.54 299.92 318.012 300.848ZM323.964 303.584C323.964 305.648 322.604 306.864 320.988 306.864C319.404 306.864 318.012 305.664 318.012 303.6C318.012 301.568 319.404 300.352 320.988 300.352C322.604 300.352 323.964 301.52 323.964 303.584ZM327.036 303.584C327.036 306.304 328.844 308.144 331.18 308.144C332.796 308.144 333.932 307.312 334.46 306.368V308H335.932V299.232H334.46V300.832C333.948 299.92 332.828 299.088 331.196 299.088C328.844 299.088 327.036 300.848 327.036 303.584ZM334.46 303.6C334.46 305.664 333.084 306.864 331.484 306.864C329.884 306.864 328.524 305.648 328.524 303.584C328.524 301.52 329.884 300.352 331.484 300.352C333.084 300.352 334.46 301.568 334.46 303.6ZM340.06 303.232C340.06 301.2 341.116 300.576 342.508 300.576H342.892V299.072C341.5 299.072 340.556 299.68 340.06 300.656V299.232H338.604V308H340.06V303.232ZM344.241 303.584C344.241 306.304 346.049 308.144 348.385 308.144C350.001 308.144 351.137 307.312 351.665 306.368V308H353.137V299.232H351.665V300.832C351.153 299.92 350.033 299.088 348.401 299.088C346.049 299.088 344.241 300.848 344.241 303.584ZM351.665 303.6C351.665 305.664 350.289 306.864 348.689 306.864C347.089 306.864 345.729 305.648 345.729 303.584C345.729 301.52 347.089 300.352 348.689 300.352C350.289 300.352 351.665 301.568 351.665 303.6ZM361.743 300.848V299.232H360.287V312.16H361.743V306.384C362.287 307.28 363.423 308.144 365.023 308.144C367.375 308.144 369.183 306.304 369.183 303.584C369.183 300.848 367.375 299.088 365.023 299.088C363.423 299.088 362.271 299.92 361.743 300.848ZM367.695 303.584C367.695 305.648 366.335 306.864 364.719 306.864C363.135 306.864 361.743 305.664 361.743 303.6C361.743 301.568 363.135 300.352 364.719 300.352C366.335 300.352 367.695 301.52 367.695 303.584ZM372.767 303.232C372.767 301.2 373.823 300.576 375.215 300.576H375.599V299.072C374.207 299.072 373.263 299.68 372.767 300.656V299.232H371.311V308H372.767V303.232ZM385.268 299.232H383.812V304.048C383.812 305.936 382.804 306.864 381.3 306.864C379.828 306.864 378.852 305.952 378.852 304.176V299.232H377.412V304.368C377.412 306.88 378.996 308.128 381.012 308.128C382.18 308.128 383.252 307.616 383.812 306.704V308H385.268V299.232ZM391.666 300.32C393.17 300.32 394.45 301.264 394.434 302.976H388.898C389.058 301.264 390.242 300.32 391.666 300.32ZM395.762 305.296H394.194C393.874 306.24 393.042 306.912 391.73 306.912C390.242 306.912 388.994 305.936 388.882 304.16H395.89C395.922 303.856 395.938 303.6 395.938 303.28C395.938 300.88 394.274 299.088 391.73 299.088C389.17 299.088 387.394 300.832 387.394 303.6C387.394 306.384 389.234 308.144 391.73 308.144C393.906 308.144 395.314 306.896 395.762 305.296ZM399.527 300.864V296.16H398.071V308H399.527V306.384C400.071 307.344 401.207 308.144 402.807 308.144C405.159 308.144 406.967 306.304 406.967 303.584C406.967 300.848 405.175 299.088 402.807 299.088C401.255 299.088 400.087 299.888 399.527 300.864ZM405.479 303.584C405.479 305.648 404.119 306.864 402.503 306.864C400.919 306.864 399.527 305.664 399.527 303.6C399.527 301.568 400.919 300.352 402.503 300.352C404.119 300.352 405.479 301.52 405.479 303.584ZM408.552 303.584C408.552 306.304 410.36 308.144 412.696 308.144C414.312 308.144 415.448 307.312 415.976 306.368V308H417.448V299.232H415.976V300.832C415.464 299.92 414.344 299.088 412.712 299.088C410.36 299.088 408.552 300.848 408.552 303.584ZM415.976 303.6C415.976 305.664 414.6 306.864 413 306.864C411.4 306.864 410.04 305.648 410.04 303.584C410.04 301.52 411.4 300.352 413 300.352C414.6 300.352 415.976 301.568 415.976 303.6ZM326.635 324H328.091V319.152C328.091 317.264 329.115 316.336 330.603 316.336C332.075 316.336 333.051 317.248 333.051 319.04V324H334.491V318.832C334.491 316.32 332.939 315.072 330.987 315.072C329.755 315.072 328.667 315.568 328.091 316.496V312.16H326.635V324ZM345.401 319.6C345.401 316.832 343.465 315.088 340.969 315.088C338.489 315.088 336.537 316.832 336.537 319.6C336.537 322.384 338.425 324.144 340.905 324.144C343.401 324.144 345.401 322.384 345.401 319.6ZM338.025 319.6C338.025 317.392 339.417 316.352 340.953 316.352C342.457 316.352 343.913 317.392 343.913 319.6C343.913 321.824 342.425 322.864 340.905 322.864C339.385 322.864 338.025 321.824 338.025 319.6ZM348.983 319.232C348.983 317.2 350.039 316.576 351.431 316.576H351.815V315.072C350.423 315.072 349.479 315.68 348.983 316.656V315.232H347.527V324H348.983V319.232ZM366.364 324H367.804V318.832C367.804 316.32 366.252 315.072 364.252 315.072C362.908 315.072 361.66 315.76 361.148 317.024C360.572 315.712 359.372 315.072 357.932 315.072C356.78 315.072 355.74 315.568 355.164 316.496V315.232H353.708V324H355.164V319.168C355.164 317.28 356.172 316.336 357.644 316.336C359.084 316.336 360.044 317.248 360.044 319.04V324H361.484V319.168C361.484 317.28 362.492 316.336 363.964 316.336C365.404 316.336 366.364 317.248 366.364 319.04V324ZM378.724 319.6C378.724 316.832 376.788 315.088 374.292 315.088C371.812 315.088 369.86 316.832 369.86 319.6C369.86 322.384 371.748 324.144 374.228 324.144C376.724 324.144 378.724 322.384 378.724 319.6ZM371.348 319.6C371.348 317.392 372.74 316.352 374.276 316.352C375.78 316.352 377.236 317.392 377.236 319.6C377.236 321.824 375.748 322.864 374.228 322.864C372.708 322.864 371.348 321.824 371.348 319.6ZM387.266 324H388.706V318.832C388.706 316.32 387.154 315.072 385.122 315.072C383.938 315.072 382.882 315.568 382.306 316.48V315.232H380.85V324H382.306V319.152C382.306 317.264 383.33 316.336 384.818 316.336C386.29 316.336 387.266 317.248 387.266 319.04V324ZM390.752 319.584C390.752 322.304 392.56 324.144 394.896 324.144C396.512 324.144 397.648 323.312 398.176 322.368V324H399.648V315.232H398.176V316.832C397.664 315.92 396.544 315.088 394.912 315.088C392.56 315.088 390.752 316.848 390.752 319.584ZM398.176 319.6C398.176 321.664 396.8 322.864 395.2 322.864C393.6 322.864 392.24 321.648 392.24 319.584C392.24 317.52 393.6 316.352 395.2 316.352C396.8 316.352 398.176 317.568 398.176 319.6ZM402.321 324H403.777V312.16H402.321V324ZM407.894 323.104C407.894 322.544 407.462 322.112 406.934 322.112C406.374 322.112 405.942 322.544 405.942 323.104C405.942 323.664 406.374 324.096 406.934 324.096C407.462 324.096 407.894 323.664 407.894 323.104Z" fill="#637080"/>
  <path d="M53.3922 284.344H54.8162C54.9602 283.224 55.7762 282.456 57.1362 282.456C58.5282 282.456 59.2642 283.224 59.2642 284.328C59.2642 285.672 58.2242 286.264 56.2882 286.28H55.9042V287.496H56.2722C58.3522 287.496 59.4882 288.12 59.4882 289.752C59.4882 290.936 58.7522 291.848 57.2002 291.848C55.6642 291.848 54.7682 290.904 54.6242 289.672H53.2162C53.3922 291.912 55.0242 293.08 57.2162 293.08C59.6322 293.08 60.8802 291.672 60.8802 289.88C60.8802 288.216 59.9682 287.224 58.6242 286.904V286.824C59.8402 286.552 60.6722 285.512 60.6722 284.184C60.6722 282.52 59.4402 281.208 57.1842 281.208C55.0402 281.208 53.5362 282.36 53.3922 284.344ZM64.7219 292.104C64.7219 291.544 64.2899 291.112 63.7619 291.112C63.2019 291.112 62.7699 291.544 62.7699 292.104C62.7699 292.664 63.2019 293.096 63.7619 293.096C64.2899 293.096 64.7219 292.664 64.7219 292.104ZM70.8025 287.416C70.8025 290.76 73.2505 293.096 76.3705 293.096C78.7865 293.096 80.7065 291.896 81.5385 289.752H79.7945C79.1865 291.08 78.0025 291.832 76.3705 291.832C74.0345 291.832 72.2905 290.136 72.2905 287.416C72.2905 284.68 74.0345 282.984 76.3705 282.984C78.0025 282.984 79.1865 283.736 79.7945 285.08H81.5385C80.7065 282.92 78.7865 281.704 76.3705 281.704C73.2505 281.704 70.8025 284.072 70.8025 287.416ZM92.2377 288.6C92.2377 285.832 90.3017 284.088 87.8057 284.088C85.3257 284.088 83.3737 285.832 83.3737 288.6C83.3737 291.384 85.2617 293.144 87.7417 293.144C90.2377 293.144 92.2377 291.384 92.2377 288.6ZM84.8617 288.6C84.8617 286.392 86.2537 285.352 87.7897 285.352C89.2937 285.352 90.7497 286.392 90.7497 288.6C90.7497 290.824 89.2617 291.864 87.7417 291.864C86.2217 291.864 84.8617 290.824 84.8617 288.6ZM100.78 293H102.22V287.832C102.22 285.32 100.668 284.072 98.6359 284.072C97.4519 284.072 96.3959 284.568 95.8199 285.48V284.232H94.3639V293H95.8199V288.152C95.8199 286.264 96.8439 285.336 98.3319 285.336C99.8039 285.336 100.78 286.248 100.78 288.04V293ZM105.13 290.6C105.13 292.36 106.01 293 107.562 293H108.874V291.768H107.802C106.906 291.768 106.586 291.464 106.586 290.6V285.432H108.874V284.232H106.586V282.024H105.13V284.232H103.994V285.432H105.13V290.6ZM114.578 285.32C116.082 285.32 117.362 286.264 117.346 287.976H111.81C111.97 286.264 113.154 285.32 114.578 285.32ZM118.674 290.296H117.106C116.786 291.24 115.954 291.912 114.642 291.912C113.154 291.912 111.906 290.936 111.794 289.16H118.802C118.834 288.856 118.85 288.6 118.85 288.28C118.85 285.88 117.186 284.088 114.642 284.088C112.082 284.088 110.306 285.832 110.306 288.6C110.306 291.384 112.146 293.144 114.642 293.144C116.818 293.144 118.226 291.896 118.674 290.296ZM127.288 290.616C127.224 287.48 122.136 288.616 122.136 286.536C122.136 285.832 122.776 285.32 123.848 285.32C125.016 285.32 125.688 285.96 125.752 286.84H127.208C127.112 285.128 125.832 284.088 123.896 284.088C121.944 284.088 120.68 285.192 120.68 286.536C120.68 289.8 125.864 288.664 125.864 290.616C125.864 291.336 125.224 291.912 124.072 291.912C122.84 291.912 122.088 291.272 122.008 290.424H120.504C120.6 292.024 122.04 293.144 124.088 293.144C126.024 293.144 127.288 292.056 127.288 290.616ZM129.875 290.6C129.875 292.36 130.755 293 132.307 293H133.619V291.768H132.547C131.651 291.768 131.331 291.464 131.331 290.6V285.432H133.619V284.232H131.331V282.024H129.875V284.232H128.739V285.432H129.875V290.6ZM135.051 288.584C135.051 291.304 136.859 293.144 139.195 293.144C140.811 293.144 141.947 292.312 142.475 291.368V293H143.947V284.232H142.475V285.832C141.963 284.92 140.843 284.088 139.211 284.088C136.859 284.088 135.051 285.848 135.051 288.584ZM142.475 288.6C142.475 290.664 141.099 291.864 139.499 291.864C137.899 291.864 136.539 290.648 136.539 288.584C136.539 286.52 137.899 285.352 139.499 285.352C141.099 285.352 142.475 286.568 142.475 288.6ZM148.075 288.232C148.075 286.2 149.131 285.576 150.523 285.576H150.907V284.072C149.515 284.072 148.571 284.68 148.075 285.656V284.232H146.619V293H148.075V288.232ZM49.5733 304.6C49.5733 307.384 51.3493 309.144 53.8453 309.144C56.0213 309.144 57.4453 307.928 57.8933 306.184H56.3253C56.0053 307.288 55.1413 307.912 53.8453 307.912C52.2453 307.912 51.0613 306.776 51.0613 304.6C51.0613 302.456 52.2453 301.32 53.8453 301.32C55.1413 301.32 56.0213 301.992 56.3253 303.048H57.8933C57.4453 301.208 56.0213 300.088 53.8453 300.088C51.3493 300.088 49.5733 301.848 49.5733 304.6ZM67.8239 300.232H66.3679V305.048C66.3679 306.936 65.3599 307.864 63.8559 307.864C62.3839 307.864 61.4079 306.952 61.4079 305.176V300.232H59.9679V305.368C59.9679 307.88 61.5519 309.128 63.5679 309.128C64.7359 309.128 65.8079 308.616 66.3679 307.704V309H67.8239V300.232ZM74.2221 301.32C75.7261 301.32 77.0061 302.264 76.9901 303.976H71.4541C71.6141 302.264 72.7981 301.32 74.2221 301.32ZM78.3181 306.296H76.7501C76.4301 307.24 75.5981 307.912 74.2861 307.912C72.7981 307.912 71.5501 306.936 71.4381 305.16H78.4461C78.4781 304.856 78.4941 304.6 78.4941 304.28C78.4941 301.88 76.8301 300.088 74.2861 300.088C71.7261 300.088 69.9501 301.832 69.9501 304.6C69.9501 307.384 71.7901 309.144 74.2861 309.144C76.4621 309.144 77.8701 307.896 78.3181 306.296ZM86.9318 306.616C86.8678 303.48 81.7798 304.616 81.7798 302.536C81.7798 301.832 82.4198 301.32 83.4918 301.32C84.6598 301.32 85.3318 301.96 85.3958 302.84H86.8518C86.7558 301.128 85.4758 300.088 83.5398 300.088C81.5878 300.088 80.3238 301.192 80.3238 302.536C80.3238 305.8 85.5078 304.664 85.5078 306.616C85.5078 307.336 84.8678 307.912 83.7158 307.912C82.4838 307.912 81.7318 307.272 81.6518 306.424H80.1478C80.2438 308.024 81.6838 309.144 83.7318 309.144C85.6678 309.144 86.9318 308.056 86.9318 306.616ZM89.519 306.6C89.519 308.36 90.399 309 91.951 309H93.263V307.768H92.191C91.295 307.768 90.975 307.464 90.975 306.6V301.432H93.263V300.232H90.975V298.024H89.519V300.232H88.383V301.432H89.519V306.6ZM95.2389 309H96.6949V300.232H95.2389V309ZM95.9909 298.808C96.5189 298.808 96.9509 298.376 96.9509 297.816C96.9509 297.256 96.5189 296.824 95.9909 296.824C95.4309 296.824 94.9989 297.256 94.9989 297.816C94.9989 298.376 95.4309 298.808 95.9909 298.808ZM107.708 304.6C107.708 301.832 105.772 300.088 103.276 300.088C100.796 300.088 98.8443 301.832 98.8443 304.6C98.8443 307.384 100.732 309.144 103.212 309.144C105.708 309.144 107.708 307.384 107.708 304.6ZM100.332 304.6C100.332 302.392 101.724 301.352 103.26 301.352C104.764 301.352 106.22 302.392 106.22 304.6C106.22 306.824 104.732 307.864 103.212 307.864C101.692 307.864 100.332 306.824 100.332 304.6ZM116.25 309H117.69V303.832C117.69 301.32 116.138 300.072 114.106 300.072C112.922 300.072 111.866 300.568 111.29 301.48V300.232H109.834V309H111.29V304.152C111.29 302.264 112.314 301.336 113.802 301.336C115.274 301.336 116.25 302.248 116.25 304.04V309ZM119.737 304.584C119.737 307.304 121.545 309.144 123.881 309.144C125.497 309.144 126.633 308.312 127.161 307.368V309H128.633V300.232H127.161V301.832C126.649 300.92 125.529 300.088 123.897 300.088C121.545 300.088 119.737 301.848 119.737 304.584ZM127.161 304.6C127.161 306.664 125.785 307.864 124.185 307.864C122.585 307.864 121.225 306.648 121.225 304.584C121.225 302.52 122.585 301.352 124.185 301.352C125.785 301.352 127.161 302.568 127.161 304.6ZM132.761 304.232C132.761 302.2 133.817 301.576 135.209 301.576H135.593V300.072C134.201 300.072 133.257 300.68 132.761 301.656V300.232H131.305V309H132.761V304.232ZM137.486 309H138.942V300.232H137.486V309ZM138.238 298.808C138.766 298.808 139.198 298.376 139.198 297.816C139.198 297.256 138.766 296.824 138.238 296.824C137.678 296.824 137.246 297.256 137.246 297.816C137.246 298.376 137.678 298.808 138.238 298.808ZM149.955 304.6C149.955 301.832 148.019 300.088 145.523 300.088C143.043 300.088 141.091 301.832 141.091 304.6C141.091 307.384 142.979 309.144 145.459 309.144C147.955 309.144 149.955 307.384 149.955 304.6ZM142.579 304.6C142.579 302.392 143.971 301.352 145.507 301.352C147.011 301.352 148.467 302.392 148.467 304.6C148.467 306.824 146.979 307.864 145.459 307.864C143.939 307.864 142.579 306.824 142.579 304.6ZM33.7 320.584C33.7 323.304 35.508 325.144 37.86 325.144C39.46 325.144 40.596 324.328 41.124 323.352V325H42.596V313.16H41.124V317.8C40.516 316.792 39.252 316.088 37.876 316.088C35.508 316.088 33.7 317.848 33.7 320.584ZM41.124 320.6C41.124 322.664 39.748 323.864 38.148 323.864C36.548 323.864 35.188 322.648 35.188 320.584C35.188 318.52 36.548 317.352 38.148 317.352C39.748 317.352 41.124 318.568 41.124 320.6ZM48.9964 317.32C50.5004 317.32 51.7804 318.264 51.7644 319.976H46.2284C46.3884 318.264 47.5724 317.32 48.9964 317.32ZM53.0924 322.296H51.5244C51.2044 323.24 50.3724 323.912 49.0604 323.912C47.5724 323.912 46.3244 322.936 46.2124 321.16H53.2204C53.2524 320.856 53.2684 320.6 53.2684 320.28C53.2684 317.88 51.6044 316.088 49.0604 316.088C46.5004 316.088 44.7244 317.832 44.7244 320.6C44.7244 323.384 46.5644 325.144 49.0604 325.144C51.2364 325.144 52.6444 323.896 53.0924 322.296ZM63.6075 317.32C65.1115 317.32 66.3915 318.264 66.3755 319.976H60.8395C60.9995 318.264 62.1835 317.32 63.6075 317.32ZM67.7035 322.296H66.1355C65.8155 323.24 64.9835 323.912 63.6715 323.912C62.1835 323.912 60.9355 322.936 60.8235 321.16H67.8315C67.8635 320.856 67.8795 320.6 67.8795 320.28C67.8795 317.88 66.2155 316.088 63.6715 316.088C61.1115 316.088 59.3355 317.832 59.3355 320.6C59.3355 323.384 61.1755 325.144 63.6715 325.144C65.8475 325.144 67.2555 323.896 67.7035 322.296ZM76.3172 322.616C76.2532 319.48 71.1652 320.616 71.1652 318.536C71.1652 317.832 71.8052 317.32 72.8772 317.32C74.0452 317.32 74.7172 317.96 74.7812 318.84H76.2372C76.1412 317.128 74.8612 316.088 72.9252 316.088C70.9732 316.088 69.7092 317.192 69.7092 318.536C69.7092 321.8 74.8932 320.664 74.8932 322.616C74.8932 323.336 74.2532 323.912 73.1012 323.912C71.8692 323.912 71.1172 323.272 71.0372 322.424H69.5332C69.6292 324.024 71.0692 325.144 73.1172 325.144C75.0532 325.144 76.3172 324.056 76.3172 322.616ZM78.9044 322.6C78.9044 324.36 79.7844 325 81.3364 325H82.6484V323.768H81.5764C80.6804 323.768 80.3604 323.464 80.3604 322.6V317.432H82.6484V316.232H80.3604V314.024H78.9044V316.232H77.7684V317.432H78.9044V322.6ZM84.6243 325H86.0803V316.232H84.6243V325ZM85.3763 314.808C85.9043 314.808 86.3363 314.376 86.3363 313.816C86.3363 313.256 85.9043 312.824 85.3763 312.824C84.8163 312.824 84.3843 313.256 84.3843 313.816C84.3843 314.376 84.8163 314.808 85.3763 314.808ZM88.7736 325H90.2296V313.16H88.7736V325ZM101.243 320.6C101.243 317.832 99.307 316.088 96.811 316.088C94.331 316.088 92.379 317.832 92.379 320.6C92.379 323.384 94.267 325.144 96.747 325.144C99.243 325.144 101.243 323.384 101.243 320.6ZM93.867 320.6C93.867 318.392 95.259 317.352 96.795 317.352C98.299 317.352 99.755 318.392 99.755 320.6C99.755 322.824 98.267 323.864 96.747 323.864C95.227 323.864 93.867 322.824 93.867 320.6ZM107.303 320.584C107.303 323.304 109.111 325.144 111.463 325.144C113.063 325.144 114.199 324.328 114.727 323.352V325H116.199V313.16H114.727V317.8C114.119 316.792 112.855 316.088 111.479 316.088C109.111 316.088 107.303 317.848 107.303 320.584ZM114.727 320.6C114.727 322.664 113.351 323.864 111.751 323.864C110.151 323.864 108.791 322.648 108.791 320.584C108.791 318.52 110.151 317.352 111.751 317.352C113.351 317.352 114.727 318.568 114.727 320.6ZM122.599 317.32C124.103 317.32 125.383 318.264 125.367 319.976H119.831C119.991 318.264 121.175 317.32 122.599 317.32ZM126.695 322.296H125.127C124.807 323.24 123.975 323.912 122.663 323.912C121.175 323.912 119.927 322.936 119.815 321.16H126.823C126.855 320.856 126.871 320.6 126.871 320.28C126.871 317.88 125.207 316.088 122.663 316.088C120.103 316.088 118.327 317.832 118.327 320.6C118.327 323.384 120.167 325.144 122.663 325.144C124.839 325.144 126.247 323.896 126.695 322.296ZM132.442 316.232L135.882 325H137.578L141.018 316.232H139.466L136.746 323.656L134.01 316.232H132.442ZM142.663 325H144.119V316.232H142.663V325ZM143.415 314.808C143.943 314.808 144.375 314.376 144.375 313.816C144.375 313.256 143.943 312.824 143.415 312.824C142.855 312.824 142.423 313.256 142.423 313.816C142.423 314.376 142.855 314.808 143.415 314.808ZM146.268 320.584C146.268 323.304 148.076 325.144 150.428 325.144C152.028 325.144 153.164 324.328 153.692 323.352V325H155.164V313.16H153.692V317.8C153.084 316.792 151.82 316.088 150.444 316.088C148.076 316.088 146.268 317.848 146.268 320.584ZM153.692 320.6C153.692 322.664 152.316 323.864 150.716 323.864C149.116 323.864 147.756 322.648 147.756 320.584C147.756 318.52 149.116 317.352 150.716 317.352C152.316 317.352 153.692 318.568 153.692 320.6ZM157.292 320.584C157.292 323.304 159.1 325.144 161.436 325.144C163.052 325.144 164.188 324.312 164.716 323.368V325H166.188V316.232H164.716V317.832C164.204 316.92 163.084 316.088 161.452 316.088C159.1 316.088 157.292 317.848 157.292 320.584ZM164.716 320.6C164.716 322.664 163.34 323.864 161.74 323.864C160.14 323.864 158.78 322.648 158.78 320.584C158.78 318.52 160.14 317.352 161.74 317.352C163.34 317.352 164.716 318.568 164.716 320.6ZM170.285 324.104C170.285 323.544 169.853 323.112 169.325 323.112C168.765 323.112 168.333 323.544 168.333 324.104C168.333 324.664 168.765 325.096 169.325 325.096C169.853 325.096 170.285 324.664 170.285 324.104Z" fill="#637080"/>
  <g clip-path="url(#clip1_1247_631)">
    <path d="M121.295 201.385H127.413C127.462 201.385 127.511 201.434 127.511 201.483V260.464C127.511 260.512 127.462 260.561 127.413 260.561H77.5873C77.5384 260.561 77.4894 260.512 77.4894 260.464V201.483C77.4894 201.434 77.5384 201.385 77.5873 201.385H83.9501" stroke="#004357" stroke-width="2" stroke-miterlimit="10"/>
    <path d="M88.1104 217.52C90.2188 217.52 91.928 215.817 91.928 213.718C91.928 211.618 90.2188 209.916 88.1104 209.916C86.0019 209.916 84.2927 211.618 84.2927 213.718C84.2927 215.817 86.0019 217.52 88.1104 217.52Z" stroke="#004357" stroke-miterlimit="10"/>
    <path d="M85.2226 213.474L86.9357 216.009C86.9846 216.106 87.1315 216.106 87.1804 216.058L90.9002 212.499C90.9491 212.45 90.9491 212.304 90.9002 212.255L90.1171 211.476C90.0681 211.427 89.9213 211.427 89.8724 211.476L87.1804 214.156C87.0825 214.254 86.9846 214.205 86.9357 214.156L85.81 212.645C85.7121 212.548 85.5653 212.548 85.5163 212.694L85.1737 213.377C85.1737 213.377 85.1737 213.425 85.2226 213.474Z" stroke="#004357" stroke-miterlimit="10"/>
    <path d="M88.1104 229.413C90.2188 229.413 91.928 227.711 91.928 225.611C91.928 223.511 90.2188 221.809 88.1104 221.809C86.0019 221.809 84.2927 223.511 84.2927 225.611C84.2927 227.711 86.0019 229.413 88.1104 229.413Z" stroke="#004357" stroke-miterlimit="10"/>
    <path d="M85.2227 225.319L86.9357 227.853C86.9846 227.951 87.1315 227.951 87.1804 227.902L90.9002 224.344C90.9491 224.295 90.9491 224.149 90.9002 224.1L90.166 223.271C90.1171 223.223 89.9703 223.223 89.9213 223.271L87.2294 225.952C87.1315 226.05 87.0336 226.001 86.9846 225.952L85.8589 224.441C85.761 224.344 85.6142 224.344 85.5653 224.49L85.2227 225.172C85.1737 225.221 85.1737 225.27 85.2227 225.319Z" stroke="#004357" stroke-miterlimit="10"/>
    <path d="M88.1104 240.283C90.2188 240.283 91.928 238.581 91.928 236.481C91.928 234.381 90.2188 232.679 88.1104 232.679C86.0019 232.679 84.2927 234.381 84.2927 236.481C84.2927 238.581 86.0019 240.283 88.1104 240.283Z" stroke="#004357" stroke-miterlimit="10"/>
    <path d="M88.3732 251.632C90.4817 251.632 92.1909 249.93 92.1909 247.83C92.1909 245.731 90.4817 244.028 88.3732 244.028C86.2648 244.028 84.5556 245.731 84.5556 247.83C84.5556 249.93 86.2648 251.632 88.3732 251.632Z" stroke="#004357" stroke-miterlimit="10"/>
    <path d="M118.994 214.79H93.9837C93.3964 214.79 92.9559 214.302 92.9559 213.766C92.9559 213.181 93.4453 212.743 93.9837 212.743H118.994C119.582 212.743 120.022 213.23 120.022 213.766C120.071 214.302 119.582 214.79 118.994 214.79Z" stroke="#004357" stroke-miterlimit="10"/>
    <path d="M119.19 237.505H94.1795C93.5921 237.505 93.1516 237.018 93.1516 236.482C93.1516 235.897 93.6411 235.458 94.1795 235.458H119.19C119.777 235.458 120.218 235.945 120.218 236.482C120.218 237.067 119.728 237.505 119.19 237.505Z" stroke="#004357" stroke-miterlimit="10"/>
    <path d="M119.19 248.424H94.1795C93.5921 248.424 93.1516 247.936 93.1516 247.4C93.1516 246.815 93.6411 246.376 94.1795 246.376H119.19C119.777 246.376 120.218 246.864 120.218 247.4C120.218 247.936 119.728 248.424 119.19 248.424Z" stroke="#004357" stroke-miterlimit="10"/>
    <path d="M118.994 226.635H93.9837C93.3964 226.635 92.9559 226.148 92.9559 225.612C92.9559 225.027 93.4453 224.588 93.9837 224.588H118.994C119.582 224.588 120.022 225.075 120.022 225.612C120.071 226.148 119.582 226.635 118.994 226.635Z" stroke="#004357" stroke-miterlimit="10"/>
    <path d="M121.637 202.75H121.295V205.87H83.9501V202.75C82.8733 202.847 82.0413 203.725 82.0413 204.797V255.492C82.0413 256.613 82.9712 257.588 84.1459 257.588H121.686C122.812 257.588 123.791 256.661 123.791 255.492V204.797C123.742 203.676 122.812 202.75 121.637 202.75Z" stroke="#004357" stroke-width="2" stroke-miterlimit="10"/>
    <path d="M98.8292 200.508C99.4655 198.899 101.081 197.729 102.941 197.729C104.8 197.729 106.367 198.899 107.003 200.508" stroke="#004357" stroke-width="2" stroke-miterlimit="10"/>
    <path d="M109.548 200.508C108.716 197.632 106.073 195.487 102.892 195.487C99.7102 195.487 97.1161 197.632 96.2841 200.508" stroke="#004357" stroke-width="2" stroke-miterlimit="10"/>
    <path d="M107.003 200.508C106.367 198.899 104.8 197.729 102.892 197.729C100.983 197.729 99.4165 198.899 98.7802 200.508" stroke="#004357" stroke-width="2" stroke-miterlimit="10"/>
    <path d="M83.9501 202.75V200.508H121.246V205.675" stroke="#004357" stroke-width="2" stroke-miterlimit="10"/>
  </g>
  <path d="M53.5277 482.416V488.944H54.9037C55.2877 488.032 56.1357 487.424 57.3037 487.424C58.9837 487.424 59.8317 488.384 59.8317 490.032C59.8317 491.616 59.0477 492.8 57.2877 492.8C55.9277 492.8 54.9837 492.08 54.7117 490.864H53.2877C53.5757 492.736 54.9677 494.032 57.2717 494.032C59.9757 494.032 61.2237 492.24 61.2237 490C61.2237 488.208 60.3277 486.176 57.5117 486.176C56.3757 486.176 55.3517 486.688 54.8717 487.344V483.696H60.4877V482.416H53.5277ZM65.0344 493.104C65.0344 492.544 64.6024 492.112 64.0744 492.112C63.5144 492.112 63.0824 492.544 63.0824 493.104C63.0824 493.664 63.5144 494.096 64.0744 494.096C64.6024 494.096 65.0344 493.664 65.0344 493.104ZM71.115 488.416C71.115 491.76 73.563 494.096 76.683 494.096C79.099 494.096 81.019 492.896 81.851 490.752H80.107C79.499 492.08 78.315 492.832 76.683 492.832C74.347 492.832 72.603 491.136 72.603 488.416C72.603 485.68 74.347 483.984 76.683 483.984C78.315 483.984 79.499 484.736 80.107 486.08H81.851C81.019 483.92 79.099 482.704 76.683 482.704C73.563 482.704 71.115 485.072 71.115 488.416ZM92.5502 489.6C92.5502 486.832 90.6142 485.088 88.1182 485.088C85.6382 485.088 83.6862 486.832 83.6862 489.6C83.6862 492.384 85.5742 494.144 88.0542 494.144C90.5502 494.144 92.5502 492.384 92.5502 489.6ZM85.1742 489.6C85.1742 487.392 86.5662 486.352 88.1022 486.352C89.6062 486.352 91.0622 487.392 91.0622 489.6C91.0622 491.824 89.5742 492.864 88.0542 492.864C86.5342 492.864 85.1742 491.824 85.1742 489.6ZM101.092 494H102.532V488.832C102.532 486.32 100.98 485.072 98.9484 485.072C97.7644 485.072 96.7084 485.568 96.1324 486.48V485.232H94.6764V494H96.1324V489.152C96.1324 487.264 97.1564 486.336 98.6444 486.336C100.116 486.336 101.092 487.248 101.092 489.04V494ZM105.443 491.6C105.443 493.36 106.323 494 107.875 494H109.187V492.768H108.115C107.219 492.768 106.899 492.464 106.899 491.6V486.432H109.187V485.232H106.899V483.024H105.443V485.232H104.307V486.432H105.443V491.6ZM114.891 486.32C116.395 486.32 117.675 487.264 117.659 488.976H112.123C112.283 487.264 113.467 486.32 114.891 486.32ZM118.987 491.296H117.419C117.099 492.24 116.267 492.912 114.955 492.912C113.467 492.912 112.219 491.936 112.107 490.16H119.115C119.147 489.856 119.163 489.6 119.163 489.28C119.163 486.88 117.499 485.088 114.955 485.088C112.395 485.088 110.619 486.832 110.619 489.6C110.619 492.384 112.459 494.144 114.955 494.144C117.131 494.144 118.539 492.896 118.987 491.296ZM127.6 491.616C127.536 488.48 122.448 489.616 122.448 487.536C122.448 486.832 123.088 486.32 124.16 486.32C125.328 486.32 126 486.96 126.064 487.84H127.52C127.424 486.128 126.144 485.088 124.208 485.088C122.256 485.088 120.992 486.192 120.992 487.536C120.992 490.8 126.176 489.664 126.176 491.616C126.176 492.336 125.536 492.912 124.384 492.912C123.152 492.912 122.4 492.272 122.32 491.424H120.816C120.912 493.024 122.352 494.144 124.4 494.144C126.336 494.144 127.6 493.056 127.6 491.616ZM130.187 491.6C130.187 493.36 131.067 494 132.619 494H133.931V492.768H132.859C131.963 492.768 131.643 492.464 131.643 491.6V486.432H133.931V485.232H131.643V483.024H130.187V485.232H129.051V486.432H130.187V491.6ZM135.363 489.584C135.363 492.304 137.171 494.144 139.507 494.144C141.123 494.144 142.259 493.312 142.787 492.368V494H144.259V485.232H142.787V486.832C142.275 485.92 141.155 485.088 139.523 485.088C137.171 485.088 135.363 486.848 135.363 489.584ZM142.787 489.6C142.787 491.664 141.411 492.864 139.811 492.864C138.211 492.864 136.851 491.648 136.851 489.584C136.851 487.52 138.211 486.352 139.811 486.352C141.411 486.352 142.787 487.568 142.787 489.6ZM148.388 489.232C148.388 487.2 149.444 486.576 150.836 486.576H151.22V485.072C149.828 485.072 148.884 485.68 148.388 486.656V485.232H146.932V494H148.388V489.232ZM49.5733 505.6C49.5733 508.384 51.3493 510.144 53.8453 510.144C56.0213 510.144 57.4453 508.928 57.8933 507.184H56.3253C56.0053 508.288 55.1413 508.912 53.8453 508.912C52.2453 508.912 51.0613 507.776 51.0613 505.6C51.0613 503.456 52.2453 502.32 53.8453 502.32C55.1413 502.32 56.0213 502.992 56.3253 504.048H57.8933C57.4453 502.208 56.0213 501.088 53.8453 501.088C51.3493 501.088 49.5733 502.848 49.5733 505.6ZM67.8239 501.232H66.3679V506.048C66.3679 507.936 65.3599 508.864 63.8559 508.864C62.3839 508.864 61.4079 507.952 61.4079 506.176V501.232H59.9679V506.368C59.9679 508.88 61.5519 510.128 63.5679 510.128C64.7359 510.128 65.8079 509.616 66.3679 508.704V510H67.8239V501.232ZM74.2221 502.32C75.7261 502.32 77.0061 503.264 76.9901 504.976H71.4541C71.6141 503.264 72.7981 502.32 74.2221 502.32ZM78.3181 507.296H76.7501C76.4301 508.24 75.5981 508.912 74.2861 508.912C72.7981 508.912 71.5501 507.936 71.4381 506.16H78.4461C78.4781 505.856 78.4941 505.6 78.4941 505.28C78.4941 502.88 76.8301 501.088 74.2861 501.088C71.7261 501.088 69.9501 502.832 69.9501 505.6C69.9501 508.384 71.7901 510.144 74.2861 510.144C76.4621 510.144 77.8701 508.896 78.3181 507.296ZM86.9318 507.616C86.8678 504.48 81.7798 505.616 81.7798 503.536C81.7798 502.832 82.4198 502.32 83.4918 502.32C84.6598 502.32 85.3318 502.96 85.3958 503.84H86.8518C86.7558 502.128 85.4758 501.088 83.5398 501.088C81.5878 501.088 80.3238 502.192 80.3238 503.536C80.3238 506.8 85.5078 505.664 85.5078 507.616C85.5078 508.336 84.8678 508.912 83.7158 508.912C82.4838 508.912 81.7318 508.272 81.6518 507.424H80.1478C80.2438 509.024 81.6838 510.144 83.7318 510.144C85.6678 510.144 86.9318 509.056 86.9318 507.616ZM89.519 507.6C89.519 509.36 90.399 510 91.951 510H93.263V508.768H92.191C91.295 508.768 90.975 508.464 90.975 507.6V502.432H93.263V501.232H90.975V499.024H89.519V501.232H88.383V502.432H89.519V507.6ZM95.2389 510H96.6949V501.232H95.2389V510ZM95.9909 499.808C96.5189 499.808 96.9509 499.376 96.9509 498.816C96.9509 498.256 96.5189 497.824 95.9909 497.824C95.4309 497.824 94.9989 498.256 94.9989 498.816C94.9989 499.376 95.4309 499.808 95.9909 499.808ZM107.708 505.6C107.708 502.832 105.772 501.088 103.276 501.088C100.796 501.088 98.8443 502.832 98.8443 505.6C98.8443 508.384 100.732 510.144 103.212 510.144C105.708 510.144 107.708 508.384 107.708 505.6ZM100.332 505.6C100.332 503.392 101.724 502.352 103.26 502.352C104.764 502.352 106.22 503.392 106.22 505.6C106.22 507.824 104.732 508.864 103.212 508.864C101.692 508.864 100.332 507.824 100.332 505.6ZM116.25 510H117.69V504.832C117.69 502.32 116.138 501.072 114.106 501.072C112.922 501.072 111.866 501.568 111.29 502.48V501.232H109.834V510H111.29V505.152C111.29 503.264 112.314 502.336 113.802 502.336C115.274 502.336 116.25 503.248 116.25 505.04V510ZM119.737 505.584C119.737 508.304 121.545 510.144 123.881 510.144C125.497 510.144 126.633 509.312 127.161 508.368V510H128.633V501.232H127.161V502.832C126.649 501.92 125.529 501.088 123.897 501.088C121.545 501.088 119.737 502.848 119.737 505.584ZM127.161 505.6C127.161 507.664 125.785 508.864 124.185 508.864C122.585 508.864 121.225 507.648 121.225 505.584C121.225 503.52 122.585 502.352 124.185 502.352C125.785 502.352 127.161 503.568 127.161 505.6ZM132.761 505.232C132.761 503.2 133.817 502.576 135.209 502.576H135.593V501.072C134.201 501.072 133.257 501.68 132.761 502.656V501.232H131.305V510H132.761V505.232ZM137.486 510H138.942V501.232H137.486V510ZM138.238 499.808C138.766 499.808 139.198 499.376 139.198 498.816C139.198 498.256 138.766 497.824 138.238 497.824C137.678 497.824 137.246 498.256 137.246 498.816C137.246 499.376 137.678 499.808 138.238 499.808ZM149.955 505.6C149.955 502.832 148.019 501.088 145.523 501.088C143.043 501.088 141.091 502.832 141.091 505.6C141.091 508.384 142.979 510.144 145.459 510.144C147.955 510.144 149.955 508.384 149.955 505.6ZM142.579 505.6C142.579 503.392 143.971 502.352 145.507 502.352C147.011 502.352 148.467 503.392 148.467 505.6C148.467 507.824 146.979 508.864 145.459 508.864C143.939 508.864 142.579 507.824 142.579 505.6ZM61.6347 526H63.0907V521.152C63.0907 519.264 64.1147 518.336 65.6027 518.336C67.0747 518.336 68.0507 519.248 68.0507 521.04V526H69.4907V520.832C69.4907 518.32 67.9387 517.072 65.9867 517.072C64.7547 517.072 63.6667 517.568 63.0907 518.496V514.16H61.6347V526ZM80.4009 521.6C80.4009 518.832 78.4649 517.088 75.9689 517.088C73.4889 517.088 71.5369 518.832 71.5369 521.6C71.5369 524.384 73.4249 526.144 75.9049 526.144C78.4009 526.144 80.4009 524.384 80.4009 521.6ZM73.0249 521.6C73.0249 519.392 74.4169 518.352 75.9529 518.352C77.4569 518.352 78.9129 519.392 78.9129 521.6C78.9129 523.824 77.4249 524.864 75.9049 524.864C74.3849 524.864 73.0249 523.824 73.0249 521.6ZM83.9831 521.232C83.9831 519.2 85.0391 518.576 86.4311 518.576H86.8151V517.072C85.4231 517.072 84.4791 517.68 83.9831 518.656V517.232H82.5271V526H83.9831V521.232ZM101.364 526H102.804V520.832C102.804 518.32 101.252 517.072 99.2517 517.072C97.9077 517.072 96.6597 517.76 96.1477 519.024C95.5717 517.712 94.3717 517.072 92.9317 517.072C91.7797 517.072 90.7397 517.568 90.1637 518.496V517.232H88.7077V526H90.1637V521.168C90.1637 519.28 91.1717 518.336 92.6437 518.336C94.0837 518.336 95.0437 519.248 95.0437 521.04V526H96.4837V521.168C96.4837 519.28 97.4917 518.336 98.9637 518.336C100.404 518.336 101.364 519.248 101.364 521.04V526ZM113.724 521.6C113.724 518.832 111.788 517.088 109.292 517.088C106.812 517.088 104.86 518.832 104.86 521.6C104.86 524.384 106.748 526.144 109.228 526.144C111.724 526.144 113.724 524.384 113.724 521.6ZM106.348 521.6C106.348 519.392 107.74 518.352 109.276 518.352C110.78 518.352 112.236 519.392 112.236 521.6C112.236 523.824 110.748 524.864 109.228 524.864C107.708 524.864 106.348 523.824 106.348 521.6ZM122.266 526H123.706V520.832C123.706 518.32 122.154 517.072 120.122 517.072C118.938 517.072 117.882 517.568 117.306 518.48V517.232H115.85V526H117.306V521.152C117.306 519.264 118.33 518.336 119.818 518.336C121.29 518.336 122.266 519.248 122.266 521.04V526ZM125.752 521.584C125.752 524.304 127.56 526.144 129.896 526.144C131.512 526.144 132.648 525.312 133.176 524.368V526H134.648V517.232H133.176V518.832C132.664 517.92 131.544 517.088 129.912 517.088C127.56 517.088 125.752 518.848 125.752 521.584ZM133.176 521.6C133.176 523.664 131.8 524.864 130.2 524.864C128.6 524.864 127.24 523.648 127.24 521.584C127.24 519.52 128.6 518.352 130.2 518.352C131.8 518.352 133.176 519.568 133.176 521.6ZM137.321 526H138.777V514.16H137.321V526ZM142.894 525.104C142.894 524.544 142.462 524.112 141.934 524.112C141.374 524.112 140.942 524.544 140.942 525.104C140.942 525.664 141.374 526.096 141.934 526.096C142.462 526.096 142.894 525.664 142.894 525.104Z" fill="#637080"/>
  <g clip-path="url(#clip2_1247_631)">
    <path d="M121.295 402.385H127.413C127.462 402.385 127.511 402.434 127.511 402.483V461.464C127.511 461.512 127.462 461.561 127.413 461.561H77.5873C77.5384 461.561 77.4894 461.512 77.4894 461.464V402.483C77.4894 402.434 77.5384 402.385 77.5873 402.385H83.9501" stroke="#004357" stroke-width="2" stroke-miterlimit="10"/>
    <path d="M88.1104 418.52C90.2188 418.52 91.928 416.817 91.928 414.718C91.928 412.618 90.2188 410.916 88.1104 410.916C86.0019 410.916 84.2927 412.618 84.2927 414.718C84.2927 416.817 86.0019 418.52 88.1104 418.52Z" stroke="#004357" stroke-miterlimit="10"/>
    <path d="M85.2226 414.474L86.9357 417.009C86.9846 417.106 87.1315 417.106 87.1804 417.058L90.9002 413.499C90.9491 413.45 90.9491 413.304 90.9002 413.255L90.1171 412.476C90.0681 412.427 89.9213 412.427 89.8724 412.476L87.1804 415.156C87.0825 415.254 86.9846 415.205 86.9357 415.156L85.81 413.645C85.7121 413.548 85.5653 413.548 85.5163 413.694L85.1737 414.377C85.1737 414.377 85.1737 414.425 85.2226 414.474Z" stroke="#004357" stroke-miterlimit="10"/>
    <path d="M88.1104 430.413C90.2188 430.413 91.928 428.711 91.928 426.611C91.928 424.511 90.2188 422.809 88.1104 422.809C86.0019 422.809 84.2927 424.511 84.2927 426.611C84.2927 428.711 86.0019 430.413 88.1104 430.413Z" stroke="#004357" stroke-miterlimit="10"/>
    <path d="M85.2227 426.319L86.9357 428.853C86.9846 428.951 87.1315 428.951 87.1804 428.902L90.9002 425.344C90.9491 425.295 90.9491 425.149 90.9002 425.1L90.166 424.271C90.1171 424.223 89.9703 424.223 89.9213 424.271L87.2294 426.952C87.1315 427.05 87.0336 427.001 86.9846 426.952L85.8589 425.441C85.761 425.344 85.6142 425.344 85.5653 425.49L85.2227 426.172C85.1737 426.221 85.1737 426.27 85.2227 426.319Z" stroke="#004357" stroke-miterlimit="10"/>
    <path d="M88.1104 441.283C90.2188 441.283 91.928 439.581 91.928 437.481C91.928 435.381 90.2188 433.679 88.1104 433.679C86.0019 433.679 84.2927 435.381 84.2927 437.481C84.2927 439.581 86.0019 441.283 88.1104 441.283Z" stroke="#004357" stroke-miterlimit="10"/>
    <path d="M88.3732 452.632C90.4817 452.632 92.1909 450.93 92.1909 448.83C92.1909 446.731 90.4817 445.028 88.3732 445.028C86.2648 445.028 84.5556 446.731 84.5556 448.83C84.5556 450.93 86.2648 452.632 88.3732 452.632Z" stroke="#004357" stroke-miterlimit="10"/>
    <path d="M118.994 415.79H93.9837C93.3964 415.79 92.9559 415.302 92.9559 414.766C92.9559 414.181 93.4453 413.743 93.9837 413.743H118.994C119.582 413.743 120.022 414.23 120.022 414.766C120.071 415.302 119.582 415.79 118.994 415.79Z" stroke="#004357" stroke-miterlimit="10"/>
    <path d="M119.19 438.505H94.1795C93.5921 438.505 93.1516 438.018 93.1516 437.482C93.1516 436.897 93.6411 436.458 94.1795 436.458H119.19C119.777 436.458 120.218 436.945 120.218 437.482C120.218 438.067 119.728 438.505 119.19 438.505Z" stroke="#004357" stroke-miterlimit="10"/>
    <path d="M119.19 449.424H94.1795C93.5921 449.424 93.1516 448.936 93.1516 448.4C93.1516 447.815 93.6411 447.376 94.1795 447.376H119.19C119.777 447.376 120.218 447.864 120.218 448.4C120.218 448.936 119.728 449.424 119.19 449.424Z" stroke="#004357" stroke-miterlimit="10"/>
    <path d="M118.994 427.635H93.9837C93.3964 427.635 92.9559 427.148 92.9559 426.612C92.9559 426.027 93.4453 425.588 93.9837 425.588H118.994C119.582 425.588 120.022 426.075 120.022 426.612C120.071 427.148 119.582 427.635 118.994 427.635Z" stroke="#004357" stroke-miterlimit="10"/>
    <path d="M121.637 403.75H121.295V406.87H83.9501V403.75C82.8733 403.847 82.0413 404.725 82.0413 405.797V456.492C82.0413 457.613 82.9712 458.588 84.1459 458.588H121.686C122.812 458.588 123.791 457.661 123.791 456.492V405.797C123.742 404.676 122.812 403.75 121.637 403.75Z" stroke="#004357" stroke-width="2" stroke-miterlimit="10"/>
    <path d="M98.8292 401.508C99.4655 399.899 101.081 398.729 102.941 398.729C104.8 398.729 106.367 399.899 107.003 401.508" stroke="#004357" stroke-width="2" stroke-miterlimit="10"/>
    <path d="M109.548 401.508C108.716 398.632 106.073 396.487 102.892 396.487C99.7102 396.487 97.1161 398.632 96.2841 401.508" stroke="#004357" stroke-width="2" stroke-miterlimit="10"/>
    <path d="M107.003 401.508C106.367 399.899 104.8 398.729 102.892 398.729C100.983 398.729 99.4165 399.899 98.7802 401.508" stroke="#004357" stroke-width="2" stroke-miterlimit="10"/>
    <path d="M83.9501 403.75V401.508H121.246V406.675" stroke="#004357" stroke-width="2" stroke-miterlimit="10"/>
  </g>
  <path d="M317.934 485.184C317.742 483.568 316.622 482.192 314.414 482.192C311.486 482.192 310.318 484.432 310.318 488.064C310.318 491.568 311.134 494.032 314.558 494.032C317.086 494.032 318.334 492.304 318.334 490.192C318.334 487.76 316.878 486.336 314.718 486.336C313.342 486.336 312.078 486.976 311.582 488.112C311.566 484.672 312.558 483.408 314.398 483.408C315.71 483.408 316.366 484.064 316.59 485.184H317.934ZM314.414 487.568C316.078 487.568 316.926 488.608 316.926 490.24C316.926 491.808 315.982 492.816 314.478 492.816C312.654 492.816 311.758 491.616 311.758 490.08C311.758 488.352 313.086 487.568 314.414 487.568ZM322.174 493.104C322.174 492.544 321.742 492.112 321.214 492.112C320.654 492.112 320.222 492.544 320.222 493.104C320.222 493.664 320.654 494.096 321.214 494.096C321.742 494.096 322.174 493.664 322.174 493.104ZM334.799 482.832H328.799V494H334.799V492.8H330.255V488.96H334.319V487.76H330.255V484.032H334.799V482.832ZM343.63 494H345.07V488.832C345.07 486.32 343.518 485.072 341.486 485.072C340.302 485.072 339.246 485.568 338.67 486.48V485.232H337.214V494H338.67V489.152C338.67 487.264 339.694 486.336 341.182 486.336C342.654 486.336 343.63 487.248 343.63 489.04V494ZM346.62 485.232L350.06 494H351.756L355.196 485.232H353.644L350.924 492.656L348.188 485.232H346.62ZM356.84 494H358.296V485.232H356.84V494ZM355.72 483.488V484.576L359.128 482.752V481.488L355.72 483.488ZM369.31 489.6C369.31 486.832 367.374 485.088 364.878 485.088C362.398 485.088 360.446 486.832 360.446 489.6C360.446 492.384 362.334 494.144 364.814 494.144C367.31 494.144 369.31 492.384 369.31 489.6ZM361.934 489.6C361.934 487.392 363.326 486.352 364.862 486.352C366.366 486.352 367.822 487.392 367.822 489.6C367.822 491.824 366.334 492.864 364.814 492.864C363.294 492.864 361.934 491.824 361.934 489.6ZM375.369 489.584C375.369 492.304 377.177 494.144 379.529 494.144C381.129 494.144 382.265 493.328 382.793 492.352V494H384.265V482.16H382.793V486.8C382.185 485.792 380.921 485.088 379.545 485.088C377.177 485.088 375.369 486.848 375.369 489.584ZM382.793 489.6C382.793 491.664 381.417 492.864 379.817 492.864C378.217 492.864 376.857 491.648 376.857 489.584C376.857 487.52 378.217 486.352 379.817 486.352C381.417 486.352 382.793 487.568 382.793 489.6ZM390.666 486.32C392.17 486.32 393.45 487.264 393.434 488.976H387.898C388.058 487.264 389.242 486.32 390.666 486.32ZM394.762 491.296H393.194C392.874 492.24 392.042 492.912 390.73 492.912C389.242 492.912 387.994 491.936 387.882 490.16H394.89C394.922 489.856 394.938 489.6 394.938 489.28C394.938 486.88 393.274 485.088 390.73 485.088C388.17 485.088 386.394 486.832 386.394 489.6C386.394 492.384 388.234 494.144 390.73 494.144C392.906 494.144 394.314 492.896 394.762 491.296ZM401.549 494H403.005V482.16H401.549V494ZM405.154 489.584C405.154 492.304 406.962 494.144 409.298 494.144C410.914 494.144 412.05 493.312 412.578 492.368V494H414.05V485.232H412.578V486.832C412.066 485.92 410.946 485.088 409.314 485.088C406.962 485.088 405.154 486.848 405.154 489.584ZM412.578 489.6C412.578 491.664 411.202 492.864 409.602 492.864C408.002 492.864 406.642 491.648 406.642 489.584C406.642 487.52 408.002 486.352 409.602 486.352C411.202 486.352 412.578 487.568 412.578 489.6ZM423.027 491.616C422.963 488.48 417.875 489.616 417.875 487.536C417.875 486.832 418.515 486.32 419.587 486.32C420.755 486.32 421.427 486.96 421.491 487.84H422.947C422.851 486.128 421.571 485.088 419.635 485.088C417.683 485.088 416.419 486.192 416.419 487.536C416.419 490.8 421.603 489.664 421.603 491.616C421.603 492.336 420.963 492.912 419.811 492.912C418.579 492.912 417.827 492.272 417.747 491.424H416.243C416.339 493.024 417.779 494.144 419.827 494.144C421.763 494.144 423.027 493.056 423.027 491.616ZM286.011 510H287.451V504.832C287.451 502.32 285.899 501.072 283.899 501.072C282.555 501.072 281.307 501.76 280.795 503.024C280.219 501.712 279.019 501.072 277.579 501.072C276.427 501.072 275.387 501.568 274.811 502.496V501.232H273.355V510H274.811V505.168C274.811 503.28 275.819 502.336 277.291 502.336C278.731 502.336 279.691 503.248 279.691 505.04V510H281.131V505.168C281.131 503.28 282.139 502.336 283.611 502.336C285.051 502.336 286.011 503.248 286.011 505.04V510ZM297.827 501.232H296.371V506.048C296.371 507.936 295.363 508.864 293.859 508.864C292.387 508.864 291.411 507.952 291.411 506.176V501.232H289.971V506.368C289.971 508.88 291.555 510.128 293.571 510.128C294.739 510.128 295.811 509.616 296.371 508.704V510H297.827V501.232ZM304.225 502.32C305.729 502.32 307.009 503.264 306.993 504.976H301.457C301.617 503.264 302.801 502.32 304.225 502.32ZM308.321 507.296H306.753C306.433 508.24 305.601 508.912 304.289 508.912C302.801 508.912 301.553 507.936 301.441 506.16H308.449C308.481 505.856 308.497 505.6 308.497 505.28C308.497 502.88 306.833 501.088 304.289 501.088C301.729 501.088 299.953 502.832 299.953 505.6C299.953 508.384 301.793 510.144 304.289 510.144C306.465 510.144 307.873 508.896 308.321 507.296ZM316.935 507.616C316.871 504.48 311.783 505.616 311.783 503.536C311.783 502.832 312.423 502.32 313.495 502.32C314.663 502.32 315.335 502.96 315.399 503.84H316.855C316.759 502.128 315.479 501.088 313.543 501.088C311.591 501.088 310.327 502.192 310.327 503.536C310.327 506.8 315.511 505.664 315.511 507.616C315.511 508.336 314.871 508.912 313.719 508.912C312.487 508.912 311.735 508.272 311.655 507.424H310.151C310.247 509.024 311.687 510.144 313.735 510.144C315.671 510.144 316.935 509.056 316.935 507.616ZM319.522 507.6C319.522 509.36 320.402 510 321.954 510H323.266V508.768H322.194C321.298 508.768 320.978 508.464 320.978 507.6V502.432H323.266V501.232H320.978V499.024H319.522V501.232H318.386V502.432H319.522V507.6ZM326.698 505.232C326.698 503.2 327.754 502.576 329.146 502.576H329.53V501.072C328.138 501.072 327.194 501.68 326.698 502.656V501.232H325.242V510H326.698V505.232ZM330.879 505.584C330.879 508.304 332.687 510.144 335.023 510.144C336.639 510.144 337.775 509.312 338.303 508.368V510H339.775V501.232H338.303V502.832C337.791 501.92 336.671 501.088 335.039 501.088C332.687 501.088 330.879 502.848 330.879 505.584ZM338.303 505.6C338.303 507.664 336.927 508.864 335.327 508.864C333.727 508.864 332.367 507.648 332.367 505.584C332.367 503.52 333.727 502.352 335.327 502.352C336.927 502.352 338.303 503.568 338.303 505.6ZM348.751 507.616C348.687 504.48 343.599 505.616 343.599 503.536C343.599 502.832 344.239 502.32 345.311 502.32C346.479 502.32 347.151 502.96 347.215 503.84H348.671C348.575 502.128 347.295 501.088 345.359 501.088C343.407 501.088 342.143 502.192 342.143 503.536C342.143 506.8 347.327 505.664 347.327 507.616C347.327 508.336 346.687 508.912 345.535 508.912C344.303 508.912 343.551 508.272 343.471 507.424H341.967C342.063 509.024 343.503 510.144 345.551 510.144C347.487 510.144 348.751 509.056 348.751 507.616ZM354.952 505.584C354.952 508.304 356.76 510.144 359.096 510.144C360.712 510.144 361.848 509.312 362.376 508.368V510H363.848V501.232H362.376V502.832C361.864 501.92 360.744 501.088 359.112 501.088C356.76 501.088 354.952 502.848 354.952 505.584ZM362.376 505.6C362.376 507.664 361 508.864 359.4 508.864C357.8 508.864 356.44 507.648 356.44 505.584C356.44 503.52 357.8 502.352 359.4 502.352C361 502.352 362.376 503.568 362.376 505.6ZM370.998 510H372.454V498.16H370.998V510ZM374.603 505.584C374.603 508.304 376.411 510.144 378.747 510.144C380.363 510.144 381.499 509.312 382.027 508.368V510H383.499V501.232H382.027V502.832C381.515 501.92 380.395 501.088 378.763 501.088C376.411 501.088 374.603 502.848 374.603 505.584ZM382.027 505.6C382.027 507.664 380.651 508.864 379.051 508.864C377.451 508.864 376.091 507.648 376.091 505.584C376.091 503.52 377.451 502.352 379.051 502.352C380.651 502.352 382.027 503.568 382.027 505.6ZM387.627 502.864V498.16H386.171V510H387.627V508.384C388.171 509.344 389.307 510.144 390.907 510.144C393.259 510.144 395.067 508.304 395.067 505.584C395.067 502.848 393.275 501.088 390.907 501.088C389.355 501.088 388.187 501.888 387.627 502.864ZM393.579 505.584C393.579 507.648 392.219 508.864 390.603 508.864C389.019 508.864 387.627 507.664 387.627 505.6C387.627 503.568 389.019 502.352 390.603 502.352C392.219 502.352 393.579 503.52 393.579 505.584ZM405.516 505.6C405.516 502.832 403.58 501.088 401.084 501.088C398.604 501.088 396.652 502.832 396.652 505.6C396.652 508.384 398.54 510.144 401.02 510.144C403.516 510.144 405.516 508.384 405.516 505.6ZM398.14 505.6C398.14 503.392 399.532 502.352 401.068 502.352C402.572 502.352 404.028 503.392 404.028 505.6C404.028 507.824 402.54 508.864 401.02 508.864C399.5 508.864 398.14 507.824 398.14 505.6ZM409.098 505.232C409.098 503.2 410.154 502.576 411.546 502.576H411.93V501.072C410.538 501.072 409.594 501.68 409.098 502.656V501.232H407.642V510H409.098V505.232ZM413.278 505.584C413.278 508.304 415.086 510.144 417.422 510.144C419.038 510.144 420.174 509.312 420.702 508.368V510H422.174V501.232H420.702V502.832C420.19 501.92 419.07 501.088 417.438 501.088C415.086 501.088 413.278 502.848 413.278 505.584ZM420.702 505.6C420.702 507.664 419.326 508.864 417.726 508.864C416.126 508.864 414.766 507.648 414.766 505.584C414.766 503.52 416.126 502.352 417.726 502.352C419.326 502.352 420.702 503.568 420.702 505.6ZM425.167 507.6C425.167 509.36 426.047 510 427.599 510H428.911V508.768H427.839C426.943 508.768 426.623 508.464 426.623 507.6V502.432H428.911V501.232H426.623V499.024H425.167V501.232H424.031V502.432H425.167V507.6ZM439.207 505.6C439.207 502.832 437.271 501.088 434.775 501.088C432.295 501.088 430.343 502.832 430.343 505.6C430.343 508.384 432.231 510.144 434.711 510.144C437.207 510.144 439.207 508.384 439.207 505.6ZM431.831 505.6C431.831 503.392 433.223 502.352 434.759 502.352C436.263 502.352 437.719 503.392 437.719 505.6C437.719 507.824 436.231 508.864 434.711 508.864C433.191 508.864 431.831 507.824 431.831 505.6ZM442.789 505.232C442.789 503.2 443.845 502.576 445.237 502.576H445.621V501.072C444.229 501.072 443.285 501.68 442.789 502.656V501.232H441.333V510H442.789V505.232ZM447.513 510H448.969V501.232H447.513V510ZM448.265 499.808C448.793 499.808 449.225 499.376 449.225 498.816C449.225 498.256 448.793 497.824 448.265 497.824C447.705 497.824 447.273 498.256 447.273 498.816C447.273 499.376 447.705 499.808 448.265 499.808ZM459.983 505.6C459.983 502.832 458.047 501.088 455.551 501.088C453.071 501.088 451.119 502.832 451.119 505.6C451.119 508.384 453.007 510.144 455.487 510.144C457.983 510.144 459.983 508.384 459.983 505.6ZM452.607 505.6C452.607 503.392 453.999 502.352 455.535 502.352C457.039 502.352 458.495 503.392 458.495 505.6C458.495 507.824 457.007 508.864 455.487 508.864C453.967 508.864 452.607 507.824 452.607 505.6ZM318.371 520.416C318.371 517.072 315.923 514.72 312.771 514.72C309.635 514.72 307.171 517.072 307.171 520.416C307.171 523.76 309.635 526.112 312.771 526.112C315.923 526.112 318.371 523.76 318.371 520.416ZM308.659 520.416C308.659 517.68 310.419 515.984 312.771 515.984C315.123 515.984 316.883 517.68 316.883 520.416C316.883 523.136 315.123 524.848 312.771 524.848C310.419 524.848 308.659 523.136 308.659 520.416ZM333.161 526H334.601V520.832C334.601 518.32 333.049 517.072 331.049 517.072C329.705 517.072 328.457 517.76 327.945 519.024C327.369 517.712 326.169 517.072 324.729 517.072C323.577 517.072 322.537 517.568 321.961 518.496V517.232H320.505V526H321.961V521.168C321.961 519.28 322.969 518.336 324.441 518.336C325.881 518.336 326.841 519.248 326.841 521.04V526H328.281V521.168C328.281 519.28 329.289 518.336 330.761 518.336C332.201 518.336 333.161 519.248 333.161 521.04V526ZM337.202 526H338.658V517.232H337.202V526ZM337.954 515.808C338.482 515.808 338.914 515.376 338.914 514.816C338.914 514.256 338.482 513.824 337.954 513.824C337.394 513.824 336.962 514.256 336.962 514.816C336.962 515.376 337.394 515.808 337.954 515.808ZM346.407 514.72C343.271 514.72 340.807 517.072 340.807 520.416C340.807 523.76 343.271 526.096 346.407 526.096C349.431 526.096 351.623 523.872 351.879 521.104V519.984H345.879V521.168H350.327C350.103 523.376 348.599 524.784 346.407 524.784C344.055 524.784 342.295 523.088 342.295 520.416C342.295 517.728 344.055 516.032 346.407 516.032C347.975 516.032 349.191 516.784 349.799 518.08H351.543C350.711 515.936 348.759 514.72 346.407 514.72ZM357.744 518.32C359.248 518.32 360.528 519.264 360.512 520.976H354.976C355.136 519.264 356.32 518.32 357.744 518.32ZM361.84 523.296H360.272C359.952 524.24 359.12 524.912 357.808 524.912C356.32 524.912 355.072 523.936 354.96 522.16H361.968C362 521.856 362.016 521.6 362.016 521.28C362.016 518.88 360.352 517.088 357.808 517.088C355.248 517.088 353.472 518.832 353.472 521.6C353.472 524.384 355.312 526.144 357.808 526.144C359.984 526.144 361.392 524.896 361.84 523.296ZM370.566 526H372.006V520.832C372.006 518.32 370.454 517.072 368.422 517.072C367.238 517.072 366.182 517.568 365.606 518.48V517.232H364.15V526H365.606V521.152C365.606 519.264 366.63 518.336 368.118 518.336C369.59 518.336 370.566 519.248 370.566 521.04V526ZM382.916 521.6C382.916 518.832 380.98 517.088 378.484 517.088C376.004 517.088 374.052 518.832 374.052 521.6C374.052 524.384 375.94 526.144 378.42 526.144C380.916 526.144 382.916 524.384 382.916 521.6ZM375.54 521.6C375.54 519.392 376.932 518.352 378.468 518.352C379.972 518.352 381.428 519.392 381.428 521.6C381.428 523.824 379.94 524.864 378.42 524.864C376.9 524.864 375.54 523.824 375.54 521.6ZM397.698 526H399.138V520.832C399.138 518.32 397.586 517.072 395.586 517.072C394.242 517.072 392.994 517.76 392.482 519.024C391.906 517.712 390.706 517.072 389.266 517.072C388.114 517.072 387.074 517.568 386.498 518.496V517.232H385.042V526H386.498V521.168C386.498 519.28 387.506 518.336 388.978 518.336C390.418 518.336 391.378 519.248 391.378 521.04V526H392.818V521.168C392.818 519.28 393.826 518.336 395.298 518.336C396.738 518.336 397.698 519.248 397.698 521.04V526ZM401.738 526H403.194V517.232H401.738V526ZM402.49 515.808C403.018 515.808 403.45 515.376 403.45 514.816C403.45 514.256 403.018 513.824 402.49 513.824C401.93 513.824 401.498 514.256 401.498 514.816C401.498 515.376 401.93 515.808 402.49 515.808ZM405.343 521.6C405.343 524.384 407.119 526.144 409.615 526.144C411.791 526.144 413.215 524.928 413.663 523.184H412.095C411.775 524.288 410.911 524.912 409.615 524.912C408.015 524.912 406.831 523.776 406.831 521.6C406.831 519.456 408.015 518.32 409.615 518.32C410.911 518.32 411.791 518.992 412.095 520.048H413.663C413.215 518.208 411.791 517.088 409.615 517.088C407.119 517.088 405.343 518.848 405.343 521.6ZM422.122 523.616C422.058 520.48 416.97 521.616 416.97 519.536C416.97 518.832 417.61 518.32 418.682 518.32C419.85 518.32 420.522 518.96 420.586 519.84H422.042C421.946 518.128 420.666 517.088 418.73 517.088C416.778 517.088 415.514 518.192 415.514 519.536C415.514 522.8 420.698 521.664 420.698 523.616C420.698 524.336 420.058 524.912 418.906 524.912C417.674 524.912 416.922 524.272 416.842 523.424H415.338C415.434 525.024 416.874 526.144 418.922 526.144C420.858 526.144 422.122 525.056 422.122 523.616ZM425.813 525.104C425.813 524.544 425.381 524.112 424.853 524.112C424.293 524.112 423.861 524.544 423.861 525.104C423.861 525.664 424.293 526.096 424.853 526.096C425.381 526.096 425.813 525.664 425.813 525.104Z" fill="#637080"/>
  <g clip-path="url(#clip3_1247_631)">
    <path d="M330.223 416.597V446.067L359.582 462.615V431.944L330.601 416.801L330.223 416.597Z" stroke="#004357" stroke-width="2" stroke-miterlimit="10"/>
    <path d="M330.223 416.188L359.983 401.25L388.942 416.596L359.582 431.943" stroke="#004357" stroke-width="2" stroke-miterlimit="10"/>
    <path d="M359.582 462.615L379.007 452.935" stroke="#004357" stroke-width="2" stroke-miterlimit="10"/>
    <path d="M369.339 406.713L341.984 422.921L342.118 429.133L347.865 432.737V425.891" stroke="#004357" stroke-width="2" stroke-miterlimit="10"/>
    <path d="M348.511 426.231L376.267 409.955" stroke="#004357" stroke-width="2" stroke-miterlimit="10"/>
    <path d="M379.809 435.163H400.436" stroke="#004357" stroke-width="2" stroke-miterlimit="10"/>
    <path d="M383.373 440.014H404" stroke="#004357" stroke-width="2" stroke-miterlimit="10"/>
    <path d="M372.279 448.9H393.285" stroke="#004357" stroke-width="2" stroke-miterlimit="10"/>
    <path d="M389.32 416.597V431.128" stroke="#004357" stroke-width="2" stroke-miterlimit="10"/>
    <path d="M335.324 445.658H334.633C334.388 445.658 334.188 445.454 334.188 445.205V438.449C334.188 438.2 334.388 437.996 334.633 437.996H335.324C335.569 437.996 335.769 438.2 335.769 438.449V445.205C335.769 445.454 335.569 445.658 335.324 445.658Z" stroke="#004357" stroke-miterlimit="10"/>
    <path d="M338.108 446.86H337.418C337.173 446.86 336.972 446.656 336.972 446.407V439.651C336.972 439.402 337.173 439.198 337.418 439.198H338.108C338.353 439.198 338.554 439.402 338.554 439.651V446.407C338.554 446.656 338.353 446.86 338.108 446.86Z" stroke="#004357" stroke-miterlimit="10"/>
    <path d="M340.893 448.084H340.202C339.957 448.084 339.757 447.88 339.757 447.631V440.875C339.757 440.626 339.957 440.422 340.202 440.422H340.893C341.138 440.422 341.338 440.626 341.338 440.875V447.631C341.338 447.88 341.138 448.084 340.893 448.084Z" stroke="#004357" stroke-miterlimit="10"/>
    <path d="M344.056 449.693H343.365C343.12 449.693 342.92 449.489 342.92 449.24V442.485C342.92 442.235 343.12 442.031 343.365 442.031H344.056C344.301 442.031 344.501 442.235 344.501 442.485V449.24C344.501 449.489 344.301 449.693 344.056 449.693Z" stroke="#004357" stroke-miterlimit="10"/>
  </g>
  <defs>
    <clipPath id="clip0_1247_631">
      <rect width="86" height="61" fill="white" transform="translate(59 1)"/>
    </clipPath>
    <clipPath id="clip1_1247_631">
      <rect width="51" height="66" fill="white" transform="translate(77 195)"/>
    </clipPath>
    <clipPath id="clip2_1247_631">
      <rect width="51" height="66" fill="white" transform="translate(77 396)"/>
    </clipPath>
    <clipPath id="clip3_1247_631">
      <rect width="74" height="62" fill="white" transform="translate(330 401)"/>
    </clipPath>
  </defs>
</svg>
