<svg width="127" height="136" viewBox="0 0 127 136" fill="none" xmlns="http://www.w3.org/2000/svg">
  <path d="M109.451 8.39062H54.7822V11.9388H109.451V8.39062Z" stroke="#004357" stroke-width="2" stroke-miterlimit="10"/>
  <path d="M78.7184 15.7832H54.7822V19.6271H78.7184V15.7832Z" stroke="#004357" stroke-width="2" stroke-miterlimit="10"/>
  <path d="M55.0781 126.072H87.8795" stroke="#004357" stroke-width="2" stroke-miterlimit="10"/>
  <path d="M39.416 89.2017V112.768C39.416 114.719 41.0118 116.316 42.9621 116.316H93.494V103.01C93.494 101.295 94.7056 99.8758 96.3309 99.521C82.0283 98.4861 70.7399 86.5406 70.7399 71.9635H68.9668H65.1252H53.6004H49.7588H53.6004V54.5183H65.1252V71.9635H68.9668V40.3256H78.7186V52.5373C80.078 51.1771 81.5555 49.9648 83.1512 48.9004V25.8372H92.903V44.8495C94.6761 44.4947 96.5082 44.3173 98.3699 44.3173C108.92 44.3173 118.11 50.2309 122.749 58.9535V4.54818C122.749 2.59668 121.154 1 119.203 1H42.9621C41.0118 1 39.416 2.59668 39.416 4.54818V82.135" stroke="#004357" stroke-width="2" stroke-miterlimit="10"/>
  <path d="M100.173 99.5497C101.769 99.9046 102.951 101.324 102.951 103.009V116.315H119.204C121.154 116.315 122.75 114.718 122.75 112.767V84.9727C118.376 93.1926 109.954 98.9288 100.173 99.5497Z" stroke="#004357" stroke-width="2" stroke-miterlimit="10"/>
  <path d="M78.7186 40.3242H68.9668V71.9621H70.7398C70.7398 64.3927 73.7836 57.5329 78.7186 52.5359V40.3242Z" stroke="#004357" stroke-width="2" stroke-miterlimit="10"/>
  <path d="M83.1514 25.8379V48.901C86.0769 46.9791 89.357 45.5894 92.9031 44.8798V25.8379H83.1514Z" stroke="#004357" stroke-width="2" stroke-miterlimit="10"/>
  <path d="M122.749 84.9731C124.818 81.0997 126 76.6644 126 71.9631C126 67.2618 124.818 62.8266 122.749 58.9531" stroke="#004357" stroke-width="2" stroke-miterlimit="10"/>
  <path d="M78.7188 71.9652H83.1514V57.2402C81.2601 59.1917 79.753 61.498 78.7188 64.0705V71.9652Z" stroke="#004357" stroke-width="2" stroke-miterlimit="10"/>
  <path d="M97.9263 71.964V58.954H107.678V71.964H112.702H107.678H97.9263ZM97.9263 71.964H92.9027H83.1509H78.7183H77.1816C77.1816 83.673 86.6675 93.1644 98.3696 93.1644C110.072 93.1644 119.558 83.673 119.558 71.964C119.558 60.255 110.072 50.7637 98.3696 50.7637C96.4783 50.7637 94.6462 51.0298 92.9027 51.4733V71.964H97.9263ZM86.4015 81.7215C86.4015 81.7215 91.1296 87.9308 97.9263 87.3395C91.1296 87.9308 86.4015 81.7215 86.4015 81.7215Z" stroke="#004357" stroke-width="2" stroke-miterlimit="10"/>
  <path d="M78.7183 64.0371C77.7431 66.4913 77.1816 69.1524 77.1816 71.9614H78.7183V64.0371Z" stroke="#004357" stroke-width="2" stroke-miterlimit="10"/>
  <path d="M83.1514 71.9614H92.9031V51.4707C89.1502 52.476 85.7814 54.4867 83.1514 57.2069V71.9614Z" stroke="#004357" stroke-width="2" stroke-miterlimit="10"/>
  <path d="M107.679 58.9531H97.9268V71.9631H107.679V58.9531Z" stroke="#004357" stroke-width="2" stroke-miterlimit="10"/>
  <path d="M93.4941 116.316V130.509C93.4941 132.461 95.0899 134.057 97.0402 134.057H99.4043C101.355 134.057 102.95 132.461 102.95 130.509V116.316" stroke="#004357" stroke-width="2" stroke-miterlimit="10"/>
  <path d="M102.95 116.318V103.012C102.95 101.327 101.768 99.9078 100.173 99.553C99.5816 99.5826 98.961 99.6121 98.37 99.6121C97.6904 99.6121 97.0107 99.5826 96.331 99.5234C94.7057 99.8487 93.4941 101.298 93.4941 103.012V116.318" stroke="#004357" stroke-width="2" stroke-miterlimit="10"/>
  <path d="M100.173 99.5496C99.9363 99.4905 99.6703 99.4609 99.4043 99.4609H97.0403C96.8039 99.4609 96.5675 99.4905 96.3311 99.5201C97.0107 99.5792 97.6904 99.6088 98.3701 99.6088C98.9611 99.6088 99.5816 99.5792 100.173 99.5496Z" stroke="#004357" stroke-width="2" stroke-miterlimit="10"/>
  <path d="M20.208 101.532C20.208 101.532 27.0047 91.7742 26.4137 86.7476L39.3865 82.1054L42.9621 80.834L54.1915 86.1562C54.1915 86.1562 53.0094 93.2526 43.2577 90.5915C43.2577 90.5915 41.3073 89.1131 39.4752 89.2313C39.4456 89.2313 39.4456 89.2313 39.416 89.2313C38.0863 89.32 36.8451 90.2958 36.461 93.2526" stroke="#004357" stroke-width="2" stroke-miterlimit="10"/>
  <path d="M39.4164 109.811C39.4164 109.811 33.5063 120.159 27.8916 120.159" stroke="#004357" stroke-width="2" stroke-miterlimit="10"/>
  <path d="M1 104.487L15.4799 98.2773L26.7092 124.002L15.1844 130.802" stroke="#004357" stroke-width="2" stroke-miterlimit="10"/>
  <path d="M12.5248 106.855L3.95508 111.586" stroke="#004357" stroke-width="2" stroke-miterlimit="10"/>
</svg>
