<svg width="81" height="120" viewBox="0 0 81 120" fill="none" xmlns="http://www.w3.org/2000/svg">
  <path d="M58.6655 29.6999H5.09459C2.84257 29.6999 1 27.8438 1 25.5753V5.12453C1 2.85604 2.84257 1 5.09459 1H58.6655C60.9176 1 62.7601 2.85604 62.7601 5.12453V25.5753C62.7601 27.8438 60.9176 29.6999 58.6655 29.6999Z" stroke="#004357" stroke-width="2" stroke-miterlimit="10"/>
  <path d="M38.1927 86.8593C50.0649 86.8593 59.6893 77.1646 59.6893 65.2056C59.6893 53.2465 50.0649 43.5518 38.1927 43.5518C26.3204 43.5518 16.696 53.2465 16.696 65.2056C16.696 77.1646 26.3204 86.8593 38.1927 86.8593Z" stroke="#004357" stroke-width="2" stroke-miterlimit="10"/>
  <path d="M40.9224 98.2013L59.6893 88.2336V33.9273C59.6893 31.6588 57.8467 29.8027 55.5947 29.8027H9.87169C7.61967 29.8027 5.7771 31.6588 5.7771 33.9273V109.2C5.7771 111.469 7.61967 113.325 9.87169 113.325H39.0457C35.1899 107.275 40.9224 98.2013 40.9224 98.2013Z" stroke="#004357" stroke-width="2" stroke-miterlimit="10"/>
  <path d="M39.0457 113.325C40.7517 116.006 44.3345 118.068 51.1588 118.48L77.7737 103.701C77.7737 103.701 86.6453 84.4528 66.1724 84.7965L59.6892 88.2337" stroke="#004357" stroke-width="2" stroke-miterlimit="10"/>
  <path d="M59.6892 88.2334L40.9223 98.201C40.9223 98.201 35.1899 107.309 39.0456 113.324" stroke="#004357" stroke-width="2" stroke-miterlimit="10"/>
  <path d="M6.80077 11.9297H4.07104V26.3655H6.80077V11.9297Z" stroke="#004357" stroke-miterlimit="10"/>
  <path d="M11.2366 11.9297H8.50684V26.3655H11.2366V11.9297Z" stroke="#004357" stroke-miterlimit="10"/>
  <path d="M56.6523 95.1766C56.0722 95.4859 55.8333 96.2077 56.1063 96.792L61.4634 107.55C61.7705 108.135 62.4871 108.375 63.0671 108.1C63.6472 107.791 63.886 107.069 63.6131 106.485L58.256 95.7265C57.9489 95.1078 57.2323 94.8673 56.6523 95.1766Z" stroke="#004357" stroke-width="2" stroke-miterlimit="10"/>
</svg>
