<svg width="90" height="108" viewBox="0 0 90 108" fill="none" xmlns="http://www.w3.org/2000/svg">
  <g clip-path="url(#clip0_832_2343)">
    <path d="M57.6999 20.1C57.6999 23.4 55.0999 26 51.7999 26C48.4999 26 45.8999 23.4 45.8999 20.1C45.8999 16.8 47.6999 13.1 51.7999 7.5C56.0999 13.1 57.6999 16.9 57.6999 20.1Z" fill="#002F43"/>
    <path d="M73.6999 12.6C73.6999 15.9 71.0999 18.5 67.7999 18.5C64.4999 18.5 61.8999 15.9 61.8999 12.6C61.8999 9.3 63.6999 5.6 67.7999 0C72.1999 5.6 73.6999 9.3 73.6999 12.6Z" fill="#002F43"/>
    <path d="M41.9001 12.6C41.9001 15.9 39.3001 18.5 36.0001 18.5C32.7001 18.5 30.1001 15.9 30.1001 12.6C30.1001 9.3 31.9001 5.6 36.0001 0C40.3001 5.6 41.9001 9.3 41.9001 12.6Z" fill="#002F43"/>
    <path d="M18.8001 68.1002L31.6001 51.3002L31.2001 51.5002C30.6001 51.8002 28.7001 52.7002 27.3001 53.0002C26.6001 53.2002 26.0001 53.1002 25.6001 52.8002C25.2001 52.4002 25.2001 51.9002 25.2001 51.8002L31.0001 31.6002C31.4001 30.2002 31.2001 28.7002 30.5001 27.5002C29.8001 26.2002 28.6001 25.3002 27.2001 24.9002C25.8001 24.5002 24.3001 24.7002 23.1001 25.4002C21.8001 26.1002 20.9001 27.3002 20.5001 28.7002L14.1001 51.0002C14.8001 52.0002 15.3001 53.1002 15.6001 54.4002L18.8001 68.1002Z" fill="#C7D1D6"/>
    <path d="M71.8999 41.4L78.5999 38.4C79.4999 38 80.1999 37.3 80.4999 36.4C80.8999 35.5 80.7999 34.5 80.3999 33.6C79.9999 32.7 79.2999 32 78.3999 31.7C77.4999 31.3 76.4999 31.4 75.5999 31.8L70.8999 33.9C71.6999 35 72.1999 36.2 72.2999 37.5C72.4999 38.8 72.3999 40.2 71.8999 41.4Z" fill="#C7D1D6"/>
    <path d="M72.7002 74.0001L81.9002 69.7001C82.8002 69.3001 83.5002 68.6001 83.8002 67.7001C84.2002 66.8001 84.1002 65.8001 83.7002 64.9001C83.3002 64.0001 82.6002 63.3001 81.7002 63.0001C80.9002 62.7001 80.1002 62.7001 79.4002 62.9001C79.3002 64.4001 78.7002 65.8001 77.8002 67.1001L72.7002 74.0001Z" fill="#C7D1D6"/>
    <path d="M76.2001 55.5C77.8001 56.7 78.9001 58.5 79.2001 60.4L84.9001 57.9C85.8001 57.5 86.5001 56.8 86.8001 55.9C87.2001 55 87.1001 54 86.7001 53.1C86.3001 52.2 85.6001 51.5 84.7001 51.2C83.8001 50.8 82.8001 50.9 81.9001 51.3L75.5001 54C75.4001 54.2 75.2001 54.5 75.1001 54.7C75.4001 55 75.8001 55.2 76.2001 55.5Z" fill="#C7D1D6"/>
    <path d="M76.3999 48.9999C76.4999 49.4999 76.4999 49.8999 76.4999 50.3999L86.9999 45.7999C87.8999 45.3999 88.5999 44.6999 88.8999 43.7999C89.2999 42.8999 89.1999 41.8999 88.7999 40.9999C88.3999 40.0999 87.6999 39.3999 86.7999 39.0999C85.8999 38.6999 84.8999 38.7999 83.9999 39.1999L73.3999 43.8999C75.0999 45.0999 76.0999 46.8999 76.3999 48.9999Z" fill="#C7D1D6"/>
    <path d="M73.6999 58.7C71.8999 57.3 69.2999 57.7 67.8999 59.5L56.6999 75.1C54.8999 76 54.8999 74.4 54.8999 74.4L71.4999 52.6C72.8999 50.8 72.4999 48.2 70.6999 46.8C68.8999 45.4 66.2999 45.8 64.8999 47.6L49.4999 68C47.4999 68.1 47.7999 66.9 47.7999 66.9L67.3999 41.1C68.7999 39.3 68.3999 36.7 66.5999 35.3C64.7999 33.9 62.1999 34.3 60.7999 36.1L41.4999 61.6C39.6999 62.4 39.6999 60.8 39.6999 60.8L56.4999 38.7C57.8999 36.9 57.4999 34.3 55.6999 32.9C53.8999 31.5 51.2999 31.9 49.8999 33.7L20.6999 72.4C20.2999 72.9 19.0999 74.6 18.0999 75.6C16.8999 76.8 16.3999 75.7 16.3999 75.7L11.6999 55.3C10.9999 52.1 7.79986 50.2 4.59986 50.9C1.39986 51.6 -0.500135 54.8 0.199865 58L5.69986 82H5.79987C5.89987 82.8 5.99987 83.7 6.19986 84.7C9.09986 97.5 21.4999 104.7 21.4999 104.7C24.5999 106.9 28.3999 108.1 32.4999 108.1C38.6999 108.1 44.1999 105.2 47.6999 100.7C47.8999 100.5 47.9999 100.3 48.1999 100.1L55.5999 90.8L74.5999 64.6C75.8999 62.7 75.5999 60.1 73.6999 58.7Z" fill="#C7D1D6"/>
  </g>
  <defs>
    <clipPath id="clip0_832_2343">
      <rect width="89.2" height="108" fill="white"/>
    </clipPath>
  </defs>
</svg>
