<svg width="39" height="36" viewBox="0 0 39 36" fill="none" xmlns="http://www.w3.org/2000/svg">
  <g clip-path="url(#clip0_471_112)">
    <path d="M12.1119 29.8263C11.6805 29.8263 11.4261 29.8372 11.1717 29.8263C10.2647 29.8046 9.87762 29.2513 10.1763 28.4158C10.5413 27.4177 10.9063 26.4195 11.2713 25.4104C11.3376 25.2151 11.3929 25.009 11.4482 24.8245C11.3708 24.7703 11.3487 24.7269 11.3155 24.7269C9.94399 24.6075 9.77808 24.4231 9.53474 23.0885C9.00383 20.2025 8.43973 17.3164 7.89776 14.4303C7.30048 11.1862 6.7032 7.95293 6.08381 4.7088C6.03956 4.50266 5.81835 4.24226 5.61926 4.15546C4.0597 3.51531 2.47802 2.92942 0.907401 2.31098C-0.0216966 1.95293 -0.276092 1.11749 0.310124 0.433942C0.697248 -0.0217544 1.19498 -0.0868538 1.71483 0.108444C3.60621 0.824538 5.47547 1.56233 7.35578 2.27843C7.90882 2.48457 8.20746 2.87517 8.307 3.43937C9.22504 8.39777 10.1541 13.367 11.0832 18.3254C11.3376 19.6708 11.592 21.0054 11.8575 22.3833C12.1229 22.3833 12.3442 22.3833 12.5654 22.3833C18.7041 22.3833 24.8427 22.3724 30.9814 22.3941C31.5566 22.3941 31.7889 22.2531 31.9658 21.6998C33.3152 17.4683 34.7089 13.2585 36.0804 9.03792C36.1136 8.94027 36.1357 8.83177 36.191 8.67987C35.4168 8.63647 34.6757 8.58222 33.9346 8.54967C31.7667 8.46287 29.5878 8.39777 27.4199 8.31097C23.5597 8.14822 19.6995 7.96378 15.8393 7.79018C15.0872 7.75763 14.3351 7.72508 13.583 7.69253C12.8751 7.65998 12.3552 7.13918 12.3773 6.47734C12.3995 5.82634 12.8972 5.3598 13.6272 5.3815C16.4587 5.47915 19.2903 5.5985 22.1218 5.71785C25.0086 5.83719 27.8955 5.94569 30.7823 6.06504C33.094 6.16269 35.4168 6.27119 37.7284 6.37969C38.746 6.42309 39.2216 7.16088 38.9009 8.13737C37.463 12.5316 36.0472 16.9258 34.6093 21.3092C34.3439 22.1121 34.0784 22.9258 33.8019 23.7178C33.5143 24.5207 33.1825 24.7377 32.3308 24.7377C26.3027 24.7377 20.2747 24.7486 14.2466 24.7269C13.782 24.7269 13.5608 24.8679 13.417 25.2911C13.1405 26.1482 12.8198 26.9837 12.4879 27.8951C12.8087 27.8951 13.041 27.8951 13.2733 27.8951C19.4894 27.8951 25.6944 27.8951 31.9105 27.8951C32.1981 27.8951 32.4967 27.9059 32.7843 27.9602C33.282 28.047 33.636 28.5026 33.5917 28.9692C33.5586 29.414 33.1604 29.8046 32.6848 29.8372C32.2976 29.8589 31.9105 29.8697 31.5345 29.8806C31.5123 29.8806 31.4792 29.924 31.457 29.9457C32.6848 32.235 32.541 33.9167 31.0146 35.1428C29.5767 36.3037 27.7296 36.3037 26.2585 35.1536C24.7321 33.9601 24.5883 32.2893 25.8271 29.9023C23.0841 29.9023 20.3632 29.9023 17.6201 29.9023C18.8589 32.1808 18.7815 33.7649 17.3768 35.0126C16.0495 36.1844 14.1581 36.3471 12.7534 35.3815C11.8464 34.763 11.3045 33.9168 11.1607 32.8318C11.0169 31.7468 11.3708 30.8028 12.1119 29.8263ZM28.5702 34.0361C29.5546 34.0578 30.3067 33.3634 30.3178 32.4195C30.3399 31.443 29.5767 30.6726 28.6144 30.6726C27.7075 30.6726 26.9221 31.4321 26.9 32.3218C26.8779 33.2332 27.6411 34.0144 28.5702 34.0361ZM16.503 32.4195C16.5251 31.4755 15.8062 30.7052 14.8549 30.6726C13.948 30.6401 13.1073 31.4321 13.0963 32.3327C13.0852 33.2332 13.8373 34.0036 14.7443 34.0361C15.7287 34.0578 16.4809 33.3634 16.503 32.4195Z" fill="white"/>
  </g>
  <defs>
    <clipPath id="clip0_471_112">
      <rect width="39" height="36" fill="white"/>
    </clipPath>
  </defs>
</svg>
