<svg width="33" height="33" viewBox="0 0 33 33" fill="none" xmlns="http://www.w3.org/2000/svg">
  <g clip-path="url(#clip0_471_116)">
    <path d="M13.5963 0C14.1636 0.0837891 14.7373 0.148242 15.3046 0.257812C17.187 0.61875 18.9018 1.3793 20.4425 2.52012C22.7762 4.26035 24.3556 6.5291 25.155 9.32637C26.0511 12.4717 25.7416 15.5203 24.3492 18.4658C24.0784 19.0459 23.7174 19.5809 23.35 20.2318C23.7174 20.5734 24.1364 20.9408 24.5232 21.334C26.7022 23.4996 28.8747 25.6717 31.0472 27.8438C31.6338 28.4303 32.214 29.0168 32.7942 29.6033C33.0649 29.8805 33.0778 30.1061 32.8006 30.3832C32.0012 31.1953 31.1954 31.9945 30.3832 32.8002C30.2994 32.884 30.1962 32.9355 30.0995 33.0064C30.0157 33.0064 29.9255 33.0064 29.8416 33.0064C29.139 32.3168 28.4298 31.6271 27.7336 30.9311C25.2839 28.4883 22.8407 26.0391 20.3974 23.5963C20.3201 23.5189 20.2427 23.4545 20.204 23.4158C19.3531 23.8477 18.5473 24.3182 17.7028 24.6791C15.8204 25.4783 13.8477 25.7748 11.8041 25.6072C10.0442 25.4654 8.38746 24.9756 6.83384 24.1635C5.53808 23.4803 4.39059 22.5973 3.39782 21.508C2.45662 20.4768 1.69592 19.3424 1.12862 18.0727C0.529092 16.7256 0.168084 15.327 0.0455993 13.851C-0.122012 11.7949 0.19387 9.82266 0.980352 7.92773C1.70237 6.1875 2.76605 4.67285 4.16496 3.39668C5.60254 2.08184 7.23997 1.11504 9.10303 0.586523C9.96687 0.341602 10.8758 0.238477 11.7655 0.0708984C11.8622 0.0515625 11.9524 0.0322266 12.0491 0.0128906C12.5648 0 13.0806 0 13.5963 0ZM12.8614 3.0293C7.41403 3.01641 3.12061 7.37344 3.02392 12.6199C2.92077 18.2016 7.37535 22.5393 12.6486 22.6166C18.2185 22.7004 22.6021 18.2273 22.6215 12.91C22.6344 7.43145 18.2765 3.0293 12.8614 3.0293Z" fill="white"/>
  </g>
  <defs>
    <clipPath id="clip0_471_116">
      <rect width="33" height="33" fill="white"/>
    </clipPath>
  </defs>
</svg>
